<svg width="172" height="281" viewBox="0 0 172 281" fill="none" xmlns="http://www.w3.org/2000/svg">
<mask id="mask0_617_14976" style="mask-type:alpha" maskUnits="userSpaceOnUse" x="-180" y="-186" width="652" height="659">
<path d="M449.132 457.468L223.062 162.211C177.237 160.013 136.731 147.805 100.01 120.313C63.2897 92.8217 -4.12748 -61.6984 -19.1222 -105.033L-179.08 112.152L-99.9906 472.083L449.132 457.468Z" fill="black"/>
<path d="M471.773 25.4081L223.062 -185.161L-8.75898 -105.033C-1.55417 -60.7945 64.967 81.0751 100.01 109.049C135.053 137.023 183.13 151.063 227.89 148.306L471.773 25.4081Z" fill="black"/>
</mask>
<g mask="url(#mask0_617_14976)">
<path fill-rule="evenodd" clip-rule="evenodd" d="M126.92 48.2248C139.768 60.389 154.425 69.0427 170.637 70.3828C202.909 73.0504 231.499 61.2404 252.001 48.7884C262.255 42.5606 270.495 36.1667 276.172 31.3291C279.011 28.9101 281.21 26.8797 282.7 25.453C283.445 24.7396 284.013 24.177 284.395 23.7923C284.586 23.5999 284.731 23.4519 284.828 23.3518C284.877 23.3017 284.913 23.2636 284.938 23.2378L284.966 23.2085L284.973 23.2009L284.975 23.1989C284.975 23.1989 284.976 23.1981 284.641 22.8814C284.307 22.5647 284.306 22.5651 284.306 22.5651L284.305 22.5667L284.298 22.5733L284.272 22.6008C284.249 22.6253 284.213 22.6622 284.166 22.7111C284.071 22.8087 283.929 22.9541 283.74 23.1439C283.363 23.5234 282.801 24.0806 282.062 24.7884C280.583 26.2041 278.398 28.2224 275.574 30.6287C269.925 35.4418 261.725 41.8047 251.522 48.0017C231.11 60.3992 202.717 72.1105 170.713 69.4651C154.787 68.1487 140.318 59.6408 127.555 47.5566C114.793 35.474 103.77 19.8473 94.7418 4.36597C85.7153 -11.1125 78.6929 -26.4282 73.9267 -37.876C71.5439 -43.5993 69.7255 -48.3544 68.5032 -51.6778C67.8921 -53.3395 67.4299 -54.6432 67.1208 -55.531C66.9662 -55.9749 66.8499 -56.3148 66.7723 -56.5435C66.7335 -56.6578 66.7043 -56.7443 66.6849 -56.8021L66.6632 -56.8672L66.6565 -56.8873C66.6565 -56.8873 66.6561 -56.8885 66.2183 -56.744C65.7805 -56.5994 65.7807 -56.5989 65.781 -56.5978L65.7824 -56.5935L65.7881 -56.5765L65.8104 -56.5098C65.8301 -56.4509 65.8596 -56.3633 65.8988 -56.2479C65.9771 -56.017 66.0943 -55.6748 66.2497 -55.2286C66.5605 -54.3361 67.0244 -53.0274 67.6375 -51.3604C68.8637 -48.0265 70.6867 -43.2592 73.0751 -37.5225C77.8515 -26.0501 84.8916 -10.695 93.9448 4.82934C102.996 20.3509 114.07 36.0591 126.92 48.2248Z" fill="url(#paint0_linear_617_14976)"/>
<path fill-rule="evenodd" clip-rule="evenodd" d="M67.7124 -35.0223C73.0232 -22.324 80.8978 -5.17727 91.1529 12.614C100.128 28.1837 110.952 43.4418 123.249 55.48C135.544 67.5162 149.334 76.3552 164.241 79.0415C174.342 80.8626 183.929 81.5427 192.996 80.5855C216.649 78.0935 237.029 68.7717 251.472 60.595C257.714 57.0608 262.853 53.7375 266.663 51.2728C267.261 50.8863 267.826 50.5209 268.358 50.179C270.325 48.9139 271.816 47.9838 272.809 47.4951C273.318 47.2444 273.641 47.1391 273.813 47.1305C273.844 47.1289 273.86 47.1311 273.865 47.1321C273.86 47.1306 273.846 47.125 273.829 47.1094L274.54 47.1275C274.544 46.9442 274.503 46.7289 274.332 46.5704C274.166 46.4152 273.951 46.3859 273.776 46.3948C273.435 46.412 272.989 46.5851 272.483 46.8343C271.444 47.3455 269.915 48.3012 267.958 49.5598C267.425 49.9026 266.859 50.2687 266.261 50.6557C262.45 53.1204 257.33 56.4315 251.108 59.9542C236.709 68.1062 216.43 77.3758 192.919 79.8529C183.941 80.8007 174.427 80.1293 164.372 78.3165C149.664 75.666 136.001 66.9322 123.765 54.954C111.531 42.9777 100.746 27.7799 91.7924 12.2465C81.557 -5.51048 73.6958 -22.6276 68.3933 -35.3062C65.7422 -41.6451 63.7311 -46.8737 62.3829 -50.5168C61.7089 -52.3383 61.2006 -53.7634 60.861 -54.7327C60.6912 -55.2174 60.5636 -55.5881 60.4784 -55.8374C60.4359 -55.9621 60.404 -56.0564 60.3827 -56.1194L60.3514 -56.2125L60.3511 -56.2135C60.3511 -56.2135 60.351 -56.2138 60.0009 -56.0976C59.6509 -55.9814 59.651 -55.9809 59.651 -55.9809L59.6514 -55.9797L59.653 -55.975L59.6591 -55.9567L59.6834 -55.8844C59.705 -55.8205 59.7372 -55.7253 59.7801 -55.5997C59.8658 -55.3486 59.9941 -54.976 60.1646 -54.4894C60.5056 -53.5163 61.0153 -52.0872 61.6909 -50.2614C63.0421 -46.61 65.0569 -41.3718 67.7124 -35.0223Z" fill="url(#paint1_linear_617_14976)"/>
<path fill-rule="evenodd" clip-rule="evenodd" d="M64.6355 -34.7076C69.9616 -21.9137 77.885 -4.49158 88.274 14.0206C97.2533 30.0245 108.109 45.6686 120.382 58.1568C132.654 70.6429 146.363 79.9934 161.051 83.3732C171.121 85.6875 180.582 86.995 189.525 86.3691C212.576 84.7552 232.518 76.5002 246.664 69.4254C250.201 67.6565 253.377 65.961 256.148 64.4614C256.815 64.1008 257.457 63.7517 258.076 63.4157C260.031 62.3535 261.745 61.4226 263.203 60.6739C265.131 59.6837 266.577 59.0316 267.526 58.8091C268.011 58.6955 268.292 58.7131 268.435 58.781C268.495 58.8093 268.533 58.8475 268.561 58.9037C268.591 58.966 268.615 59.0666 268.611 59.2246L269.257 59.2412C269.262 59.0166 269.231 58.8045 269.141 58.6205C269.047 58.4301 268.9 58.2881 268.712 58.1986C268.357 58.0308 267.888 58.0623 267.378 58.1816C266.34 58.425 264.827 59.1154 262.908 60.1007C261.442 60.8532 259.719 61.7892 257.762 62.8525C257.144 63.1879 256.504 63.5358 255.841 63.8947C253.072 65.393 249.903 67.0848 246.375 68.8491C232.261 75.9075 212.408 84.1208 189.48 85.7261C180.628 86.3457 171.237 85.0527 161.196 82.7451C146.672 79.4031 133.068 70.1431 120.843 57.7054C108.621 45.2698 97.7981 29.6766 88.8372 13.7055C78.4636 -4.77932 70.5509 -22.1777 65.2316 -34.9551C62.5721 -41.3435 60.5611 -46.5762 59.2152 -50.2111C58.5423 -52.0285 58.0357 -53.4465 57.6974 -54.4097C57.5282 -54.8914 57.4012 -55.2593 57.3165 -55.5067C57.2741 -55.6303 57.2423 -55.7239 57.2212 -55.7864L57.1974 -55.8568L57.1916 -55.8743L57.1901 -55.8787L57.1898 -55.8797C57.1898 -55.8797 57.1897 -55.88 56.8835 -55.778C56.5773 -55.676 56.5774 -55.6755 56.5774 -55.6755L56.5778 -55.6744L56.5854 -55.6516L56.6096 -55.5801C56.631 -55.5168 56.663 -55.4225 56.7056 -55.2981C56.7909 -55.0492 56.9185 -54.6797 57.0882 -54.1964C57.4276 -53.2299 57.9355 -51.8085 58.6097 -49.9875C59.9582 -46.3455 61.9723 -41.1048 64.6355 -34.7076Z" fill="url(#paint2_linear_617_14976)"/>
<path d="M61.6165 -34.4184C66.9575 -21.5344 74.928 -3.83854 85.4466 15.4097C94.4256 31.8413 105.308 47.8709 117.554 60.8072C129.799 73.7417 143.42 83.5973 157.881 87.6567C116.78 72.7128 86.1177 22.433 61.6165 -34.4184Z" fill="url(#paint3_linear_617_14976)"/>
<path fill-rule="evenodd" clip-rule="evenodd" d="M58.4929 -34.0969C63.8516 -21.1192 71.8729 -3.14661 82.5237 16.8341C91.5136 33.7013 102.429 50.1308 114.656 63.5272C126.881 76.9217 140.429 87.2972 154.688 92.0342C164.687 95.3546 173.906 97.8934 182.595 97.9364C204.438 98.0427 223.502 91.9208 237.057 87.0574C238.642 86.4889 240.15 85.9382 241.577 85.4168C246.265 83.7043 250.086 82.3088 252.905 81.6426C254.75 81.2064 256.113 81.0972 256.997 81.379C257.428 81.5166 257.736 81.7447 257.937 82.0702C258.14 82.4001 258.248 82.853 258.232 83.4629L258.693 83.4747C258.71 82.8091 258.595 82.2589 258.329 81.8288C258.061 81.3943 257.655 81.1056 257.137 80.9404C256.122 80.6165 254.647 80.7577 252.798 81.1945C249.951 81.8677 246.092 83.2771 241.395 84.9927C239.973 85.5124 238.473 86.0601 236.901 86.6241C223.358 91.4834 204.357 97.5819 182.597 97.476C173.988 97.4334 164.829 94.9166 154.833 91.5973C140.678 86.8946 127.193 76.5801 114.997 63.2171C102.802 49.856 91.9077 33.4605 82.9308 16.6178C72.2885 -3.34694 64.2735 -21.3055 58.9192 -34.2724C56.2421 -40.7558 54.2303 -45.9912 52.8879 -49.6052C52.2166 -51.4122 51.7128 -52.8138 51.3769 -53.7635C51.2089 -54.2383 51.0829 -54.6001 50.9989 -54.8431C50.9569 -54.9646 50.9255 -55.0564 50.9045 -55.1178L50.8751 -55.2042L50.8736 -55.2084L50.8733 -55.2095C50.8733 -55.2095 50.8732 -55.2098 50.6547 -55.1362C50.4362 -55.0627 50.4364 -55.0622 50.4364 -55.0622L50.4368 -55.0611L50.4443 -55.039L50.4681 -54.9691C50.4892 -54.9073 50.5208 -54.815 50.563 -54.6929C50.6473 -54.4489 50.7737 -54.086 50.942 -53.6101C51.2788 -52.6583 51.7834 -51.2544 52.4555 -49.445C53.7997 -45.8264 55.8135 -40.5859 58.4929 -34.0969Z" fill="url(#paint4_linear_617_14976)"/>
<path fill-rule="evenodd" clip-rule="evenodd" d="M55.3855 -33.7708C60.7594 -20.7022 68.8277 -2.45423 79.6062 18.265C88.6023 35.5637 99.3915 52.8299 111.52 66.9045C123.646 80.9762 137.127 91.8757 151.51 96.411C153.879 97.1578 156.176 97.9337 158.415 98.6902C158.581 98.7463 158.747 98.8023 158.912 98.8582C161.308 99.6671 163.638 100.45 165.918 101.144C170.476 102.532 174.841 103.57 179.133 103.76C200.385 104.709 219.017 99.6513 232.276 95.8972C232.724 95.7705 233.165 95.6453 233.6 95.5219C239.62 93.814 244.425 92.451 247.772 92.1558C249.569 91.9972 250.893 92.1529 251.754 92.6835C252.589 93.1984 253.034 94.0996 252.996 95.5777L253.457 95.5897C253.498 94.007 253.015 92.92 251.996 92.2918C251.003 91.6792 249.55 91.5367 247.731 91.6971C244.339 91.9964 239.493 93.3714 233.501 95.0713C233.057 95.1972 232.607 95.325 232.151 95.4542C218.894 99.2075 200.325 104.245 179.153 103.3C174.919 103.112 170.597 102.087 166.052 100.703C163.78 100.012 161.456 99.2312 159.06 98.4221L158.562 98.2539C156.324 97.4976 154.023 96.7203 151.649 95.9719C137.382 91.4735 123.97 80.6458 111.87 66.6042C99.7718 52.5653 89.0015 35.3321 80.0154 18.0528C69.2444 -2.65204 61.1818 -20.8872 55.8121 -33.9457C53.1273 -40.4749 51.1157 -45.7097 49.7756 -49.3118C49.1055 -51.1128 48.6033 -52.5057 48.2686 -53.448C48.1013 -53.9192 47.9759 -54.2778 47.8924 -54.5184C47.8506 -54.6387 47.8193 -54.7295 47.7984 -54.7902L47.775 -54.8586L47.7692 -54.8757L47.7678 -54.8799L47.7674 -54.881C47.7674 -54.881 47.7673 -54.8813 47.549 -54.8073C47.3306 -54.7334 47.3308 -54.733 47.3308 -54.733L47.3311 -54.7319L47.3386 -54.71L47.3623 -54.6409C47.3833 -54.5797 47.4147 -54.4884 47.4567 -54.3676C47.5406 -54.1259 47.6664 -53.7664 47.834 -53.2942C48.1694 -52.3497 48.6724 -50.9547 49.3433 -49.1514C50.6851 -45.5449 52.6986 -40.3052 55.3855 -33.7708Z" fill="url(#paint5_linear_617_14976)"/>
<path d="M52.2785 -33.449C57.6675 -20.2889 65.7835 -1.76397 76.6922 19.6973C85.7023 37.4195 96.6805 54.655 108.866 68.9764C121.049 83.2956 134.45 94.7139 148.308 100.784C158.236 105.128 167.225 108.861 175.674 109.59C195.45 111.291 212.975 107.702 225.809 105.074C226.379 104.957 226.941 104.842 227.493 104.729C233.989 103.405 239.137 102.428 242.639 102.662C244.387 102.779 245.683 103.197 246.532 103.985C247.373 104.767 247.814 105.952 247.769 107.696L248.23 107.708C248.277 105.881 247.815 104.549 246.846 103.649C245.884 102.755 244.462 102.323 242.67 102.203C239.092 101.963 233.873 102.959 227.401 104.278C226.852 104.39 226.293 104.504 225.725 104.621C212.889 107.249 195.422 110.826 175.713 109.131C171.291 108.965 164.641 107.237 148.493 100.362C134.723 94.3308 121.376 82.9688 109.217 68.6783C97.06 54.3898 86.1007 37.186 77.1034 19.4889C66.2013 -1.95942 58.0904 -20.4727 52.7053 -33.6233C50.0127 -40.1986 48.0017 -45.433 46.6639 -49.0233C45.995 -50.8184 45.4945 -52.2024 45.1612 -53.1374C44.9946 -53.6049 44.8698 -53.9602 44.7867 -54.1985C44.7451 -54.3176 44.714 -54.4075 44.6933 -54.4675L44.67 -54.5351L44.6628 -54.5562L44.6624 -54.5572C44.6624 -54.5572 44.6623 -54.5575 44.4441 -54.4832C44.2259 -54.4089 44.226 -54.4085 44.226 -54.4085L44.2264 -54.4074L44.2279 -54.4031L44.2573 -54.3175C44.2782 -54.257 44.3095 -54.1666 44.3512 -54.047C44.4346 -53.8078 44.5598 -53.4516 44.7268 -52.983C45.0607 -52.046 45.5621 -50.6599 46.2317 -48.8627C47.5711 -45.2682 49.5839 -40.0292 52.2785 -33.449Z" fill="url(#paint6_linear_617_14976)"/>
<path fill-rule="evenodd" clip-rule="evenodd" d="M73.7762 21.1238C91.8122 57.4109 117.804 91.7237 145.117 105.155C155.009 110.018 163.883 114.341 172.209 115.417C189.987 117.723 205.966 115.684 218.188 114.124C219.757 113.924 221.264 113.731 222.705 113.557C229.053 112.79 234.084 112.379 237.499 113.162C239.199 113.552 240.473 114.232 241.312 115.289C242.15 116.345 242.579 117.808 242.527 119.814L242.988 119.826C243.042 117.75 242.599 116.169 241.673 115.003C240.748 113.837 239.365 113.117 237.602 112.713C234.093 111.909 228.977 112.335 222.649 113.1C221.206 113.275 219.697 113.467 218.127 113.667C205.904 115.227 189.984 117.258 172.268 114.961C164.034 113.896 155.234 109.615 145.321 104.742C118.148 91.3795 92.2132 57.1817 74.1893 20.9191L73.7762 21.1238Z" fill="url(#paint7_linear_617_14976)"/>
<path fill-rule="evenodd" clip-rule="evenodd" d="M46.0558 -32.8145C51.4814 -19.4716 59.6976 -0.392303 70.8607 22.556C88.9143 59.7079 115.001 94.8129 141.925 109.531C142.259 109.713 142.592 109.895 142.923 110.076C152.373 115.245 160.818 119.864 168.744 121.245C184.658 124.014 199.147 123.275 210.66 122.688C213.235 122.556 215.661 122.433 217.921 122.357C224.119 122.151 229.033 122.312 232.366 123.647C234.023 124.311 235.277 125.261 236.105 126.593C236.934 127.926 237.351 129.665 237.293 131.93L237.753 131.942C237.814 129.616 237.387 127.781 236.497 126.35C235.605 124.917 234.264 123.911 232.537 123.22C229.101 121.843 224.091 121.691 217.906 121.897C215.635 121.973 213.201 122.097 210.62 122.228C199.108 122.815 184.681 123.551 168.823 120.791C160.975 119.424 152.59 114.838 143.102 109.649C142.785 109.476 142.466 109.302 142.147 109.127C115.35 94.4787 89.316 59.4799 71.2756 22.3549C60.1174 -0.583132 51.9053 -19.6531 46.4831 -32.9877C43.772 -39.655 41.7584 -44.8885 40.4227 -48.4547C39.7548 -50.2378 39.2564 -51.6041 38.9251 -52.5244C38.7594 -52.9845 38.6355 -53.3332 38.5531 -53.5667C38.5118 -53.6835 38.481 -53.7714 38.4604 -53.8301L38.4316 -53.9127L38.4302 -53.9168L38.4298 -53.9178C38.4298 -53.9178 38.4298 -53.9181 38.2119 -53.8429C37.994 -53.7676 37.9941 -53.7672 37.9941 -53.7672L37.9945 -53.7662L37.9959 -53.7619L38.0251 -53.6783C38.0458 -53.6192 38.0768 -53.5308 38.1182 -53.4136C38.2009 -53.1792 38.3252 -52.8297 38.4911 -52.3686C38.8232 -51.4465 39.3222 -50.0784 39.9907 -48.2934C41.3279 -44.7234 43.343 -39.486 46.0558 -32.8145Z" fill="url(#paint8_linear_617_14976)"/>
<path fill-rule="evenodd" clip-rule="evenodd" d="M42.9422 -32.5012C48.3838 -19.0683 56.6471 0.287786 67.9349 23.9837C86.0265 61.9571 112.181 97.9052 138.727 113.898C139.444 114.33 140.154 114.759 140.859 115.185C149.805 120.591 157.78 125.411 165.27 127.068C179.457 130.201 192.534 130.529 203.275 130.798C206.83 130.888 210.129 130.97 213.127 131.146C219.175 131.501 223.974 132.232 227.227 134.121C228.847 135.061 230.08 136.286 230.894 137.895C231.71 139.506 232.113 141.518 232.048 144.041L232.509 144.053C232.576 141.475 232.164 139.383 231.306 137.687C230.446 135.988 229.145 134.701 227.459 133.722C224.1 131.773 219.199 131.041 213.155 130.687C210.133 130.509 206.819 130.426 203.254 130.337C192.518 130.067 179.509 129.741 165.37 126.618C157.958 124.978 150.048 120.199 141.074 114.777C140.378 114.356 139.675 113.931 138.966 113.504C112.534 97.5807 86.4292 61.7305 68.3513 23.7859C57.0679 0.0990779 48.8082 -19.2486 43.3697 -32.6738C40.6504 -39.3864 38.6364 -44.6184 37.3024 -48.1718C36.6354 -49.9485 36.1383 -51.3056 35.8081 -52.2183C35.643 -52.6746 35.5196 -53.0199 35.4375 -53.2509C35.3965 -53.3665 35.3658 -53.4534 35.3454 -53.5115L35.3224 -53.5768L35.3167 -53.5931L35.3153 -53.5972L35.3149 -53.5982C35.3149 -53.5982 35.3148 -53.5985 35.0971 -53.5227C34.8794 -53.447 34.8795 -53.4466 34.8795 -53.4466L34.8799 -53.4455L34.8813 -53.4413L34.9103 -53.3588C34.9309 -53.3003 34.9617 -53.2129 35.0029 -53.097C35.0853 -52.8651 35.209 -52.519 35.3744 -52.0618C35.7052 -51.1475 36.2029 -49.7887 36.8706 -48.0102C38.2059 -44.4532 40.2213 -39.2176 42.9422 -32.5012Z" fill="url(#paint9_linear_617_14976)"/>
<path fill-rule="evenodd" clip-rule="evenodd" d="M39.8477 -32.1823C45.307 -18.6596 53.6186 0.973719 65.029 25.4192C83.1543 64.2327 109.386 101.023 135.55 118.278C136.556 118.942 137.549 119.6 138.53 120.251C142.317 122.764 145.917 125.152 149.368 127.199C153.712 129.775 157.835 131.819 161.821 132.894C170.973 135.365 179.663 136.666 187.537 137.578C190.49 137.92 193.325 138.207 196.026 138.481C200.534 138.937 204.669 139.356 208.355 139.929C214.249 140.846 218.937 142.15 222.114 144.595C225.272 147.026 226.967 150.606 226.823 156.16L227.284 156.172C227.431 150.503 225.693 146.769 222.396 144.231C219.119 141.709 214.329 140.392 208.426 139.474C204.729 138.899 200.572 138.478 196.053 138.02C193.354 137.747 190.526 137.46 187.59 137.12C179.727 136.209 171.062 134.912 161.941 132.45C158.015 131.391 153.934 129.372 149.603 126.803C146.164 124.763 142.577 122.383 138.791 119.871C137.809 119.22 136.814 118.56 135.804 117.894C109.745 100.707 83.5579 64.0075 65.447 25.2247C54.0402 0.787145 45.7319 -18.8387 40.2754 -32.3545C37.5472 -39.1124 35.5319 -44.3427 34.1989 -47.8832C33.5324 -49.6534 33.0364 -51.0012 32.7071 -51.9062C32.5425 -52.3588 32.4195 -52.7006 32.3377 -52.9292C32.2969 -53.0435 32.2663 -53.1295 32.2459 -53.1868L32.2231 -53.2514L32.2174 -53.2675L32.216 -53.2715L32.2157 -53.2725C32.2157 -53.2725 32.2155 -53.2728 31.998 -53.1965C31.7805 -53.1202 31.7806 -53.1198 31.7806 -53.1198L31.781 -53.1188L31.7824 -53.1146L31.7882 -53.0983L31.8113 -53.0331C31.8318 -52.9754 31.8625 -52.889 31.9035 -52.7743C31.9855 -52.5449 32.1088 -52.2023 32.2737 -51.749C32.6036 -50.8424 33.1001 -49.493 33.7672 -47.7211C35.1015 -44.1774 37.1181 -38.9437 39.8477 -32.1823Z" fill="url(#paint10_linear_617_14976)"/>
<path fill-rule="evenodd" clip-rule="evenodd" d="M36.7467 -31.8783C42.2245 -18.2666 50.5853 1.64306 62.1186 26.8381C80.2715 66.4945 106.576 104.14 132.367 122.641C142.13 129.659 151.027 134.878 158.321 138.705C171.958 145.858 185.229 148.032 196.054 149.806C198.404 150.191 200.64 150.557 202.738 150.951C208.633 152.059 213.42 153.381 216.698 155.927C219.953 158.455 221.746 162.215 221.589 168.282L222.05 168.294C222.21 162.116 220.377 158.202 216.981 155.563C213.607 152.942 208.716 151.606 202.824 150.499C200.711 150.102 198.465 149.734 196.108 149.347C185.285 147.573 172.1 145.412 158.535 138.298C151.257 134.479 142.38 129.271 132.636 122.267C106.939 103.834 80.6761 66.2708 62.538 26.6467C51.0079 1.45853 42.6499 -18.4446 37.1746 -32.0499C34.4369 -38.8526 32.42 -44.0809 31.0875 -47.6081C30.4213 -49.3717 29.9263 -50.71 29.5978 -51.6073C29.4336 -52.056 29.311 -52.3943 29.2295 -52.6204C29.1888 -52.7335 29.1583 -52.8185 29.138 -52.8752L29.1082 -52.9588L29.1078 -52.9598C29.1078 -52.9598 29.1077 -52.9601 28.8904 -52.8832C28.6731 -52.8063 28.6732 -52.806 28.6732 -52.806L28.6736 -52.8049L28.6808 -52.7847L28.7037 -52.7204C28.7242 -52.6633 28.7547 -52.578 28.7956 -52.4645C28.8773 -52.2377 29.0002 -51.8986 29.1647 -51.4492C29.4937 -50.5505 29.9893 -49.2107 30.6561 -47.4456C31.9896 -43.9154 34.0078 -38.6841 36.7467 -31.8783Z" fill="url(#paint11_linear_617_14976)"/>
<path fill-rule="evenodd" clip-rule="evenodd" d="M33.6387 -31.5653C39.1326 -17.8599 47.5407 2.33181 59.198 28.2795C77.3824 68.7752 103.749 107.288 129.167 127.038C138.898 134.573 147.725 140.279 154.853 144.528C167.315 151.954 179.577 155.043 189.817 157.622C192.685 158.344 195.394 159.026 197.905 159.753C203.655 161.417 208.344 163.306 211.558 166.407C214.758 169.495 216.519 173.812 216.35 180.397L216.811 180.409C216.982 173.727 215.192 169.274 211.878 166.076C208.578 162.891 203.792 160.977 198.034 159.311C195.5 158.578 192.775 157.891 189.897 157.166C179.662 154.588 167.487 151.521 155.089 144.132C147.974 139.891 139.164 134.195 129.45 126.675C104.116 106.99 77.7879 68.5528 59.6188 28.0911C47.9641 2.14934 39.5585 -18.0366 34.0667 -31.7364C31.3209 -38.5863 29.3035 -43.8147 27.9727 -47.3302C27.3073 -49.088 26.8135 -50.4176 26.4862 -51.3075C26.3225 -51.7525 26.2004 -52.0876 26.1193 -52.3114C26.0787 -52.4233 26.0484 -52.5073 26.0282 -52.5633L26.0056 -52.6264L25.9986 -52.646L25.9982 -52.6469C25.9982 -52.6469 25.9981 -52.6472 25.7809 -52.5698C25.5638 -52.4925 25.564 -52.4921 25.564 -52.4921L25.5643 -52.4911L25.5657 -52.4871L25.5943 -52.4076C25.6146 -52.3512 25.645 -52.2668 25.6857 -52.1546C25.7671 -51.9302 25.8894 -51.5945 26.0533 -51.1488C26.3811 -50.2575 26.8754 -48.9266 27.5413 -47.1674C28.8732 -43.6491 30.8916 -38.418 33.6387 -31.5653Z" fill="url(#paint12_linear_617_14976)"/>
<path fill-rule="evenodd" clip-rule="evenodd" d="M30.535 -31.2434C36.0498 -17.4553 44.5083 3.0081 56.2838 29.7114C74.5081 71.0289 100.926 110.436 125.987 131.396C135.66 139.493 144.429 145.685 151.391 150.35C162.751 157.955 174.044 161.828 183.685 165.134C187.045 166.286 190.204 167.369 193.095 168.517C198.7 170.743 203.291 173.209 206.438 176.876C209.578 180.534 211.301 185.413 211.117 192.512L211.578 192.524C211.764 185.338 210.018 180.34 206.788 176.576C203.566 172.822 198.888 170.322 193.266 168.089C190.343 166.929 187.164 165.838 183.79 164.682C174.16 161.379 162.953 157.536 151.648 149.968C144.695 145.308 135.94 139.126 126.283 131.043C101.297 110.145 74.9147 70.8083 56.7058 29.5258C44.9325 2.82753 36.4761 -17.6309 30.9632 -31.4142C28.2068 -38.3059 26.1863 -43.5287 24.8549 -47.0283C24.1893 -48.7782 23.6959 -50.0972 23.369 -50.9786C23.2056 -51.4193 23.0838 -51.7506 23.0028 -51.9717C22.9624 -52.0822 22.9321 -52.1652 22.912 -52.2205L22.8838 -52.2981L22.8824 -52.302L22.882 -52.3029C22.882 -52.3029 22.882 -52.3032 22.6651 -52.2251C22.4482 -52.1469 22.4483 -52.1465 22.4483 -52.1465L22.4487 -52.1455L22.4501 -52.1416L22.4558 -52.1259L22.4786 -52.0632C22.4988 -52.0076 22.5292 -51.9244 22.5697 -51.8136C22.6509 -51.5919 22.7729 -51.26 22.9366 -50.8187C23.2639 -49.9361 23.7578 -48.6159 24.4239 -46.8648C25.7561 -43.3628 27.7776 -38.1375 30.535 -31.2434Z" fill="url(#paint13_linear_617_14976)"/>
<path fill-rule="evenodd" clip-rule="evenodd" d="M27.4265 -30.9256C32.9621 -17.0541 41.4715 3.68119 53.3671 31.1382C71.633 73.2729 98.0948 113.591 122.806 135.774C124.568 137.357 126.28 138.923 127.947 140.448C130.826 143.083 133.57 145.593 136.199 147.85C140.352 151.413 144.242 154.363 147.972 156.192C155.039 159.665 161.858 162.485 168.178 165.099C169.009 165.443 169.831 165.783 170.644 166.12C177.646 169.026 183.962 171.741 189.252 174.918C194.541 178.094 198.791 181.723 201.673 186.45C204.553 191.175 206.077 197.015 205.88 204.632L206.341 204.644C206.54 196.956 205.002 191.025 202.067 186.211C199.133 181.399 194.816 177.722 189.49 174.524C184.166 171.327 177.82 168.6 170.821 165.695C170.008 165.357 169.185 165.017 168.354 164.673C162.033 162.059 155.228 159.245 148.175 155.779C144.5 153.976 140.646 151.058 136.5 147.501C133.875 145.248 131.142 142.747 128.267 140.117C126.599 138.591 124.884 137.021 123.114 135.431C98.4694 113.308 72.0407 73.0542 53.7904 30.9554C41.8965 3.50247 33.3888 -17.2287 27.8548 -31.0961C25.0878 -38.0298 23.0643 -43.2475 21.7325 -46.7316C21.0667 -48.4736 20.5738 -49.7822 20.2474 -50.6552C20.0842 -51.0917 19.9626 -51.4193 19.8819 -51.6377C19.8415 -51.7469 19.8113 -51.8288 19.7913 -51.8833L19.7617 -51.9638L19.7614 -51.9647C19.7614 -51.9647 19.7613 -51.965 19.5447 -51.8861C19.3281 -51.8071 19.3282 -51.8068 19.3282 -51.8068L19.3286 -51.8058L19.3357 -51.7864L19.3584 -51.7247C19.3786 -51.6698 19.4088 -51.5877 19.4493 -51.4782C19.5302 -51.2593 19.652 -50.9312 19.8153 -50.4942C20.1421 -49.6202 20.6354 -48.3105 21.3017 -46.5674C22.6342 -43.0813 24.6586 -37.8614 27.4265 -30.9256Z" fill="url(#paint14_linear_617_14976)"/>
<path fill-rule="evenodd" clip-rule="evenodd" d="M24.33 -30.6253C29.8827 -16.6616 38.4388 4.35553 50.453 32.5709C68.7528 75.5504 95.2624 116.762 119.613 140.142C121.534 141.986 123.393 143.809 125.196 145.577C127.883 148.212 130.446 150.725 132.902 153.004C137.008 156.811 140.839 159.986 144.503 162.014C150.394 165.278 156.12 168.109 161.518 170.778C163.189 171.604 164.829 172.415 166.432 173.218C173.218 176.617 179.352 179.881 184.494 183.626C189.634 187.37 193.774 191.59 196.578 196.898C199.382 202.204 200.859 208.613 200.646 216.748L201.107 216.76C201.321 208.561 199.833 202.071 196.986 196.683C194.14 191.296 189.944 187.026 184.766 183.254C179.59 179.484 173.426 176.206 166.639 172.806C165.031 172.001 163.389 171.189 161.716 170.362C156.321 167.695 150.608 164.87 144.727 161.612C141.114 159.612 137.317 156.469 133.216 152.666C130.763 150.391 128.21 147.887 125.527 145.256C123.724 143.488 121.862 141.662 119.933 139.81C95.6404 116.486 69.1615 75.3335 50.8773 32.3907C38.8646 4.1787 30.3099 -16.835 24.7586 -30.7953C21.9829 -37.7754 19.9581 -42.9922 18.6272 -46.4637C17.9618 -48.1994 17.4699 -49.4988 17.1444 -50.3642C16.9816 -50.7969 16.8605 -51.1211 16.78 -51.337C16.7398 -51.445 16.7098 -51.5259 16.6898 -51.5798L16.6674 -51.6404L16.6604 -51.6592L16.6601 -51.6602C16.6601 -51.6602 16.66 -51.6605 16.4436 -51.5809C16.2273 -51.5013 16.2274 -51.501 16.2274 -51.501L16.2277 -51.5L16.2292 -51.4962L16.2573 -51.42C16.2774 -51.3658 16.3075 -51.2847 16.3479 -51.1765C16.4285 -50.9601 16.5498 -50.6355 16.7127 -50.2023C17.0386 -49.336 17.5308 -48.0357 18.1966 -46.299C19.5281 -42.8257 21.5536 -37.6072 24.33 -30.6253Z" fill="url(#paint15_linear_617_14976)"/>
<path fill-rule="evenodd" clip-rule="evenodd" d="M21.2116 -30.2986C26.7846 -16.2472 35.3895 5.04745 47.5182 34.0221C65.8746 77.8039 92.4208 119.94 116.424 144.517C118.451 146.592 120.407 148.641 122.298 150.621C124.849 153.293 127.282 155.841 129.612 158.165C133.673 162.215 137.448 165.612 141.038 167.837C145.794 170.788 150.45 173.476 154.906 176.048C157.414 177.496 159.858 178.907 162.221 180.308C168.79 184.201 174.74 188.018 179.732 192.338C184.722 196.655 188.75 201.471 191.476 207.36C194.202 213.249 195.633 220.222 195.409 228.863L195.87 228.875C196.095 220.175 194.655 213.129 191.895 207.167C189.135 201.205 185.061 196.339 180.034 191.99C175.01 187.642 169.03 183.808 162.456 179.912C160.084 178.506 157.636 177.092 155.126 175.643C150.675 173.074 146.032 170.393 141.281 167.446C137.738 165.25 133.995 161.885 129.938 157.839C127.609 155.516 125.185 152.977 122.64 150.312C120.748 148.331 118.79 146.28 116.755 144.196C92.8022 119.671 66.2845 77.5891 47.9436 33.8445C35.8161 4.8724 27.2122 -16.4195 21.6403 -30.4681C18.8544 -37.4924 16.8264 -42.7058 15.4951 -46.163C14.8294 -47.8916 14.3379 -49.1811 14.0128 -50.0384C13.8502 -50.4671 13.7293 -50.7876 13.649 -51.001C13.6089 -51.1077 13.5789 -51.1876 13.559 -51.2408L13.531 -51.3154L13.5296 -51.3191L13.5293 -51.3201C13.5293 -51.3201 13.5292 -51.3203 13.3131 -51.2399C13.0971 -51.1596 13.0972 -51.1592 13.0972 -51.1592L13.0976 -51.1583L13.1271 -51.0794C13.147 -51.026 13.1771 -50.946 13.2173 -50.8391C13.2977 -50.6253 13.4188 -50.3044 13.5815 -49.8754C13.9069 -49.0173 14.3987 -47.7271 15.0647 -45.9978C16.3966 -42.5391 18.4251 -37.3243 21.2116 -30.2986Z" fill="url(#paint16_linear_617_14976)"/>
<path fill-rule="evenodd" clip-rule="evenodd" d="M18.1263 -30.0112C23.7186 -15.8731 32.3729 5.698 44.6212 35.4314C62.9991 80.0584 89.5743 123.127 113.238 148.888C115.367 151.206 117.415 153.491 119.39 155.694C121.807 158.389 124.113 160.962 126.321 163.321C130.337 167.613 134.054 171.231 137.575 173.661C141.276 176.215 144.912 178.621 148.438 180.953C158.573 187.658 167.791 193.756 174.984 201.025C184.657 210.801 190.648 222.682 190.173 240.984L190.634 240.996C191.112 222.561 185.068 210.561 175.312 200.702C168.083 193.396 158.806 187.259 148.658 180.546C145.14 178.218 141.516 175.821 137.837 173.282C134.36 170.883 130.67 167.295 126.658 163.007C124.449 160.647 122.151 158.084 119.74 155.394C117.766 153.192 115.716 150.906 113.578 148.577C89.959 122.864 63.4101 79.8457 45.0477 35.2562C32.8002 5.52473 24.1467 -16.0444 18.5552 -30.1803C15.7594 -37.2483 13.7291 -42.458 12.3979 -45.9005C11.7323 -47.6218 11.2414 -48.9013 10.9169 -49.7503C10.7547 -50.1749 10.6341 -50.4918 10.554 -50.7026C10.514 -50.808 10.4841 -50.8868 10.4643 -50.9393L10.442 -50.9983L10.4364 -51.013L10.4351 -51.0166L10.4347 -51.0175C10.4347 -51.0175 10.4346 -51.0178 10.2188 -50.9366C10.0031 -50.8555 10.0032 -50.8551 10.0032 -50.8551L10.0035 -50.8542L10.005 -50.8505L10.0105 -50.8357L10.033 -50.7765C10.0529 -50.7239 10.0828 -50.6449 10.1229 -50.5393C10.2031 -50.3283 10.3238 -50.011 10.4861 -49.5862C10.8108 -48.7365 11.3019 -47.4565 11.9678 -45.7346C13.2994 -42.291 15.3301 -37.0802 18.1263 -30.0112Z" fill="url(#paint17_linear_617_14976)"/>
<path fill-rule="evenodd" clip-rule="evenodd" d="M15.0266 -29.7058C20.6389 -15.4808 29.3421 6.36788 41.7062 36.8637C60.1255 82.3076 86.727 126.323 110.053 153.264C112.278 155.834 114.414 158.363 116.467 160.794C118.756 163.504 120.942 166.092 123.033 168.477C127.005 173.008 130.666 176.847 134.113 179.484C136.796 181.535 139.447 183.517 142.047 185.462C152.806 193.508 162.677 200.891 170.241 209.709C179.617 220.64 185.439 233.772 184.938 253.099L185.399 253.111C185.903 233.666 180.039 220.424 170.591 209.409C162.991 200.549 153.067 193.128 142.304 185.078C139.709 183.138 137.065 181.161 134.393 179.118C130.985 176.511 127.349 172.702 123.38 168.173C121.286 165.785 119.108 163.206 116.826 160.503C114.775 158.075 112.639 155.546 110.402 152.963C87.1148 126.066 60.5376 82.0971 42.1336 36.691C29.77 6.19635 21.0673 -15.651 15.4556 -29.8745C12.6498 -36.9863 10.6167 -42.1921 9.28509 -45.6198C8.61931 -47.3337 8.12889 -48.6031 7.80492 -49.4439C7.64295 -49.8643 7.52255 -50.1776 7.4427 -50.3858L7.32403 -50.6957L7.32367 -50.6965C7.32367 -50.6965 7.32355 -50.6968 7.10815 -50.6148C6.89272 -50.5328 6.89281 -50.5324 6.89281 -50.5324L6.89317 -50.5315L7.01214 -50.221C7.09204 -50.0127 7.21246 -49.6992 7.37454 -49.2786C7.69864 -48.4373 8.18922 -47.1676 8.85516 -45.4533C10.1871 -42.0248 12.2205 -36.8182 15.0266 -29.7058Z" fill="url(#paint18_linear_617_14976)"/>
<path fill-rule="evenodd" clip-rule="evenodd" d="M11.9334 -29.3994C17.5657 -15.0881 26.3173 7.03798 38.7943 38.2977C57.2636 84.5615 83.8755 129.527 106.873 157.637C109.181 160.461 111.386 163.228 113.499 165.88L113.591 165.995C115.732 168.682 117.779 171.25 119.744 173.637C123.671 178.408 127.278 182.465 130.655 185.302C132.365 186.745 134.064 188.166 135.744 189.571C147.078 199.046 157.595 207.839 165.508 218.381C174.585 230.472 180.234 244.863 179.707 265.217L180.168 265.228C180.698 244.768 175.015 230.276 165.877 218.104C157.929 207.517 147.367 198.686 136.038 189.215C134.357 187.81 132.66 186.391 130.952 184.95C127.61 182.142 124.026 178.113 120.1 173.344C118.138 170.961 116.093 168.396 113.952 165.708L113.857 165.59C111.745 162.939 109.539 160.171 107.23 157.346C84.2662 129.277 57.6769 84.3534 39.2227 38.1273C26.7459 6.86813 17.9946 -15.2573 12.3625 -29.5678C9.54647 -36.723 7.51025 -41.9246 6.17804 -45.3372C5.51193 -47.0436 5.02185 -48.3027 4.69831 -49.1352C4.5365 -49.5514 4.41639 -49.861 4.3367 -50.0666L4.2196 -50.3687L4.21821 -50.3723L4.21788 -50.3732C4.21788 -50.3732 4.21776 -50.3735 4.00269 -50.2905C3.78759 -50.2076 3.78771 -50.2072 3.78771 -50.2072L3.78808 -50.2063L3.90665 -49.9003C3.98638 -49.6947 4.1066 -49.385 4.26839 -48.9686C4.59204 -48.1359 5.08224 -46.8766 5.74842 -45.17C7.08077 -41.7569 9.11715 -36.555 11.9334 -29.3994Z" fill="url(#paint19_linear_617_14976)"/>
<path fill-rule="evenodd" clip-rule="evenodd" d="M8.78675 -29.0805C14.4395 -14.6828 23.24 7.72086 35.831 39.7449C54.3452 86.8301 80.9744 132.758 103.646 162.039C105.975 165.046 108.197 167.987 110.323 170.802L110.498 171.033C112.56 173.764 114.532 176.376 116.423 178.812C120.309 183.819 123.86 188.097 127.159 191.156C127.956 191.896 128.75 192.633 129.542 193.366C153.989 216.022 175.497 235.954 174.422 277.334L174.975 277.349C176.057 235.716 154.379 215.628 129.946 192.987C129.145 192.245 128.342 191.5 127.535 190.752C124.273 187.726 120.745 183.479 116.86 178.474C114.972 176.041 113.002 173.432 110.94 170.701L110.765 170.469C108.639 167.654 106.415 164.711 104.084 161.701C81.4466 132.464 54.8426 86.583 36.346 39.543C23.7551 7.51902 14.9547 -14.8846 9.30194 -29.2822C6.47559 -36.481 4.43615 -41.6783 3.1033 -45.0759C2.4369 -46.7747 1.94712 -48.0236 1.62395 -48.8477L1.1447 -50.0702L1.14437 -50.071C1.14437 -50.071 1.14425 -50.0713 0.886604 -49.9706C0.62896 -49.87 0.629049 -49.8697 0.629049 -49.8697L0.629378 -49.8688L1.1087 -48.6463C1.43187 -47.8221 1.92165 -46.5732 2.58808 -44.8744C3.92095 -41.4767 5.96039 -36.2794 8.78675 -29.0805Z" fill="url(#paint20_linear_617_14976)"/>
</g>
<defs>
<linearGradient id="paint0_linear_617_14976" x1="-41.5273" y1="278.329" x2="320.722" y2="88.6008" gradientUnits="userSpaceOnUse">
<stop stop-color="#CAA21F"/>
<stop offset="1" stop-color="#545454"/>
</linearGradient>
<linearGradient id="paint1_linear_617_14976" x1="-41.5273" y1="278.329" x2="320.722" y2="88.6008" gradientUnits="userSpaceOnUse">
<stop stop-color="#CAA21F"/>
<stop offset="1" stop-color="#545454"/>
</linearGradient>
<linearGradient id="paint2_linear_617_14976" x1="-41.5273" y1="278.329" x2="320.722" y2="88.6008" gradientUnits="userSpaceOnUse">
<stop stop-color="#CAA21F"/>
<stop offset="1" stop-color="#545454"/>
</linearGradient>
<linearGradient id="paint3_linear_617_14976" x1="-41.5273" y1="278.329" x2="320.722" y2="88.6008" gradientUnits="userSpaceOnUse">
<stop stop-color="#CAA21F"/>
<stop offset="1" stop-color="#545454"/>
</linearGradient>
<linearGradient id="paint4_linear_617_14976" x1="-41.5273" y1="278.329" x2="320.722" y2="88.6008" gradientUnits="userSpaceOnUse">
<stop stop-color="#CAA21F"/>
<stop offset="1" stop-color="#545454"/>
</linearGradient>
<linearGradient id="paint5_linear_617_14976" x1="-41.5273" y1="278.329" x2="320.722" y2="88.6008" gradientUnits="userSpaceOnUse">
<stop stop-color="#CAA21F"/>
<stop offset="1" stop-color="#545454"/>
</linearGradient>
<linearGradient id="paint6_linear_617_14976" x1="-41.5273" y1="278.329" x2="320.722" y2="88.6008" gradientUnits="userSpaceOnUse">
<stop stop-color="#CAA21F"/>
<stop offset="1" stop-color="#545454"/>
</linearGradient>
<linearGradient id="paint7_linear_617_14976" x1="-41.5273" y1="278.329" x2="320.722" y2="88.6008" gradientUnits="userSpaceOnUse">
<stop stop-color="#CAA21F"/>
<stop offset="1" stop-color="#545454"/>
</linearGradient>
<linearGradient id="paint8_linear_617_14976" x1="-41.5273" y1="278.329" x2="320.722" y2="88.6008" gradientUnits="userSpaceOnUse">
<stop stop-color="#CAA21F"/>
<stop offset="1" stop-color="#545454"/>
</linearGradient>
<linearGradient id="paint9_linear_617_14976" x1="-41.5273" y1="278.329" x2="320.722" y2="88.6008" gradientUnits="userSpaceOnUse">
<stop stop-color="#CAA21F"/>
<stop offset="1" stop-color="#545454"/>
</linearGradient>
<linearGradient id="paint10_linear_617_14976" x1="-41.5273" y1="278.329" x2="320.722" y2="88.6008" gradientUnits="userSpaceOnUse">
<stop stop-color="#CAA21F"/>
<stop offset="1" stop-color="#545454"/>
</linearGradient>
<linearGradient id="paint11_linear_617_14976" x1="-41.5273" y1="278.329" x2="320.722" y2="88.6008" gradientUnits="userSpaceOnUse">
<stop stop-color="#CAA21F"/>
<stop offset="1" stop-color="#545454"/>
</linearGradient>
<linearGradient id="paint12_linear_617_14976" x1="-41.5273" y1="278.329" x2="320.722" y2="88.6008" gradientUnits="userSpaceOnUse">
<stop stop-color="#CAA21F"/>
<stop offset="1" stop-color="#545454"/>
</linearGradient>
<linearGradient id="paint13_linear_617_14976" x1="-41.5273" y1="278.329" x2="320.722" y2="88.6008" gradientUnits="userSpaceOnUse">
<stop stop-color="#CAA21F"/>
<stop offset="1" stop-color="#545454"/>
</linearGradient>
<linearGradient id="paint14_linear_617_14976" x1="-41.5273" y1="278.329" x2="320.722" y2="88.6008" gradientUnits="userSpaceOnUse">
<stop stop-color="#CAA21F"/>
<stop offset="1" stop-color="#545454"/>
</linearGradient>
<linearGradient id="paint15_linear_617_14976" x1="-41.5273" y1="278.329" x2="320.722" y2="88.6008" gradientUnits="userSpaceOnUse">
<stop stop-color="#CAA21F"/>
<stop offset="1" stop-color="#545454"/>
</linearGradient>
<linearGradient id="paint16_linear_617_14976" x1="-41.5273" y1="278.329" x2="320.722" y2="88.6008" gradientUnits="userSpaceOnUse">
<stop stop-color="#CAA21F"/>
<stop offset="1" stop-color="#545454"/>
</linearGradient>
<linearGradient id="paint17_linear_617_14976" x1="-41.5273" y1="278.329" x2="320.722" y2="88.6008" gradientUnits="userSpaceOnUse">
<stop stop-color="#CAA21F"/>
<stop offset="1" stop-color="#545454"/>
</linearGradient>
<linearGradient id="paint18_linear_617_14976" x1="-41.5273" y1="278.329" x2="320.722" y2="88.6008" gradientUnits="userSpaceOnUse">
<stop stop-color="#CAA21F"/>
<stop offset="1" stop-color="#545454"/>
</linearGradient>
<linearGradient id="paint19_linear_617_14976" x1="-41.5273" y1="278.329" x2="320.722" y2="88.6008" gradientUnits="userSpaceOnUse">
<stop stop-color="#CAA21F"/>
<stop offset="1" stop-color="#545454"/>
</linearGradient>
<linearGradient id="paint20_linear_617_14976" x1="-41.5273" y1="278.329" x2="320.722" y2="88.6008" gradientUnits="userSpaceOnUse">
<stop stop-color="#CAA21F"/>
<stop offset="1" stop-color="#545454"/>
</linearGradient>
</defs>
</svg>
