<svg width="393" height="619" viewBox="0 0 393 619" fill="none" xmlns="http://www.w3.org/2000/svg">
<mask id="mask0_486_8849" style="mask-type:alpha" maskUnits="userSpaceOnUse" x="-630" y="-394" width="1412" height="1429">
<path d="M-580.491 1002.28L-90.2186 361C9.16014 356.224 97.0059 329.709 176.641 270C256.275 210.29 402.481 -125.317 435 -219.437L781.896 252.275L610.377 1034.02L-580.491 1002.28Z" fill="black"/>
<path d="M-629.591 63.8725L-90.2186 -393.47L412.526 -219.437C396.901 -123.354 252.638 184.777 176.641 245.534C100.643 306.292 -3.61945 336.785 -100.69 330.798L-629.591 63.8725Z" fill="black"/>
</mask>
<g mask="url(#mask0_486_8849)">
<path fill-rule="evenodd" clip-rule="evenodd" d="M118.285 113.429C90.422 139.849 58.6362 158.644 23.4774 161.555C-46.5098 167.349 -108.513 141.698 -152.975 114.653C-175.213 101.127 -193.082 87.2399 -205.394 76.733C-211.551 71.4791 -216.319 67.0691 -219.551 63.9703C-221.166 62.4209 -222.398 61.1992 -223.227 60.3635C-223.641 59.9457 -223.955 59.6243 -224.166 59.4068C-224.271 59.298 -224.351 59.2152 -224.405 59.1593L-224.465 59.0956L-224.481 59.0791L-224.485 59.0747C-224.485 59.0747 -224.487 59.0729 -223.761 58.3851C-223.035 57.6973 -223.034 57.6981 -223.034 57.6981L-223.031 57.7015L-223.017 57.716L-222.96 57.7757C-222.909 57.829 -222.832 57.9091 -222.73 58.0151C-222.524 58.2272 -222.216 58.543 -221.807 58.9552C-220.989 59.7796 -219.769 60.9896 -218.166 62.527C-214.96 65.6017 -210.22 69.9854 -204.096 75.2118C-191.846 85.6653 -174.063 99.4852 -151.936 112.945C-107.668 139.871 -46.0936 165.307 23.3123 159.562C57.85 156.703 89.229 138.224 116.909 111.978C144.585 85.7353 168.49 51.7952 188.069 18.1709C207.645 -15.4473 222.874 -48.7119 233.211 -73.5756C238.378 -86.0062 242.321 -96.334 244.972 -103.552C246.298 -107.161 247.3 -109.993 247.97 -111.921C248.306 -112.885 248.558 -113.623 248.726 -114.12C248.81 -114.368 248.874 -114.556 248.916 -114.682L248.963 -114.823L248.977 -114.867C248.977 -114.867 248.978 -114.87 249.928 -114.556C250.877 -114.242 250.877 -114.24 250.876 -114.238L250.873 -114.229L250.861 -114.192L250.812 -114.047C250.769 -113.919 250.705 -113.729 250.621 -113.478C250.451 -112.977 250.197 -112.233 249.86 -111.264C249.185 -109.326 248.179 -106.483 246.85 -102.863C244.191 -95.6218 240.237 -85.2677 235.057 -72.8079C224.699 -47.8907 209.431 -14.5405 189.798 19.1773C170.168 52.8891 146.152 87.0062 118.285 113.429Z" fill="url(#paint0_linear_486_8849)"/>
<path fill-rule="evenodd" clip-rule="evenodd" d="M246.687 -67.3777C235.17 -39.7979 218.093 -2.55635 195.853 36.0849C176.389 69.9013 152.916 103.041 126.247 129.187C99.5832 155.329 69.6768 174.526 37.3485 180.361C15.4419 184.316 -5.34868 185.793 -25.0128 183.714C-76.3072 178.302 -120.505 158.056 -151.827 140.296C-165.365 132.62 -176.509 125.402 -184.773 120.049C-186.069 119.21 -187.294 118.416 -188.447 117.674C-192.713 114.926 -195.946 112.906 -198.1 111.844C-199.205 111.3 -199.905 111.071 -200.277 111.052C-200.346 111.049 -200.379 111.054 -200.39 111.056C-200.38 111.053 -200.35 111.04 -200.314 111.007L-201.853 111.046C-201.864 110.648 -201.774 110.18 -201.404 109.836C-201.043 109.499 -200.578 109.435 -200.197 109.454C-199.459 109.492 -198.491 109.868 -197.393 110.409C-195.14 111.519 -191.824 113.595 -187.581 116.329C-186.425 117.073 -185.197 117.868 -183.899 118.709C-175.635 124.062 -164.532 131.254 -151.038 138.905C-119.811 156.61 -75.8323 176.743 -24.845 182.123C-5.37412 184.182 15.258 182.724 37.0641 178.786C68.9619 173.03 98.5914 154.06 125.127 128.044C151.658 102.033 175.048 69.0242 194.466 35.2868C216.663 -3.28006 233.711 -40.4573 245.211 -67.9943C250.96 -81.762 255.322 -93.118 258.245 -101.031C259.707 -104.987 260.809 -108.082 261.546 -110.187C261.914 -111.24 262.191 -112.045 262.375 -112.587C262.468 -112.857 262.537 -113.062 262.583 -113.199L262.651 -113.401L262.652 -113.404C262.652 -113.404 262.652 -113.404 263.411 -113.152C264.17 -112.899 264.17 -112.898 264.17 -112.898L264.169 -112.896L264.166 -112.886L264.152 -112.846L264.1 -112.689C264.053 -112.55 263.983 -112.343 263.89 -112.07C263.704 -111.525 263.426 -110.716 263.056 -109.659C262.317 -107.545 261.211 -104.441 259.746 -100.476C256.816 -92.5452 252.446 -81.1684 246.687 -67.3777Z" fill="url(#paint1_linear_486_8849)"/>
<path fill-rule="evenodd" clip-rule="evenodd" d="M253.36 -66.6942C241.81 -38.9067 224.626 -1.06707 202.096 39.1401C182.623 73.8994 159.081 107.877 132.463 135.001C105.85 162.12 76.1197 182.428 44.2667 189.769C22.428 194.796 1.90919 197.635 -17.4844 196.276C-67.474 192.771 -110.721 174.841 -141.401 159.476C-149.072 155.634 -155.959 151.951 -161.968 148.694C-163.414 147.911 -164.807 147.153 -166.149 146.423C-170.389 144.116 -174.106 142.094 -177.268 140.468C-181.45 138.317 -184.585 136.901 -186.643 136.418C-187.695 136.171 -188.304 136.209 -188.614 136.356C-188.744 136.418 -188.827 136.501 -188.887 136.623C-188.953 136.758 -189.006 136.977 -188.997 137.32L-190.397 137.356C-190.409 136.868 -190.34 136.408 -190.145 136.008C-189.943 135.594 -189.624 135.286 -189.215 135.092C-188.446 134.727 -187.427 134.795 -186.323 135.055C-184.072 135.583 -180.789 137.083 -176.628 139.223C-173.45 140.857 -169.713 142.89 -165.468 145.2C-164.129 145.928 -162.74 146.684 -161.301 147.463C-155.297 150.717 -148.425 154.392 -140.774 158.224C-110.165 173.554 -67.1101 191.393 -17.3866 194.879C1.81067 196.225 22.1769 193.417 43.9524 188.405C75.4486 181.146 104.953 161.034 131.464 134.02C157.97 107.011 181.441 73.1439 200.874 38.4557C223.372 -1.69203 240.532 -39.4802 252.067 -67.2317C257.835 -81.1069 262.196 -92.4718 265.115 -100.367C266.574 -104.314 267.673 -107.394 268.407 -109.486C268.774 -110.532 269.049 -111.331 269.233 -111.868C269.325 -112.137 269.394 -112.34 269.439 -112.476L269.491 -112.629L269.504 -112.667L269.507 -112.676L269.508 -112.679C269.508 -112.679 269.508 -112.679 270.172 -112.458C270.836 -112.236 270.836 -112.235 270.836 -112.235L270.835 -112.232L270.818 -112.183L270.766 -112.028C270.719 -111.89 270.65 -111.686 270.557 -111.415C270.373 -110.875 270.096 -110.072 269.728 -109.022C268.992 -106.923 267.89 -103.836 266.428 -99.8811C263.504 -91.9709 259.136 -80.5885 253.36 -66.6942Z" fill="url(#paint2_linear_486_8849)"/>
<path d="M259.907 -66.0661C248.325 -38.0829 231.039 0.351273 208.228 42.157C188.755 77.8454 165.156 112.661 138.597 140.757C112.042 168.85 82.5013 190.256 51.1409 199.072C140.275 166.615 206.772 57.4112 259.907 -66.0661Z" fill="url(#paint3_linear_486_8849)"/>
<path fill-rule="evenodd" clip-rule="evenodd" d="M266.681 -65.3678C255.06 -37.1811 237.665 1.85411 214.566 45.2509C195.07 81.8851 171.398 117.569 144.882 146.665C118.37 175.757 88.9882 198.292 58.0664 208.58C36.3811 215.792 16.388 221.306 -2.45505 221.399C-49.8267 221.63 -91.1704 208.334 -120.567 197.771C-124.003 196.536 -127.273 195.34 -130.368 194.208C-140.536 190.488 -148.821 187.457 -154.934 186.01C-158.936 185.063 -161.893 184.826 -163.809 185.438C-164.744 185.737 -165.412 186.232 -165.848 186.939C-166.289 187.655 -166.522 188.639 -166.488 189.964L-167.488 189.99C-167.525 188.544 -167.274 187.349 -166.699 186.415C-166.118 185.471 -165.236 184.844 -164.113 184.485C-161.911 183.782 -158.712 184.088 -154.704 185.037C-148.528 186.499 -140.16 189.56 -129.975 193.286C-126.889 194.415 -123.637 195.605 -120.229 196.83C-90.8571 207.384 -49.6496 220.629 -2.46004 220.399C16.211 220.307 36.0727 214.841 57.7506 207.631C88.4489 197.417 117.693 175.015 144.143 145.991C170.589 116.972 194.216 81.3622 213.684 44.7811C236.763 1.41901 254.145 -37.5857 265.757 -65.749C271.563 -79.8305 275.926 -91.2012 278.837 -99.0506C280.293 -102.975 281.385 -106.02 282.114 -108.082C282.478 -109.113 282.751 -109.899 282.933 -110.427C283.024 -110.691 283.093 -110.89 283.138 -111.024L283.202 -111.211L283.205 -111.221L283.206 -111.223C283.206 -111.223 283.206 -111.223 283.68 -111.064C284.154 -110.904 284.153 -110.903 284.153 -110.903L284.153 -110.901L284.136 -110.853L284.085 -110.701C284.039 -110.566 283.97 -110.366 283.879 -110.101C283.696 -109.571 283.422 -108.783 283.057 -107.749C282.327 -105.682 281.232 -102.633 279.775 -98.7028C276.86 -90.8433 272.492 -79.4614 266.681 -65.3678Z" fill="url(#paint4_linear_486_8849)"/>
<path fill-rule="evenodd" clip-rule="evenodd" d="M273.42 -64.6595C261.766 -36.2754 244.269 3.35792 220.894 48.3587C201.384 85.9301 177.986 123.431 151.683 154C125.385 184.563 96.1502 208.236 64.9577 218.086C59.82 219.708 54.8395 221.393 49.9834 223.036C49.6231 223.158 49.2635 223.28 48.9046 223.401C43.7099 225.158 38.6552 226.858 33.7119 228.365C23.8271 231.38 14.3609 233.634 5.0534 234.048C-41.0367 236.108 -81.4437 225.124 -110.199 216.97C-111.169 216.695 -112.126 216.423 -113.07 216.155C-126.125 212.446 -136.546 209.485 -143.803 208.844C-147.701 208.5 -150.573 208.838 -152.438 209.99C-154.249 211.109 -155.216 213.066 -155.132 216.276L-156.132 216.302C-156.221 212.865 -155.173 210.504 -152.964 209.14C-150.81 207.809 -147.659 207.5 -143.715 207.848C-136.358 208.498 -125.848 211.484 -112.855 215.176C-111.892 215.45 -110.916 215.728 -109.926 216.008C-81.1772 224.16 -40.9062 235.101 5.00868 233.049C14.1918 232.641 23.5643 230.414 33.4201 227.409C38.3471 225.907 43.3882 224.212 48.5841 222.454L49.6641 222.089C54.5186 220.446 59.5085 218.758 64.6565 217.133C95.5958 207.362 124.683 183.845 150.925 153.348C177.161 122.857 200.518 85.4273 220.006 47.8978C243.365 2.92828 260.85 -36.6773 272.495 -65.0393C278.318 -79.2202 282.68 -90.5899 285.586 -98.4134C287.04 -102.325 288.129 -105.35 288.855 -107.397C289.217 -108.42 289.489 -109.199 289.671 -109.722C289.761 -109.983 289.829 -110.18 289.874 -110.312L289.925 -110.461L289.938 -110.498L289.941 -110.507L289.942 -110.509C289.942 -110.509 289.942 -110.51 290.415 -110.349C290.889 -110.189 290.889 -110.188 290.889 -110.188L290.888 -110.185L290.872 -110.138L290.82 -109.988C290.775 -109.855 290.706 -109.657 290.615 -109.394C290.433 -108.869 290.161 -108.088 289.797 -107.063C289.07 -105.012 287.979 -101.982 286.524 -98.0652C283.614 -90.232 279.248 -78.8517 273.42 -64.6595Z" fill="url(#paint5_linear_486_8849)"/>
<path d="M280.159 -63.9606C268.472 -35.3777 250.871 4.85709 227.213 51.4694C207.673 89.9608 183.865 127.395 157.439 158.5C131.017 189.601 101.956 214.4 71.9028 227.583C50.3705 237.02 30.8771 245.128 12.5543 246.71C-30.335 250.404 -68.3399 242.609 -96.1717 236.901C-97.41 236.647 -98.6281 236.397 -99.8256 236.152C-113.913 233.276 -125.078 231.154 -132.672 231.664C-136.462 231.918 -139.273 232.824 -141.114 234.538C-142.938 236.236 -143.894 238.808 -143.798 242.597L-144.797 242.623C-144.898 238.654 -143.897 235.762 -141.795 233.806C-139.71 231.864 -136.626 230.927 -132.739 230.666C-124.979 230.145 -113.66 232.307 -99.6256 235.173C-98.434 235.416 -97.2223 235.665 -95.9909 235.917C-68.1531 241.626 -30.2731 249.395 12.4682 245.714C22.0592 245.352 36.4808 241.599 71.5011 226.668C101.363 213.568 130.308 188.891 156.677 157.853C183.042 126.819 206.809 89.4537 226.321 51.0168C249.965 4.43259 267.554 -35.7769 279.233 -64.3391C285.072 -78.6201 289.433 -89.989 292.335 -97.7868C293.785 -101.686 294.871 -104.692 295.594 -106.722C295.955 -107.738 296.226 -108.509 296.406 -109.027C296.496 -109.286 296.563 -109.481 296.608 -109.611L296.659 -109.758L296.675 -109.804L296.675 -109.806C296.675 -109.806 296.676 -109.807 297.149 -109.645C297.622 -109.484 297.622 -109.483 297.622 -109.483L297.621 -109.481L297.618 -109.471L297.554 -109.286C297.509 -109.154 297.441 -108.958 297.35 -108.698C297.169 -108.178 296.898 -107.405 296.536 -106.387C295.811 -104.352 294.724 -101.341 293.272 -97.438C290.367 -89.6311 286.002 -78.2522 280.159 -63.9606Z" fill="url(#paint6_linear_486_8849)"/>
<path fill-rule="evenodd" clip-rule="evenodd" d="M233.537 54.5678C194.423 133.381 138.056 207.906 78.8217 237.078C57.3684 247.64 38.1252 257.029 20.0682 259.367C-18.4874 264.374 -53.14 259.945 -79.6452 256.557C-83.0475 256.123 -86.3156 255.705 -89.4404 255.326C-103.208 253.659 -114.118 252.768 -121.525 254.469C-125.212 255.315 -127.974 256.793 -129.793 259.087C-131.611 261.38 -132.542 264.558 -132.429 268.916L-133.428 268.942C-133.546 264.433 -132.585 260.999 -130.577 258.466C-128.57 255.934 -125.57 254.371 -121.749 253.494C-114.139 251.746 -103.044 252.672 -89.3202 254.334C-86.1894 254.713 -82.9177 255.131 -79.5139 255.566C-53.0042 258.953 -18.48 263.365 19.9394 258.375C37.798 256.063 56.8814 246.765 78.3798 236.181C137.31 207.158 193.553 132.883 232.641 54.1232L233.537 54.5678Z" fill="url(#paint7_linear_486_8849)"/>
<path fill-rule="evenodd" clip-rule="evenodd" d="M293.653 -62.5825C281.887 -33.6026 264.069 7.83627 239.86 57.6783C200.707 138.37 144.134 214.615 85.7437 246.582C85.02 246.978 84.2989 247.373 83.5806 247.766C63.0862 258.992 44.7709 269.024 27.5826 272.023C-6.9291 278.039 -38.3509 276.433 -63.3197 275.158C-68.904 274.872 -74.1655 274.603 -79.0666 274.44C-92.5087 273.992 -103.165 274.341 -110.392 277.241C-113.986 278.683 -116.705 280.747 -118.501 283.639C-120.3 286.535 -121.204 290.311 -121.077 295.231L-122.076 295.257C-122.207 290.204 -121.281 286.219 -119.351 283.111C-117.418 279.999 -114.509 277.815 -110.764 276.313C-103.313 273.323 -92.4476 272.993 -79.0334 273.441C-74.1084 273.605 -68.8297 273.874 -63.2335 274.16C-38.2661 275.435 -6.97875 277.032 27.4108 271.038C44.4314 268.068 62.6152 258.109 83.1923 246.839C83.88 246.462 84.5703 246.084 85.2634 245.704C143.377 213.889 199.836 137.874 238.96 57.2415C263.158 7.4218 280.968 -33.9968 292.727 -62.9587C298.606 -77.4396 302.973 -88.8063 305.87 -96.5519C307.318 -100.425 308.399 -103.392 309.118 -105.391C309.477 -106.39 309.746 -107.148 309.925 -107.655C310.014 -107.908 310.081 -108.099 310.125 -108.227L310.188 -108.406L310.191 -108.415L310.192 -108.417C310.192 -108.417 310.192 -108.418 310.664 -108.255C311.137 -108.091 311.137 -108.09 311.137 -108.09L311.136 -108.088L311.133 -108.079L311.07 -107.897C311.025 -107.769 310.957 -107.577 310.868 -107.322C310.688 -106.813 310.419 -106.054 310.059 -105.053C309.339 -103.05 308.257 -100.078 306.807 -96.2015C303.907 -88.4478 299.537 -77.0724 293.653 -62.5825Z" fill="url(#paint8_linear_486_8849)"/>
<path fill-rule="evenodd" clip-rule="evenodd" d="M300.406 -61.9019C288.605 -32.7267 270.684 9.31337 246.205 60.7792C206.97 143.255 150.25 221.332 92.679 256.067C91.1248 257.005 89.5842 257.937 88.0566 258.862C68.6559 270.604 51.3605 281.072 35.1156 284.67C4.34875 291.476 -24.0093 292.188 -47.3046 292.773C-55.013 292.967 -62.1671 293.147 -68.6707 293.529C-81.7847 294.299 -92.1928 295.888 -99.2484 299.989C-102.761 302.03 -105.435 304.691 -107.201 308.186C-108.969 311.685 -109.844 316.055 -109.702 321.536L-110.702 321.562C-110.847 315.963 -109.956 311.419 -108.094 307.735C-106.229 304.045 -103.408 301.25 -99.751 299.124C-92.4674 294.891 -81.8373 293.3 -68.7294 292.53C-62.1766 292.146 -54.9891 291.965 -47.2579 291.771C-23.976 291.185 4.23707 290.476 34.8994 283.694C50.9749 280.133 68.129 269.752 87.5898 257.975C89.0999 257.061 90.6239 256.139 92.1623 255.211C149.483 220.627 206.097 142.763 245.302 60.3497C269.772 8.9035 287.684 -33.1183 299.479 -62.2769C305.376 -76.8562 309.744 -88.2197 312.637 -95.9375C314.083 -99.7964 315.161 -102.744 315.877 -104.726C316.235 -105.717 316.503 -106.467 316.681 -106.969C316.77 -107.22 316.837 -107.409 316.881 -107.535L316.931 -107.677L316.943 -107.712L316.946 -107.721L316.947 -107.723C316.947 -107.723 316.947 -107.724 317.419 -107.559C317.892 -107.395 317.891 -107.394 317.891 -107.394L317.89 -107.392L317.887 -107.383L317.824 -107.203C317.78 -107.076 317.713 -106.886 317.624 -106.635C317.445 -106.131 317.177 -105.379 316.818 -104.386C316.1 -102.4 315.021 -99.4491 313.573 -95.5864C310.677 -87.861 306.306 -76.4895 300.406 -61.9019Z" fill="url(#paint9_linear_486_8849)"/>
<path fill-rule="evenodd" clip-rule="evenodd" d="M307.117 -61.2094C295.277 -31.8391 277.252 10.8032 252.507 63.897C213.199 148.197 156.311 228.103 99.569 265.581C97.3871 267.021 95.2338 268.452 93.1078 269.865C84.8938 275.323 77.0865 280.51 69.6032 284.955C60.1821 290.551 51.2405 294.991 42.5972 297.325C22.7497 302.692 3.90283 305.516 -13.1732 307.497C-19.5779 308.24 -25.7258 308.864 -31.5827 309.458C-41.36 310.45 -50.326 311.36 -58.3201 312.605C-71.1035 314.595 -81.269 317.428 -88.1606 322.74C-95.0082 328.018 -98.6842 335.794 -98.3713 347.858L-99.371 347.884C-99.6904 335.571 -95.9222 327.459 -88.7711 321.948C-81.664 316.469 -71.2762 313.61 -58.474 311.617C-50.4577 310.368 -41.4426 309.453 -31.6413 308.459C-25.7889 307.865 -19.6563 307.243 -13.2885 306.504C3.76401 304.526 22.5562 301.708 42.3361 296.36C50.8497 294.061 59.7001 289.674 69.0924 284.095C76.5513 279.665 84.3306 274.496 92.5413 269.04C94.6705 267.626 96.8287 266.192 99.0178 264.746C155.533 227.418 212.324 147.708 251.6 63.4746C276.338 10.3979 294.356 -32.2281 306.189 -61.5834C312.106 -76.261 316.476 -87.6209 319.367 -95.3106C320.813 -99.1554 321.888 -102.083 322.602 -104.048C322.959 -105.031 323.226 -105.774 323.403 -106.27C323.492 -106.518 323.559 -106.705 323.603 -106.83L323.652 -106.97L323.664 -107.005L323.668 -107.014L323.668 -107.016C323.668 -107.016 323.669 -107.016 324.14 -106.851C324.612 -106.685 324.612 -106.684 324.612 -106.684L324.611 -106.682L324.608 -106.673L324.595 -106.637L324.545 -106.496C324.501 -106.37 324.434 -106.183 324.345 -105.934C324.167 -105.436 323.9 -104.691 323.542 -103.707C322.827 -101.738 321.75 -98.807 320.303 -94.9587C317.41 -87.2619 313.037 -75.8946 307.117 -61.2094Z" fill="url(#paint10_linear_486_8849)"/>
<path fill-rule="evenodd" clip-rule="evenodd" d="M313.842 -60.549C301.962 -30.9855 283.83 12.2569 258.819 66.9788C219.451 153.11 162.405 234.873 106.473 275.056C85.2993 290.298 66.0059 301.633 50.1875 309.946C20.6128 325.481 -8.16856 330.204 -31.6433 334.056C-36.7411 334.893 -41.5887 335.688 -46.1398 336.544C-58.9233 338.949 -69.3061 341.822 -76.4134 347.351C-83.4731 352.842 -87.3615 361.008 -87.0205 374.184L-88.0202 374.21C-88.3674 360.793 -84.3932 352.291 -77.0275 346.561C-69.7095 340.869 -59.1043 337.966 -46.3247 335.561C-41.7425 334.699 -36.8727 333.9 -31.7599 333.061C-8.28864 329.207 20.3051 324.513 49.7223 309.061C65.5054 300.767 84.7581 289.456 105.889 274.244C161.617 234.208 218.573 152.624 257.909 66.5631C282.914 11.8561 301.04 -31.372 312.914 -60.9219C318.851 -75.6969 323.225 -87.0522 326.115 -94.7131C327.56 -98.5436 328.633 -101.45 329.346 -103.399C329.702 -104.374 329.968 -105.108 330.144 -105.6C330.233 -105.845 330.299 -106.03 330.343 -106.153L330.407 -106.334L330.408 -106.337C330.408 -106.337 330.408 -106.337 330.88 -106.17C331.351 -106.003 331.351 -106.003 331.351 -106.003L331.35 -106L331.334 -105.956L331.284 -105.817C331.24 -105.693 331.174 -105.507 331.085 -105.261C330.908 -104.768 330.642 -104.032 330.285 -103.056C329.571 -101.104 328.496 -98.1938 327.05 -94.3602C324.158 -86.6928 319.782 -75.3308 313.842 -60.549Z" fill="url(#paint11_linear_486_8849)"/>
<path fill-rule="evenodd" clip-rule="evenodd" d="M320.582 -59.8692C308.668 -30.1021 290.433 13.7529 265.152 70.1094C225.716 158.063 168.536 241.71 113.413 284.607C92.3085 300.971 73.1667 313.364 57.7084 322.592C30.6824 338.723 4.08991 345.43 -18.1179 351.032C-24.3376 352.601 -30.2134 354.083 -35.6585 355.661C-48.1275 359.274 -58.2977 363.377 -65.2662 370.112C-72.2061 376.82 -76.0254 386.197 -75.6597 400.498L-76.6594 400.523C-77.0305 386.011 -73.1473 376.339 -65.9612 369.393C-58.8037 362.475 -48.4245 358.319 -35.9369 354.7C-30.4432 353.108 -24.5336 351.617 -18.2909 350.042C3.90458 344.442 30.3095 337.781 57.1958 321.734C72.6269 312.522 91.7329 300.151 112.799 283.818C167.741 241.062 224.837 157.58 264.24 69.7003C289.515 13.3565 307.744 -30.4859 319.654 -60.2409C325.609 -75.1184 329.984 -86.474 332.87 -94.1096C334.313 -97.9274 335.384 -100.815 336.094 -102.748C336.449 -103.715 336.713 -104.442 336.889 -104.928C336.977 -105.171 337.043 -105.354 337.087 -105.476L337.136 -105.612L337.151 -105.655L337.152 -105.657C337.152 -105.657 337.152 -105.658 337.623 -105.49C338.094 -105.322 338.094 -105.321 338.094 -105.321L338.093 -105.319L338.09 -105.31L338.028 -105.137C337.984 -105.015 337.918 -104.832 337.83 -104.588C337.653 -104.1 337.388 -103.371 337.032 -102.403C336.321 -100.467 335.25 -97.5767 333.805 -93.756C330.917 -86.1145 326.54 -74.7528 320.582 -59.8692Z" fill="url(#paint12_linear_486_8849)"/>
<path fill-rule="evenodd" clip-rule="evenodd" d="M327.313 -59.1702C315.353 -29.2233 297.01 15.2217 271.472 73.2194C231.95 162.958 174.657 248.547 120.309 294.071C99.3302 311.656 80.3136 325.106 65.2167 335.238C40.5799 351.756 16.0877 360.167 -4.82011 367.347C-12.1064 369.849 -18.9575 372.202 -25.2276 374.696C-37.3823 379.531 -47.3384 384.886 -54.1633 392.851C-60.972 400.796 -64.7099 411.393 -64.3101 426.811L-65.3098 426.837C-65.7144 411.23 -61.9271 400.373 -54.9227 392.2C-47.9345 384.045 -37.7896 378.617 -25.5973 373.767C-19.2593 371.245 -12.3635 368.877 -5.04795 366.365C15.8364 359.193 40.1418 350.846 64.6594 334.408C79.7379 324.288 98.7236 310.86 119.666 293.305C173.853 247.916 231.068 162.479 270.557 72.8164C296.09 14.8295 314.429 -29.6048 326.384 -59.5412C332.362 -74.5093 336.744 -85.853 339.631 -93.4539C341.075 -97.2544 342.145 -100.119 342.854 -102.034C343.208 -102.991 343.472 -103.71 343.648 -104.19C343.736 -104.431 343.801 -104.611 343.845 -104.731L343.906 -104.9L343.909 -104.908L343.91 -104.91C343.91 -104.91 343.91 -104.911 344.38 -104.741C344.851 -104.571 344.85 -104.57 344.85 -104.57L344.85 -104.568L344.846 -104.56L344.834 -104.525L344.785 -104.389C344.741 -104.269 344.675 -104.088 344.587 -103.847C344.411 -103.366 344.146 -102.645 343.792 -101.686C343.082 -99.7694 342.011 -96.9019 340.566 -93.0988C337.677 -85.4926 333.293 -74.1437 327.313 -59.1702Z" fill="url(#paint13_linear_486_8849)"/>
<path fill-rule="evenodd" clip-rule="evenodd" d="M334.054 -58.48C322.049 -28.352 303.595 16.6836 277.798 76.3184C238.185 167.832 180.798 255.401 127.208 303.579C123.387 307.018 119.674 310.42 116.059 313.732C109.814 319.455 103.864 324.907 98.1611 329.808C89.155 337.547 80.7189 343.953 72.6313 347.927C57.3052 355.47 42.5161 361.595 28.8092 367.272C27.0076 368.018 25.2248 368.756 23.4618 369.489C8.27621 375.802 -5.41955 381.699 -16.893 388.599C-28.3616 395.496 -37.58 403.379 -43.8293 413.645C-50.0757 423.906 -53.3807 436.591 -52.9527 453.135L-53.9524 453.161C-54.3844 436.463 -51.0482 423.581 -44.6835 413.125C-38.3216 402.674 -28.9592 394.689 -17.4085 387.742C-5.86267 380.798 7.89915 374.875 23.0779 368.566C24.8423 367.832 26.6261 367.094 28.428 366.347C42.1367 360.67 56.8948 354.558 72.1901 347.03C80.1596 343.114 88.5172 336.777 97.5093 329.049C103.202 324.157 109.13 318.725 115.365 313.012C118.982 309.698 122.702 306.289 126.539 302.836C179.985 254.786 237.301 167.357 276.88 75.9213C302.674 16.2954 321.124 -28.7312 333.125 -58.8502C339.126 -73.9097 343.515 -85.2423 346.403 -92.8094C347.847 -96.593 348.916 -99.4352 349.624 -101.331C349.977 -102.279 350.241 -102.991 350.416 -103.465C350.504 -103.702 350.569 -103.88 350.613 -103.999L350.677 -104.173L350.678 -104.175C350.678 -104.175 350.678 -104.176 351.147 -104.005C351.617 -103.833 351.617 -103.832 351.617 -103.832L351.616 -103.83L351.601 -103.788L351.552 -103.654C351.508 -103.535 351.442 -103.356 351.354 -103.119C351.179 -102.643 350.915 -101.931 350.561 -100.981C349.852 -99.0832 348.782 -96.2387 347.337 -92.4528C344.447 -84.8811 340.057 -73.544 334.054 -58.48Z" fill="url(#paint14_linear_486_8849)"/>
<path fill-rule="evenodd" clip-rule="evenodd" d="M340.77 -57.8278C328.728 -27.4995 310.172 18.1482 284.117 79.4299C244.431 172.779 186.94 262.287 134.131 313.067C129.966 317.072 125.934 321.031 122.025 324.871C116.196 330.595 110.638 336.053 105.311 341.001C96.4081 349.272 88.0992 356.167 80.1532 360.572C67.3778 367.661 54.9593 373.81 43.254 379.606C39.6296 381.4 36.0736 383.161 32.5966 384.905C17.8797 392.288 4.57714 399.376 -6.57401 407.512C-17.7203 415.643 -26.6996 424.809 -32.7812 436.336C-38.8618 447.861 -42.0639 461.781 -41.603 479.45L-42.6027 479.476C-43.0672 461.667 -39.8398 447.572 -33.6657 435.869C-27.4928 424.169 -18.3923 414.896 -7.16346 406.704C4.06055 398.515 17.4286 391.395 32.1481 384.011C35.6339 382.263 39.1955 380.499 42.8232 378.703C54.525 372.909 66.9148 366.775 79.6682 359.698C87.5029 355.354 95.7386 348.529 104.631 340.269C109.951 335.326 115.488 329.889 121.306 324.175C125.217 320.334 129.254 316.369 133.438 312.346C186.121 261.688 243.545 172.308 283.197 79.0386C309.249 17.7642 327.801 -27.8761 339.84 -58.1968C345.86 -73.3572 350.251 -84.6876 353.137 -92.2275C354.58 -95.9974 355.647 -98.8197 356.353 -100.699C356.706 -101.639 356.969 -102.343 357.143 -102.812C357.23 -103.047 357.295 -103.222 357.339 -103.339L357.387 -103.471L357.403 -103.512L357.403 -103.514C357.403 -103.514 357.404 -103.515 357.873 -103.342C358.342 -103.169 358.342 -103.168 358.342 -103.168L358.341 -103.166L358.338 -103.158L358.277 -102.992C358.233 -102.875 358.168 -102.698 358.08 -102.463C357.905 -101.993 357.642 -101.288 357.289 -100.348C356.582 -98.4661 355.515 -95.6418 354.071 -91.8699C351.183 -84.3262 346.791 -72.9919 340.77 -57.8278Z" fill="url(#paint15_linear_486_8849)"/>
<path fill-rule="evenodd" clip-rule="evenodd" d="M347.533 -57.1181C335.447 -26.5995 316.785 19.651 290.482 82.582C250.673 177.673 193.103 269.19 141.047 322.57C136.652 327.076 132.41 331.525 128.308 335.828C122.777 341.629 117.5 347.163 112.447 352.211C103.64 361.008 95.4544 368.386 87.6687 373.22C77.3538 379.627 67.2557 385.465 57.5919 391.053C52.1538 394.197 46.8532 397.262 41.7289 400.304C27.4838 408.76 14.5789 417.051 3.7529 426.432C-7.06897 435.81 -15.8045 446.27 -21.7166 459.06C-27.6284 471.849 -30.7299 486.996 -30.2452 505.763L-31.2449 505.789C-31.733 486.893 -28.6104 471.59 -22.6244 458.641C-16.6387 445.692 -7.80255 435.122 3.09795 425.677C13.9943 416.234 26.9625 407.906 41.2183 399.444C46.3631 396.39 51.6727 393.32 57.1147 390.174C66.7675 384.593 76.8368 378.771 87.1411 372.37C94.8236 367.6 102.942 360.292 111.74 351.504C116.791 346.459 122.048 340.944 127.568 335.155C131.67 330.853 135.916 326.399 140.331 321.872C192.276 268.605 249.784 177.206 289.559 82.1961C315.86 19.2708 334.519 -26.9738 346.603 -57.4863C352.645 -72.7425 357.042 -84.0658 359.93 -91.5745C361.373 -95.3289 362.439 -98.1296 363.144 -99.9916C363.497 -100.923 363.759 -101.619 363.933 -102.082C364.02 -102.314 364.085 -102.487 364.129 -102.603L364.189 -102.765L364.192 -102.773L364.193 -102.775C364.193 -102.775 364.193 -102.776 364.662 -102.601C365.13 -102.427 365.13 -102.426 365.13 -102.426L365.129 -102.424L365.065 -102.253C365.022 -102.137 364.957 -101.963 364.869 -101.731C364.695 -101.266 364.433 -100.569 364.08 -99.6374C363.374 -97.7739 362.307 -94.9715 360.863 -91.2156C357.975 -83.7037 353.576 -72.3774 347.533 -57.1181Z" fill="url(#paint16_linear_486_8849)"/>
<path fill-rule="evenodd" clip-rule="evenodd" d="M354.224 -56.4938C342.096 -25.787 323.327 21.064 296.765 85.6429C256.909 182.57 199.276 276.111 147.957 332.064C143.341 337.098 138.898 342.061 134.615 346.845C129.375 352.699 124.373 358.286 119.585 363.41C110.876 372.732 102.813 380.591 95.178 385.868C87.1525 391.415 79.2659 396.64 71.6197 401.706C49.6411 416.268 29.6484 429.514 14.0503 445.301C-6.92797 466.533 -19.9194 492.337 -18.8893 532.089L-19.889 532.114C-20.9266 492.076 -7.81966 466.013 13.3389 444.598C29.0159 428.731 49.134 415.402 71.1427 400.821C78.7731 395.766 86.6307 390.56 94.6094 385.045C102.151 379.833 110.152 372.042 118.854 362.728C123.644 357.602 128.627 352.035 133.856 346.194C138.137 341.412 142.582 336.446 147.22 331.388C198.442 275.541 256.018 182.108 295.84 85.2624C322.401 20.6877 341.167 -26.159 353.293 -56.8612C359.357 -72.2124 363.759 -83.5274 366.647 -91.0044C368.09 -94.7428 369.155 -97.5218 369.858 -99.3659C370.21 -100.288 370.472 -100.976 370.645 -101.434C370.732 -101.663 370.797 -101.834 370.84 -101.948L370.888 -102.076L370.9 -102.108L370.903 -102.116L370.904 -102.118C370.904 -102.118 370.904 -102.119 371.372 -101.942C371.84 -101.766 371.84 -101.765 371.84 -101.765L371.839 -101.763L371.836 -101.755L371.824 -101.723L371.775 -101.595C371.732 -101.48 371.667 -101.309 371.58 -101.08C371.406 -100.621 371.145 -99.9321 370.793 -99.0094C370.089 -97.164 369.023 -94.3838 367.579 -90.6441C364.691 -83.1647 360.288 -71.8473 354.224 -56.4938Z" fill="url(#paint17_linear_486_8849)"/>
<path fill-rule="evenodd" clip-rule="evenodd" d="M360.946 -55.8305C348.775 -24.9349 329.9 22.5189 303.086 88.7537C263.141 187.455 205.451 283.052 154.865 341.567C150.039 347.148 145.407 352.641 140.954 357.921C135.989 363.807 131.249 369.428 126.715 374.608C118.102 384.449 110.162 392.787 102.686 398.514C96.8675 402.969 91.1178 407.275 85.4806 411.498C62.1481 428.974 40.7399 445.009 24.3365 464.161C4.0025 487.902 -8.62431 516.425 -7.53737 558.403L-8.53707 558.428C-9.63064 516.194 3.08814 487.433 23.5769 463.511C40.0591 444.266 61.5803 428.148 84.9221 410.666C90.5499 406.451 96.2835 402.156 102.078 397.72C109.47 392.057 117.354 383.785 125.963 373.949C130.504 368.761 135.226 363.161 140.177 357.29C144.625 352.016 149.257 346.523 154.108 340.913C204.61 282.495 262.247 186.997 302.16 88.3785C328.972 22.1464 347.845 -25.3046 360.015 -56.1971C366.1 -71.6433 370.509 -82.9499 373.397 -90.3947C374.841 -94.1171 375.905 -96.8741 376.607 -98.7003C376.958 -99.6135 377.22 -100.294 377.393 -100.746L377.65 -101.419L377.651 -101.421C377.651 -101.421 377.651 -101.422 378.118 -101.243C378.586 -101.065 378.585 -101.065 378.585 -101.065L378.584 -101.063L378.327 -100.388C378.153 -99.9357 377.892 -99.2548 377.541 -98.3413C376.838 -96.5141 375.774 -93.7563 374.33 -90.0331C371.441 -82.5865 367.031 -71.2783 360.946 -55.8305Z" fill="url(#paint18_linear_486_8849)"/>
<path fill-rule="evenodd" clip-rule="evenodd" d="M367.654 -55.1651C355.439 -24.082 336.46 23.9743 309.401 91.8683C269.347 192.35 211.635 290.013 161.761 351.065C156.755 357.198 151.974 363.208 147.39 368.968L147.192 369.218C142.549 375.053 138.109 380.631 133.848 385.815C125.331 396.177 117.509 404.989 110.186 411.152C106.476 414.286 102.793 417.371 99.148 420.422C74.57 441.002 51.7612 460.101 34.5995 482.996C14.9152 509.256 2.66439 540.513 3.80743 584.72L2.80775 584.746C1.65871 540.308 13.9836 508.832 33.7993 482.396C51.0358 459.401 73.9434 440.221 98.5121 419.65C102.156 416.599 105.837 413.517 109.541 410.388C116.789 404.288 124.562 395.538 133.075 385.18C137.33 380.004 141.765 374.432 146.409 368.595L146.614 368.338C151.195 362.58 155.978 356.568 160.987 350.433C210.787 289.47 268.451 191.898 308.472 91.498C335.53 23.6054 354.509 -24.4494 366.723 -55.5308C372.83 -71.0716 377.246 -82.3689 380.135 -89.781C381.58 -93.487 382.643 -96.2217 383.344 -98.0298C383.695 -98.9339 383.956 -99.6063 384.129 -100.053L384.383 -100.709L384.386 -100.717L384.386 -100.719C384.386 -100.719 384.387 -100.719 384.853 -100.539C385.319 -100.359 385.319 -100.358 385.319 -100.358L385.318 -100.356L385.061 -99.6916C384.888 -99.245 384.628 -98.5723 384.277 -97.668C383.575 -95.8594 382.512 -93.1243 381.067 -89.4178C378.178 -82.0048 373.761 -70.7066 367.654 -55.1651Z" fill="url(#paint19_linear_486_8849)"/>
<path fill-rule="evenodd" clip-rule="evenodd" d="M374.478 -54.4726C362.219 -23.2018 343.134 25.4575 315.828 95.0116C275.676 197.277 217.926 297.029 168.759 360.626C163.707 367.157 158.889 373.543 154.279 379.658L153.9 380.161C149.428 386.092 145.151 391.765 141.051 397.056C132.623 407.93 124.921 417.222 117.768 423.867C116.04 425.474 114.316 427.073 112.6 428.666C59.581 477.874 12.9366 521.165 15.2698 611.039L14.0701 611.07C11.7227 520.648 58.7356 477.018 111.722 427.843C113.459 426.231 115.203 424.613 116.951 422.988C124.026 416.415 131.678 407.191 140.102 396.32C144.196 391.037 148.468 385.372 152.941 379.439L153.32 378.936C157.931 372.821 162.753 366.43 167.809 359.892C216.902 296.392 274.598 196.741 314.711 94.573C342.016 25.0191 361.102 -23.64 373.361 -54.9106C379.49 -70.5458 383.913 -81.834 386.803 -89.2133C388.249 -92.903 389.311 -95.6155 390.012 -97.4055L391.051 -100.061L391.052 -100.062C391.052 -100.062 391.052 -100.063 391.611 -99.8444C392.17 -99.6257 392.169 -99.6251 392.169 -99.6251L392.169 -99.6232L391.129 -96.9679C390.428 -95.1779 389.366 -92.4653 387.921 -88.7756C385.03 -81.3962 380.607 -70.1079 374.478 -54.4726Z" fill="url(#paint20_linear_486_8849)"/>
</g>
<defs>
<linearGradient id="paint0_linear_486_8849" x1="483.593" y1="613.2" x2="-302.515" y2="202.092" gradientUnits="userSpaceOnUse">
<stop stop-color="#CAA21F"/>
<stop offset="1" stop-color="#545454"/>
</linearGradient>
<linearGradient id="paint1_linear_486_8849" x1="483.593" y1="613.2" x2="-302.515" y2="202.092" gradientUnits="userSpaceOnUse">
<stop stop-color="#CAA21F"/>
<stop offset="1" stop-color="#545454"/>
</linearGradient>
<linearGradient id="paint2_linear_486_8849" x1="483.593" y1="613.2" x2="-302.515" y2="202.092" gradientUnits="userSpaceOnUse">
<stop stop-color="#CAA21F"/>
<stop offset="1" stop-color="#545454"/>
</linearGradient>
<linearGradient id="paint3_linear_486_8849" x1="483.593" y1="613.2" x2="-302.515" y2="202.092" gradientUnits="userSpaceOnUse">
<stop stop-color="#CAA21F"/>
<stop offset="1" stop-color="#545454"/>
</linearGradient>
<linearGradient id="paint4_linear_486_8849" x1="483.593" y1="613.2" x2="-302.515" y2="202.092" gradientUnits="userSpaceOnUse">
<stop stop-color="#CAA21F"/>
<stop offset="1" stop-color="#545454"/>
</linearGradient>
<linearGradient id="paint5_linear_486_8849" x1="483.593" y1="613.2" x2="-302.515" y2="202.092" gradientUnits="userSpaceOnUse">
<stop stop-color="#CAA21F"/>
<stop offset="1" stop-color="#545454"/>
</linearGradient>
<linearGradient id="paint6_linear_486_8849" x1="483.593" y1="613.2" x2="-302.515" y2="202.092" gradientUnits="userSpaceOnUse">
<stop stop-color="#CAA21F"/>
<stop offset="1" stop-color="#545454"/>
</linearGradient>
<linearGradient id="paint7_linear_486_8849" x1="483.593" y1="613.2" x2="-302.515" y2="202.092" gradientUnits="userSpaceOnUse">
<stop stop-color="#CAA21F"/>
<stop offset="1" stop-color="#545454"/>
</linearGradient>
<linearGradient id="paint8_linear_486_8849" x1="483.593" y1="613.2" x2="-302.515" y2="202.092" gradientUnits="userSpaceOnUse">
<stop stop-color="#CAA21F"/>
<stop offset="1" stop-color="#545454"/>
</linearGradient>
<linearGradient id="paint9_linear_486_8849" x1="483.593" y1="613.2" x2="-302.515" y2="202.092" gradientUnits="userSpaceOnUse">
<stop stop-color="#CAA21F"/>
<stop offset="1" stop-color="#545454"/>
</linearGradient>
<linearGradient id="paint10_linear_486_8849" x1="483.593" y1="613.2" x2="-302.515" y2="202.092" gradientUnits="userSpaceOnUse">
<stop stop-color="#CAA21F"/>
<stop offset="1" stop-color="#545454"/>
</linearGradient>
<linearGradient id="paint11_linear_486_8849" x1="483.593" y1="613.2" x2="-302.515" y2="202.092" gradientUnits="userSpaceOnUse">
<stop stop-color="#CAA21F"/>
<stop offset="1" stop-color="#545454"/>
</linearGradient>
<linearGradient id="paint12_linear_486_8849" x1="483.593" y1="613.2" x2="-302.515" y2="202.092" gradientUnits="userSpaceOnUse">
<stop stop-color="#CAA21F"/>
<stop offset="1" stop-color="#545454"/>
</linearGradient>
<linearGradient id="paint13_linear_486_8849" x1="483.593" y1="613.2" x2="-302.515" y2="202.092" gradientUnits="userSpaceOnUse">
<stop stop-color="#CAA21F"/>
<stop offset="1" stop-color="#545454"/>
</linearGradient>
<linearGradient id="paint14_linear_486_8849" x1="483.593" y1="613.2" x2="-302.515" y2="202.092" gradientUnits="userSpaceOnUse">
<stop stop-color="#CAA21F"/>
<stop offset="1" stop-color="#545454"/>
</linearGradient>
<linearGradient id="paint15_linear_486_8849" x1="483.593" y1="613.2" x2="-302.515" y2="202.092" gradientUnits="userSpaceOnUse">
<stop stop-color="#CAA21F"/>
<stop offset="1" stop-color="#545454"/>
</linearGradient>
<linearGradient id="paint16_linear_486_8849" x1="483.593" y1="613.2" x2="-302.515" y2="202.092" gradientUnits="userSpaceOnUse">
<stop stop-color="#CAA21F"/>
<stop offset="1" stop-color="#545454"/>
</linearGradient>
<linearGradient id="paint17_linear_486_8849" x1="483.593" y1="613.2" x2="-302.515" y2="202.092" gradientUnits="userSpaceOnUse">
<stop stop-color="#CAA21F"/>
<stop offset="1" stop-color="#545454"/>
</linearGradient>
<linearGradient id="paint18_linear_486_8849" x1="483.593" y1="613.2" x2="-302.515" y2="202.092" gradientUnits="userSpaceOnUse">
<stop stop-color="#CAA21F"/>
<stop offset="1" stop-color="#545454"/>
</linearGradient>
<linearGradient id="paint19_linear_486_8849" x1="483.593" y1="613.2" x2="-302.515" y2="202.092" gradientUnits="userSpaceOnUse">
<stop stop-color="#CAA21F"/>
<stop offset="1" stop-color="#545454"/>
</linearGradient>
<linearGradient id="paint20_linear_486_8849" x1="483.593" y1="613.2" x2="-302.515" y2="202.092" gradientUnits="userSpaceOnUse">
<stop stop-color="#CAA21F"/>
<stop offset="1" stop-color="#545454"/>
</linearGradient>
</defs>
</svg>
