<svg width="53" height="62" viewBox="0 0 53 62" fill="none" xmlns="http://www.w3.org/2000/svg">
<path d="M17.0403 13.8136H35.9597L26.5 5.0678L17.0403 13.8136Z" fill="#CAA21F"/>
<path fill-rule="evenodd" clip-rule="evenodd" d="M18.6855 28.4576H34.3145L35.9597 13.8136H17.0403L18.6855 28.4576ZM22.7984 24.3898V17.0678H30.6129V24.3898H22.7984Z" fill="#CAA21F"/>
<path fill-rule="evenodd" clip-rule="evenodd" d="M18.6855 42.6949V61H23.621V49.2034H29.379V61H34.3145V42.6949V33.9492V28.4576H18.6855V33.9492V42.6949ZM28.1452 35.5H24.8548V40.7881H28.1452V35.5Z" fill="#CAA21F"/>
<path d="M34.3145 42.6949H38.4274H46.8589H50.7661H52V39.2373L34.3145 33.9492V42.6949Z" fill="#CAA21F"/>
<path d="M34.3145 42.6949V61H38.4274V42.6949H34.3145Z" fill="#CAA21F"/>
<path d="M50.7661 61V42.6949H46.8589V61H50.7661Z" fill="#CAA21F"/>
<path d="M38.4274 42.6949V61H46.8589V42.6949H38.4274Z" fill="#CAA21F"/>
<path d="M18.6855 61V42.6949H14.7782V61H18.6855Z" fill="#CAA21F"/>
<path d="M6.14113 42.6949V61H14.7782V42.6949H6.14113Z" fill="#CAA21F"/>
<path d="M2.23387 42.6949V61H6.14113V42.6949H2.23387Z" fill="#CAA21F"/>
<path d="M1 39.2373V42.6949H2.23387H6.14113H14.7782H18.6855V33.9492L1 39.2373Z" fill="#CAA21F"/>
<path d="M18.6855 42.6949V61M18.6855 42.6949H14.7782M18.6855 42.6949V33.9492M18.6855 61H14.7782M18.6855 61H34.3145M2.23387 42.6949H1V39.2373L18.6855 33.9492M2.23387 42.6949V61H6.14113M2.23387 42.6949H6.14113M6.14113 42.6949V61M6.14113 42.6949H14.7782M6.14113 61H14.7782M14.7782 42.6949V61M50.7661 42.6949V61H46.8589M50.7661 42.6949H46.8589M50.7661 42.6949H52V39.2373L34.3145 33.9492M34.3145 61V42.6949M34.3145 61H38.4274M34.3145 42.6949H38.4274M34.3145 42.6949V33.9492M38.4274 42.6949V61M38.4274 42.6949H46.8589M38.4274 61H46.8589M46.8589 42.6949V61M18.6855 33.9492V28.4576M34.3145 33.9492V28.4576M18.6855 28.4576H34.3145M18.6855 28.4576L17.0403 13.8136M34.3145 28.4576L35.9597 13.8136M17.0403 13.8136H35.9597M17.0403 13.8136L26.5 5.0678M35.9597 13.8136L26.5 5.0678M26.5 5.0678V1M27 18.5L26.5 20.7288L28.5 22.5M22.7984 17.0678V24.3898H30.6129V17.0678H22.7984ZM24.8548 35.5H28.1452V40.7881H24.8548V35.5ZM23.621 49.2034H29.379V61H23.621V49.2034Z" stroke="#F1F1F1" stroke-linecap="round" stroke-linejoin="round"/>
</svg>
