<svg width="52" height="62" viewBox="0 0 52 62" fill="none" xmlns="http://www.w3.org/2000/svg">
<path d="M51.3448 26.3448C51.3448 36.0428 45.8979 44.4686 37.8965 48.7298C34.3491 50.619 30.2996 51.6897 26 51.6897C21.7004 51.6897 17.6508 50.619 14.1034 48.7298C6.10203 44.4686 0.655151 36.0428 0.655151 26.3448C0.655151 12.3473 12.0024 1 26 1C39.9975 1 51.3448 12.3473 51.3448 26.3448Z" fill="#CAA21F"/>
<path d="M26 51.6897C21.7004 51.6897 17.6508 50.619 14.1034 48.7298V61L26 55.8276L37.8965 61V48.7298C34.3491 50.619 30.2996 51.6897 26 51.6897Z" fill="#CAA21F"/>
<path d="M14.1034 48.7298C17.6508 50.619 21.7004 51.6897 26 51.6897C30.2996 51.6897 34.3491 50.619 37.8965 48.7298M14.1034 48.7298C6.10203 44.4686 0.655151 36.0428 0.655151 26.3448C0.655151 12.3473 12.0024 1 26 1C39.9975 1 51.3448 12.3473 51.3448 26.3448C51.3448 36.0428 45.8979 44.4686 37.8965 48.7298M14.1034 48.7298V61L26 55.8276L37.8965 61V48.7298" stroke="#F1F1F1" stroke-linecap="round" stroke-linejoin="round"/>
<path d="M43.0685 26.3444C43.0685 35.7713 35.4264 43.4133 25.9995 43.4133C16.5726 43.4133 8.93054 35.7713 8.93054 26.3444C8.93054 16.9174 16.5726 9.27539 25.9995 9.27539C35.4264 9.27539 43.0685 16.9174 43.0685 26.3444Z" fill="#CAA21F" stroke="#F1F1F1" stroke-linecap="round"/>
<path d="M20.3104 26.8625L23.9311 29.966L32.207 22.7246" stroke="#F1F1F1" stroke-linecap="round"/>
</svg>
