<svg width="65" height="62" viewBox="0 0 65 62" fill="none" xmlns="http://www.w3.org/2000/svg">
<path d="M1 19.0213C1 -6.02828 29.7487 -3.96377 32.5562 19.0213C35.3636 -3.96377 64 -6.02828 64 19.0213C64 31.056 51.9128 40.5269 32.8675 60.612C32.67 60.8203 32.33 60.8203 32.1325 60.612C13.0872 40.5269 1 31.056 1 19.0213Z" fill="#CAA21F"/>
<path d="M32.5562 19.0213C29.7487 -3.96377 1 -6.02828 1 19.0213C1 31.056 13.0872 40.5269 32.1325 60.612C32.33 60.8203 32.67 60.8203 32.8675 60.612C51.9128 40.5269 64 31.056 64 19.0213C64 -6.02828 35.3636 -3.96377 32.5562 19.0213ZM32.5562 19.0213V19.0664" stroke="#CAA21F" stroke-linecap="round"/>
<path d="M48.4229 6.70703C55.0485 7.94575 58.1929 13.5888 57.7437 19.2318" stroke="#F1F1F1" stroke-linecap="round"/>
</svg>
