<svg width="81" height="81" viewBox="0 0 81 81" fill="none" xmlns="http://www.w3.org/2000/svg">
<circle cx="40.4453" cy="40.9346" r="40" fill="#CAA21F"/>
<g clip-path="url(#clip0_172_2374)">
<path d="M40.3973 38.8718C46.186 38.8718 50.8659 34.1918 50.8659 28.4032C50.8659 22.6146 46.1859 17.9346 40.3973 17.9346C34.6087 17.9346 29.9287 22.6146 29.9287 28.4032C29.9287 34.1918 34.6087 38.8718 40.3973 38.8718ZM40.3973 19.166C45.5085 19.166 49.6344 23.2919 49.6344 28.4031C49.6344 33.5143 45.5085 37.6402 40.3973 37.6402C35.2861 37.6402 31.1602 33.5143 31.1602 28.4031C31.1602 23.2919 35.2861 19.166 40.3973 19.166Z" fill="#F1F1F1"/>
<path d="M21.0613 64.2433H59.734C60.1034 64.2433 60.35 63.9971 60.35 63.6273V56.8532C60.35 48.3549 53.453 41.458 44.9548 41.458L35.8405 41.4584C27.3422 41.4584 20.4453 48.3554 20.4453 56.8536V63.6277C20.4453 63.9971 20.6919 64.2433 21.0613 64.2433H21.0613ZM21.6773 56.9155C21.6773 49.0946 28.0201 42.7519 35.8408 42.7519H44.9547C52.7755 42.7519 59.1182 49.0947 59.1182 56.9155V63.0736H21.6771L21.6773 56.9155Z" fill="#F1F1F1"/>
</g>
<defs>
<clipPath id="clip0_172_2374">
<rect width="40" height="46.268" fill="white" transform="translate(20.4453 17.9346)"/>
</clipPath>
</defs>
</svg>
