<svg width="40" height="27" viewBox="0 0 40 27" fill="none" xmlns="http://www.w3.org/2000/svg">
<path fill-rule="evenodd" clip-rule="evenodd" d="M0 18.0001C0 22.9707 4.07003 27 9.09084 27C14.1116 27 18.1817 22.9707 18.1817 18.0001C18.1817 13.0904 14.209 9.10156 9.27329 9.00471C11.5685 6.77629 14.712 5.39997 18.1817 5.39997V0C8.14053 0 0 8.05914 0 17.9999V18.0001ZM40 0.000153643C29.9589 0.000153643 21.8183 8.05929 21.8183 18.0001C21.8183 22.9707 25.8887 27 30.9092 27C35.93 27 40 22.9707 40 18.0001C40 13.0904 36.0273 9.10156 31.0916 9.00471C33.3868 6.77629 36.5307 5.39997 40 5.39997V0.000153643Z" fill="#CAA21F"/>
</svg>
