<svg width="701" height="664" viewBox="0 0 701 664" fill="none" xmlns="http://www.w3.org/2000/svg">
<mask id="mask0_859_15123" style="mask-type:alpha" maskUnits="userSpaceOnUse" x="-496" y="-313" width="1521" height="1465">
<path d="M-276.356 1151.5L279.413 566.073C268.429 467.188 280.732 376.257 327.111 288.189C373.49 200.121 681.784 2.73097 769.584 -44.2486L248.993 -312.266L-495.837 -19.3986L-276.356 1151.5Z" fill="black"/>
<path d="M658.021 1051.73L1024.41 446.88L773.135 -22.0565C680.727 8.55171 399.257 199.682 351.269 284.324C303.281 368.965 289.642 476.736 310.889 571.642L658.021 1051.73Z" fill="black"/>
</mask>
<g mask="url(#mask0_859_15123)">
<path fill-rule="evenodd" clip-rule="evenodd" d="M490.935 321.076C469.249 352.763 455.711 387.119 458.391 422.296C463.727 492.32 498.851 549.492 532.58 589.123C549.45 608.945 565.986 624.396 578.306 634.893C584.466 640.143 589.574 644.154 593.145 646.856C594.93 648.206 596.331 649.229 597.287 649.916C597.765 650.259 598.132 650.518 598.38 650.692C598.504 650.779 598.598 650.844 598.662 650.888L598.735 650.938L598.753 650.951L598.758 650.955C598.758 650.955 598.761 650.956 599.325 650.131C599.889 649.305 599.889 649.305 599.889 649.305L599.885 649.302L599.868 649.291L599.8 649.244C599.74 649.202 599.648 649.138 599.527 649.054C599.285 648.884 598.925 648.63 598.453 648.291C597.51 647.614 596.123 646.601 594.351 645.261C590.809 642.58 585.731 638.593 579.603 633.371C567.345 622.927 550.89 607.55 534.103 587.827C500.522 548.369 465.677 491.586 460.386 422.144C457.752 387.589 471.042 353.684 492.585 322.206C514.126 290.731 543.863 261.764 573.972 237.119C604.075 212.478 634.516 192.185 657.435 178.05C668.893 170.984 678.468 165.458 685.177 161.7C688.531 159.822 691.169 158.385 692.967 157.418C693.866 156.935 694.555 156.569 695.019 156.324C695.251 156.202 695.426 156.11 695.544 156.048L695.676 155.98L695.717 155.958C695.717 155.958 695.719 155.957 695.259 155.069C694.799 154.181 694.798 154.182 694.796 154.183L694.787 154.187L694.753 154.205L694.617 154.276C694.498 154.338 694.32 154.432 694.086 154.555C693.617 154.802 692.924 155.17 692.02 155.656C690.212 156.628 687.564 158.071 684.199 159.956C677.469 163.725 667.87 169.265 656.385 176.348C633.417 190.513 602.898 210.857 572.705 235.571C542.518 260.281 512.623 289.385 490.935 321.076Z" fill="url(#paint0_linear_859_15123)"/>
<path fill-rule="evenodd" clip-rule="evenodd" d="M649.186 165.722C623.772 181.452 589.696 204.198 555.053 232.264C524.736 256.825 495.721 285.239 474.117 315.703C452.516 346.163 438.284 378.726 437.63 411.57C437.185 433.827 439.011 454.59 444.171 473.678C457.619 523.474 484.593 563.918 507.078 592.041C516.797 604.196 525.684 614.059 532.276 621.374C533.309 622.521 534.287 623.606 535.202 624.627C538.589 628.405 541.095 631.279 542.483 633.238C543.195 634.243 543.532 634.898 543.609 635.263C543.623 635.329 543.624 635.364 543.623 635.374C543.625 635.364 543.632 635.332 543.66 635.291L543.864 636.818C544.259 636.765 544.707 636.603 544.988 636.183C545.264 635.773 545.254 635.304 545.174 634.93C545.021 634.208 544.497 633.312 543.788 632.313C542.336 630.263 539.763 627.318 536.393 623.559C535.475 622.535 534.496 621.448 533.461 620.3C526.87 612.984 518.014 603.157 508.328 591.042C485.911 563.004 459.083 522.758 445.715 473.261C440.607 454.36 438.787 433.757 439.23 411.602C439.875 379.196 453.925 346.942 475.422 316.629C496.915 286.322 525.814 258.011 556.06 233.507C590.636 205.496 624.653 182.788 650.028 167.083C662.714 159.23 673.239 153.13 680.59 148.993C684.265 146.924 687.148 145.347 689.11 144.287C690.091 143.757 690.843 143.356 691.348 143.089C691.601 142.955 691.792 142.854 691.92 142.787L692.109 142.688L692.111 142.687C692.111 142.687 692.112 142.687 691.743 141.977C691.374 141.267 691.373 141.268 691.373 141.268L691.37 141.269L691.361 141.274L691.323 141.293L691.177 141.37C691.047 141.438 690.854 141.54 690.599 141.675C690.09 141.945 689.335 142.347 688.35 142.879C686.38 143.943 683.489 145.525 679.805 147.598C672.437 151.745 661.893 157.857 649.186 165.722Z" fill="url(#paint1_linear_859_15123)"/>
<path fill-rule="evenodd" clip-rule="evenodd" d="M647.456 159.241C621.843 175.036 587.193 197.982 551.05 226.581C519.804 251.301 489.972 279.915 467.394 310.484C444.82 341.048 429.463 373.613 427.247 406.225C425.734 428.584 426.171 449.294 430.578 468.229C441.936 517.037 466.473 556.909 486.493 584.776C491.498 591.743 496.223 597.962 500.388 603.381C501.39 604.685 502.359 605.941 503.291 607.15C506.239 610.973 508.823 614.324 510.928 617.19C513.712 620.979 515.606 623.851 516.409 625.807C516.818 626.806 516.877 627.414 516.78 627.743C516.74 627.881 516.671 627.977 516.56 628.055C516.437 628.142 516.23 628.228 515.889 628.274L516.075 629.661C516.558 629.597 517.002 629.456 517.366 629.2C517.742 628.935 517.997 628.571 518.124 628.136C518.363 627.32 518.134 626.325 517.704 625.276C516.826 623.136 514.827 620.132 512.056 616.361C509.94 613.481 507.343 610.112 504.391 606.285C503.461 605.078 502.495 603.825 501.498 602.528C497.336 597.113 492.622 590.908 487.63 583.959C467.656 556.156 443.239 516.46 431.941 467.912C427.579 449.168 427.135 428.614 428.644 406.32C430.835 374.073 446.034 341.761 468.52 311.316C491.003 280.876 520.736 252.349 551.919 227.679C588.008 199.122 622.611 176.208 648.191 160.433C660.981 152.545 671.514 146.443 678.849 142.314C682.516 140.249 685.384 138.678 687.334 137.623C688.309 137.096 689.054 136.697 689.556 136.431C689.806 136.298 689.996 136.198 690.123 136.131L690.266 136.056L690.301 136.037L690.31 136.033L690.312 136.032C690.312 136.032 690.313 136.031 689.989 135.411C689.665 134.79 689.665 134.79 689.665 134.79L689.662 134.792L689.616 134.816L689.471 134.892C689.342 134.96 689.151 135.06 688.899 135.194C688.394 135.462 687.646 135.862 686.667 136.392C684.711 137.45 681.836 139.025 678.162 141.094C670.813 145.232 660.264 151.343 647.456 159.241Z" fill="url(#paint2_linear_859_15123)"/>
<path d="M645.802 152.875C620 168.733 584.779 191.874 547.102 221.003C514.938 245.87 484.289 274.673 460.741 305.336C437.196 335.996 420.726 368.548 416.975 400.907C434.942 307.765 532.27 224.85 645.802 152.875Z" fill="url(#paint3_linear_859_15123)"/>
<path fill-rule="evenodd" clip-rule="evenodd" d="M644.042 146.296C618.045 162.225 582.249 185.569 543.046 215.233C509.952 240.272 478.456 269.284 453.914 300.064C429.376 330.839 411.766 363.412 406.492 395.571C402.797 418.123 400.511 438.736 403.395 457.357C410.651 504.171 430.312 542.895 445.387 570.253C447.149 573.451 448.846 576.491 450.454 579.368C455.733 588.821 460.035 596.523 462.429 602.331C463.997 606.133 464.698 609.015 464.396 611.003C464.249 611.975 463.865 612.712 463.236 613.254C462.598 613.803 461.664 614.189 460.351 614.364L460.483 615.355C461.916 615.164 463.057 614.728 463.888 614.012C464.728 613.289 465.208 612.319 465.385 611.154C465.732 608.868 464.924 605.758 463.354 601.95C460.934 596.082 456.59 588.303 451.301 578.834C449.699 575.966 448.011 572.943 446.263 569.77C431.201 542.435 411.611 503.838 404.384 457.204C401.525 438.753 403.785 418.277 407.479 395.733C412.715 363.806 430.216 331.39 454.696 300.687C479.173 269.989 510.603 241.033 543.649 216.03C582.821 186.39 618.589 163.064 644.565 147.149C657.552 139.192 668.091 133.087 675.382 128.972C679.027 126.915 681.86 125.355 683.782 124.31C684.743 123.787 685.476 123.393 685.968 123.13C686.214 122.998 686.4 122.899 686.525 122.833L686.7 122.741L686.709 122.736L686.711 122.735C686.711 122.735 686.711 122.735 686.479 122.292C686.246 121.85 686.245 121.85 686.245 121.85L686.243 121.851L686.198 121.875L686.056 121.95C685.931 122.016 685.744 122.116 685.497 122.248C685.002 122.512 684.267 122.907 683.304 123.431C681.378 124.479 678.54 126.041 674.89 128.101C667.59 132.221 657.041 138.332 644.042 146.296Z" fill="url(#paint4_linear_859_15123)"/>
<path fill-rule="evenodd" clip-rule="evenodd" d="M642.278 139.754C616.092 155.746 579.72 179.285 538.978 209.476C504.96 234.676 471.627 263.705 445.597 294.507C419.573 325.303 400.815 357.911 396.017 390.268C395.227 395.597 394.35 400.781 393.494 405.836C393.431 406.211 393.368 406.585 393.304 406.959C392.39 412.366 391.511 417.626 390.803 422.745C389.388 432.982 388.657 442.686 389.719 451.942C394.966 497.778 412.196 535.943 424.79 563.048C425.216 563.963 425.635 564.865 426.049 565.754C431.774 578.06 436.344 587.882 438.123 594.947C439.079 598.741 439.199 601.631 438.356 603.655C437.537 605.619 435.758 606.883 432.574 607.308L432.707 608.299C436.115 607.845 438.281 606.436 439.279 604.039C440.252 601.702 440.06 598.542 439.093 594.703C437.289 587.541 432.68 577.635 426.981 565.388C426.559 564.48 426.131 563.56 425.697 562.627C413.106 535.527 395.94 497.49 390.713 451.828C389.665 442.696 390.383 433.089 391.794 422.882C392.499 417.78 393.376 412.534 394.29 407.126L394.481 406.002C395.336 400.949 396.214 395.755 397.006 390.415C401.766 358.32 420.392 325.883 446.361 295.153C472.324 264.429 505.593 235.452 539.573 210.28C580.287 180.11 616.633 156.587 642.799 140.608C655.882 132.618 666.42 126.514 673.686 122.408C677.319 120.355 680.134 118.802 682.041 117.762C682.994 117.242 683.72 116.85 684.207 116.589C684.451 116.458 684.635 116.36 684.758 116.294L684.897 116.221L684.931 116.203L684.94 116.198L684.942 116.197C684.942 116.197 684.943 116.197 684.709 115.754C684.476 115.312 684.475 115.313 684.475 115.313L684.473 115.314L684.428 115.337L684.288 115.412C684.164 115.478 683.979 115.576 683.735 115.708C683.245 115.97 682.517 116.363 681.562 116.884C679.651 117.926 676.832 119.482 673.194 121.538C665.919 125.649 655.372 131.758 642.278 139.754Z" fill="url(#paint5_linear_859_15123)"/>
<path d="M640.523 133.211C614.146 149.267 577.197 173.003 534.908 203.727C499.987 229.103 466.783 258.526 440.244 289.534C413.708 320.538 393.811 353.152 385.542 384.91C379.626 407.663 374.699 428.193 376.031 446.535C379.16 489.469 392.861 525.766 402.894 552.346C403.341 553.529 403.78 554.692 404.21 555.836C409.276 569.292 413.135 579.982 413.832 587.561C414.18 591.344 413.729 594.263 412.328 596.351C410.939 598.42 408.55 599.771 404.793 600.274L404.926 601.265C408.861 600.738 411.559 599.292 413.158 596.908C414.746 594.542 415.184 591.349 414.828 587.469C414.116 579.725 410.193 568.89 405.146 555.484C404.718 554.345 404.281 553.188 403.837 552.012C393.802 525.426 380.146 489.249 377.028 446.463C375.87 436.935 377.299 422.102 386.509 385.162C394.727 353.606 414.521 321.126 441.004 290.185C467.482 259.248 500.624 229.876 535.495 204.536C577.759 173.831 614.685 150.109 641.043 134.065C654.223 126.043 664.76 119.94 672.001 115.844C675.622 113.795 678.419 112.249 680.31 111.214C681.255 110.697 681.975 110.308 682.457 110.048C682.698 109.918 682.88 109.821 683.002 109.756L683.139 109.683L683.182 109.66L683.184 109.659C683.184 109.659 683.185 109.658 682.95 109.217C682.716 108.775 682.716 108.775 682.716 108.775L682.713 108.776L682.704 108.781L682.531 108.873C682.408 108.939 682.225 109.037 681.983 109.167C681.499 109.428 680.777 109.818 679.83 110.337C677.935 111.373 675.134 112.923 671.509 114.973C664.259 119.075 653.712 125.183 640.523 133.211Z" fill="url(#paint6_linear_859_15123)"/>
<path fill-rule="evenodd" clip-rule="evenodd" d="M530.849 197.973C459.205 249.047 394.521 316.48 375.074 379.578C368.033 402.431 361.802 422.916 362.346 441.115C363.493 479.978 373.341 513.495 380.874 539.133C381.84 542.423 382.769 545.585 383.636 548.61C387.458 561.942 390.062 572.574 389.552 580.156C389.299 583.931 388.276 586.892 386.298 589.05C384.321 591.208 381.33 592.629 377.009 593.206L377.141 594.197C381.612 593.601 384.851 592.109 387.035 589.726C389.218 587.344 390.287 584.136 390.55 580.224C391.073 572.433 388.407 561.624 384.598 548.335C383.729 545.303 382.799 542.139 381.832 538.846C374.299 513.205 364.489 479.811 363.346 441.086C362.807 423.086 368.974 402.774 376.029 379.873C395.377 317.098 459.834 249.827 531.43 198.787L530.849 197.973Z" fill="url(#paint7_linear_859_15123)"/>
<path fill-rule="evenodd" clip-rule="evenodd" d="M637.031 120.103C610.274 136.3 572.17 160.441 526.779 192.221C453.286 243.629 386.936 311.538 364.595 374.245C364.319 375.022 364.042 375.796 363.767 376.568C355.92 398.578 348.908 418.249 348.662 435.695C348.174 470.723 354.723 501.497 359.928 525.951C361.092 531.42 362.188 536.573 363.124 541.386C365.69 554.589 367.029 565.166 365.307 572.761C364.451 576.538 362.843 579.549 360.271 581.779C357.696 584.013 354.11 585.502 349.231 586.154L349.364 587.145C354.373 586.476 358.162 584.932 360.926 582.535C363.694 580.134 365.39 576.917 366.282 572.982C368.057 565.152 366.666 554.371 364.106 541.196C363.165 536.359 362.065 531.189 360.899 525.708C355.696 501.256 349.176 470.613 349.662 435.709C349.905 418.433 356.867 398.904 364.745 376.805C365.008 376.066 365.272 375.325 365.537 374.58C387.772 312.171 453.913 244.411 527.352 193.04C572.723 161.275 610.808 137.146 637.549 120.959C650.919 112.865 661.453 106.758 668.643 102.674C672.239 100.632 674.998 99.0956 676.858 98.0702C677.789 97.5575 678.494 97.1726 678.966 96.9159C679.203 96.7876 679.381 96.6912 679.5 96.6271L679.667 96.5371L679.675 96.5326L679.677 96.5316C679.677 96.5316 679.678 96.5313 679.442 96.0904C679.206 95.6496 679.205 95.65 679.205 95.65L679.203 95.6512L679.194 95.6559L679.025 95.7469C678.905 95.8115 678.726 95.9083 678.489 96.0372C678.015 96.2948 677.308 96.6807 676.376 97.1944C674.512 98.2217 671.749 99.7599 668.15 101.804C660.951 105.892 650.409 112.005 637.031 120.103Z" fill="url(#paint8_linear_859_15123)"/>
<path fill-rule="evenodd" clip-rule="evenodd" d="M635.292 113.543C608.347 129.805 569.666 154.142 522.714 186.445C447.473 238.217 379.337 306.559 354.133 368.895C353.453 370.578 352.776 372.246 352.104 373.901C343.574 394.913 335.971 413.645 334.984 430.254C333.124 461.71 336.901 489.824 340.003 512.92C341.03 520.562 341.982 527.654 342.633 534.137C343.944 547.208 344.019 557.736 341.085 565.351C339.624 569.142 337.419 572.203 334.247 574.499C331.071 576.798 326.895 578.352 321.459 579.078L321.592 580.069C327.143 579.328 331.489 577.73 334.833 575.309C338.182 572.885 340.497 569.658 342.018 565.711C345.047 557.85 344.938 547.102 343.628 534.037C342.973 527.506 342.015 520.38 340.986 512.715C337.886 489.633 334.128 461.662 335.982 430.314C336.958 413.877 344.499 395.299 353.053 374.222C353.717 372.586 354.387 370.936 355.06 369.27C380.155 307.206 448.097 239.002 523.281 187.269C570.215 154.979 608.88 130.652 635.809 114.399C649.273 106.273 659.804 100.165 666.968 96.0887C670.55 94.0507 673.29 92.5207 675.134 91.5004C676.056 90.9903 676.754 90.6075 677.222 90.3525C677.456 90.225 677.632 90.1293 677.749 90.0657L677.881 89.9941L677.914 89.9763L677.922 89.9719L677.924 89.9708C677.924 89.9708 677.925 89.9705 677.688 89.5302C677.451 89.0899 677.45 89.0904 677.45 89.0904L677.448 89.0915L677.44 89.0961L677.272 89.1865C677.154 89.2506 676.977 89.3466 676.743 89.4746C676.274 89.7307 675.574 90.1143 674.65 90.6254C672.802 91.6475 670.059 93.1795 666.473 95.2196C659.302 99.2996 648.764 105.412 635.292 113.543Z" fill="url(#paint9_linear_859_15123)"/>
<path fill-rule="evenodd" clip-rule="evenodd" d="M633.548 107.026C606.417 123.357 567.158 147.892 518.64 180.715C441.608 232.847 371.694 301.645 343.651 363.595C342.573 365.977 341.5 368.329 340.441 370.651C336.35 379.624 332.461 388.153 329.254 396.245C325.216 406.432 322.245 415.963 321.306 424.866C319.142 445.312 319.33 464.368 320.072 481.543C320.35 487.985 320.705 494.154 321.044 500.031C321.609 509.842 322.127 518.84 322.161 526.93C322.215 539.867 321.024 550.352 316.868 557.997C312.738 565.592 305.64 570.451 293.678 572.048L293.81 573.039C306.019 571.409 313.433 566.407 317.746 558.474C322.033 550.591 323.215 539.882 323.161 526.926C323.127 518.813 322.606 509.766 322.04 499.931C321.702 494.058 321.347 487.904 321.071 481.5C320.33 464.349 320.144 445.348 322.3 424.971C323.225 416.201 326.158 406.769 330.183 396.613C333.38 388.548 337.255 380.05 341.345 371.081C342.405 368.755 343.48 366.397 344.562 364.007C372.493 302.304 442.23 233.634 519.2 181.543C567.702 148.731 606.946 124.205 634.064 107.883C647.622 99.7215 658.149 93.6114 665.285 89.5419C668.854 87.5071 671.574 85.9826 673.402 84.9669C674.316 84.4591 675.007 84.0785 675.47 83.8249C675.701 83.6981 675.875 83.6031 675.991 83.5399L676.121 83.4688L676.154 83.4511L676.162 83.4467L676.164 83.4457C676.164 83.4457 676.165 83.4453 675.927 83.0056C675.688 82.566 675.688 82.5664 675.688 82.5664L675.686 82.5675L675.677 82.572L675.644 82.59L675.512 82.6618C675.395 82.7255 675.221 82.8209 674.989 82.9481C674.525 83.2025 673.832 83.584 672.917 84.0927C671.085 85.1102 668.362 86.6365 664.79 88.6731C657.647 92.7463 647.113 98.8605 633.548 107.026Z" fill="url(#paint10_linear_859_15123)"/>
<path fill-rule="evenodd" clip-rule="evenodd" d="M631.833 100.49C604.518 116.89 564.683 141.626 514.6 174.969C435.77 227.45 364.045 296.697 333.204 358.274C321.498 381.59 313.353 402.432 307.644 419.365C296.976 451.022 296.86 480.189 296.765 503.977C296.744 509.143 296.724 514.055 296.598 518.685C296.243 531.687 295.047 542.394 290.71 550.285C286.402 558.124 278.954 563.253 265.889 564.998L266.021 565.99C279.325 564.213 287.092 558.945 291.586 550.767C296.051 542.641 297.242 531.711 297.598 518.712C297.725 514.051 297.745 509.116 297.766 503.935C297.863 480.15 297.981 451.173 308.592 419.684C314.288 402.789 322.416 381.991 334.098 358.723C364.827 297.369 436.388 228.239 515.154 175.802C565.224 142.468 605.045 117.74 632.348 101.347C646 93.1502 656.521 87.037 663.629 82.9735C667.184 80.9416 669.884 79.4223 671.696 78.411C672.602 77.9054 673.286 77.5268 673.743 77.2747C673.971 77.1487 674.143 77.0542 674.258 76.9914L674.427 76.8989L674.429 76.8978C674.429 76.8978 674.429 76.8974 674.19 76.4584C673.951 76.0194 673.95 76.0198 673.95 76.0198L673.948 76.0209L673.907 76.0433L673.777 76.1145C673.661 76.1778 673.489 76.2726 673.26 76.399C672.801 76.6519 672.116 77.0314 671.209 77.5378C669.394 78.5507 666.69 80.0718 663.133 82.1053C656.019 86.1723 645.491 92.2891 631.833 100.49Z" fill="url(#paint11_linear_859_15123)"/>
<path fill-rule="evenodd" clip-rule="evenodd" d="M630.097 93.9413C602.586 110.409 562.163 135.343 510.508 169.21C429.889 222.045 356.326 291.722 322.676 352.93C309.852 376.355 300.639 397.214 293.968 413.936C282.31 443.171 279.888 470.489 277.865 493.303C277.299 499.693 276.764 505.729 276.066 511.355C274.467 524.238 272.023 534.929 266.473 542.874C260.946 550.786 252.29 556.039 238.111 557.937L238.244 558.928C252.632 557.002 261.569 551.64 267.293 543.447C272.993 535.286 275.457 524.381 277.058 511.478C277.762 505.802 278.301 499.731 278.87 493.318C280.893 470.516 283.299 443.391 294.897 414.307C301.556 397.614 310.752 376.794 323.553 353.412C357.092 292.405 430.505 222.838 511.056 170.046C562.699 136.187 603.111 111.26 630.611 94.7993C644.361 86.5688 654.883 80.4547 661.966 76.3985C665.508 74.3705 668.191 72.8569 669.987 71.8505C670.885 71.3473 671.562 70.9709 672.014 70.7204C672.24 70.5952 672.41 70.5014 672.523 70.439L672.651 70.3688L672.69 70.3471L672.692 70.346C672.692 70.346 672.693 70.3456 672.453 69.9072C672.212 69.4687 672.212 69.4692 672.212 69.4692L672.209 69.4703L672.201 69.4747L672.041 69.5631C671.927 69.626 671.756 69.7201 671.53 69.8457C671.076 70.0969 670.398 70.4741 669.498 70.978C667.699 71.986 665.014 73.501 661.469 75.5306C654.38 79.59 643.853 85.7073 630.097 93.9413Z" fill="url(#paint12_linear_859_15123)"/>
<path fill-rule="evenodd" clip-rule="evenodd" d="M628.344 87.4054C600.662 103.946 559.673 129.081 506.439 163.46C424.071 216.664 348.608 286.759 312.242 347.616C298.191 371.11 287.915 392.012 280.295 408.52C267.877 435.457 263.441 460.971 259.654 482.75C258.335 490.34 257.094 497.477 255.622 504.062C252.768 516.828 249.052 527.505 242.266 535.503C235.496 543.481 225.623 548.846 210.335 550.887L210.468 551.879C225.942 549.812 236.064 544.357 243.029 536.15C249.977 527.961 253.735 517.086 256.597 504.281C258.086 497.624 259.335 490.44 260.66 482.82C264.442 461.065 268.845 435.746 281.203 408.939C288.814 392.451 299.074 371.583 313.1 348.13C349.358 287.453 424.683 217.459 506.981 164.3C560.206 129.928 601.185 104.799 628.857 88.2638C642.692 79.9964 653.201 73.8774 660.251 69.8257C663.775 67.7998 666.435 66.2907 668.214 65.2882C669.103 64.787 669.772 64.4125 670.218 64.1633C670.441 64.0387 670.609 63.9455 670.72 63.8834L670.877 63.7964L670.885 63.792L670.887 63.7909C670.887 63.7909 670.888 63.7907 670.646 63.3531C670.404 62.9155 670.403 62.9159 670.403 62.9159L670.401 62.917L670.393 62.9214L670.361 62.939L670.235 63.0092C670.122 63.0716 669.954 63.1652 669.73 63.2901C669.283 63.54 668.613 63.9152 667.722 64.4171C665.942 65.4209 663.28 66.9314 659.752 68.9587C652.698 73.0132 642.184 79.135 628.344 87.4054Z" fill="url(#paint13_linear_859_15123)"/>
<path fill-rule="evenodd" clip-rule="evenodd" d="M626.597 80.8577C598.744 97.4717 557.189 122.809 502.379 157.704C418.273 211.277 340.87 281.778 301.763 342.306C298.971 346.622 296.198 350.826 293.499 354.919C288.835 361.989 284.391 368.726 280.453 375.132C274.233 385.247 269.24 394.589 266.594 403.203C261.567 419.529 257.855 435.1 254.416 449.531C253.963 451.428 253.516 453.305 253.071 455.162C249.237 471.154 245.577 485.609 240.576 498.029C235.578 510.443 229.25 520.791 220.1 528.584C210.955 536.373 198.952 541.64 182.548 543.831L182.68 544.822C199.237 542.611 211.43 537.282 220.749 529.345C230.064 521.412 236.469 510.906 241.504 498.402C246.536 485.905 250.211 471.38 254.043 455.395C254.489 453.537 254.936 451.659 255.389 449.762C258.829 435.328 262.533 419.79 267.55 403.497C270.158 395.009 275.095 385.755 281.305 375.655C285.236 369.261 289.663 362.55 294.32 355.49C297.021 351.395 299.799 347.183 302.603 342.849C341.605 282.483 418.882 212.075 502.916 158.548C557.718 123.658 599.265 98.3256 627.109 81.7166C641.032 73.4121 651.529 67.2883 658.545 63.241C662.052 61.2174 664.69 59.7129 666.451 58.7144C667.331 58.2151 667.992 57.8423 668.432 57.5945C668.653 57.4705 668.818 57.3779 668.928 57.3162L669.091 57.2253L669.092 57.2243C669.092 57.2243 669.093 57.224 668.849 56.7873C668.606 56.3505 668.605 56.3509 668.605 56.3509L668.603 56.3521L668.564 56.3739L668.44 56.4436C668.329 56.5057 668.163 56.5987 667.942 56.7228C667.5 56.9713 666.838 57.3446 665.957 57.8444C664.195 58.8441 661.555 60.3498 658.045 62.3747C651.025 66.4245 640.524 72.5508 626.597 80.8577Z" fill="url(#paint14_linear_859_15123)"/>
<path fill-rule="evenodd" clip-rule="evenodd" d="M624.892 74.3298C596.847 91.012 554.704 116.546 498.308 151.955C412.402 205.89 333.1 276.8 291.301 336.968C288.004 341.714 284.731 346.321 281.558 350.788C276.826 357.448 272.314 363.798 268.27 369.839C261.51 379.938 256.014 389.231 252.92 397.774C247.938 411.509 243.828 424.742 239.954 437.216C238.755 441.079 237.578 444.868 236.405 448.577C231.44 464.276 226.542 478.531 220.271 490.827C214.002 503.118 206.37 513.433 195.949 521.259C185.529 529.084 172.29 534.445 154.77 536.781L154.903 537.773C172.561 535.418 185.969 530.004 196.549 522.059C207.127 514.115 214.847 503.664 221.162 491.282C227.474 478.905 232.393 464.58 237.359 448.879C238.535 445.161 239.713 441.365 240.914 437.499C244.786 425.029 248.886 411.826 253.86 398.114C256.911 389.692 262.349 380.481 269.101 370.396C273.141 364.361 277.636 358.035 282.358 351.387C285.533 346.919 288.81 342.306 292.122 337.539C333.821 277.515 413.007 206.691 498.84 152.802C555.229 117.397 597.365 91.8674 625.403 75.1893C639.422 66.8503 649.917 60.7242 656.906 56.6832C660.401 54.6627 663.019 53.1634 664.763 52.1694C665.636 51.6724 666.289 51.3017 666.725 51.0553C666.943 50.9322 667.106 50.84 667.215 50.7787L667.337 50.7099L667.375 50.6886L667.377 50.6875C667.377 50.6875 667.377 50.6872 667.133 50.2512C666.888 49.8152 666.887 49.8156 666.887 49.8156L666.885 49.8166L666.877 49.821L666.724 49.9075C666.614 49.9691 666.451 50.0615 666.232 50.1849C665.796 50.4318 665.141 50.803 664.268 51.3005C662.522 52.2956 659.902 53.7958 656.405 55.8175C649.413 59.8606 638.915 65.9888 624.892 74.3298Z" fill="url(#paint15_linear_859_15123)"/>
<path fill-rule="evenodd" clip-rule="evenodd" d="M623.123 67.764C594.897 84.5197 552.175 110.253 494.19 146.168C406.583 200.5 325.31 271.806 280.824 331.641C277.069 336.693 273.346 341.584 269.746 346.314C264.891 352.692 260.26 358.777 256.074 364.565C248.778 374.651 242.787 383.899 239.244 392.351C234.546 403.548 230.376 414.442 226.386 424.867C224.14 430.734 221.951 436.452 219.757 441.992C213.658 457.394 207.51 471.447 199.957 483.619C192.406 495.787 183.457 506.065 171.762 513.924C160.067 521.782 145.601 527.237 126.993 529.723L127.125 530.715C145.861 528.211 160.478 522.71 172.32 514.754C184.161 506.797 193.201 496.402 200.806 484.147C208.409 471.895 214.583 457.774 220.687 442.361C222.89 436.798 225.082 431.07 227.33 425.199C231.315 414.786 235.473 403.923 240.166 392.737C243.662 384.398 249.596 375.227 256.884 365.151C261.068 359.366 265.682 353.304 270.527 346.939C274.127 342.209 277.854 337.312 281.627 332.238C326.018 272.53 407.184 201.304 494.717 147.018C552.697 111.107 595.413 85.3763 623.633 68.624C637.744 60.2479 648.23 54.1163 655.188 50.079C658.667 48.0604 661.264 46.5653 662.992 45.5749C663.855 45.0798 664.501 44.7108 664.931 44.4657C665.146 44.3432 665.308 44.2515 665.415 44.1906L665.565 44.1051L665.573 44.1009L665.575 44.0998C665.575 44.0998 665.575 44.0995 665.329 43.6644C665.082 43.2293 665.082 43.2298 665.082 43.2298L665.08 43.2308L664.921 43.3211C664.813 43.3822 664.652 43.4741 664.436 43.5969C664.005 43.8424 663.359 44.2118 662.494 44.7074C660.765 45.6986 658.167 47.1945 654.686 49.214C647.725 53.253 637.236 59.3862 623.123 67.764Z" fill="url(#paint16_linear_859_15123)"/>
<path fill-rule="evenodd" clip-rule="evenodd" d="M621.449 61.2557C593.044 78.0826 549.747 104.017 490.175 140.448C400.762 195.116 317.501 266.803 270.358 326.317C266.117 331.671 261.918 336.842 257.87 341.827C252.918 347.926 248.191 353.748 243.887 359.285C236.059 369.358 229.572 378.561 225.568 386.934C221.359 395.735 217.445 404.348 213.651 412.698C202.744 436.701 192.823 458.536 179.698 476.432C162.047 500.501 138.619 517.406 99.2041 522.669L99.3365 523.66C139.036 518.359 162.701 501.3 180.504 477.023C193.695 459.037 203.679 437.065 214.6 413.03C218.386 404.696 222.285 396.115 226.47 387.365C230.425 379.095 236.854 369.964 244.677 359.899C248.982 354.36 253.692 348.56 258.633 342.474C262.679 337.491 266.88 332.317 271.142 326.938C318.195 267.537 401.359 195.923 490.697 141.301C550.265 104.872 593.558 78.9404 621.959 62.1161C636.16 53.7039 646.637 47.5687 653.564 43.5366C657.027 41.5206 659.603 40.0304 661.313 39.0443C662.168 38.5512 662.806 38.1842 663.231 37.9404C663.443 37.8186 663.602 37.7275 663.708 37.667L663.827 37.599L663.856 37.582L663.864 37.5778L663.866 37.5767C663.866 37.5767 663.866 37.5765 663.618 37.1423C663.37 36.7081 663.369 36.7085 663.369 36.7085L663.368 36.7095L663.36 36.7138L663.33 36.7309L663.211 36.7992C663.105 36.8599 662.946 36.9511 662.733 37.0732C662.308 37.3172 661.669 37.6846 660.813 38.178C659.102 39.1647 656.525 40.6557 653.061 42.6724C646.132 46.7057 635.652 52.8423 621.449 61.2557Z" fill="url(#paint17_linear_859_15123)"/>
<path fill-rule="evenodd" clip-rule="evenodd" d="M619.732 54.7227C591.148 71.622 547.272 97.7563 486.105 134.697C394.954 189.734 309.671 261.803 259.883 320.998C255.134 326.644 250.442 332.087 245.932 337.318C240.904 343.15 236.103 348.718 231.704 354.014C223.347 364.073 216.369 373.231 211.894 381.518C208.415 387.967 205.071 394.325 201.792 400.558C188.221 426.359 175.77 450.032 159.45 469.255C139.219 493.084 113.049 510.058 71.4271 515.617L71.5596 516.608C113.436 511.016 139.827 493.913 160.212 469.902C176.611 450.586 189.127 426.789 202.702 400.979C205.975 394.755 209.309 388.415 212.774 381.993C217.198 373.799 224.121 364.707 232.473 354.653C236.879 349.349 241.662 343.801 246.677 337.985C251.182 332.76 255.875 327.318 260.648 321.641C310.354 262.545 395.547 190.544 486.622 135.553C547.786 98.6138 591.66 72.4812 620.241 55.5836C634.532 47.1348 645 40.9948 651.896 36.9671C655.343 34.9533 657.897 33.4675 659.59 32.4852C660.436 31.9942 661.067 31.6288 661.486 31.3864L662.11 31.0259L662.111 31.0249C662.111 31.0249 662.112 31.0245 661.862 30.5913C661.612 30.1581 661.612 30.1585 661.612 30.1585L661.61 30.1596L660.985 30.5208C660.565 30.7635 659.934 31.1289 659.088 31.6203C657.395 32.603 654.839 34.0893 651.391 36.1035C644.494 40.1321 634.025 46.273 619.732 54.7227Z" fill="url(#paint18_linear_859_15123)"/>
<path fill-rule="evenodd" clip-rule="evenodd" d="M618.016 48.2039C589.253 65.1759 544.798 91.509 482.032 128.954C389.14 184.379 301.821 256.796 249.414 315.688C244.149 321.601 238.971 327.271 234.007 332.707L233.791 332.943C228.763 338.449 223.956 343.715 219.511 348.741C210.624 358.789 203.159 367.904 198.23 376.109C195.721 380.267 193.258 384.392 190.82 388.473C174.382 415.993 159.126 441.533 139.23 462.096C116.409 485.682 87.4802 502.717 43.6477 508.572L43.7802 509.563C87.8418 503.678 116.976 486.535 139.949 462.791C159.932 442.139 175.252 416.489 191.683 388.979C194.12 384.898 196.582 380.777 199.087 376.624C203.965 368.504 211.377 359.447 220.26 349.404C224.699 344.384 229.5 339.125 234.53 333.617L234.752 333.374C239.713 327.941 244.894 322.268 250.161 316.353C302.491 257.547 389.728 185.193 482.544 129.813C545.309 92.3685 589.762 66.0362 618.524 49.0651C632.905 40.5795 643.362 34.4343 650.225 30.4105C653.656 28.3986 656.189 26.917 657.863 25.9385C658.701 25.4492 659.323 25.0858 659.737 24.8445L660.345 24.4901L660.352 24.486L660.354 24.4849C660.354 24.4849 660.354 24.4846 660.103 24.0525C659.851 23.6203 659.85 23.6207 659.85 23.6207L659.849 23.6218L659.233 23.9807C658.819 24.222 658.196 24.5857 657.359 25.0751C655.684 26.0538 653.151 27.5357 649.719 29.5478C642.856 33.5721 632.397 39.7178 618.016 48.2039Z" fill="url(#paint19_linear_859_15123)"/>
<path fill-rule="evenodd" clip-rule="evenodd" d="M616.254 41.575C587.312 58.6204 542.279 85.1534 477.913 123.104C383.275 178.908 293.899 251.692 238.868 310.289C233.217 316.309 227.672 322.076 222.363 327.594L221.926 328.048C216.776 333.401 211.85 338.52 207.274 343.405C197.867 353.444 189.909 362.518 184.477 370.631C183.163 372.591 181.856 374.546 180.554 376.492C140.341 436.619 104.963 489.517 15.8488 501.412L16.0077 502.601C105.665 490.634 141.32 437.319 181.506 377.229C182.823 375.259 184.145 373.282 185.474 371.299C190.846 363.274 198.746 354.261 208.149 344.225C212.719 339.348 217.639 334.235 222.79 328.881L223.227 328.426C228.537 322.908 234.086 317.136 239.743 311.111C294.69 252.602 383.975 179.888 478.522 124.138C542.889 86.1872 587.922 59.6542 616.863 42.609C631.333 34.0864 641.781 27.9358 648.611 23.9158C652.026 21.9058 654.537 20.4284 656.193 19.4536L658.651 18.0079L658.653 18.0069C658.653 18.0069 658.653 18.0065 658.349 17.4893C658.045 16.9721 658.044 16.9724 658.044 16.9724L658.043 16.9734L655.585 18.4193C653.928 19.3942 651.417 20.8716 648.002 22.8816C641.172 26.9017 630.724 33.0523 616.254 41.575Z" fill="url(#paint20_linear_859_15123)"/>
</g>
<defs>
<linearGradient id="paint0_linear_859_15123" x1="-60.2723" y1="39.3114" x2="469.864" y2="750.599" gradientUnits="userSpaceOnUse">
<stop stop-color="#CAA21F"/>
<stop offset="1" stop-color="#545454"/>
</linearGradient>
<linearGradient id="paint1_linear_859_15123" x1="-60.2723" y1="39.3114" x2="469.864" y2="750.599" gradientUnits="userSpaceOnUse">
<stop stop-color="#CAA21F"/>
<stop offset="1" stop-color="#545454"/>
</linearGradient>
<linearGradient id="paint2_linear_859_15123" x1="-60.2723" y1="39.3114" x2="469.864" y2="750.599" gradientUnits="userSpaceOnUse">
<stop stop-color="#CAA21F"/>
<stop offset="1" stop-color="#545454"/>
</linearGradient>
<linearGradient id="paint3_linear_859_15123" x1="-60.2723" y1="39.3114" x2="469.864" y2="750.599" gradientUnits="userSpaceOnUse">
<stop stop-color="#CAA21F"/>
<stop offset="1" stop-color="#545454"/>
</linearGradient>
<linearGradient id="paint4_linear_859_15123" x1="-60.2723" y1="39.3114" x2="469.864" y2="750.599" gradientUnits="userSpaceOnUse">
<stop stop-color="#CAA21F"/>
<stop offset="1" stop-color="#545454"/>
</linearGradient>
<linearGradient id="paint5_linear_859_15123" x1="-60.2723" y1="39.3114" x2="469.864" y2="750.599" gradientUnits="userSpaceOnUse">
<stop stop-color="#CAA21F"/>
<stop offset="1" stop-color="#545454"/>
</linearGradient>
<linearGradient id="paint6_linear_859_15123" x1="-60.2723" y1="39.3114" x2="469.864" y2="750.599" gradientUnits="userSpaceOnUse">
<stop stop-color="#CAA21F"/>
<stop offset="1" stop-color="#545454"/>
</linearGradient>
<linearGradient id="paint7_linear_859_15123" x1="-60.2723" y1="39.3114" x2="469.864" y2="750.599" gradientUnits="userSpaceOnUse">
<stop stop-color="#CAA21F"/>
<stop offset="1" stop-color="#545454"/>
</linearGradient>
<linearGradient id="paint8_linear_859_15123" x1="-60.2723" y1="39.3114" x2="469.864" y2="750.599" gradientUnits="userSpaceOnUse">
<stop stop-color="#CAA21F"/>
<stop offset="1" stop-color="#545454"/>
</linearGradient>
<linearGradient id="paint9_linear_859_15123" x1="-60.2723" y1="39.3114" x2="469.864" y2="750.599" gradientUnits="userSpaceOnUse">
<stop stop-color="#CAA21F"/>
<stop offset="1" stop-color="#545454"/>
</linearGradient>
<linearGradient id="paint10_linear_859_15123" x1="-60.2723" y1="39.3114" x2="469.864" y2="750.599" gradientUnits="userSpaceOnUse">
<stop stop-color="#CAA21F"/>
<stop offset="1" stop-color="#545454"/>
</linearGradient>
<linearGradient id="paint11_linear_859_15123" x1="-60.2723" y1="39.3114" x2="469.864" y2="750.599" gradientUnits="userSpaceOnUse">
<stop stop-color="#CAA21F"/>
<stop offset="1" stop-color="#545454"/>
</linearGradient>
<linearGradient id="paint12_linear_859_15123" x1="-60.2723" y1="39.3114" x2="469.864" y2="750.599" gradientUnits="userSpaceOnUse">
<stop stop-color="#CAA21F"/>
<stop offset="1" stop-color="#545454"/>
</linearGradient>
<linearGradient id="paint13_linear_859_15123" x1="-60.2723" y1="39.3114" x2="469.864" y2="750.599" gradientUnits="userSpaceOnUse">
<stop stop-color="#CAA21F"/>
<stop offset="1" stop-color="#545454"/>
</linearGradient>
<linearGradient id="paint14_linear_859_15123" x1="-60.2723" y1="39.3114" x2="469.864" y2="750.599" gradientUnits="userSpaceOnUse">
<stop stop-color="#CAA21F"/>
<stop offset="1" stop-color="#545454"/>
</linearGradient>
<linearGradient id="paint15_linear_859_15123" x1="-60.2723" y1="39.3114" x2="469.864" y2="750.599" gradientUnits="userSpaceOnUse">
<stop stop-color="#CAA21F"/>
<stop offset="1" stop-color="#545454"/>
</linearGradient>
<linearGradient id="paint16_linear_859_15123" x1="-60.2723" y1="39.3114" x2="469.864" y2="750.599" gradientUnits="userSpaceOnUse">
<stop stop-color="#CAA21F"/>
<stop offset="1" stop-color="#545454"/>
</linearGradient>
<linearGradient id="paint17_linear_859_15123" x1="-60.2723" y1="39.3114" x2="469.864" y2="750.599" gradientUnits="userSpaceOnUse">
<stop stop-color="#CAA21F"/>
<stop offset="1" stop-color="#545454"/>
</linearGradient>
<linearGradient id="paint18_linear_859_15123" x1="-60.2723" y1="39.3114" x2="469.864" y2="750.599" gradientUnits="userSpaceOnUse">
<stop stop-color="#CAA21F"/>
<stop offset="1" stop-color="#545454"/>
</linearGradient>
<linearGradient id="paint19_linear_859_15123" x1="-60.2723" y1="39.3114" x2="469.864" y2="750.599" gradientUnits="userSpaceOnUse">
<stop stop-color="#CAA21F"/>
<stop offset="1" stop-color="#545454"/>
</linearGradient>
<linearGradient id="paint20_linear_859_15123" x1="-60.2723" y1="39.3114" x2="469.864" y2="750.599" gradientUnits="userSpaceOnUse">
<stop stop-color="#CAA21F"/>
<stop offset="1" stop-color="#545454"/>
</linearGradient>
</defs>
</svg>
