<svg width="50" height="50" viewBox="0 0 50 50" fill="none" xmlns="http://www.w3.org/2000/svg">
<circle cx="25" cy="25" r="25" fill="#CAA21F"/>
<path d="M30.3012 19.2386L35.7493 24.4239C36.0836 24.7421 36.0836 25.2579 35.7493 25.5761L30.3012 30.7614C29.9669 31.0795 29.4248 31.0795 29.0905 30.7614C28.7562 30.4432 28.7562 29.9273 29.0905 29.6091L33.0772 25.8148H15.9228L19.9095 29.6091C20.2438 29.9273 20.2438 30.4432 19.9095 30.7614C19.5752 31.0795 19.0331 31.0795 18.6988 30.7614L13.2507 25.5761C12.9164 25.2579 12.9164 24.7421 13.2507 24.4239L18.6988 19.2386C19.0331 18.9205 19.5752 18.9205 19.9095 19.2386C20.2438 19.5568 20.2438 20.0727 19.9095 20.3909L15.9228 24.1852H33.0772L29.0905 20.3909C28.7562 20.0727 28.7562 19.5568 29.0905 19.2386C29.4248 18.9205 29.9669 18.9205 30.3012 19.2386Z" fill="#F1F1F1"/>
</svg>
