<svg width="50" height="50" viewBox="0 0 50 50" fill="none" xmlns="http://www.w3.org/2000/svg">
<circle cx="25" cy="25" r="25" transform="rotate(90 25 25)" fill="#CAA21F"/>
<path d="M30.7614 30.3012L25.5761 35.7493C25.2579 36.0836 24.7421 36.0836 24.4239 35.7493L19.2386 30.3012C18.9205 29.9669 18.9205 29.4248 19.2386 29.0905C19.5568 28.7562 20.0727 28.7562 20.3909 29.0905L24.1852 33.0772L24.1852 15.9228L20.3909 19.9095C20.0727 20.2438 19.5568 20.2438 19.2386 19.9095C18.9205 19.5752 18.9205 19.0331 19.2386 18.6988L24.4239 13.2507C24.7421 12.9164 25.2579 12.9164 25.5761 13.2507L30.7614 18.6988C31.0795 19.0331 31.0795 19.5752 30.7614 19.9095C30.4432 20.2438 29.9273 20.2438 29.6091 19.9095L25.8148 15.9228L25.8148 33.0772L29.6091 29.0905C29.9273 28.7562 30.4432 28.7562 30.7614 29.0905C31.0795 29.4248 31.0795 29.9669 30.7614 30.3012Z" fill="#F1F1F1"/>
</svg>
