<svg width="30" height="30" viewBox="0 0 30 30" fill="none" xmlns="http://www.w3.org/2000/svg">
<path d="M14.9988 -0.00390625C6.726 -0.00390625 -0.00390625 6.72627 -0.00390625 14.9988C-0.00390625 23.2715 6.726 30.002 14.9988 30.002C23.271 30.002 30.0014 23.2715 30.0014 14.9988C30.0014 6.72627 23.271 -0.00390625 14.9988 -0.00390625ZM19.239 9.46699C19.239 9.53803 19.2107 9.60616 19.1605 9.65639C19.1103 9.70662 19.0421 9.73484 18.9711 9.73484L17.2656 9.73592C16.1404 9.73592 15.9347 10.1741 15.9347 11.0372V12.8275H18.8597C18.9365 12.8275 19.0099 12.8607 19.0606 12.9186C19.1112 12.9765 19.1348 13.0533 19.1254 13.1297L18.7089 16.3528C18.7005 16.4174 18.669 16.4767 18.6201 16.5197C18.5711 16.5627 18.5083 16.5864 18.4431 16.5864H15.9347V24.5897C15.9347 24.6607 15.9064 24.7288 15.8562 24.7791C15.806 24.8293 15.7378 24.8575 15.6668 24.8575H12.339C12.2679 24.8575 12.1998 24.8293 12.1495 24.7791C12.0993 24.7288 12.0711 24.6607 12.0711 24.5897V16.5864H9.55457C9.48353 16.5864 9.4154 16.5581 9.36517 16.5079C9.31494 16.4577 9.28672 16.3895 9.28672 16.3185V13.0954C9.28672 13.0243 9.31494 12.9562 9.36517 12.906C9.4154 12.8557 9.48353 12.8275 9.55457 12.8275H12.0711V10.7181C12.0711 7.9244 13.7618 6.18922 16.484 6.18922C17.6543 6.18922 18.6885 6.27627 19.0062 6.31833C19.0706 6.32683 19.1297 6.35844 19.1725 6.40727C19.2153 6.4561 19.2389 6.51883 19.239 6.58377V9.46699Z" fill="#F1F1F1"/>
</svg>
