<svg width="20" height="21" viewBox="0 0 20 21" fill="none" xmlns="http://www.w3.org/2000/svg">
<g clip-path="url(#clip0_801_1578)">
<path d="M10.0034 0.5C7.35239 0.5 4.81003 1.5531 2.93551 3.42769C1.06091 5.30214 0.0078125 7.84465 0.0078125 10.4956C0.0078125 13.1466 1.06091 15.689 2.93551 17.5635C4.80995 19.4381 7.35246 20.4912 10.0034 20.4912C12.6544 20.4912 15.1968 19.4381 17.0713 17.5635C18.9459 15.6891 19.999 13.1466 19.999 10.4956C19.999 7.84465 18.9459 5.30221 17.0713 3.42769C15.1969 1.5531 12.6544 0.5 10.0034 0.5ZM14.4714 7.03708L10.0034 10.7593L5.53542 7.03708H14.4714ZM15.0012 13.5242C15.0105 13.6415 14.9676 13.7569 14.8841 13.8398C14.8004 13.9226 14.6846 13.9644 14.5674 13.954H5.43931C5.32663 13.9675 5.21368 13.9311 5.13015 13.8541C5.04676 13.7771 5.00116 13.6675 5.00549 13.5542V7.685V7.60105L6.00504 8.42868L9.72338 11.5273V11.5272C9.79631 11.6047 9.89796 11.6485 10.0042 11.6485C10.1106 11.6485 10.2123 11.6047 10.2851 11.5272L14.8609 7.71283L15.0009 7.6049V7.72287L15.0012 13.5242Z" fill="#F7E07A"/>
</g>
<defs>
<clipPath id="clip0_801_1578">
<rect width="20" height="20" fill="white" transform="translate(0 0.5)"/>
</clipPath>
</defs>
</svg>
