<svg width="580" height="793" viewBox="0 0 580 793" fill="none" xmlns="http://www.w3.org/2000/svg">
<mask id="mask0_857_15163" style="mask-type:alpha" maskUnits="userSpaceOnUse" x="-514" y="-133" width="1479" height="1480">
<path d="M630.367 1346.77L359.621 586.305C266.461 551.375 190.927 499.274 133.36 418.077C75.7922 336.88 39.1887 -27.3563 37.0017 -126.912L-437.498 216.161L-513.188 1012.91L630.367 1346.77Z" fill="black"/>
<path d="M964.007 468.302L590.279 -132.041L58.4 -120.041C43.9021 -23.7812 87.0553 313.701 140.839 394.783C194.623 475.866 284.571 536.775 378.824 560.751L964.007 468.302Z" fill="black"/>
</mask>
<g mask="url(#mask0_857_15163)">
<path fill-rule="evenodd" clip-rule="evenodd" d="M236.788 286.844C255.24 320.517 279.758 348.13 312.343 361.65C377.208 388.563 444.085 383.096 494.686 370.94C519.994 364.859 541.254 357.1 556.189 350.861C563.657 347.74 569.545 344.999 573.569 343.037C575.581 342.056 577.127 341.269 578.172 340.727C578.694 340.455 579.091 340.245 579.359 340.103C579.492 340.031 579.593 339.977 579.662 339.94L579.739 339.898L579.759 339.887L579.764 339.884C579.764 339.884 579.766 339.883 579.286 339.006C578.805 338.129 578.804 338.13 578.804 338.13L578.8 338.132L578.782 338.142L578.71 338.181C578.645 338.216 578.547 338.269 578.417 338.339C578.156 338.478 577.766 338.684 577.251 338.952C576.22 339.487 574.689 340.266 572.692 341.239C568.699 343.187 562.847 345.911 555.418 349.015C540.559 355.223 519.402 362.945 494.219 368.995C443.839 381.099 377.436 386.492 313.11 359.803C281.1 346.522 256.873 319.334 238.542 285.883C220.214 252.435 207.83 212.812 199.468 174.812C191.107 136.819 186.777 100.491 184.537 73.6574C183.417 60.2421 182.82 49.2033 182.503 41.5202C182.344 37.6787 182.255 34.6763 182.207 32.6354C182.182 31.615 182.168 30.835 182.159 30.3107C182.155 30.0486 182.152 29.8503 182.151 29.7179L182.149 29.569L182.149 29.5229C182.149 29.5229 182.149 29.5202 181.149 29.5288C180.149 29.5374 180.149 29.5387 180.149 29.5411L180.149 29.551L180.149 29.5898L180.151 29.7425C180.152 29.8774 180.155 30.0781 180.159 30.3428C180.168 30.8723 180.183 31.6576 180.207 32.6834C180.256 34.7351 180.345 37.749 180.504 41.6027C180.822 49.3099 181.421 60.377 182.543 73.8238C184.788 100.715 189.129 137.136 197.514 175.242C205.898 213.341 218.334 253.167 236.788 286.844Z" fill="url(#paint0_linear_857_15163)"/>
<path fill-rule="evenodd" clip-rule="evenodd" d="M169.81 75.4385C172.344 105.219 177.219 145.898 186.58 189.489C194.773 227.636 206.992 266.366 224.39 299.413C241.785 332.455 264.39 359.876 293.387 375.315C313.036 385.778 332.379 393.541 351.737 397.573C402.231 408.102 450.502 402.337 485.754 395.004C500.99 391.834 513.807 388.369 523.312 385.798C524.803 385.395 526.212 385.014 527.536 384.66C532.439 383.348 536.134 382.413 538.51 382.061C539.728 381.88 540.464 381.876 540.825 381.972C540.891 381.99 540.921 382.005 540.931 382.01C540.922 382.004 540.898 381.983 540.873 381.94L542.327 382.448C542.459 382.072 542.516 381.6 542.27 381.159C542.028 380.727 541.605 380.524 541.236 380.426C540.523 380.236 539.486 380.299 538.275 380.478C535.791 380.846 531.999 381.809 527.123 383.114C525.794 383.47 524.382 383.852 522.89 384.255C513.384 386.825 500.615 390.278 485.428 393.437C450.283 400.749 402.255 406.472 352.064 396.007C332.896 392.014 313.698 384.318 294.139 373.903C265.529 358.67 243.117 331.55 225.806 298.668C208.497 265.79 196.319 227.211 188.145 189.153C178.801 145.646 173.935 105.037 171.405 75.3028C170.14 60.4366 169.459 48.2909 169.094 39.8634C168.912 35.6497 168.809 32.3656 168.751 30.136C168.722 29.0211 168.705 28.1699 168.695 27.5979C168.69 27.3119 168.686 27.0957 168.684 26.9512L168.681 26.7381L168.681 26.7357C168.681 26.7357 168.681 26.735 167.881 26.7433C167.081 26.7515 167.082 26.7525 167.082 26.7525L167.082 26.7553L167.082 26.766L167.082 26.808L167.084 26.9737C167.086 27.1202 167.09 27.3384 167.095 27.6265C167.105 28.2027 167.123 29.0581 167.152 30.1773C167.209 32.4158 167.313 35.7091 167.496 39.9326C167.861 48.3794 168.543 60.5475 169.81 75.4385Z" fill="url(#paint1_linear_857_15163)"/>
<path fill-rule="evenodd" clip-rule="evenodd" d="M163.248 74.0492C165.75 104.038 170.543 145.319 179.702 190.489C187.616 229.537 199.643 269.085 216.694 303.048C233.742 337.005 255.84 365.43 283.924 382.158C303.18 393.62 321.848 402.597 340.729 407.232C389.397 419.177 436.055 415.328 469.963 410.077C478.442 408.764 486.125 407.364 492.842 406.1C494.458 405.796 496.016 405.5 497.516 405.215C502.26 404.315 506.416 403.526 509.924 402.945C514.564 402.176 517.981 401.786 520.089 401.955C521.165 402.041 521.733 402.264 521.984 402.499C522.089 402.598 522.143 402.702 522.162 402.836C522.184 402.986 522.167 403.21 522.054 403.534L523.375 403.996C523.536 403.535 523.612 403.076 523.548 402.635C523.482 402.18 523.273 401.789 522.942 401.479C522.322 400.897 521.331 400.65 520.201 400.559C517.895 400.374 514.312 400.799 509.695 401.564C506.17 402.148 501.99 402.941 497.242 403.843C495.745 404.127 494.191 404.422 492.583 404.724C485.871 405.987 478.205 407.384 469.749 408.694C435.919 413.932 389.472 417.754 341.063 405.872C322.373 401.284 303.841 392.384 284.64 380.955C256.871 364.415 234.928 336.245 217.945 302.42C200.966 268.601 188.972 229.179 181.074 190.211C171.928 145.107 167.142 103.882 164.643 73.9327C163.394 58.9585 162.716 46.8044 162.35 38.3953C162.168 34.1908 162.063 30.9226 162.004 28.7064C161.975 27.5983 161.957 26.7531 161.946 26.1855C161.941 25.9016 161.937 25.6872 161.935 25.5438L161.933 25.3825L161.932 25.3423L161.932 25.3324L161.932 25.33C161.932 25.33 161.932 25.3293 161.232 25.3372C160.532 25.3452 160.532 25.3462 160.532 25.3462L160.532 25.3489L160.533 25.401L160.535 25.5649C160.537 25.71 160.541 25.9262 160.546 26.2118C160.557 26.783 160.575 27.6318 160.605 28.7436C160.664 30.9673 160.769 34.2433 160.952 38.4561C161.318 46.8816 161.997 59.0544 163.248 74.0492Z" fill="url(#paint2_linear_857_15163)"/>
<path d="M156.822 72.6456C159.295 102.83 164.003 144.709 172.941 191.487C180.571 231.42 192.397 271.783 209.094 306.654C225.789 341.52 247.371 370.932 274.534 388.914C199.591 330.761 169.664 206.455 156.822 72.6456Z" fill="url(#paint3_linear_857_15163)"/>
<path fill-rule="evenodd" clip-rule="evenodd" d="M150.159 71.2395C152.607 101.63 157.235 144.114 165.96 192.495C173.323 233.335 184.952 274.547 201.303 310.357C217.652 346.161 238.738 376.6 265.034 395.849C283.476 409.345 300.826 420.708 318.738 426.557C363.771 441.26 407.201 441.24 438.419 440.169C442.068 440.044 445.547 439.905 448.84 439.773C459.658 439.341 468.474 438.988 474.736 439.479C478.836 439.8 481.724 440.479 483.361 441.647C484.16 442.218 484.645 442.893 484.843 443.7C485.044 444.517 484.966 445.525 484.528 446.775L485.472 447.106C485.95 445.741 486.076 444.526 485.814 443.461C485.549 442.385 484.902 441.518 483.942 440.833C482.06 439.49 478.921 438.804 474.814 438.482C468.487 437.986 459.584 438.342 448.747 438.776C445.465 438.907 442.004 439.046 438.385 439.17C407.193 440.239 363.909 440.253 319.049 425.607C301.3 419.811 284.061 408.534 265.625 395.042C239.519 375.932 218.524 345.662 202.213 309.942C185.905 274.227 174.297 233.099 166.944 192.317C158.226 143.975 153.601 101.524 151.156 71.1592C149.933 55.9769 149.255 43.8168 148.883 35.4532C148.697 31.2714 148.587 28.0388 148.524 25.8522C148.493 24.7589 148.473 23.9272 148.461 23.369C148.455 23.0899 148.451 22.8792 148.448 22.7384L148.445 22.5403L148.445 22.5305L148.445 22.5281C148.445 22.5281 148.445 22.5274 147.945 22.5347C147.445 22.5419 147.445 22.5429 147.445 22.5429L147.445 22.5455L147.446 22.5962L147.448 22.7565C147.451 22.8984 147.455 23.1103 147.461 23.3906C147.473 23.9511 147.493 24.7853 147.525 25.8811C147.588 28.0727 147.698 31.3105 147.884 35.4977C148.257 43.872 148.935 56.0442 150.159 71.2395Z" fill="url(#paint4_linear_857_15163)"/>
<path fill-rule="evenodd" clip-rule="evenodd" d="M143.526 69.8537C145.945 100.442 150.488 143.527 158.986 193.519C166.075 235.256 176.888 278.115 192.586 315.262C208.281 352.401 228.879 383.878 255.566 402.793C259.962 405.908 264.189 409.036 268.31 412.085C268.616 412.311 268.921 412.537 269.226 412.762C273.635 416.023 277.928 419.186 282.173 422.133C290.663 428.025 298.987 433.066 307.723 436.305C350.976 452.357 392.807 454.252 422.677 455.28C423.686 455.315 424.68 455.348 425.66 455.382C439.225 455.841 450.051 456.208 457.157 457.816C460.974 458.68 463.605 459.88 465.029 461.548C466.411 463.166 466.733 465.325 465.672 468.357L466.616 468.687C467.752 465.441 467.475 462.873 465.789 460.899C464.145 458.973 461.24 457.715 457.378 456.841C450.175 455.211 439.255 454.841 425.755 454.384C424.755 454.35 423.74 454.316 422.712 454.281C392.847 453.253 351.16 451.359 308.07 435.368C299.452 432.171 291.209 427.186 282.744 421.311C278.512 418.375 274.23 415.22 269.821 411.958L268.904 411.28C264.784 408.232 260.549 405.099 256.145 401.977C229.674 383.216 209.168 351.933 193.507 314.873C177.849 277.82 167.053 235.042 159.972 193.352C151.479 143.394 146.94 100.339 144.523 69.7748C143.315 54.4928 142.637 42.3339 142.262 33.9964C142.074 29.8277 141.962 26.6144 141.897 24.4438C141.864 23.3585 141.843 22.5339 141.831 21.9809C141.824 21.7044 141.82 21.4958 141.817 21.3564L141.814 21.1995L141.814 21.1604L141.813 21.1507L141.813 21.1483C141.813 21.1483 141.813 21.1476 141.313 21.1557C140.813 21.1638 140.813 21.1648 140.813 21.1648L140.813 21.1673L140.814 21.2174L140.817 21.376C140.82 21.5165 140.824 21.7262 140.831 22.0039C140.844 22.5592 140.865 23.3862 140.897 24.4738C140.963 26.6492 141.075 29.8675 141.263 34.0414C141.639 42.3892 142.317 54.5595 143.526 69.8537Z" fill="url(#paint5_linear_857_15163)"/>
<path d="M136.897 68.459C139.286 99.2465 143.744 142.936 152.018 194.549C158.855 237.171 170.078 280.092 185.73 317.787C201.378 355.476 221.467 387.973 246.05 409.713C263.667 425.28 279.748 438.959 296.71 446.068C336.416 462.696 374.985 466.894 403.229 469.968C404.486 470.105 405.722 470.239 406.937 470.372C421.229 471.941 432.508 473.334 439.583 476.141C443.114 477.542 445.513 479.264 446.742 481.458C447.96 483.632 448.083 486.374 446.833 489.952L447.777 490.282C449.087 486.534 449.017 483.474 447.614 480.969C446.222 478.483 443.573 476.648 439.952 475.211C432.722 472.343 421.285 470.941 407.046 469.378C405.837 469.246 404.607 469.112 403.358 468.976C375.107 465.901 336.666 461.717 297.096 445.145C288.075 441.869 275.491 433.886 246.713 408.963C222.285 387.362 202.271 355.017 186.653 317.403C171.038 279.795 159.832 236.953 153.005 194.391C144.736 142.809 140.281 99.1467 137.894 68.3817C136.7 52.9992 136.024 40.8413 135.645 32.53C135.456 28.3743 135.341 25.1804 135.274 23.0258C135.241 21.9485 135.219 21.1312 135.205 20.5833C135.199 20.3094 135.194 20.1029 135.191 19.965L135.188 19.8097L135.187 19.7614L135.187 19.759C135.187 19.759 135.187 19.7583 134.687 19.7673C134.187 19.7763 134.187 19.7772 134.187 19.7772L134.187 19.7797L134.187 19.7897L134.191 19.9862C134.194 20.1252 134.199 20.3327 134.206 20.6078C134.219 21.1578 134.241 21.9775 134.275 23.057C134.342 25.2162 134.457 28.4149 134.646 32.5755C135.025 40.8966 135.702 53.0652 136.897 68.459Z" fill="url(#paint6_linear_857_15163)"/>
<path fill-rule="evenodd" clip-rule="evenodd" d="M145.05 195.566C158.196 282.563 189.081 370.753 236.56 416.637C253.757 433.253 269.208 448.075 285.686 455.821C320.865 472.376 355.212 478.753 381.484 483.631C384.857 484.257 388.096 484.858 391.187 485.453C404.805 488.075 415.465 490.562 421.997 494.446C425.249 496.379 427.427 498.63 428.458 501.371C429.488 504.11 429.403 507.42 427.962 511.535L428.906 511.865C430.396 507.608 430.531 504.045 429.394 501.019C428.257 497.995 425.879 495.59 422.509 493.586C415.797 489.596 404.951 487.085 391.376 484.472C388.279 483.875 385.036 483.273 381.662 482.647C355.386 477.767 321.166 471.413 286.112 454.916C269.815 447.256 254.488 432.568 237.255 415.918C190.019 370.269 159.176 282.355 146.038 195.416L145.05 195.566Z" fill="url(#paint7_linear_857_15163)"/>
<path fill-rule="evenodd" clip-rule="evenodd" d="M123.627 65.6456C125.97 96.8352 130.266 141.737 138.079 196.594C150.687 285.392 181.242 375.283 227.064 423.57C227.632 424.168 228.198 424.765 228.761 425.359C244.842 442.313 259.214 457.464 274.662 465.574C305.682 481.853 336.091 489.93 360.254 496.349C365.658 497.785 370.75 499.138 375.466 500.48C388.402 504.163 398.441 507.754 404.435 512.724C407.417 515.196 409.375 517.992 410.201 521.295C411.028 524.602 410.734 528.474 409.109 533.119L410.053 533.449C411.722 528.679 412.059 524.602 411.171 521.052C410.282 517.498 408.179 514.529 405.074 511.954C398.893 506.83 388.649 503.194 375.74 499.519C371.001 498.169 365.892 496.812 360.477 495.373C336.315 488.954 306.037 480.91 275.127 464.689C259.829 456.658 245.561 441.616 229.415 424.594C228.875 424.025 228.333 423.454 227.789 422.881C182.185 374.823 151.668 285.187 139.069 196.453C131.26 141.621 126.966 96.7409 124.624 65.5707C123.453 49.9856 122.771 37.8281 122.38 29.5677C122.185 25.4376 122.064 22.2818 121.991 20.159C121.954 19.0975 121.93 18.2944 121.914 17.7568C121.907 17.4881 121.902 17.2857 121.898 17.1506L121.893 16.9607L121.893 16.9513L121.893 16.949C121.893 16.949 121.893 16.9483 121.393 16.9595C120.893 16.9706 120.893 16.9715 120.893 16.9715L120.893 16.974L120.894 16.9838L120.898 17.1759C120.902 17.312 120.907 17.5154 120.915 17.7852C120.93 18.3247 120.954 19.1299 120.991 20.1934C121.064 22.3203 121.186 25.4804 121.382 29.6149C121.772 37.884 122.455 50.0507 123.627 65.6456Z" fill="url(#paint8_linear_857_15163)"/>
<path fill-rule="evenodd" clip-rule="evenodd" d="M116.99 64.2291C119.306 95.6153 123.516 141.121 131.089 197.607C143.231 288.129 173.365 379.808 217.561 430.481C218.754 431.849 219.936 433.207 221.107 434.555C235.989 451.666 249.256 466.92 263.623 475.313C290.837 491.199 317.619 500.547 339.62 508.226C346.9 510.767 353.657 513.125 359.732 515.477C371.983 520.219 381.407 524.914 386.871 530.976C389.591 533.994 391.324 537.344 391.937 541.212C392.551 545.084 392.048 549.512 390.237 554.687L391.181 555.018C393.031 549.731 393.571 545.133 392.924 541.055C392.277 536.972 390.446 533.448 387.614 530.306C381.973 524.049 372.338 519.285 360.093 514.544C353.972 512.175 347.184 509.805 339.882 507.257C317.894 499.582 291.248 490.281 264.128 474.449C249.911 466.144 236.751 451.016 221.823 433.853C220.664 432.522 219.495 431.178 218.314 429.824C174.311 379.371 144.213 287.927 132.08 197.474C124.51 141.01 120.302 95.5239 117.987 64.1555C116.829 48.4713 116.145 36.3166 115.75 28.0839C115.552 23.9675 115.427 20.8317 115.351 18.7254C115.313 17.6722 115.288 16.8764 115.272 16.3442C115.264 16.0781 115.258 15.8778 115.254 15.7443L115.25 15.5939L115.249 15.5565L115.249 15.5471L115.249 15.5449C115.249 15.5449 115.249 15.5442 114.749 15.5564C114.249 15.5687 114.249 15.5696 114.249 15.5696L114.249 15.572L114.25 15.5817L114.255 15.7716C114.258 15.9061 114.264 16.1073 114.272 16.3744C114.288 16.9086 114.314 17.7063 114.352 18.7613C114.428 20.8716 114.553 24.0114 114.751 28.1319C115.146 36.3728 115.831 48.536 116.99 64.2291Z" fill="url(#paint9_linear_857_15163)"/>
<path fill-rule="evenodd" clip-rule="evenodd" d="M110.388 62.8368C112.682 94.4204 116.807 140.532 124.136 198.649C135.789 290.93 165.525 384.402 208.092 437.432C209.729 439.471 211.342 441.492 212.934 443.487C219.086 451.194 224.934 458.52 230.7 465.04C237.959 473.249 245.115 480.21 252.631 485.074C269.888 496.252 286.969 504.703 302.621 511.81C308.492 514.475 314.155 516.949 319.55 519.305C328.556 523.239 336.815 526.846 344.045 530.475C355.608 536.278 364.421 542.083 369.359 549.248C374.265 556.366 375.387 564.895 371.401 576.285L372.345 576.615C376.414 564.989 375.306 556.114 370.182 548.68C365.09 541.292 356.074 535.393 344.494 529.581C337.243 525.942 328.939 522.315 319.911 518.372C314.521 516.017 308.872 513.549 303.035 510.899C287.404 503.802 270.373 495.375 253.175 484.235C245.772 479.443 238.686 472.561 231.449 464.378C225.702 457.879 219.875 450.58 213.726 442.875C212.131 440.877 210.514 438.852 208.872 436.806C166.475 383.987 136.772 290.732 125.128 198.524C117.802 140.425 113.678 94.3318 111.386 62.7643C110.24 46.9806 109.552 34.8285 109.15 26.6232C108.949 22.5205 108.82 19.4045 108.741 17.3146C108.702 16.2697 108.675 15.4813 108.658 14.9544C108.649 14.6909 108.643 14.4928 108.639 14.3606L108.635 14.212L108.634 14.175L108.633 14.1657L108.633 14.1635C108.633 14.1635 108.633 14.1628 108.133 14.1763C107.634 14.1898 107.634 14.1907 107.634 14.1907L107.634 14.1931L107.634 14.2026L107.635 14.2404L107.639 14.3903C107.643 14.5234 107.649 14.7223 107.658 14.9867C107.675 15.5155 107.702 16.3057 107.742 17.3524C107.821 19.4459 107.95 22.5656 108.151 26.672C108.553 34.8849 109.242 47.0449 110.388 62.8368Z" fill="url(#paint10_linear_857_15163)"/>
<path fill-rule="evenodd" clip-rule="evenodd" d="M103.783 61.4096C106.056 93.1894 110.1 139.905 117.184 199.653C128.335 293.696 157.653 388.985 198.622 444.343C214.122 465.329 229.026 482.02 241.546 494.771C264.955 518.603 290.914 531.899 312.088 542.744C316.686 545.099 321.058 547.338 325.129 549.545C336.565 555.743 345.573 561.652 350.65 569.089C355.692 576.476 356.898 585.439 352.545 597.881L353.489 598.211C357.922 585.542 356.737 576.232 351.476 568.525C346.248 560.868 337.038 554.862 325.606 548.665C321.507 546.444 317.114 544.194 312.503 541.832C291.333 530.987 265.544 517.776 242.259 494.07C229.768 481.348 214.895 464.692 199.426 443.749C158.606 388.592 129.319 293.502 118.177 199.536C111.095 139.803 107.052 93.1035 104.781 61.3382C103.645 45.4556 102.952 33.3066 102.543 25.1291C102.338 21.0404 102.205 17.9446 102.122 15.8713C102.081 14.8346 102.053 14.0536 102.035 13.532C102.025 13.2712 102.019 13.0752 102.015 12.9446L102.009 12.7519L102.009 12.7496C102.009 12.7496 102.009 12.7489 101.509 12.7638C101.009 12.7787 101.009 12.7796 101.009 12.7796L101.009 12.782L101.011 12.8286L101.015 12.9768C101.019 13.1083 101.026 13.3051 101.035 13.5667C101.053 14.09 101.082 14.8727 101.123 15.911C101.206 17.9877 101.339 21.0869 101.544 25.1791C101.953 33.3635 102.647 45.5196 103.783 61.4096Z" fill="url(#paint11_linear_857_15163)"/>
<path fill-rule="evenodd" clip-rule="evenodd" d="M97.1579 59.9961C99.4016 91.9807 103.356 139.31 110.197 200.698C120.855 296.497 149.725 393.62 189.094 451.315C204.185 473.347 218.622 491 230.519 504.512C251.319 528.133 274.588 542.649 294.02 554.772C299.462 558.167 304.604 561.374 309.306 564.541C320.073 571.794 328.502 578.809 333.077 587.353C337.634 595.861 338.404 605.956 333.684 619.461L334.628 619.791C339.418 606.087 338.677 595.691 333.959 586.881C329.259 578.106 320.648 570.975 309.864 563.712C305.12 560.517 299.949 557.29 294.487 553.882C275.066 541.765 251.962 527.35 231.269 503.851C219.393 490.363 204.984 472.743 189.92 450.752C150.68 393.246 121.84 296.306 111.191 200.587C104.351 139.214 100.398 91.8976 98.1555 59.9261C97.0341 43.9404 96.3402 31.7909 95.9266 23.6386C95.7198 19.5624 95.5832 16.4856 95.4982 14.4281C95.4557 13.3994 95.4261 12.6255 95.4072 12.109C95.3977 11.8508 95.3909 11.6569 95.3865 11.5276L95.3815 11.3823L95.3801 11.3371L95.38 11.3348C95.38 11.3348 95.3799 11.3342 94.8802 11.3502C94.3804 11.3662 94.3805 11.3671 94.3805 11.3671L94.3805 11.3694L94.3808 11.3787L94.387 11.562C94.3915 11.692 94.3984 11.8867 94.4078 12.1457C94.4268 12.6637 94.4564 13.4391 94.499 14.4694C94.5841 16.53 94.7209 19.6099 94.9278 23.6892C95.3417 31.8479 96.036 44.0038 97.1579 59.9961Z" fill="url(#paint12_linear_857_15163)"/>
<path fill-rule="evenodd" clip-rule="evenodd" d="M90.5357 58.6039C92.7674 90.7734 96.645 138.698 103.228 201.727C113.424 299.252 141.807 398.258 179.635 458.218C194.233 481.375 208.227 499.995 219.504 514.257C237.911 537.516 258.659 553.012 276.371 566.24C282.543 570.85 288.347 575.185 293.555 579.476C303.649 587.796 311.491 595.939 315.555 605.608C319.608 615.254 319.927 626.487 314.833 641.045L315.777 641.375C320.934 626.639 320.647 615.144 316.477 605.221C312.316 595.32 304.316 587.05 294.191 578.705C288.927 574.366 283.085 570.003 276.888 565.375C259.196 552.161 238.606 536.783 220.288 513.637C209.025 499.392 195.054 480.802 180.481 457.685C142.765 397.904 114.41 299.065 104.223 201.623C97.6409 138.606 93.7643 90.6928 91.5333 58.5347C90.4178 42.4556 89.7137 30.3155 89.2886 22.1957C89.076 18.1359 88.9331 15.0811 88.8434 13.0417C88.7985 12.022 88.767 11.2561 88.7466 10.7453C88.7364 10.4899 88.7291 10.2983 88.7243 10.1706L88.7176 9.99125L88.7173 9.98235L88.7172 9.98016C88.7172 9.98016 88.7172 9.97949 88.2175 9.99734C87.7178 10.0152 87.7178 10.016 87.7178 10.016L87.7179 10.0183L87.7182 10.0275L87.7195 10.0637L87.7249 10.2083C87.7298 10.3367 87.7372 10.529 87.7474 10.7851C87.7678 11.2973 87.7994 12.0646 87.8443 13.0856C87.9341 15.1279 88.0771 18.1854 88.2899 22.2481C88.7154 30.3734 89.4198 42.5192 90.5357 58.6039Z" fill="url(#paint13_linear_857_15163)"/>
<path fill-rule="evenodd" clip-rule="evenodd" d="M83.906 57.2001C86.1255 89.5558 89.9276 138.077 96.2585 202.743C105.997 301.986 133.865 402.906 170.16 465.162C172.746 469.604 175.242 473.979 177.671 478.237C181.867 485.595 185.865 492.605 189.797 499.015C196.006 509.137 202.079 517.815 208.565 524.072C220.851 535.939 233.06 546.292 244.375 555.887C245.862 557.149 247.334 558.397 248.788 559.633C261.317 570.286 272.554 580.088 281.369 590.166C290.179 600.239 296.547 610.562 299.358 622.247C302.168 633.927 301.437 647.015 295.972 662.636L296.916 662.966C302.432 647.2 303.194 633.914 300.33 622.013C297.468 610.118 290.995 599.653 282.121 589.507C273.251 579.366 261.959 569.52 249.436 558.872C247.98 557.634 246.508 556.385 245.02 555.124C233.704 545.527 221.521 535.196 209.259 523.352C202.869 517.187 196.848 508.598 190.649 498.492C186.725 492.094 182.741 485.109 178.552 477.763C176.121 473.502 173.622 469.119 171.024 464.658C134.826 402.57 106.984 301.804 97.2538 202.646C90.9238 137.989 87.1225 89.4777 84.9037 57.1317C83.7944 40.9587 83.0806 28.827 82.6442 20.7392C82.426 16.6953 82.2772 13.6624 82.1829 11.6407C82.1358 10.6299 82.1022 9.87188 82.0805 9.36672C82.0696 9.11412 82.0618 8.92479 82.0566 8.79864L82.049 8.61273L82.0489 8.61056C82.0489 8.61056 82.0489 8.60989 81.5493 8.62954C81.0496 8.64919 81.0496 8.64998 81.0496 8.64998L81.0498 8.6523L81.0516 8.69707L81.0574 8.83977C81.0627 8.96655 81.0705 9.15651 81.0814 9.40967C81.1032 9.91604 81.1367 10.6753 81.1839 11.6873C81.2783 13.7114 81.4272 16.7467 81.6456 20.7931C82.0822 28.8857 82.7963 41.0223 83.906 57.2001Z" fill="url(#paint14_linear_857_15163)"/>
<path fill-rule="evenodd" clip-rule="evenodd" d="M77.3129 55.7681C79.5064 88.3258 83.2178 137.461 89.29 203.774C98.5375 304.786 125.911 407.585 160.667 472.079C163.409 477.166 166.037 482.168 168.585 487.018C172.385 494.251 176.008 501.147 179.567 507.486C185.515 518.083 191.318 527.188 197.537 533.812C207.534 544.467 217.478 554.118 226.851 563.215C229.753 566.031 232.6 568.795 235.378 571.519C247.133 583.047 257.632 593.863 265.762 605.018C273.888 616.168 279.635 627.64 281.902 640.474C284.168 653.307 282.961 667.539 277.12 684.221L278.064 684.551C283.951 667.737 285.187 653.33 282.887 640.301C280.586 627.273 274.757 615.662 266.57 604.429C258.387 593.201 247.835 582.335 236.078 570.805C233.294 568.074 230.442 565.306 227.537 562.487C218.167 553.393 208.246 543.764 198.266 533.127C192.135 526.597 186.38 517.58 180.439 506.997C176.884 500.665 173.275 493.794 169.482 486.575C166.933 481.723 164.301 476.714 161.547 471.604C126.875 407.265 99.5254 304.608 90.2859 203.683C84.2144 137.377 80.5036 88.2504 78.3107 55.7009C77.2142 39.4261 76.4972 27.2957 76.0544 19.2345C75.833 15.2039 75.6801 12.1906 75.5826 10.1852C75.5338 9.18249 75.4989 8.43178 75.4762 7.93187C75.4648 7.68194 75.4565 7.49467 75.451 7.36996L75.4449 7.22983L75.4431 7.18626L75.443 7.18409C75.443 7.18409 75.443 7.18343 74.9434 7.20453C74.4438 7.22567 74.4439 7.22644 74.4439 7.22644L74.4439 7.22869L74.4443 7.23756L74.4519 7.41381C74.4574 7.53905 74.4658 7.72683 74.4772 7.97731C74.5 8.4783 74.5349 9.23004 74.5837 10.2338C74.6814 12.2413 74.8343 15.2566 75.0559 19.2893C75.4989 27.3547 76.2162 39.4893 77.3129 55.7681Z" fill="url(#paint15_linear_857_15163)"/>
<path fill-rule="evenodd" clip-rule="evenodd" d="M70.6569 54.3763C72.834 87.1286 76.4621 136.87 82.2664 204.829C91.0982 307.538 117.933 412.273 151.177 479.012C153.984 484.647 156.663 490.18 159.253 495.53C162.746 502.744 166.078 509.627 169.346 515.978C175.042 527.046 180.58 536.573 186.515 543.556C194.377 552.81 202.207 561.456 209.7 569.73C213.916 574.387 218.026 578.925 221.975 583.388C232.953 595.794 242.705 607.633 250.145 619.876C257.581 632.113 262.701 644.743 264.42 658.728C266.139 672.712 264.461 688.081 258.262 705.802L259.206 706.132C265.447 688.29 267.153 672.766 265.412 658.606C263.672 644.447 258.49 631.682 250.999 619.356C243.511 607.035 233.71 595.141 222.724 582.725C218.759 578.245 214.642 573.699 210.423 569.039C202.938 560.774 195.131 552.153 187.277 542.908C181.421 536.018 175.926 526.578 170.235 515.521C166.969 509.173 163.649 502.315 160.163 495.115C157.573 489.765 154.892 484.226 152.072 478.566C118.899 411.97 92.0871 307.365 83.2629 204.744C77.4591 136.791 73.8314 87.0557 71.6547 54.31C70.5664 37.9371 69.8408 25.8114 69.3873 17.7795C69.1607 13.7635 69.0019 10.771 68.8999 8.78263C68.8488 7.78844 68.812 7.04534 68.788 6.55088C68.7759 6.30365 68.767 6.11856 68.7612 5.99537L68.753 5.82239L68.7527 5.81383L68.7526 5.8117C68.7526 5.8117 68.7525 5.81102 68.2531 5.83405C67.7536 5.85704 67.7536 5.85784 67.7536 5.85784L67.7537 5.86003L67.7623 6.0427C67.7681 6.16634 67.777 6.35185 67.7891 6.59952C67.8132 7.09485 67.85 7.83884 67.9011 8.83388C68.0032 10.8239 68.162 13.8182 68.3889 17.8359C68.8425 25.8712 69.5683 38.0001 70.6569 54.3763Z" fill="url(#paint16_linear_857_15163)"/>
<path fill-rule="evenodd" clip-rule="evenodd" d="M64.0954 52.925C66.255 85.8695 69.8014 136.215 75.3489 205.823C83.6636 310.294 109.94 416.976 141.695 485.939C144.552 492.143 147.264 498.227 149.88 504.092C153.08 511.267 156.134 518.116 159.126 524.459C164.568 535.996 169.842 545.944 175.498 553.303C181.444 561.038 187.355 568.424 193.087 575.585C209.561 596.169 224.547 614.893 234.572 634.693C248.054 661.322 252.535 689.862 239.401 727.395L240.345 727.726C253.574 689.921 249.063 661.099 235.464 634.241C225.388 614.341 210.308 595.5 193.811 574.888C188.092 567.742 182.202 560.383 176.291 552.693C170.705 545.426 165.468 535.561 160.03 524.032C157.037 517.687 153.994 510.863 150.802 503.703C148.188 497.841 145.473 491.754 142.604 485.521C110.908 416.688 84.6535 310.126 76.3458 205.743C70.7986 136.14 67.2525 85.7991 65.0933 52.8596C64.0137 36.3898 63.2808 24.2705 62.8178 16.2689C62.5864 12.2681 62.4223 9.29673 62.3162 7.32577C62.2631 6.34028 62.2246 5.6049 62.1992 5.11595C62.1866 4.87149 62.1772 4.68862 62.1711 4.56695L62.1641 4.43021L62.1624 4.39615L62.162 4.38768L62.1619 4.38555C62.1619 4.38555 62.1619 4.38489 61.6625 4.40972C61.163 4.43455 61.1631 4.43529 61.1631 4.43529L61.1632 4.43745L61.1636 4.44609L61.1653 4.48039L61.1723 4.61766C61.1785 4.73969 61.1879 4.9229 61.2006 5.16772C61.2259 5.6573 61.2645 6.39338 61.3176 7.37954C61.4238 9.35187 61.5879 12.3246 61.8195 16.3267C62.2826 24.3309 63.0157 36.4528 64.0954 52.925Z" fill="url(#paint17_linear_857_15163)"/>
<path fill-rule="evenodd" clip-rule="evenodd" d="M57.4923 51.5015C59.6352 84.6388 63.0983 135.591 68.3787 206.852C76.2366 313.039 101.938 421.697 132.213 492.876C135.101 499.664 137.833 506.311 140.458 512.699C143.385 519.821 146.181 526.622 148.914 532.94C154.106 544.943 159.116 555.309 164.484 563.048C168.662 569.068 172.819 574.926 176.896 580.67C193.768 604.443 209.249 626.255 219.012 649.505C231.114 678.326 234.417 709.344 220.548 748.979L221.492 749.309C235.445 709.431 232.128 678.159 219.934 649.118C210.125 625.756 194.562 603.83 177.682 580.049C173.612 574.315 169.466 568.473 165.305 562.478C159.999 554.827 155.021 544.54 149.832 532.543C147.094 526.215 144.31 519.44 141.391 512.336C138.768 505.955 136.037 499.309 133.133 492.484C102.909 421.424 77.2273 312.877 69.376 206.778C64.0958 135.52 60.633 84.5709 58.4902 51.4369C57.4189 34.87 56.6775 22.7567 56.204 14.7855C55.9673 10.7999 55.7975 7.84977 55.6869 5.89619C55.6317 4.91941 55.5911 4.19171 55.5644 3.70831L55.5251 2.98878L55.525 2.98671C55.525 2.98671 55.525 2.98601 55.0257 3.01285C54.5263 3.03965 54.5263 3.04038 54.5263 3.04038L54.5265 3.04252L54.5659 3.76344C54.5926 4.24731 54.6331 4.97543 54.6885 5.95272C54.7991 7.90724 54.9689 10.8583 55.2057 14.8448C55.6793 22.8179 56.4208 34.9328 57.4923 51.5015Z" fill="url(#paint18_linear_857_15163)"/>
<path fill-rule="evenodd" clip-rule="evenodd" d="M50.9018 50.0842C53.029 83.4134 56.4077 134.971 61.414 207.887C68.8307 315.803 93.9223 426.434 122.743 499.81C125.634 507.18 128.35 514.364 130.953 521.25L131.065 521.548C133.702 528.524 136.224 535.192 138.696 541.43C143.638 553.9 148.39 564.681 153.479 572.788C156.053 576.906 158.617 580.969 161.154 584.989C178.264 612.098 194.142 637.255 203.482 664.3C214.196 695.321 216.304 728.827 201.701 770.568L202.645 770.898C217.324 728.939 215.212 695.202 204.428 663.974C195.046 636.81 179.099 611.545 161.996 584.448C159.459 580.429 156.897 576.369 154.326 572.257C149.29 564.234 144.565 553.527 139.626 541.062C137.157 534.832 134.638 528.172 132.001 521.195L131.884 520.887C129.283 514.004 126.567 506.818 123.674 499.445C94.8953 426.176 69.8223 315.646 62.4117 207.818C57.4055 134.904 54.0268 83.3479 51.8998 50.0205C50.8362 33.3568 50.0856 21.2503 49.6008 13.3099C49.3585 9.33963 49.1825 6.41093 49.0672 4.47485C49.0096 3.5068 48.9671 2.78693 48.939 2.30907L48.8979 1.60659L48.8974 1.59829L48.8973 1.59624C48.8973 1.59624 48.8972 1.59557 48.3981 1.62451C47.8989 1.65345 47.8989 1.65416 47.8989 1.65416L47.8991 1.65627L47.9406 2.36775C47.9688 2.84587 48.0113 3.56602 48.069 4.5343C48.1843 6.47089 48.3603 9.40012 48.6027 13.3708C49.0875 21.3122 49.8382 33.4196 50.9018 50.0842Z" fill="url(#paint19_linear_857_15163)"/>
<path fill-rule="evenodd" clip-rule="evenodd" d="M44.1928 48.6573C46.3048 82.1788 49.6001 134.343 54.3342 208.915C61.2985 318.559 85.787 431.191 113.158 506.774C115.97 514.537 118.606 522.09 121.126 529.322L121.333 529.916C123.778 536.931 126.115 543.639 128.402 549.93C133.101 562.861 137.594 574.063 142.373 582.576C143.527 584.635 144.679 586.684 145.826 588.726C181.263 651.786 212.439 707.265 182.741 792.122L183.874 792.519C213.753 707.144 182.329 651.23 146.913 588.21C145.752 586.145 144.587 584.071 143.42 581.989C138.693 573.568 134.227 562.446 129.53 549.521C127.247 543.238 124.912 536.538 122.467 529.522L122.259 528.927C119.739 521.696 117.102 514.136 114.286 506.366C86.9569 430.897 62.4894 318.378 55.5318 208.839C50.7978 134.267 47.5024 82.1031 45.3905 48.5819C44.3345 31.8213 43.5745 19.7214 43.0784 11.8117C42.8304 7.8569 42.6483 4.94957 42.5283 3.031L42.3505 0.18531L42.3504 0.183275C42.3504 0.183275 42.3503 0.182567 41.7514 0.219957C41.1526 0.257346 41.1526 0.258004 41.1526 0.258004L41.1527 0.260042L41.3306 3.10596C41.4506 5.0246 41.6327 7.93197 41.8808 11.8869C42.3769 19.7967 43.1369 31.8966 44.1928 48.6573Z" fill="url(#paint20_linear_857_15163)"/>
</g>
<defs>
<linearGradient id="paint0_linear_857_15163" x1="-263.82" y1="651.003" x2="610.334" y2="499.91" gradientUnits="userSpaceOnUse">
<stop stop-color="#CAA21F"/>
<stop offset="1" stop-color="#545454"/>
</linearGradient>
<linearGradient id="paint1_linear_857_15163" x1="-263.82" y1="651.003" x2="610.334" y2="499.91" gradientUnits="userSpaceOnUse">
<stop stop-color="#CAA21F"/>
<stop offset="1" stop-color="#545454"/>
</linearGradient>
<linearGradient id="paint2_linear_857_15163" x1="-263.82" y1="651.003" x2="610.334" y2="499.91" gradientUnits="userSpaceOnUse">
<stop stop-color="#CAA21F"/>
<stop offset="1" stop-color="#545454"/>
</linearGradient>
<linearGradient id="paint3_linear_857_15163" x1="-263.82" y1="651.003" x2="610.334" y2="499.91" gradientUnits="userSpaceOnUse">
<stop stop-color="#CAA21F"/>
<stop offset="1" stop-color="#545454"/>
</linearGradient>
<linearGradient id="paint4_linear_857_15163" x1="-263.82" y1="651.003" x2="610.334" y2="499.91" gradientUnits="userSpaceOnUse">
<stop stop-color="#CAA21F"/>
<stop offset="1" stop-color="#545454"/>
</linearGradient>
<linearGradient id="paint5_linear_857_15163" x1="-263.82" y1="651.003" x2="610.334" y2="499.91" gradientUnits="userSpaceOnUse">
<stop stop-color="#CAA21F"/>
<stop offset="1" stop-color="#545454"/>
</linearGradient>
<linearGradient id="paint6_linear_857_15163" x1="-263.82" y1="651.003" x2="610.334" y2="499.91" gradientUnits="userSpaceOnUse">
<stop stop-color="#CAA21F"/>
<stop offset="1" stop-color="#545454"/>
</linearGradient>
<linearGradient id="paint7_linear_857_15163" x1="-263.82" y1="651.003" x2="610.334" y2="499.91" gradientUnits="userSpaceOnUse">
<stop stop-color="#CAA21F"/>
<stop offset="1" stop-color="#545454"/>
</linearGradient>
<linearGradient id="paint8_linear_857_15163" x1="-263.82" y1="651.003" x2="610.334" y2="499.91" gradientUnits="userSpaceOnUse">
<stop stop-color="#CAA21F"/>
<stop offset="1" stop-color="#545454"/>
</linearGradient>
<linearGradient id="paint9_linear_857_15163" x1="-263.82" y1="651.003" x2="610.334" y2="499.91" gradientUnits="userSpaceOnUse">
<stop stop-color="#CAA21F"/>
<stop offset="1" stop-color="#545454"/>
</linearGradient>
<linearGradient id="paint10_linear_857_15163" x1="-263.82" y1="651.003" x2="610.334" y2="499.91" gradientUnits="userSpaceOnUse">
<stop stop-color="#CAA21F"/>
<stop offset="1" stop-color="#545454"/>
</linearGradient>
<linearGradient id="paint11_linear_857_15163" x1="-263.82" y1="651.003" x2="610.334" y2="499.91" gradientUnits="userSpaceOnUse">
<stop stop-color="#CAA21F"/>
<stop offset="1" stop-color="#545454"/>
</linearGradient>
<linearGradient id="paint12_linear_857_15163" x1="-263.82" y1="651.003" x2="610.334" y2="499.91" gradientUnits="userSpaceOnUse">
<stop stop-color="#CAA21F"/>
<stop offset="1" stop-color="#545454"/>
</linearGradient>
<linearGradient id="paint13_linear_857_15163" x1="-263.82" y1="651.003" x2="610.334" y2="499.91" gradientUnits="userSpaceOnUse">
<stop stop-color="#CAA21F"/>
<stop offset="1" stop-color="#545454"/>
</linearGradient>
<linearGradient id="paint14_linear_857_15163" x1="-263.82" y1="651.003" x2="610.334" y2="499.91" gradientUnits="userSpaceOnUse">
<stop stop-color="#CAA21F"/>
<stop offset="1" stop-color="#545454"/>
</linearGradient>
<linearGradient id="paint15_linear_857_15163" x1="-263.82" y1="651.003" x2="610.334" y2="499.91" gradientUnits="userSpaceOnUse">
<stop stop-color="#CAA21F"/>
<stop offset="1" stop-color="#545454"/>
</linearGradient>
<linearGradient id="paint16_linear_857_15163" x1="-263.82" y1="651.003" x2="610.334" y2="499.91" gradientUnits="userSpaceOnUse">
<stop stop-color="#CAA21F"/>
<stop offset="1" stop-color="#545454"/>
</linearGradient>
<linearGradient id="paint17_linear_857_15163" x1="-263.82" y1="651.003" x2="610.334" y2="499.91" gradientUnits="userSpaceOnUse">
<stop stop-color="#CAA21F"/>
<stop offset="1" stop-color="#545454"/>
</linearGradient>
<linearGradient id="paint18_linear_857_15163" x1="-263.82" y1="651.003" x2="610.334" y2="499.91" gradientUnits="userSpaceOnUse">
<stop stop-color="#CAA21F"/>
<stop offset="1" stop-color="#545454"/>
</linearGradient>
<linearGradient id="paint19_linear_857_15163" x1="-263.82" y1="651.003" x2="610.334" y2="499.91" gradientUnits="userSpaceOnUse">
<stop stop-color="#CAA21F"/>
<stop offset="1" stop-color="#545454"/>
</linearGradient>
<linearGradient id="paint20_linear_857_15163" x1="-263.82" y1="651.003" x2="610.334" y2="499.91" gradientUnits="userSpaceOnUse">
<stop stop-color="#CAA21F"/>
<stop offset="1" stop-color="#545454"/>
</linearGradient>
</defs>
</svg>
