<svg width="340" height="313" viewBox="0 0 340 313" fill="none" xmlns="http://www.w3.org/2000/svg">
<path fill-rule="evenodd" clip-rule="evenodd" d="M195.789 107.844C214.241 141.518 238.759 169.131 271.345 182.651C336.21 209.564 403.086 204.097 453.688 191.94C478.996 185.86 500.255 178.101 515.19 171.861C522.658 168.741 528.546 166 532.57 164.037C534.582 163.056 536.129 162.269 537.173 161.727C537.696 161.456 538.093 161.246 538.36 161.103C538.493 161.032 538.595 160.978 538.663 160.941L538.74 160.899L538.76 160.888L538.765 160.885C538.765 160.885 538.768 160.884 538.287 160.007C537.806 159.13 537.805 159.131 537.805 159.131L537.801 159.133L537.783 159.142L537.711 159.182C537.646 159.217 537.548 159.27 537.418 159.339C537.157 159.478 536.767 159.685 536.252 159.952C535.221 160.487 533.69 161.266 531.694 162.24C527.701 164.187 521.848 166.912 514.419 170.016C499.56 176.224 478.403 183.945 453.22 189.996C402.84 202.099 336.437 207.493 272.111 180.803C240.101 167.522 215.874 140.335 197.543 106.883C179.215 73.436 166.831 33.8126 158.469 -4.18753C150.108 -42.1808 145.778 -78.5087 143.538 -105.342C142.418 -118.757 141.821 -129.796 141.504 -137.479C141.345 -141.321 141.257 -144.323 141.208 -146.364C141.183 -147.384 141.169 -148.164 141.16 -148.689C141.156 -148.951 141.154 -149.149 141.152 -149.281L141.15 -149.43L141.15 -149.476C141.15 -149.476 141.15 -149.479 140.15 -149.471C139.15 -149.462 139.15 -149.461 139.15 -149.458L139.15 -149.448L139.15 -149.41L139.152 -149.257C139.154 -149.122 139.156 -148.921 139.161 -148.657C139.169 -148.127 139.184 -147.342 139.208 -146.316C139.257 -144.264 139.346 -141.25 139.505 -137.397C139.824 -129.689 140.422 -118.622 141.545 -105.176C143.79 -78.2846 148.13 -41.8636 156.515 -3.75772C164.899 34.3413 177.335 74.1671 195.789 107.844Z" fill="url(#paint0_linear_514_26267)"/>
<path fill-rule="evenodd" clip-rule="evenodd" d="M128.812 -103.561C131.346 -73.7805 136.22 -33.1011 145.582 10.4893C153.775 48.6369 165.993 87.3663 183.391 120.414C200.786 153.455 223.392 180.877 252.388 196.316C272.037 206.779 291.38 214.541 310.739 218.574C361.232 229.102 409.503 223.338 444.755 216.004C459.992 212.835 472.808 209.369 482.313 206.799C483.804 206.396 485.213 206.015 486.538 205.66C491.44 204.348 495.135 203.413 497.511 203.061C498.729 202.881 499.466 202.877 499.826 202.973C499.892 202.991 499.923 203.006 499.932 203.011C499.923 203.005 499.899 202.984 499.874 202.94L501.329 203.449C501.46 203.073 501.517 202.6 501.271 202.159C501.029 201.728 500.607 201.525 500.238 201.427C499.524 201.237 498.487 201.299 497.276 201.479C494.792 201.847 491 202.81 486.124 204.115C484.796 204.47 483.384 204.852 481.891 205.256C472.386 207.826 459.616 211.279 444.429 214.438C409.284 221.749 361.256 227.473 311.065 217.008C291.897 213.015 272.699 205.319 253.14 194.903C224.53 179.67 202.118 152.551 184.807 119.668C167.498 86.7909 155.32 48.2119 147.146 10.1534C137.802 -33.3531 132.936 -73.9624 130.406 -103.697C129.141 -118.563 128.46 -130.708 128.095 -139.136C127.913 -143.35 127.81 -146.634 127.752 -148.863C127.723 -149.978 127.706 -150.829 127.696 -151.401C127.691 -151.687 127.687 -151.904 127.685 -152.048L127.683 -152.261L127.683 -152.264C127.683 -152.264 127.683 -152.264 126.883 -152.256C126.083 -152.248 126.083 -152.247 126.083 -152.247L126.083 -152.244L126.083 -152.233L126.083 -152.191L126.086 -152.026C126.088 -151.879 126.091 -151.661 126.096 -151.373C126.106 -150.797 126.124 -149.941 126.153 -148.822C126.211 -146.584 126.314 -143.29 126.497 -139.067C126.862 -130.62 127.544 -118.452 128.812 -103.561Z" fill="url(#paint1_linear_514_26267)"/>
<path fill-rule="evenodd" clip-rule="evenodd" d="M122.249 -104.95C124.752 -74.9618 129.544 -33.6806 138.703 11.4895C146.617 50.5379 158.644 90.0861 175.695 124.049C192.744 158.006 214.841 186.431 242.925 203.158C262.181 214.621 280.85 223.598 299.73 228.232C348.398 240.178 395.056 236.329 428.964 231.078C437.443 229.765 445.126 228.364 451.843 227.1C453.459 226.797 455.018 226.501 456.518 226.216C461.261 225.316 465.417 224.527 468.926 223.946C473.565 223.176 476.983 222.786 479.09 222.956C480.166 223.042 480.735 223.265 480.985 223.5C481.09 223.598 481.144 223.703 481.163 223.837C481.185 223.986 481.168 224.21 481.055 224.534L482.377 224.996C482.538 224.536 482.613 224.076 482.549 223.636C482.483 223.18 482.274 222.789 481.943 222.479C481.324 221.897 480.332 221.651 479.202 221.56C476.897 221.375 473.313 221.799 468.697 222.564C465.171 223.149 460.991 223.942 456.243 224.843C454.746 225.127 453.192 225.422 451.585 225.725C444.873 226.987 437.207 228.385 428.75 229.694C394.92 234.933 348.473 238.755 300.064 226.873C281.375 222.285 262.842 213.385 243.641 201.955C215.872 185.415 193.929 157.246 176.946 123.421C159.967 89.6012 147.973 50.1798 140.075 11.2113C130.929 -33.8921 126.144 -75.1172 123.644 -105.067C122.395 -120.041 121.717 -132.195 121.352 -140.604C121.169 -144.809 121.064 -148.077 121.005 -150.293C120.976 -151.401 120.958 -152.246 120.947 -152.814C120.942 -153.098 120.938 -153.312 120.936 -153.456L120.934 -153.617L120.934 -153.657L120.933 -153.667L120.933 -153.669C120.933 -153.669 120.933 -153.67 120.233 -153.662C119.533 -153.654 119.533 -153.653 119.533 -153.653L119.533 -153.65L119.534 -153.598L119.536 -153.434C119.539 -153.289 119.542 -153.073 119.547 -152.788C119.558 -152.216 119.576 -151.368 119.606 -150.256C119.665 -148.032 119.77 -144.756 119.953 -140.543C120.319 -132.118 120.998 -119.945 122.249 -104.95Z" fill="url(#paint2_linear_514_26267)"/>
<path d="M115.823 -106.354C118.297 -76.1693 123.004 -34.2907 131.943 12.4874C139.572 52.4202 151.398 92.7832 168.095 127.654C184.79 162.52 206.372 191.933 233.536 209.915C158.592 151.761 128.665 27.4561 115.823 -106.354Z" fill="url(#paint3_linear_514_26267)"/>
<path fill-rule="evenodd" clip-rule="evenodd" d="M109.16 -107.76C111.608 -77.3699 116.237 -34.8854 124.962 13.4952C132.324 54.3358 143.953 95.5481 160.305 131.358C176.653 167.162 197.739 197.601 224.035 216.85C242.477 230.346 259.827 241.708 277.74 247.558C322.773 262.26 366.202 262.24 397.42 261.17C401.069 261.045 404.548 260.906 407.841 260.774C418.659 260.341 427.475 259.988 433.737 260.479C437.838 260.801 440.725 261.479 442.362 262.648C443.162 263.218 443.646 263.894 443.844 264.7C444.045 265.517 443.967 266.525 443.529 267.776L444.473 268.106C444.951 266.741 445.078 265.527 444.815 264.461C444.55 263.385 443.903 262.519 442.943 261.834C441.062 260.491 437.922 259.805 433.816 259.483C427.488 258.986 418.586 259.343 407.749 259.777C404.466 259.908 401.006 260.047 397.386 260.171C366.194 261.24 322.91 261.253 278.05 246.607C260.301 240.811 243.062 229.534 224.626 216.043C198.52 196.933 177.525 166.663 161.214 130.942C144.906 95.2272 133.298 54.0991 125.946 13.3178C117.228 -35.0242 112.603 -77.4754 110.157 -107.84C108.934 -123.022 108.256 -135.183 107.884 -143.546C107.698 -147.728 107.589 -150.961 107.525 -153.147C107.494 -154.24 107.474 -155.072 107.462 -155.63C107.456 -155.909 107.452 -156.12 107.449 -156.261L107.446 -156.459L107.446 -156.469L107.446 -156.471C107.446 -156.471 107.446 -156.472 106.946 -156.465C106.446 -156.457 106.446 -156.456 106.446 -156.456L106.446 -156.454L106.447 -156.403L106.449 -156.243C106.452 -156.101 106.456 -155.889 106.462 -155.609C106.474 -155.048 106.494 -154.214 106.526 -153.118C106.589 -150.927 106.699 -147.689 106.885 -143.502C107.258 -135.127 107.936 -122.955 109.16 -107.76Z" fill="url(#paint4_linear_514_26267)"/>
<path fill-rule="evenodd" clip-rule="evenodd" d="M102.527 -109.146C104.946 -78.5577 109.489 -35.4726 117.987 14.5198C125.076 56.2569 135.889 99.1158 151.587 136.262C167.282 173.402 187.88 204.879 214.568 223.794C218.963 226.909 223.19 230.036 227.311 233.085C227.617 233.311 227.922 233.537 228.227 233.762C232.636 237.023 236.929 240.187 241.175 243.134C249.665 249.025 257.988 254.066 266.724 257.306C309.977 273.358 351.808 275.253 381.679 276.281C382.687 276.315 383.681 276.349 384.661 276.382C398.226 276.842 409.052 277.209 416.158 278.817C419.975 279.681 422.606 280.881 424.03 282.548C425.412 284.167 425.734 286.326 424.673 289.357L425.617 289.687C426.753 286.442 426.476 283.874 424.79 281.899C423.146 279.974 420.241 278.716 416.379 277.842C409.176 276.212 398.256 275.842 384.756 275.385C383.756 275.351 382.741 275.317 381.713 275.281C351.849 274.254 310.161 272.359 267.072 256.368C258.453 253.172 250.21 248.187 241.745 242.312C237.513 239.375 233.232 236.22 228.822 232.959L227.905 232.281C223.785 229.232 219.55 226.099 215.146 222.978C188.675 204.217 168.17 172.933 152.508 135.873C136.85 98.8208 126.054 56.0428 118.973 14.3523C110.481 -35.6054 105.941 -78.6603 103.524 -109.225C102.316 -124.507 101.639 -136.666 101.263 -145.003C101.075 -149.172 100.963 -152.385 100.898 -154.556C100.865 -155.641 100.845 -156.466 100.832 -157.019C100.825 -157.295 100.821 -157.504 100.818 -157.643L100.815 -157.8L100.815 -157.839L100.815 -157.849L100.815 -157.851C100.815 -157.851 100.815 -157.852 100.315 -157.844C99.8147 -157.836 99.8147 -157.835 99.8147 -157.835L99.8147 -157.832L99.8155 -157.782L99.8186 -157.623C99.8213 -157.483 99.8256 -157.273 99.832 -156.995C99.8448 -156.44 99.8658 -155.613 99.8985 -154.526C99.9639 -152.35 100.076 -149.132 100.264 -144.958C100.64 -136.61 101.318 -124.44 102.527 -109.146Z" fill="url(#paint5_linear_514_26267)"/>
<path d="M95.8982 -110.54C98.2873 -79.7529 102.745 -36.0636 111.019 15.5496C117.856 58.1718 129.08 101.093 144.731 138.787C160.38 176.476 180.468 208.973 205.051 230.713C222.668 246.28 238.749 259.96 255.711 267.068C295.418 283.697 333.986 287.895 362.23 290.968C363.487 291.105 364.723 291.24 365.938 291.373C380.23 292.941 391.509 294.334 398.584 297.141C402.115 298.542 404.514 300.264 405.743 302.458C406.961 304.633 407.085 307.374 405.834 310.953L406.778 311.282C408.088 307.535 408.019 304.475 406.616 301.97C405.223 299.484 402.574 297.648 398.953 296.212C391.724 293.343 380.286 291.941 366.047 290.379C364.838 290.246 363.608 290.113 362.359 289.977C334.108 286.902 295.667 282.717 256.097 266.146C247.076 262.87 234.493 254.887 205.714 229.964C181.287 208.362 161.272 176.017 145.654 138.404C130.039 100.796 118.834 57.9532 112.007 15.3913C103.737 -36.1908 99.2825 -79.8527 96.8952 -110.618C95.7016 -126 95.0248 -138.158 94.6464 -146.469C94.4572 -150.625 94.3427 -153.819 94.2754 -155.974C94.2418 -157.051 94.22 -157.868 94.2066 -158.416C94.1999 -158.69 94.1953 -158.896 94.1924 -159.034L94.1892 -159.19L94.1883 -159.238L94.1883 -159.24C94.1883 -159.24 94.1882 -159.241 93.6883 -159.232C93.1884 -159.223 93.1884 -159.222 93.1884 -159.222L93.1884 -159.22L93.1886 -159.21L93.1926 -159.013C93.1955 -158.874 93.2001 -158.667 93.2069 -158.392C93.2203 -157.842 93.2422 -157.022 93.2759 -155.942C93.3433 -153.783 93.458 -150.584 93.6475 -146.424C94.0262 -138.103 94.7037 -125.934 95.8982 -110.54Z" fill="url(#paint6_linear_514_26267)"/>
<path fill-rule="evenodd" clip-rule="evenodd" d="M104.051 16.5663C117.198 103.564 148.082 191.753 195.561 237.638C212.758 254.253 228.21 269.076 244.687 276.822C279.866 293.377 314.214 299.754 340.485 304.631C343.858 305.258 347.097 305.859 350.188 306.454C363.806 309.076 374.466 311.562 380.999 315.446C384.25 317.379 386.428 319.631 387.459 322.372C388.489 325.111 388.404 328.421 386.963 332.535L387.907 332.866C389.398 328.609 389.533 325.045 388.395 322.02C387.258 318.996 384.88 316.59 381.51 314.587C374.799 310.596 363.952 308.086 350.377 305.472C347.28 304.876 344.037 304.274 340.664 303.647C314.388 298.768 280.168 292.413 245.113 275.917C228.816 268.256 213.489 253.569 196.256 236.919C149.02 191.269 118.178 103.356 105.04 16.4169L104.051 16.5663Z" fill="url(#paint7_linear_514_26267)"/>
<path fill-rule="evenodd" clip-rule="evenodd" d="M82.6282 -113.354C84.9714 -82.1642 89.2676 -37.2621 97.08 17.5949C109.689 106.393 140.244 196.283 186.065 244.57C186.633 245.169 187.199 245.765 187.762 246.359C203.844 263.313 218.215 278.465 233.663 286.575C264.684 302.853 295.092 310.931 319.255 317.35C324.659 318.786 329.751 320.138 334.467 321.481C347.403 325.164 357.442 328.754 363.436 333.725C366.418 336.197 368.376 338.993 369.202 342.295C370.029 345.602 369.735 349.474 368.11 354.12L369.054 354.45C370.723 349.68 371.06 345.602 370.172 342.053C369.283 338.498 367.181 335.53 364.075 332.955C357.894 327.83 347.65 324.195 334.741 320.519C330.002 319.17 324.894 317.813 319.478 316.374C295.316 309.954 265.039 301.91 234.128 285.689C218.83 277.658 204.562 262.617 188.416 245.595C187.876 245.026 187.334 244.455 186.791 243.882C141.186 195.824 110.669 106.187 98.07 17.4541C90.2612 -37.3783 85.9671 -82.2585 83.6254 -113.429C82.4546 -129.014 81.7718 -141.171 81.3817 -149.432C81.1867 -153.562 81.0649 -156.718 80.9918 -158.84C80.9553 -159.902 80.9309 -160.705 80.9157 -161.243C80.9081 -161.511 80.9028 -161.714 80.8994 -161.849L80.8947 -162.039L80.8945 -162.048L80.8945 -162.05C80.8945 -162.05 80.8945 -162.051 80.3946 -162.04C79.8946 -162.029 79.8946 -162.028 79.8946 -162.028L79.8947 -162.025L79.895 -162.016L79.8996 -161.823C79.9031 -161.687 79.9084 -161.484 79.9161 -161.214C79.9313 -160.675 79.9557 -159.87 79.9923 -158.806C80.0656 -156.679 80.1876 -153.519 80.3828 -149.384C80.7733 -141.115 81.4566 -128.949 82.6282 -113.354Z" fill="url(#paint8_linear_514_26267)"/>
<path fill-rule="evenodd" clip-rule="evenodd" d="M75.9908 -114.77C78.3075 -83.3841 82.5173 -37.8782 90.0905 18.6075C102.232 109.129 132.367 200.808 176.562 251.481C177.755 252.849 178.937 254.208 180.109 255.555C194.991 272.666 208.258 287.921 222.625 296.313C249.838 312.199 276.62 321.547 298.621 329.226C305.901 331.767 312.658 334.125 318.733 336.477C330.984 341.22 340.408 345.915 345.872 351.976C348.592 354.994 350.325 358.345 350.938 362.212C351.552 366.085 351.049 370.512 349.238 375.688L350.182 376.018C352.032 370.732 352.572 366.133 351.926 362.056C351.278 357.973 349.447 354.449 346.615 351.307C340.974 345.049 331.339 340.285 319.095 335.545C312.973 333.175 306.185 330.806 298.883 328.257C276.895 320.582 250.25 311.282 223.129 295.45C208.912 287.145 195.753 272.016 180.824 254.854C179.666 253.522 178.497 252.178 177.316 250.824C133.313 200.372 103.214 108.928 91.0817 18.4746C83.5115 -37.9894 79.3035 -83.4755 76.9882 -114.844C75.8305 -130.528 75.1461 -142.683 74.751 -150.915C74.5534 -155.032 74.4283 -158.168 74.3525 -160.274C74.3146 -161.327 74.289 -162.123 74.273 -162.655C74.265 -162.921 74.2593 -163.122 74.2556 -163.255L74.2516 -163.405L74.2507 -163.443L74.2504 -163.452L74.2504 -163.455C74.2504 -163.455 74.2504 -163.455 73.7505 -163.443C73.2506 -163.431 73.2506 -163.43 73.2506 -163.43L73.2507 -163.427L73.2509 -163.418L73.256 -163.228C73.2597 -163.093 73.2653 -162.892 73.2733 -162.625C73.2895 -162.091 73.3152 -161.293 73.3531 -160.238C73.429 -158.128 73.5544 -154.988 73.7521 -150.868C74.1476 -142.627 74.8326 -130.463 75.9908 -114.77Z" fill="url(#paint9_linear_514_26267)"/>
<path fill-rule="evenodd" clip-rule="evenodd" d="M69.3896 -116.163C71.6829 -84.579 75.8084 -38.4677 83.1372 19.6494C94.7906 111.931 124.526 205.402 167.093 258.433C168.73 260.472 170.343 262.492 171.935 264.487C178.088 272.195 183.935 279.521 189.701 286.041C196.96 294.249 204.117 301.21 211.632 306.075C228.889 317.253 245.97 325.704 261.623 332.81C267.493 335.476 273.156 337.949 278.551 340.306C287.557 344.239 295.816 347.846 303.046 351.476C314.609 357.279 323.422 363.084 328.36 370.248C333.266 377.367 334.388 385.895 330.402 397.286L331.346 397.616C335.415 385.99 334.307 377.115 329.183 369.681C324.091 362.292 315.075 356.394 303.495 350.582C296.244 346.943 287.94 343.316 278.913 339.372C273.522 337.018 267.873 334.55 262.036 331.9C246.405 324.803 229.374 316.375 212.176 305.236C204.773 300.444 197.687 293.562 190.45 285.379C184.703 278.88 178.876 271.58 172.727 263.876C171.132 261.878 169.516 259.852 167.873 257.807C125.476 204.988 95.7736 111.732 84.1294 19.5242C76.8029 -38.5739 72.6792 -84.6676 70.387 -116.235C69.2409 -132.019 68.5528 -144.171 68.1512 -152.376C67.9503 -156.479 67.8212 -159.595 67.7422 -161.685C67.7027 -162.73 67.6758 -163.518 67.6588 -164.045C67.6502 -164.309 67.6441 -164.507 67.6403 -164.639L67.6359 -164.787L67.6349 -164.824L67.6346 -164.834L67.6346 -164.836C67.6346 -164.836 67.6345 -164.837 67.1347 -164.823C66.6349 -164.81 66.6349 -164.809 66.6349 -164.809L66.635 -164.806L66.6352 -164.797L66.6363 -164.759L66.6407 -164.609C66.6446 -164.476 66.6507 -164.277 66.6593 -164.013C66.6764 -163.484 66.7033 -162.694 66.7429 -161.647C66.822 -159.553 66.9513 -156.434 67.1523 -152.327C67.5543 -144.114 68.2429 -131.954 69.3896 -116.163Z" fill="url(#paint10_linear_514_26267)"/>
<path fill-rule="evenodd" clip-rule="evenodd" d="M62.7846 -117.59C65.0572 -85.81 69.1008 -39.0946 76.1854 20.654C87.3362 114.697 116.654 209.986 157.623 265.343C173.123 286.33 188.027 303.021 200.547 315.771C223.956 339.604 249.916 352.9 271.089 363.744C275.687 366.099 280.059 368.339 284.13 370.545C295.567 376.743 304.574 382.653 309.651 390.089C314.694 397.477 315.9 406.44 311.547 418.881L312.49 419.211C316.923 406.543 315.738 397.233 310.477 389.526C305.25 381.868 296.04 375.862 284.607 369.666C280.508 367.444 276.116 365.194 271.504 362.832C250.335 351.988 224.545 338.776 201.261 315.071C188.769 302.348 173.896 285.693 158.428 264.749C117.607 209.593 88.3202 114.502 77.1785 20.5362C70.0959 -39.196 66.0536 -85.8959 63.7821 -117.661C62.6463 -133.544 61.9531 -145.693 61.544 -153.87C61.3394 -157.959 61.2059 -161.055 61.1235 -163.128C61.0822 -164.165 61.0538 -164.946 61.0357 -165.467C61.0267 -165.728 61.0202 -165.924 61.016 -166.055L61.0099 -166.248L61.0099 -166.25C61.0099 -166.25 61.0098 -166.25 60.51 -166.236C60.0102 -166.221 60.0103 -166.22 60.0103 -166.22L60.0103 -166.217L60.0117 -166.171L60.0165 -166.023C60.0207 -165.891 60.0272 -165.694 60.0362 -165.433C60.0544 -164.909 60.083 -164.127 60.1242 -163.088C60.2068 -161.012 60.3405 -157.912 60.5453 -153.82C60.9547 -145.636 61.6483 -133.48 62.7846 -117.59Z" fill="url(#paint11_linear_514_26267)"/>
<path fill-rule="evenodd" clip-rule="evenodd" d="M56.1592 -119.003C58.4028 -87.0187 62.3567 -39.6889 69.1978 21.6983C79.8562 117.497 108.726 214.62 148.096 272.316C163.187 294.348 177.623 312 189.52 325.513C210.321 349.133 233.589 363.649 253.021 375.772C258.463 379.167 263.605 382.375 268.307 385.542C279.074 392.795 287.503 399.81 292.079 408.354C296.635 416.862 297.405 426.957 292.685 440.461L293.629 440.791C298.419 427.088 297.679 416.692 292.96 407.881C288.26 399.106 279.649 391.976 268.865 384.713C264.122 381.517 258.951 378.291 253.488 374.883C234.068 362.766 210.964 348.35 190.27 324.852C178.395 311.363 163.985 293.744 148.922 271.752C109.681 214.247 80.8412 117.306 70.1917 21.5877C63.3522 -39.7855 59.3995 -87.1018 57.1567 -119.073C56.0353 -135.059 55.3414 -147.208 54.9278 -155.361C54.7211 -159.437 54.5844 -162.514 54.4994 -164.571C54.4569 -165.6 54.4273 -166.374 54.4084 -166.89C54.399 -167.149 54.3921 -167.343 54.3877 -167.472L54.3827 -167.617L54.3813 -167.662L54.3812 -167.665C54.3812 -167.665 54.3811 -167.665 53.8814 -167.649C53.3817 -167.633 53.3817 -167.632 53.3817 -167.632L53.3818 -167.63L53.3821 -167.621L53.3882 -167.437C53.3927 -167.307 53.3996 -167.113 53.409 -166.854C53.428 -166.336 53.4576 -165.56 53.5002 -164.53C53.5854 -162.469 53.7221 -159.389 53.929 -155.31C54.3429 -147.151 55.0372 -134.996 56.1592 -119.003Z" fill="url(#paint12_linear_514_26267)"/>
<path fill-rule="evenodd" clip-rule="evenodd" d="M49.5369 -120.395C51.7686 -88.226 55.6462 -40.3009 62.2297 22.7272C72.4249 120.252 100.808 219.259 138.637 279.219C153.234 302.376 167.229 320.995 178.505 335.257C196.912 358.517 217.66 374.013 235.372 387.241C241.545 391.851 247.348 396.185 252.556 400.477C262.65 408.796 270.492 416.939 274.556 426.609C278.609 436.255 278.929 447.487 273.834 462.045L274.778 462.375C279.935 447.64 279.648 436.145 275.478 426.221C271.317 416.321 263.318 408.051 253.192 399.705C247.928 395.367 242.086 391.004 235.889 386.375C218.198 373.162 197.608 357.784 179.289 334.637C168.027 320.392 154.055 301.803 139.482 278.685C101.767 218.904 73.4109 120.066 63.2243 22.6233C56.6421 -40.3931 52.7655 -88.3066 50.5345 -120.465C49.419 -136.544 48.715 -148.684 48.2898 -156.804C48.0772 -160.864 47.9343 -163.918 47.8446 -165.958C47.7997 -166.977 47.7682 -167.743 47.7478 -168.254C47.7377 -168.51 47.7303 -168.701 47.7255 -168.829L47.7188 -169.008L47.7185 -169.017L47.7184 -169.019C47.7184 -169.019 47.7184 -169.02 47.2187 -169.002C46.719 -168.984 46.719 -168.983 46.719 -168.983L46.7191 -168.981L46.7195 -168.972L46.7208 -168.936L46.7261 -168.791C46.731 -168.663 46.7384 -168.47 46.7486 -168.214C46.769 -167.702 46.8006 -166.935 46.8455 -165.914C46.9353 -163.872 47.0783 -160.814 47.2911 -156.751C47.7166 -148.626 48.421 -136.48 49.5369 -120.395Z" fill="url(#paint13_linear_514_26267)"/>
<path fill-rule="evenodd" clip-rule="evenodd" d="M42.9072 -121.799C45.1267 -89.4435 48.9288 -40.9224 55.2598 23.744C64.9983 122.986 92.8659 223.907 129.161 286.162C131.748 290.604 134.243 294.979 136.672 299.238C140.868 306.595 144.867 313.606 148.798 320.015C155.007 330.138 161.081 338.816 167.566 345.072C179.852 356.94 192.061 367.293 203.376 376.888C204.863 378.149 206.335 379.397 207.789 380.634C220.318 391.287 231.555 401.089 240.37 411.166C249.181 421.239 255.548 431.563 258.359 443.248C261.169 454.928 260.438 468.015 254.973 483.636L255.917 483.966C261.433 468.2 262.195 454.915 259.332 443.014C256.469 431.118 249.996 420.653 241.123 410.508C232.252 400.367 220.96 390.52 208.437 379.872C206.982 378.634 205.509 377.386 204.022 376.124C192.705 366.528 180.522 356.196 168.26 344.353C161.87 338.188 155.85 329.599 149.651 319.492C145.726 313.094 141.743 306.11 137.553 298.764C135.123 294.503 132.623 290.12 130.025 285.659C93.8273 223.57 65.9853 122.805 56.2551 23.6466C49.925 -41.0102 46.1237 -89.5217 43.9049 -121.868C42.7956 -138.041 42.0818 -150.172 41.6454 -158.26C41.4272 -162.304 41.2785 -165.337 41.1841 -167.359C41.137 -168.369 41.1034 -169.128 41.0817 -169.633C41.0708 -169.885 41.063 -170.075 41.0578 -170.201L41.0502 -170.387L41.0501 -170.389C41.0501 -170.389 41.0502 -170.389 40.5505 -170.37C40.0508 -170.35 40.0509 -170.349 40.0509 -170.349L40.051 -170.347L40.0528 -170.302L40.0586 -170.16C40.0639 -170.033 40.0718 -169.843 40.0826 -169.59C40.1044 -169.083 40.1379 -168.324 40.1851 -167.312C40.2795 -165.288 40.4285 -162.253 40.6468 -158.206C41.0834 -150.114 41.7976 -137.977 42.9072 -121.799Z" fill="url(#paint14_linear_514_26267)"/>
<path fill-rule="evenodd" clip-rule="evenodd" d="M36.3141 -123.231C38.5076 -90.6736 42.2191 -41.5386 48.2912 24.7745C57.5387 125.787 84.9122 228.586 119.668 293.079C122.41 298.166 125.038 303.168 127.586 308.019C131.386 315.251 135.009 322.147 138.568 328.487C144.517 339.083 150.32 348.189 156.539 354.812C166.535 365.468 176.479 375.119 185.852 384.215C188.754 387.032 191.602 389.795 194.379 392.519C206.134 404.048 216.633 414.864 224.763 426.019C232.889 437.169 238.637 448.64 240.903 461.475C243.169 474.307 241.962 488.54 236.122 505.221L237.066 505.552C242.952 488.738 244.189 474.331 241.888 461.301C239.587 448.274 233.758 436.662 225.571 425.43C217.388 414.202 206.837 403.336 195.079 391.805C192.295 389.075 189.443 386.307 186.538 383.488C177.168 374.394 167.247 364.765 157.268 354.128C151.136 347.597 145.381 338.581 139.44 327.997C135.885 321.665 132.276 314.795 128.483 307.576C125.934 302.724 123.302 297.714 120.549 292.605C85.8759 228.266 58.5266 125.609 49.2871 24.6833C43.2156 -41.622 39.5049 -90.7489 37.3119 -123.298C36.2154 -139.573 35.4984 -151.704 35.0556 -159.765C34.8342 -163.796 34.6813 -166.809 34.5838 -168.814C34.535 -169.817 34.5001 -170.568 34.4774 -171.068C34.4661 -171.317 34.4577 -171.505 34.4522 -171.629L34.4462 -171.77L34.4443 -171.813L34.4442 -171.815C34.4442 -171.815 34.4442 -171.816 33.9446 -171.795C33.4451 -171.774 33.4451 -171.773 33.4451 -171.773L33.4451 -171.771L33.4455 -171.762L33.4532 -171.586C33.4587 -171.46 33.467 -171.273 33.4784 -171.022C33.5012 -170.521 33.5361 -169.769 33.5849 -168.766C33.6826 -166.758 33.8355 -163.743 34.0571 -159.71C34.5002 -151.645 35.2174 -139.51 36.3141 -123.231Z" fill="url(#paint15_linear_514_26267)"/>
<path fill-rule="evenodd" clip-rule="evenodd" d="M29.6581 -124.623C31.8352 -91.8708 35.4633 -42.1295 41.2677 25.8298C50.0994 128.538 76.9344 233.274 110.179 300.013C112.985 305.647 115.664 311.18 118.254 316.53C121.747 323.745 125.079 330.627 128.347 336.979C134.043 348.047 139.581 357.574 145.516 364.556C153.378 373.81 161.208 382.457 168.701 390.731C172.917 395.387 177.027 399.926 180.976 404.389C191.954 416.795 201.706 428.634 209.146 440.876C216.583 453.113 221.702 465.743 223.421 479.729C225.14 493.713 223.462 509.082 217.263 526.803L218.207 527.133C224.449 509.291 226.154 493.766 224.413 479.607C222.673 465.448 217.491 452.683 210.001 440.357C202.513 428.035 192.711 416.142 181.725 403.726C177.76 399.245 173.644 394.699 169.424 390.04C161.94 381.775 154.132 373.153 146.278 363.909C140.422 357.019 134.927 347.579 129.236 336.521C125.97 330.173 122.65 323.316 119.164 316.116C116.575 310.766 113.893 305.227 111.074 299.567C77.9006 232.97 51.0883 128.366 42.2641 25.7444C36.4603 -42.2087 32.8326 -91.9436 30.656 -124.689C29.5676 -141.062 28.842 -153.188 28.3886 -161.22C28.1619 -165.236 28.0031 -168.228 27.9011 -170.217C27.8501 -171.211 27.8132 -171.954 27.7892 -172.449C27.7771 -172.696 27.7683 -172.881 27.7624 -173.004L27.7543 -173.177L27.7539 -173.186L27.7538 -173.188C27.7538 -173.188 27.7537 -173.188 27.2543 -173.165C26.7548 -173.142 26.7549 -173.142 26.7549 -173.142L26.7549 -173.139L26.7635 -172.957C26.7693 -172.833 26.7783 -172.648 26.7903 -172.4C26.8144 -171.905 26.8513 -171.161 26.9023 -170.166C27.0045 -168.175 27.1633 -165.181 27.3901 -161.163C27.8437 -153.128 28.5696 -140.999 29.6581 -124.623Z" fill="url(#paint16_linear_514_26267)"/>
<path fill-rule="evenodd" clip-rule="evenodd" d="M23.0966 -126.074C25.2562 -93.1299 28.8026 -42.7842 34.3501 26.8234C42.6648 131.294 68.9409 237.976 100.697 306.939C103.553 313.144 106.266 319.227 108.881 325.092C112.081 332.268 115.135 339.116 118.127 345.459C123.569 356.997 128.843 366.945 134.5 374.303C140.445 382.038 146.357 389.424 152.088 396.585C168.562 417.169 183.548 435.893 193.573 455.693C207.056 482.323 211.536 510.863 198.403 548.396L199.346 548.726C212.575 510.922 208.064 482.1 194.465 455.242C184.39 435.342 169.31 416.5 152.813 395.889C147.093 388.742 141.203 381.384 135.292 373.694C129.706 366.426 124.47 356.562 119.031 345.033C116.038 338.688 112.996 331.864 109.803 324.704C107.189 318.842 104.475 312.755 101.605 306.521C69.9094 237.689 43.6547 131.127 35.347 26.7439C29.7998 -42.8593 26.2537 -93.2003 24.0945 -126.14C23.0149 -142.61 22.282 -154.729 21.819 -162.731C21.5876 -166.731 21.4235 -169.703 21.3174 -171.674C21.2644 -172.659 21.2258 -173.394 21.2004 -173.883C21.1878 -174.128 21.1784 -174.311 21.1723 -174.432L21.1654 -174.569L21.1636 -174.603L21.1632 -174.612L21.1631 -174.614C21.1631 -174.614 21.1631 -174.615 20.6637 -174.59C20.1643 -174.565 20.1643 -174.564 20.1643 -174.564L20.1644 -174.562L20.1649 -174.553L20.1665 -174.519L20.1735 -174.382C20.1797 -174.26 20.1891 -174.076 20.2018 -173.832C20.2271 -173.342 20.2657 -172.606 20.3188 -171.62C20.425 -169.648 20.5891 -166.675 20.8207 -162.673C21.2838 -154.668 22.0169 -142.547 23.0966 -126.074Z" fill="url(#paint17_linear_514_26267)"/>
<path fill-rule="evenodd" clip-rule="evenodd" d="M16.4935 -127.498C18.6364 -94.3606 22.0995 -43.4085 27.3799 27.8526C35.2378 134.04 60.9397 242.697 91.2141 313.876C94.1025 320.665 96.8341 327.311 99.4597 333.7C102.387 340.822 105.182 347.622 107.915 353.941C113.107 365.944 118.117 376.31 123.485 384.049C127.663 390.069 131.821 395.927 135.897 401.671C152.77 425.443 168.251 447.256 178.013 470.506C190.115 499.327 193.418 530.344 179.549 569.98L180.493 570.31C194.446 530.432 191.13 499.159 178.935 470.119C169.126 446.757 153.563 424.831 136.683 401.049C132.613 395.316 128.467 389.474 124.307 383.479C119 375.827 114.022 365.54 108.833 353.544C106.095 347.216 103.311 340.44 100.392 333.337C97.7694 326.956 95.0381 320.309 92.1344 313.485C61.9104 242.425 36.2285 133.878 28.3772 27.7787C23.097 -43.4795 19.6342 -94.4285 17.4915 -127.562C16.4201 -144.129 15.6788 -156.243 15.2052 -164.214C14.9685 -168.199 14.7988 -171.15 14.6882 -173.103C14.6329 -174.08 14.5923 -174.808 14.5656 -175.291L14.5263 -176.011L14.5262 -176.013C14.5262 -176.013 14.5262 -176.013 14.0269 -175.987C13.5275 -175.96 13.5276 -175.959 13.5276 -175.959L13.5277 -175.957L13.5672 -175.236C13.5939 -174.752 13.6343 -174.024 13.6897 -173.047C13.8003 -171.092 13.9702 -168.141 14.2069 -164.155C14.6805 -156.182 15.422 -144.067 16.4935 -127.498Z" fill="url(#paint18_linear_514_26267)"/>
<path fill-rule="evenodd" clip-rule="evenodd" d="M9.90301 -128.915C12.0302 -95.586 15.409 -44.0282 20.4153 28.8875C27.8319 136.804 52.9235 247.434 81.744 320.811C84.6357 328.181 87.351 335.365 89.9538 342.25L90.0665 342.549C92.7031 349.524 95.2253 356.193 97.6973 362.431C102.639 374.901 107.392 385.682 112.48 393.789C115.054 397.907 117.618 401.97 120.156 405.99C137.265 433.098 153.143 458.255 162.484 485.301C173.197 516.322 175.305 549.828 160.702 591.569L161.646 591.899C176.326 549.94 174.214 516.203 163.429 484.975C154.048 457.811 138.101 432.546 120.997 405.449C118.46 401.43 115.898 397.37 113.328 393.258C108.292 385.235 103.567 374.527 98.627 362.062C96.1585 355.833 93.6391 349.172 91.002 342.195L90.8856 341.887C88.2842 335.005 85.568 327.819 82.6749 320.446C53.8965 247.176 28.8235 136.647 21.4129 28.8189C16.4067 -44.0953 13.0281 -95.6515 10.901 -128.979C9.83742 -145.643 9.08682 -157.749 8.60206 -165.69C8.35969 -169.66 8.18377 -172.588 8.06846 -174.525C8.01078 -175.493 7.96836 -176.212 7.94023 -176.69L7.89912 -177.393L7.89862 -177.401L7.89851 -177.403C7.89851 -177.403 7.89847 -177.404 7.39928 -177.375C6.90009 -177.346 6.90012 -177.345 6.90012 -177.345L6.90028 -177.343L6.94186 -176.632C6.96999 -176.154 7.01254 -175.433 7.07018 -174.465C7.18549 -172.528 7.36148 -169.599 7.60388 -165.629C8.08868 -157.687 8.83939 -145.58 9.90301 -128.915Z" fill="url(#paint19_linear_514_26267)"/>
<path fill-rule="evenodd" clip-rule="evenodd" d="M3.19406 -130.342C5.30601 -96.8206 8.60133 -44.6563 13.3354 29.9155C20.2997 139.56 44.7882 252.191 72.1589 327.775C74.9716 335.537 77.6068 343.091 80.1271 350.322L80.3343 350.917C82.7788 357.932 85.1166 364.64 87.4029 370.931C92.1021 383.861 96.5954 395.063 101.374 403.576C102.528 405.635 103.68 407.685 104.827 409.726C140.264 472.787 171.44 528.265 141.742 613.123L142.875 613.519C172.754 528.144 141.331 472.23 105.915 409.211C104.754 407.145 103.588 405.072 102.421 402.99C97.6941 394.569 93.2283 383.447 88.5308 370.521C86.2478 364.239 83.9128 357.539 81.4678 350.523L81.2603 349.928C78.7402 342.697 76.1027 335.137 73.2872 327.367C45.9582 251.897 21.4906 139.379 14.533 29.8394C9.79897 -44.7322 6.50361 -96.8963 4.39173 -130.418C3.33576 -147.178 2.57571 -159.278 2.07966 -167.188C1.83166 -171.142 1.64957 -174.05 1.52955 -175.968L1.3517 -178.814L1.35159 -178.816C1.35159 -178.816 1.35149 -178.817 0.752668 -178.779C0.153843 -178.742 0.153823 -178.741 0.153823 -178.741L0.153939 -178.739L0.331864 -175.893C0.451864 -173.975 0.63395 -171.067 0.881993 -167.113C1.37808 -159.203 2.13811 -147.103 3.19406 -130.342Z" fill="url(#paint20_linear_514_26267)"/>
<defs>
<linearGradient id="paint0_linear_514_26267" x1="-304.819" y1="472.004" x2="569.336" y2="320.91" gradientUnits="userSpaceOnUse">
<stop stop-color="#CAA21F"/>
<stop offset="1" stop-color="#545454"/>
</linearGradient>
<linearGradient id="paint1_linear_514_26267" x1="-304.819" y1="472.004" x2="569.336" y2="320.91" gradientUnits="userSpaceOnUse">
<stop stop-color="#CAA21F"/>
<stop offset="1" stop-color="#545454"/>
</linearGradient>
<linearGradient id="paint2_linear_514_26267" x1="-304.819" y1="472.004" x2="569.336" y2="320.91" gradientUnits="userSpaceOnUse">
<stop stop-color="#CAA21F"/>
<stop offset="1" stop-color="#545454"/>
</linearGradient>
<linearGradient id="paint3_linear_514_26267" x1="-304.819" y1="472.004" x2="569.336" y2="320.91" gradientUnits="userSpaceOnUse">
<stop stop-color="#CAA21F"/>
<stop offset="1" stop-color="#545454"/>
</linearGradient>
<linearGradient id="paint4_linear_514_26267" x1="-304.819" y1="472.004" x2="569.336" y2="320.91" gradientUnits="userSpaceOnUse">
<stop stop-color="#CAA21F"/>
<stop offset="1" stop-color="#545454"/>
</linearGradient>
<linearGradient id="paint5_linear_514_26267" x1="-304.819" y1="472.004" x2="569.336" y2="320.91" gradientUnits="userSpaceOnUse">
<stop stop-color="#CAA21F"/>
<stop offset="1" stop-color="#545454"/>
</linearGradient>
<linearGradient id="paint6_linear_514_26267" x1="-304.819" y1="472.004" x2="569.336" y2="320.91" gradientUnits="userSpaceOnUse">
<stop stop-color="#CAA21F"/>
<stop offset="1" stop-color="#545454"/>
</linearGradient>
<linearGradient id="paint7_linear_514_26267" x1="-304.819" y1="472.004" x2="569.336" y2="320.91" gradientUnits="userSpaceOnUse">
<stop stop-color="#CAA21F"/>
<stop offset="1" stop-color="#545454"/>
</linearGradient>
<linearGradient id="paint8_linear_514_26267" x1="-304.819" y1="472.004" x2="569.336" y2="320.91" gradientUnits="userSpaceOnUse">
<stop stop-color="#CAA21F"/>
<stop offset="1" stop-color="#545454"/>
</linearGradient>
<linearGradient id="paint9_linear_514_26267" x1="-304.819" y1="472.004" x2="569.336" y2="320.91" gradientUnits="userSpaceOnUse">
<stop stop-color="#CAA21F"/>
<stop offset="1" stop-color="#545454"/>
</linearGradient>
<linearGradient id="paint10_linear_514_26267" x1="-304.819" y1="472.004" x2="569.336" y2="320.91" gradientUnits="userSpaceOnUse">
<stop stop-color="#CAA21F"/>
<stop offset="1" stop-color="#545454"/>
</linearGradient>
<linearGradient id="paint11_linear_514_26267" x1="-304.819" y1="472.004" x2="569.336" y2="320.91" gradientUnits="userSpaceOnUse">
<stop stop-color="#CAA21F"/>
<stop offset="1" stop-color="#545454"/>
</linearGradient>
<linearGradient id="paint12_linear_514_26267" x1="-304.819" y1="472.004" x2="569.336" y2="320.91" gradientUnits="userSpaceOnUse">
<stop stop-color="#CAA21F"/>
<stop offset="1" stop-color="#545454"/>
</linearGradient>
<linearGradient id="paint13_linear_514_26267" x1="-304.819" y1="472.004" x2="569.336" y2="320.91" gradientUnits="userSpaceOnUse">
<stop stop-color="#CAA21F"/>
<stop offset="1" stop-color="#545454"/>
</linearGradient>
<linearGradient id="paint14_linear_514_26267" x1="-304.819" y1="472.004" x2="569.336" y2="320.91" gradientUnits="userSpaceOnUse">
<stop stop-color="#CAA21F"/>
<stop offset="1" stop-color="#545454"/>
</linearGradient>
<linearGradient id="paint15_linear_514_26267" x1="-304.819" y1="472.004" x2="569.336" y2="320.91" gradientUnits="userSpaceOnUse">
<stop stop-color="#CAA21F"/>
<stop offset="1" stop-color="#545454"/>
</linearGradient>
<linearGradient id="paint16_linear_514_26267" x1="-304.819" y1="472.004" x2="569.336" y2="320.91" gradientUnits="userSpaceOnUse">
<stop stop-color="#CAA21F"/>
<stop offset="1" stop-color="#545454"/>
</linearGradient>
<linearGradient id="paint17_linear_514_26267" x1="-304.819" y1="472.004" x2="569.336" y2="320.91" gradientUnits="userSpaceOnUse">
<stop stop-color="#CAA21F"/>
<stop offset="1" stop-color="#545454"/>
</linearGradient>
<linearGradient id="paint18_linear_514_26267" x1="-304.819" y1="472.004" x2="569.336" y2="320.91" gradientUnits="userSpaceOnUse">
<stop stop-color="#CAA21F"/>
<stop offset="1" stop-color="#545454"/>
</linearGradient>
<linearGradient id="paint19_linear_514_26267" x1="-304.819" y1="472.004" x2="569.336" y2="320.91" gradientUnits="userSpaceOnUse">
<stop stop-color="#CAA21F"/>
<stop offset="1" stop-color="#545454"/>
</linearGradient>
<linearGradient id="paint20_linear_514_26267" x1="-304.819" y1="472.004" x2="569.336" y2="320.91" gradientUnits="userSpaceOnUse">
<stop stop-color="#CAA21F"/>
<stop offset="1" stop-color="#545454"/>
</linearGradient>
</defs>
</svg>
