<svg width="618" height="734" viewBox="0 0 618 734" fill="none" xmlns="http://www.w3.org/2000/svg">
<mask id="mask0_857_15115" style="mask-type:alpha" maskUnits="userSpaceOnUse" x="-405" y="-279" width="1412" height="1429">
<path d="M-355.491 1117.28L134.781 476C234.16 471.224 322.006 444.71 401.641 385C481.275 325.29 627.481 -10.3163 660 -104.436L1006.9 367.276L835.377 1149.02L-355.491 1117.28Z" fill="black"/>
<path d="M-404.591 178.873L134.781 -278.469L637.526 -104.436C621.901 -8.35329 477.638 299.777 401.641 360.535C325.643 421.292 221.381 451.786 124.31 445.799L-404.591 178.873Z" fill="black"/>
</mask>
<g mask="url(#mask0_857_15115)">
<path fill-rule="evenodd" clip-rule="evenodd" d="M343.285 228.43C315.422 254.849 283.636 273.645 248.477 276.555C178.49 282.349 116.487 256.698 72.0248 229.654C49.7874 216.127 31.9178 202.24 19.6057 191.733C13.4492 186.479 8.68086 182.069 5.44944 178.971C3.83369 177.421 2.60207 176.199 1.77317 175.364C1.35871 174.946 1.04493 174.625 0.834139 174.407C0.728743 174.298 0.649093 174.216 0.595481 174.16L0.534628 174.096L0.518914 174.079L0.514749 174.075C0.514749 174.075 0.513047 174.073 1.23891 173.385C1.96477 172.698 1.96553 172.698 1.96553 172.698L1.96876 172.702L1.98258 172.716L2.03961 172.776C2.09065 172.829 2.1677 172.909 2.27045 173.015C2.47596 173.228 2.78431 173.543 3.19316 173.955C4.01088 174.78 5.23061 175.99 6.83375 177.527C10.0401 180.602 14.7798 184.986 20.904 190.212C33.1536 200.666 50.9367 214.486 73.0641 227.945C117.332 254.871 178.906 280.308 248.312 274.562C282.85 271.703 314.229 253.224 341.909 226.978C369.585 200.736 393.49 166.795 413.069 133.171C432.645 99.553 447.874 66.2884 458.211 41.4247C463.378 28.9941 467.321 18.6663 469.972 11.448C471.298 7.83888 472.3 5.00733 472.97 3.07914C473.306 2.11506 473.558 1.37681 473.726 0.880177C473.81 0.631864 473.874 0.44394 473.916 0.318393L473.963 0.177072L473.977 0.13338C473.977 0.13338 473.978 0.13079 474.928 0.444725C475.877 0.75866 475.877 0.75988 475.876 0.762107L475.873 0.771555L475.861 0.808404L475.812 0.953228C475.769 1.08113 475.705 1.27144 475.621 1.52218C475.451 2.02366 475.197 2.76687 474.86 3.73608C474.185 5.67448 473.179 8.51693 471.85 12.1375C469.191 19.3785 465.237 29.7326 460.057 42.1924C449.699 67.1096 434.431 100.46 414.798 134.178C395.168 167.889 371.152 202.007 343.285 228.43Z" fill="url(#paint0_linear_857_15115)"/>
<path fill-rule="evenodd" clip-rule="evenodd" d="M471.687 47.6226C460.17 75.2024 443.093 112.444 420.853 151.085C401.389 184.902 377.916 218.041 351.247 244.187C324.583 270.329 294.677 289.527 262.348 295.361C240.442 299.317 219.651 300.794 199.987 298.715C148.693 293.302 104.495 273.056 73.173 255.297C59.6347 247.621 48.4914 240.403 40.2272 235.05C38.931 234.21 37.7057 233.416 36.5531 232.674C32.2868 229.926 29.0538 227.906 26.9 226.845C25.7951 226.3 25.0949 226.072 24.7226 226.053C24.6544 226.049 24.6206 226.054 24.61 226.056C24.6202 226.053 24.65 226.041 24.6865 226.007L23.1465 226.046C23.1363 225.648 23.2261 225.181 23.5957 224.836C23.9574 224.499 24.422 224.435 24.8034 224.455C25.541 224.492 26.5087 224.868 27.6072 225.409C29.86 226.52 33.1755 228.596 37.4195 231.329C38.5755 232.074 39.8031 232.869 41.1008 233.709C49.3655 239.062 60.468 246.254 73.9622 253.905C105.189 271.611 149.168 291.743 200.155 297.124C219.626 299.182 240.258 297.724 262.064 293.787C293.962 288.03 323.591 269.061 350.127 243.045C376.658 217.033 400.048 184.025 419.466 150.287C441.663 111.72 458.711 74.543 470.211 47.006C475.96 33.2383 480.322 21.8823 483.245 13.9697C484.707 10.0135 485.809 6.91826 486.546 4.81297C486.914 3.76033 487.191 2.9552 487.375 2.41368C487.468 2.14293 487.537 1.93808 487.583 1.80114L487.651 1.59906L487.652 1.59678C487.652 1.59678 487.652 1.59614 488.411 1.84856C489.17 2.10097 489.17 2.10197 489.17 2.10197L489.169 2.1046L489.166 2.11476L489.152 2.1546L489.1 2.31165C489.053 2.4505 488.983 2.65729 488.89 2.92999C488.704 3.47545 488.426 4.2846 488.056 5.34138C487.317 7.45492 486.211 10.5589 484.746 14.5243C481.816 22.4551 477.446 33.8319 471.687 47.6226Z" fill="url(#paint1_linear_857_15115)"/>
<path fill-rule="evenodd" clip-rule="evenodd" d="M478.36 48.3061C466.81 76.0936 449.626 113.933 427.096 154.14C407.623 188.9 384.081 222.878 357.463 250.001C330.85 277.12 301.12 297.429 269.267 304.769C247.428 309.796 226.909 312.636 207.516 311.276C157.526 307.771 114.279 289.842 83.599 274.476C75.928 270.634 69.0411 266.951 63.0315 263.694C61.5863 262.911 60.1926 262.153 58.8514 261.423C54.6105 259.116 50.8941 257.094 47.7317 255.468C43.5496 253.317 40.4149 251.901 38.3566 251.418C37.3055 251.171 36.6964 251.209 36.3859 251.357C36.2559 251.418 36.1726 251.501 36.113 251.623C36.0468 251.759 35.9942 251.977 36.0031 252.32L34.6035 252.356C34.5909 251.869 34.6598 251.408 34.8553 251.008C35.0574 250.595 35.3761 250.286 35.7855 250.092C36.5536 249.727 37.5726 249.796 38.6765 250.055C40.9281 250.584 44.2107 252.083 48.3719 254.223C51.5502 255.857 55.2871 257.89 59.5323 260.2C60.8711 260.928 62.2603 261.684 63.6986 262.463C69.7031 265.718 76.5748 269.392 84.2259 273.224C114.835 288.554 157.89 306.393 207.613 309.88C226.811 311.225 247.177 308.417 268.952 303.405C300.449 296.147 329.953 276.035 356.464 249.021C382.97 222.011 406.441 188.144 425.874 153.456C448.372 113.308 465.532 75.5201 477.067 47.7686C482.835 33.8934 487.196 22.5285 490.115 14.6337C491.574 10.6864 492.673 7.60662 493.407 5.5145C493.774 4.46843 494.049 3.66929 494.233 3.13207C494.325 2.86344 494.394 2.6603 494.439 2.52452L494.491 2.3716L494.504 2.33346L494.507 2.32406L494.508 2.32177C494.508 2.32177 494.508 2.32111 495.172 2.54271C495.836 2.76431 495.836 2.76526 495.836 2.76526L495.835 2.76785L495.818 2.81721L495.766 2.97258C495.719 3.11001 495.65 3.3148 495.557 3.58508C495.373 4.12566 495.096 4.92825 494.728 5.97782C493.992 8.07697 492.89 11.1641 491.428 15.1192C488.504 23.0294 484.136 34.4118 478.36 48.3061Z" fill="url(#paint2_linear_857_15115)"/>
<path d="M484.907 48.9342C473.325 76.9174 456.039 115.352 433.228 157.157C413.755 192.846 390.156 227.661 363.597 255.758C337.042 283.85 307.501 305.256 276.141 314.073C365.275 281.616 431.772 172.412 484.907 48.9342Z" fill="url(#paint3_linear_857_15115)"/>
<path fill-rule="evenodd" clip-rule="evenodd" d="M491.681 49.6325C480.06 77.8192 462.665 116.854 439.566 160.251C420.07 196.885 396.398 232.569 369.882 261.665C343.37 290.757 313.988 313.292 283.066 323.58C261.381 330.792 241.388 336.306 222.545 336.4C175.173 336.631 133.83 323.334 104.433 312.771C100.997 311.536 97.7274 310.34 94.6319 309.208C84.4644 305.489 76.1787 302.458 70.0659 301.011C66.0638 300.063 63.1069 299.826 61.1913 300.438C60.2557 300.737 59.5879 301.232 59.1525 301.939C58.7112 302.656 58.4778 303.639 58.5119 304.964L57.5122 304.99C57.4749 303.544 57.7255 302.349 58.301 301.415C58.8822 300.471 59.7637 299.844 60.8869 299.485C63.0889 298.782 66.288 299.089 70.2962 300.037C76.4722 301.499 84.8396 304.561 95.0252 308.287C98.1106 309.415 101.363 310.605 104.771 311.83C134.143 322.384 175.35 335.63 222.54 335.4C241.211 335.307 261.073 329.841 282.751 322.632C313.449 312.418 342.693 290.015 369.143 260.992C395.589 231.972 419.216 196.362 438.684 159.781C461.763 116.419 479.145 77.4146 490.757 49.2513C496.563 35.1698 500.926 23.7991 503.837 15.9497C505.293 12.025 506.385 8.98073 507.114 6.91814C507.478 5.88683 507.751 5.10097 507.933 4.57319C508.024 4.30931 508.093 4.10995 508.138 3.97668L508.202 3.78907L508.205 3.77979L508.206 3.7775C508.206 3.7775 508.206 3.77682 508.68 3.9366C509.154 4.09639 509.153 4.09729 509.153 4.09729L509.153 4.09977L509.136 4.14779L509.085 4.29953C509.039 4.4339 508.97 4.63438 508.879 4.8994C508.696 5.42942 508.422 6.21759 508.057 7.25122C507.327 9.31853 506.232 12.3677 504.775 16.2975C501.86 24.157 497.492 35.5389 491.681 49.6325Z" fill="url(#paint4_linear_857_15115)"/>
<path fill-rule="evenodd" clip-rule="evenodd" d="M498.42 50.3408C486.766 78.7249 469.269 118.358 445.894 163.359C426.384 200.93 402.986 238.431 376.683 269C350.385 299.563 321.15 323.236 289.958 333.086C284.82 334.709 279.84 336.394 274.983 338.037C274.623 338.159 274.264 338.28 273.905 338.402C268.71 340.159 263.655 341.858 258.712 343.366C248.827 346.38 239.361 348.635 230.053 349.048C183.963 351.108 143.556 340.124 114.801 331.971C113.831 331.695 112.874 331.423 111.93 331.155C98.8746 327.446 88.4544 324.486 81.1971 323.844C77.2993 323.5 74.4272 323.838 72.5617 324.991C70.7511 326.109 69.7841 328.066 69.8677 331.277L68.8681 331.303C68.7785 327.865 69.8272 325.504 72.036 324.14C74.1899 322.809 77.341 322.5 81.285 322.848C88.6418 323.498 99.1519 326.485 112.145 330.177C113.108 330.45 114.084 330.728 115.074 331.009C143.823 339.16 184.094 350.102 230.009 348.049C239.192 347.641 248.564 345.415 258.42 342.409C263.347 340.907 268.388 339.212 273.584 337.454L274.664 337.089C279.519 335.447 284.508 333.758 289.656 332.133C320.596 322.363 349.683 298.846 375.925 268.348C402.161 237.857 425.518 200.428 445.006 162.898C468.365 117.929 485.85 78.323 497.495 49.961C503.318 35.7801 507.68 24.4104 510.586 16.5869C512.04 12.6751 513.129 9.64997 513.855 7.60325C514.217 6.57989 514.489 5.80115 514.671 5.27852C514.761 5.0172 514.829 4.8199 514.874 4.68805L514.925 4.53958L514.938 4.50252L514.941 4.49332L514.942 4.49105C514.942 4.49105 514.942 4.49038 515.415 4.65097C515.889 4.81156 515.889 4.81245 515.889 4.81245L515.888 4.81489L515.872 4.86234L515.82 5.01242C515.775 5.14531 515.706 5.34367 515.615 5.60609C515.433 6.13091 515.161 6.91186 514.797 7.93747C514.07 9.9887 512.979 13.0185 511.524 16.9351C508.614 24.7683 504.248 36.1486 498.42 50.3408Z" fill="url(#paint5_linear_857_15115)"/>
<path d="M505.159 51.0397C493.472 79.6226 475.871 119.857 452.213 166.47C432.673 204.961 408.865 242.396 382.439 273.5C356.017 304.601 326.956 329.4 296.903 342.584C275.371 352.02 255.877 360.128 237.554 361.711C194.665 365.404 156.66 357.609 128.828 351.901C127.59 351.647 126.372 351.397 125.174 351.153C111.087 348.276 99.9221 346.154 92.3279 346.664C88.5375 346.918 85.7267 347.825 83.8861 349.538C82.0616 351.236 81.1058 353.808 81.2023 357.598L80.2026 357.623C80.1015 353.655 81.1031 350.762 83.2047 348.806C85.2902 346.865 88.3741 345.927 92.2609 345.666C100.021 345.146 111.34 347.307 125.374 350.173C126.566 350.416 127.778 350.665 129.009 350.917C156.847 356.626 194.727 364.395 237.468 360.714C247.059 360.353 261.481 356.599 296.501 341.668C326.363 328.569 355.308 303.891 381.677 272.853C408.042 241.82 431.809 204.454 451.321 166.017C474.965 119.433 492.554 79.2234 504.233 50.6612C510.072 36.3802 514.433 25.0113 517.335 17.2136C518.785 13.3147 519.871 10.3087 520.594 8.27786C520.955 7.26246 521.226 6.49086 521.406 5.97334C521.496 5.7146 521.563 5.51938 521.608 5.38896L521.659 5.24212L521.675 5.19638L521.675 5.19415C521.675 5.19415 521.676 5.19346 522.149 5.35485C522.622 5.51624 522.622 5.5171 522.622 5.5171L522.621 5.51951L522.618 5.52898L522.554 5.7148C522.509 5.84624 522.441 6.04249 522.35 6.30229C522.169 6.82187 521.898 7.59561 521.536 8.61317C520.811 10.6483 519.724 13.6588 518.272 17.5623C515.367 25.3692 511.002 36.7481 505.159 51.0397Z" fill="url(#paint6_linear_857_15115)"/>
<path fill-rule="evenodd" clip-rule="evenodd" d="M458.537 169.568C419.423 248.381 363.056 322.906 303.822 352.078C282.368 362.641 263.125 372.03 245.068 374.367C206.513 379.374 171.86 374.945 145.355 371.558C141.953 371.123 138.684 370.705 135.56 370.327C121.792 368.66 110.882 367.768 103.475 369.469C99.7881 370.315 97.0261 371.793 95.2068 374.088C93.3887 376.381 92.4578 379.559 92.5714 383.916L91.5717 383.942C91.4542 379.433 92.4149 375.999 94.4232 373.466C96.4304 370.935 99.4297 369.372 103.251 368.494C110.861 366.747 121.956 367.672 135.68 369.334C138.811 369.713 142.082 370.131 145.486 370.566C171.996 373.954 206.52 378.365 244.939 373.376C262.798 371.064 281.881 361.766 303.38 351.181C362.31 322.159 418.553 247.883 457.641 169.124L458.537 169.568Z" fill="url(#paint7_linear_857_15115)"/>
<path fill-rule="evenodd" clip-rule="evenodd" d="M518.653 52.4179C506.887 81.3977 489.069 122.837 464.86 172.679C425.707 253.37 369.134 329.616 310.744 361.582C310.02 361.978 309.299 362.373 308.581 362.766C288.086 373.992 269.771 384.025 252.583 387.023C218.071 393.039 186.649 391.434 161.68 390.158C156.096 389.873 150.835 389.604 145.933 389.44C132.491 388.992 121.835 389.342 114.608 392.241C111.014 393.684 108.295 395.747 106.499 398.639C104.7 401.535 103.796 405.311 103.923 410.231L102.924 410.257C102.793 405.205 103.719 401.22 105.649 398.111C107.582 394.999 110.491 392.816 114.236 391.313C121.687 388.324 132.552 387.994 145.967 388.441C150.892 388.605 156.17 388.875 161.767 389.16C186.734 390.435 218.021 392.032 252.411 386.038C269.431 383.069 287.615 373.109 308.192 361.839C308.88 361.462 309.57 361.084 310.263 360.705C368.377 328.89 424.836 252.875 463.96 172.242C488.158 122.422 505.968 81.0035 517.727 52.0416C523.606 37.5607 527.973 26.194 530.87 18.4484C532.318 14.5757 533.399 11.6082 534.118 9.60936C534.477 8.60993 534.746 7.85269 534.925 7.34551C535.014 7.09193 535.081 6.90088 535.125 6.77334L535.188 6.59393L535.191 6.58506L535.192 6.58287C535.192 6.58287 535.192 6.58221 535.664 6.74567C536.137 6.90912 536.137 6.90996 536.137 6.90996L536.136 6.91232L536.133 6.92155L536.07 7.10305C536.025 7.23155 535.957 7.42354 535.868 7.67808C535.688 8.18713 535.419 8.94632 535.059 9.94768C534.339 11.9504 533.257 14.9219 531.807 18.7988C528.907 26.5525 524.537 37.9279 518.653 52.4179Z" fill="url(#paint8_linear_857_15115)"/>
<path fill-rule="evenodd" clip-rule="evenodd" d="M525.406 53.0984C513.605 82.2736 495.684 124.314 471.205 175.78C431.97 258.255 375.25 336.332 317.679 371.067C316.125 372.005 314.584 372.938 313.057 373.862C293.656 385.604 276.361 396.072 260.116 399.67C229.349 406.476 200.991 407.189 177.695 407.774C169.987 407.967 162.833 408.147 156.329 408.529C143.215 409.299 132.807 410.888 125.752 414.989C122.239 417.031 119.565 419.691 117.799 423.186C116.031 426.686 115.156 431.055 115.298 436.536L114.298 436.562C114.153 430.963 115.044 426.42 116.906 422.735C118.771 419.045 121.592 416.25 125.249 414.124C132.533 409.891 143.163 408.3 156.271 407.531C162.823 407.146 170.011 406.965 177.742 406.771C201.024 406.186 229.237 405.477 259.899 398.694C275.975 395.133 293.129 384.752 312.59 372.975C314.1 372.062 315.624 371.139 317.162 370.211C374.483 335.627 431.097 257.763 470.302 175.35C494.772 123.904 512.684 81.882 524.479 52.7234C530.376 38.1441 534.744 26.7806 537.637 19.0628C539.083 15.2039 540.161 12.2565 540.877 10.2742C541.235 9.28305 541.503 8.53319 541.681 8.03134C541.77 7.78041 541.837 7.59149 541.881 7.46542L541.931 7.32352L541.943 7.28814L541.946 7.27934L541.947 7.27721C541.947 7.27721 541.947 7.27653 542.419 7.44103C542.892 7.60552 542.891 7.60637 542.891 7.60637L542.89 7.60868L542.887 7.61778L542.824 7.79707C542.78 7.92405 542.713 8.11385 542.624 8.36567C542.445 8.86934 542.177 9.62101 541.818 10.614C541.1 12.6 540.021 15.5512 538.573 19.4139C535.677 27.1393 531.306 38.5108 525.406 53.0984Z" fill="url(#paint9_linear_857_15115)"/>
<path fill-rule="evenodd" clip-rule="evenodd" d="M532.117 53.7909C520.277 83.1612 502.252 125.803 477.507 178.897C438.199 263.198 381.311 343.103 324.569 380.581C322.387 382.022 320.234 383.452 318.108 384.865C309.894 390.323 302.086 395.51 294.603 399.955C285.182 405.551 276.24 409.991 267.597 412.325C247.75 417.692 228.903 420.517 211.827 422.498C205.422 423.241 199.274 423.864 193.417 424.459C183.64 425.451 174.674 426.36 166.68 427.605C153.896 429.596 143.731 432.428 136.839 437.74C129.992 443.018 126.316 450.795 126.629 462.858L125.629 462.884C125.31 450.571 129.078 442.46 136.229 436.948C143.336 431.47 153.724 428.61 166.526 426.617C174.542 425.369 183.557 424.454 193.359 423.459C199.211 422.865 205.344 422.243 211.711 421.504C228.764 419.526 247.556 416.708 267.336 411.36C275.85 409.061 284.7 404.674 294.092 399.096C301.551 394.665 309.331 389.496 317.541 384.041C319.67 382.626 321.829 381.192 324.018 379.746C380.533 342.418 437.324 262.708 476.6 178.475C501.338 125.398 519.356 82.7722 531.189 53.4169C537.106 38.7393 541.476 27.3794 544.367 19.6897C545.813 15.8449 546.888 12.9176 547.602 10.9519C547.959 9.96909 548.226 9.22669 548.403 8.73017C548.492 8.48192 548.559 8.29513 548.603 8.17053L548.652 8.03032L548.664 7.99535L548.668 7.98668L548.668 7.98455C548.668 7.98455 548.669 7.98388 549.14 8.14957C549.612 8.31526 549.612 8.31608 549.612 8.31608L549.611 8.31836L549.608 8.32734L549.595 8.36294L549.545 8.5044C549.501 8.62985 549.434 8.81744 549.345 9.06656C549.167 9.56474 548.9 10.3089 548.542 11.2934C547.827 13.2625 546.75 16.1933 545.303 20.0416C542.41 27.7384 538.037 39.1057 532.117 53.7909Z" fill="url(#paint10_linear_857_15115)"/>
<path fill-rule="evenodd" clip-rule="evenodd" d="M538.842 54.4513C526.962 84.0148 508.83 127.257 483.819 181.979C444.451 268.11 387.405 349.874 331.473 390.056C310.299 405.298 291.006 416.634 275.188 424.946C245.613 440.481 216.831 445.204 193.357 449.056C188.259 449.893 183.411 450.688 178.86 451.544C166.077 453.949 155.694 456.822 148.587 462.351C141.527 467.843 137.639 476.008 137.979 489.185L136.98 489.21C136.633 475.794 140.607 467.291 147.972 461.562C155.29 455.869 165.896 452.966 178.675 450.562C183.258 449.7 188.127 448.9 193.24 448.061C216.711 444.208 245.305 439.513 274.722 424.061C290.505 415.767 309.758 404.456 330.889 389.244C386.617 349.208 443.573 267.624 482.909 181.563C507.914 126.856 526.04 83.6283 537.914 54.0784C543.851 39.3034 548.225 27.9481 551.115 20.2872C552.56 16.4568 553.633 13.55 554.346 11.6011C554.702 10.6267 554.968 9.89183 555.144 9.40072C555.233 9.15516 555.299 8.97054 555.343 8.84743L555.407 8.66582L555.408 8.6637C555.408 8.6637 555.408 8.66305 555.88 8.83003C556.351 8.997 556.351 8.9978 556.351 8.9978L556.35 9.00006L556.334 9.04403L556.284 9.18369C556.24 9.30761 556.174 9.49299 556.085 9.73932C555.908 10.232 555.642 10.9685 555.285 11.9445C554.571 13.8965 553.496 16.8065 552.05 20.6401C549.158 28.3075 544.782 39.6695 538.842 54.4513Z" fill="url(#paint11_linear_857_15115)"/>
<path fill-rule="evenodd" clip-rule="evenodd" d="M545.582 55.1311C533.668 84.8982 515.433 128.753 490.152 185.11C450.716 273.063 393.536 356.71 338.413 399.607C317.308 415.971 298.167 428.364 282.708 437.593C255.682 453.723 229.09 460.431 206.882 466.032C200.662 467.601 194.787 469.083 189.342 470.661C176.872 474.275 166.702 478.377 159.734 485.113C152.794 491.821 148.975 501.197 149.34 515.498L148.341 515.523C147.969 501.012 151.853 491.34 159.039 484.394C166.196 477.476 176.575 473.319 189.063 469.7C194.557 468.108 200.466 466.617 206.709 465.042C228.905 459.443 255.309 452.781 282.196 436.734C297.627 427.522 316.733 415.152 337.799 398.818C392.741 356.062 449.837 272.581 489.24 184.701C514.515 128.357 532.744 84.5144 544.654 54.7594C550.609 39.8819 554.984 28.5263 557.87 20.8907C559.313 17.0729 560.384 14.1852 561.094 12.2522C561.449 11.2857 561.713 10.558 561.889 10.072C561.977 9.829 562.043 9.64647 562.087 9.52477L562.136 9.38788L562.151 9.3453L562.152 9.3432C562.152 9.3432 562.152 9.34256 562.623 9.51061C563.094 9.67866 563.094 9.67945 563.094 9.67945L563.093 9.68165L563.09 9.69039L563.028 9.86301C562.984 9.98545 562.918 10.1687 562.83 10.4124C562.653 10.8998 562.388 11.6291 562.032 12.597C561.321 14.5329 560.25 17.4236 558.805 21.2443C555.917 28.8858 551.54 40.2475 545.582 55.1311Z" fill="url(#paint12_linear_857_15115)"/>
<path fill-rule="evenodd" clip-rule="evenodd" d="M552.313 55.8301C540.353 85.777 522.01 130.222 496.472 188.22C456.95 277.958 399.657 363.547 345.309 409.071C324.33 426.657 305.314 440.106 290.217 450.238C265.58 466.756 241.088 475.167 220.18 482.347C212.894 484.849 206.043 487.202 199.772 489.696C187.618 494.531 177.662 499.887 170.837 507.851C164.028 515.796 160.29 526.393 160.69 541.811L159.69 541.837C159.286 526.23 163.073 515.374 170.077 507.2C177.065 499.045 187.21 493.617 199.403 488.767C205.741 486.246 212.637 483.878 219.952 481.365C240.836 474.193 265.142 465.846 289.659 449.408C304.738 439.288 323.724 425.86 344.666 408.305C398.853 362.917 456.068 277.479 495.557 187.817C521.09 129.83 539.429 85.3955 551.384 55.4592C557.362 40.491 561.744 29.1473 564.631 21.5464C566.075 17.7459 567.145 14.8811 567.854 12.9667C568.208 12.0095 568.472 11.2899 568.648 10.8098C568.736 10.5698 568.801 10.3896 568.845 10.2695L568.906 10.1008L568.909 10.0924L568.91 10.0903C568.91 10.0903 568.91 10.0897 569.38 10.2594C569.851 10.4292 569.85 10.43 569.85 10.43L569.85 10.4322L569.846 10.4408L569.834 10.4749L569.785 10.6109C569.741 10.7317 569.675 10.9125 569.587 11.1532C569.411 11.6346 569.146 12.3555 568.792 13.314C568.082 15.231 567.011 18.0984 565.566 21.9015C562.677 29.5077 558.293 40.8566 552.313 55.8301Z" fill="url(#paint13_linear_857_15115)"/>
<path fill-rule="evenodd" clip-rule="evenodd" d="M559.054 56.5203C547.049 86.6483 528.595 131.684 502.798 191.319C463.185 282.832 405.798 370.401 352.208 418.579C348.387 422.018 344.674 425.42 341.059 428.732C334.814 434.455 328.864 439.907 323.161 444.808C314.155 452.547 305.719 458.954 297.631 462.928C282.305 470.471 267.516 476.595 253.809 482.272C252.008 483.018 250.225 483.757 248.462 484.489C233.276 490.802 219.58 496.699 208.107 503.599C196.638 510.497 187.42 518.379 181.171 528.645C174.924 538.907 171.619 551.591 172.047 568.135L171.048 568.161C170.616 551.463 173.952 538.581 180.317 528.125C186.678 517.674 196.041 509.689 207.592 502.742C219.137 495.799 232.899 489.876 248.078 483.566C249.842 482.833 251.626 482.094 253.428 481.348C267.137 475.67 281.895 469.558 297.19 462.03C305.16 458.114 313.517 451.777 322.509 444.05C328.202 439.158 334.13 433.725 340.365 428.012C343.982 424.698 347.702 421.289 351.539 417.836C404.985 369.787 462.301 282.357 501.88 190.922C527.674 131.296 546.124 86.2691 558.125 56.1501C564.126 41.0906 568.515 29.758 571.403 22.1909C572.847 18.4073 573.916 15.5651 574.624 13.669C574.977 12.721 575.241 12.0096 575.416 11.5352C575.504 11.2981 575.569 11.1202 575.613 11.0017L575.677 10.827L575.678 10.8249C575.678 10.8249 575.678 10.8243 576.147 10.9958C576.617 11.1672 576.617 11.168 576.617 11.168L576.616 11.1701L576.601 11.2122L576.552 11.3463C576.508 11.4654 576.442 11.6439 576.354 11.8816C576.179 12.357 575.915 13.0697 575.561 14.0188C574.852 15.9171 573.782 18.7616 572.337 22.5475C569.447 30.1192 565.057 41.4563 559.054 56.5203Z" fill="url(#paint14_linear_857_15115)"/>
<path fill-rule="evenodd" clip-rule="evenodd" d="M565.77 57.1725C553.728 87.5008 535.172 133.149 509.117 194.43C469.431 287.779 411.94 377.287 359.131 428.067C354.966 432.073 350.934 436.032 347.025 439.871C341.196 445.595 335.638 451.054 330.311 456.002C321.408 464.272 313.099 471.168 305.153 475.572C292.378 482.662 279.959 488.81 268.254 494.606C264.63 496.4 261.074 498.161 257.597 499.905C242.88 507.288 229.577 514.377 218.426 522.512C207.28 530.644 198.3 539.809 192.219 551.336C186.138 562.861 182.936 576.781 183.397 594.45L182.397 594.476C181.933 576.667 185.16 562.572 191.334 550.87C197.507 539.17 206.608 529.896 217.837 521.704C229.061 513.516 242.429 506.395 257.148 499.012C260.634 497.263 264.196 495.499 267.823 493.703C279.525 487.909 291.915 481.775 304.668 474.698C312.503 470.355 320.739 463.529 329.631 455.269C334.951 450.327 340.488 444.889 346.306 439.175C350.217 435.335 354.254 431.37 358.438 427.346C411.121 376.688 468.545 287.308 508.197 194.039C534.249 132.764 552.801 87.1242 564.84 56.8035C570.86 41.6431 575.251 30.3127 578.137 22.7728C579.58 19.0029 580.647 16.1806 581.353 14.3011C581.706 13.3613 581.969 12.6572 582.143 12.1882C582.23 11.9537 582.295 11.7779 582.339 11.6609L582.387 11.5293L582.403 11.4884L582.403 11.4864C582.403 11.4864 582.404 11.4857 582.873 11.6585C583.342 11.8314 583.342 11.8321 583.342 11.8321L583.341 11.8342L583.338 11.8426L583.277 12.008C583.233 12.1256 583.168 12.3018 583.08 12.5369C582.905 13.0069 582.642 13.712 582.289 14.6527C581.582 16.5342 580.515 19.3585 579.071 23.1304C576.183 30.6741 571.791 42.0084 565.77 57.1725Z" fill="url(#paint15_linear_857_15115)"/>
<path fill-rule="evenodd" clip-rule="evenodd" d="M572.533 57.8822C560.447 88.4008 541.785 134.651 515.482 197.582C475.673 292.673 418.103 384.19 366.047 437.57C361.652 442.077 357.41 446.526 353.308 450.828C347.777 456.629 342.5 462.164 337.447 467.212C328.64 476.009 320.454 483.386 312.669 488.22C302.354 494.627 292.256 500.466 282.592 506.053C277.154 509.198 271.853 512.262 266.729 515.304C252.484 523.76 239.579 532.051 228.753 541.432C217.931 550.81 209.196 561.27 203.283 574.06C197.372 586.85 194.27 601.996 194.755 620.764L193.755 620.789C193.267 601.893 196.39 586.591 202.376 573.641C208.361 560.692 217.197 550.123 228.098 540.677C238.994 531.234 251.963 522.907 266.218 514.444C271.363 511.39 276.673 508.32 282.115 505.174C291.767 499.593 301.837 493.771 312.141 487.37C319.824 482.601 327.942 475.292 336.74 466.504C341.791 461.459 347.048 455.945 352.568 450.155C356.67 445.853 360.916 441.399 365.331 436.872C417.276 383.606 474.784 292.207 514.559 197.196C540.86 134.271 559.519 88.0265 571.603 57.514C577.645 42.2578 582.042 30.9345 584.93 23.4258C586.373 19.6714 587.439 16.8707 588.144 15.0087C588.497 14.0777 588.759 13.3815 588.933 12.918C589.02 12.6863 589.085 12.5128 589.129 12.3973L589.189 12.2351L589.192 12.2271L589.193 12.2251C589.193 12.2251 589.193 12.2244 589.662 12.3991C590.13 12.5737 590.13 12.5744 590.13 12.5744L590.129 12.5765L590.065 12.7478C590.022 12.8637 589.957 13.0376 589.869 13.2697C589.695 13.734 589.433 14.4311 589.08 15.3629C588.374 17.2264 587.307 20.0288 585.863 23.7847C582.975 31.2966 578.576 42.6229 572.533 57.8822Z" fill="url(#paint16_linear_857_15115)"/>
<path fill-rule="evenodd" clip-rule="evenodd" d="M579.224 58.5065C567.096 89.2133 548.327 136.064 521.765 200.643C481.909 297.57 424.276 391.111 372.957 447.064C368.341 452.098 363.898 457.061 359.615 461.845C354.375 467.699 349.373 473.286 344.585 478.411C335.876 487.732 327.813 495.591 320.178 500.868C312.152 506.415 304.266 511.64 296.62 516.706C274.641 531.268 254.648 544.514 239.05 560.301C218.072 581.534 205.081 607.338 206.111 647.089L205.111 647.115C204.073 607.076 217.18 581.013 238.339 559.598C254.016 543.731 274.134 530.403 296.143 515.821C303.773 510.766 311.631 505.56 319.609 500.046C327.151 494.834 335.152 487.042 343.854 477.728C348.644 472.602 353.627 467.035 358.856 461.194C363.137 456.412 367.582 451.446 372.22 446.388C423.442 390.541 481.018 297.108 520.84 200.263C547.401 135.688 566.167 88.8414 578.293 58.1391C584.357 42.7879 588.759 31.4729 591.647 23.996C593.09 20.2575 594.155 17.4785 594.858 15.6344C595.21 14.7123 595.472 14.0239 595.645 13.5661C595.732 13.3372 595.797 13.166 595.84 13.052L595.888 12.9239L595.9 12.8921L595.903 12.8841L595.904 12.8821C595.904 12.8821 595.904 12.8815 596.372 13.0578C596.84 13.2341 596.84 13.2348 596.84 13.2348L596.839 13.2369L596.836 13.2449L596.824 13.2771L596.775 13.4056C596.732 13.5199 596.667 13.6915 596.58 13.9207C596.406 14.3791 596.145 15.0682 595.793 15.9909C595.089 17.8363 594.023 20.6165 592.579 24.3562C589.691 31.8356 585.288 43.153 579.224 58.5065Z" fill="url(#paint17_linear_857_15115)"/>
<path fill-rule="evenodd" clip-rule="evenodd" d="M585.946 59.1698C573.775 90.0654 554.9 137.519 528.086 203.754C488.141 302.455 430.451 398.052 379.865 456.568C375.039 462.148 370.407 467.641 365.954 472.921C360.989 478.807 356.249 484.428 351.715 489.608C343.102 499.449 335.162 507.787 327.686 513.514C321.867 517.969 316.118 522.276 310.481 526.498C287.148 543.974 265.74 560.009 249.336 579.161C229.002 602.903 216.376 631.425 217.463 673.403L216.463 673.429C215.369 631.194 228.088 602.433 248.577 578.511C265.059 559.267 286.58 543.148 309.922 525.666C315.55 521.451 321.284 517.157 327.078 512.72C334.47 507.058 342.354 498.785 350.963 488.95C355.504 483.761 360.226 478.162 365.177 472.291C369.625 467.017 374.257 461.524 379.108 455.914C429.61 397.496 487.247 301.998 527.16 203.379C553.972 137.147 572.845 89.6957 585.015 58.8032C591.1 43.357 595.509 32.0504 598.397 24.6056C599.841 20.8832 600.905 18.1262 601.607 16.3C601.958 15.3868 602.22 14.7064 602.393 14.2543L602.65 13.5812L602.651 13.5793C602.651 13.5793 602.651 13.5786 603.118 13.7568C603.586 13.935 603.585 13.9357 603.585 13.9357L603.584 13.9377L603.327 14.612C603.153 15.0646 602.892 15.7455 602.541 16.659C601.838 18.4862 600.774 21.244 599.33 24.9672C596.441 32.4138 592.031 43.722 585.946 59.1698Z" fill="url(#paint18_linear_857_15115)"/>
<path fill-rule="evenodd" clip-rule="evenodd" d="M592.654 59.8353C580.439 90.9183 561.46 138.975 534.401 206.869C494.347 307.35 436.635 405.013 386.761 466.066C381.755 472.198 376.974 478.208 372.39 483.969L372.192 484.218C367.549 490.054 363.109 495.632 358.848 500.815C350.331 511.178 342.509 519.989 335.186 526.152C331.476 529.287 327.793 532.371 324.148 535.423C299.57 556.003 276.761 575.101 259.6 597.996C239.915 624.257 227.664 655.514 228.807 699.721L227.808 699.746C226.659 655.308 238.984 623.832 258.799 597.396C276.036 574.401 298.943 555.221 323.512 534.65C327.156 531.599 330.837 528.517 334.541 525.388C341.789 519.289 349.562 510.538 358.075 500.18C362.33 495.004 366.765 489.432 371.409 483.596L371.614 483.338C376.195 477.581 380.978 471.569 385.987 465.433C435.787 404.47 493.451 306.898 533.472 206.498C560.53 138.606 579.509 90.5509 591.723 59.4695C597.83 43.9288 602.246 32.6314 605.135 25.2193C606.58 21.5133 607.643 18.7786 608.344 16.9705C608.695 16.0664 608.956 15.394 609.129 14.9476L609.383 14.2913L609.386 14.2836L609.386 14.2816C609.386 14.2816 609.387 14.281 609.853 14.4612C610.319 14.6413 610.319 14.642 610.319 14.642L610.318 14.644L610.061 15.3087C609.888 15.7553 609.628 16.428 609.277 17.3323C608.575 19.1409 607.512 21.8761 606.067 25.5825C603.178 32.9955 598.761 44.2937 592.654 59.8353Z" fill="url(#paint19_linear_857_15115)"/>
<path fill-rule="evenodd" clip-rule="evenodd" d="M599.478 60.5278C587.219 91.7985 568.134 140.458 540.828 210.012C500.676 312.277 442.926 412.029 393.759 475.627C388.707 482.157 383.889 488.544 379.279 494.658L378.9 495.161C374.428 501.092 370.151 506.765 366.051 512.056C357.623 522.93 349.921 532.222 342.768 538.867C341.04 540.474 339.316 542.074 337.6 543.667C284.581 592.874 237.937 636.165 240.27 726.039L239.07 726.07C236.723 635.648 283.736 592.018 336.722 542.844C338.459 541.232 340.203 539.614 341.951 537.988C349.026 531.416 356.678 522.192 365.102 511.321C369.196 506.037 373.468 500.372 377.941 494.439L378.32 493.936C382.931 487.822 387.753 481.43 392.809 474.893C441.902 411.392 499.598 311.741 539.711 209.573C567.016 140.019 586.102 91.3603 598.361 60.0897C604.49 44.4545 608.913 33.1663 611.803 25.787C613.249 22.0973 614.311 19.3848 615.012 17.5948L616.051 14.9398L616.052 14.9379C616.052 14.9379 616.052 14.9372 616.611 15.1559C617.17 15.3746 617.169 15.3752 617.169 15.3752L617.169 15.3771L616.129 18.0324C615.428 19.8225 614.366 22.535 612.921 26.2247C610.03 33.6041 605.607 44.8924 599.478 60.5278Z" fill="url(#paint20_linear_857_15115)"/>
</g>
<defs>
<linearGradient id="paint0_linear_857_15115" x1="708.593" y1="728.2" x2="-77.5151" y2="317.093" gradientUnits="userSpaceOnUse">
<stop stop-color="#CAA21F"/>
<stop offset="1" stop-color="#545454"/>
</linearGradient>
<linearGradient id="paint1_linear_857_15115" x1="708.593" y1="728.2" x2="-77.5151" y2="317.093" gradientUnits="userSpaceOnUse">
<stop stop-color="#CAA21F"/>
<stop offset="1" stop-color="#545454"/>
</linearGradient>
<linearGradient id="paint2_linear_857_15115" x1="708.593" y1="728.2" x2="-77.5151" y2="317.093" gradientUnits="userSpaceOnUse">
<stop stop-color="#CAA21F"/>
<stop offset="1" stop-color="#545454"/>
</linearGradient>
<linearGradient id="paint3_linear_857_15115" x1="708.593" y1="728.2" x2="-77.5151" y2="317.093" gradientUnits="userSpaceOnUse">
<stop stop-color="#CAA21F"/>
<stop offset="1" stop-color="#545454"/>
</linearGradient>
<linearGradient id="paint4_linear_857_15115" x1="708.593" y1="728.2" x2="-77.5151" y2="317.093" gradientUnits="userSpaceOnUse">
<stop stop-color="#CAA21F"/>
<stop offset="1" stop-color="#545454"/>
</linearGradient>
<linearGradient id="paint5_linear_857_15115" x1="708.593" y1="728.2" x2="-77.5151" y2="317.093" gradientUnits="userSpaceOnUse">
<stop stop-color="#CAA21F"/>
<stop offset="1" stop-color="#545454"/>
</linearGradient>
<linearGradient id="paint6_linear_857_15115" x1="708.593" y1="728.2" x2="-77.5151" y2="317.093" gradientUnits="userSpaceOnUse">
<stop stop-color="#CAA21F"/>
<stop offset="1" stop-color="#545454"/>
</linearGradient>
<linearGradient id="paint7_linear_857_15115" x1="708.593" y1="728.2" x2="-77.5151" y2="317.093" gradientUnits="userSpaceOnUse">
<stop stop-color="#CAA21F"/>
<stop offset="1" stop-color="#545454"/>
</linearGradient>
<linearGradient id="paint8_linear_857_15115" x1="708.593" y1="728.2" x2="-77.5151" y2="317.093" gradientUnits="userSpaceOnUse">
<stop stop-color="#CAA21F"/>
<stop offset="1" stop-color="#545454"/>
</linearGradient>
<linearGradient id="paint9_linear_857_15115" x1="708.593" y1="728.2" x2="-77.5151" y2="317.093" gradientUnits="userSpaceOnUse">
<stop stop-color="#CAA21F"/>
<stop offset="1" stop-color="#545454"/>
</linearGradient>
<linearGradient id="paint10_linear_857_15115" x1="708.593" y1="728.2" x2="-77.5151" y2="317.093" gradientUnits="userSpaceOnUse">
<stop stop-color="#CAA21F"/>
<stop offset="1" stop-color="#545454"/>
</linearGradient>
<linearGradient id="paint11_linear_857_15115" x1="708.593" y1="728.2" x2="-77.5151" y2="317.093" gradientUnits="userSpaceOnUse">
<stop stop-color="#CAA21F"/>
<stop offset="1" stop-color="#545454"/>
</linearGradient>
<linearGradient id="paint12_linear_857_15115" x1="708.593" y1="728.2" x2="-77.5151" y2="317.093" gradientUnits="userSpaceOnUse">
<stop stop-color="#CAA21F"/>
<stop offset="1" stop-color="#545454"/>
</linearGradient>
<linearGradient id="paint13_linear_857_15115" x1="708.593" y1="728.2" x2="-77.5151" y2="317.093" gradientUnits="userSpaceOnUse">
<stop stop-color="#CAA21F"/>
<stop offset="1" stop-color="#545454"/>
</linearGradient>
<linearGradient id="paint14_linear_857_15115" x1="708.593" y1="728.2" x2="-77.5151" y2="317.093" gradientUnits="userSpaceOnUse">
<stop stop-color="#CAA21F"/>
<stop offset="1" stop-color="#545454"/>
</linearGradient>
<linearGradient id="paint15_linear_857_15115" x1="708.593" y1="728.2" x2="-77.5151" y2="317.093" gradientUnits="userSpaceOnUse">
<stop stop-color="#CAA21F"/>
<stop offset="1" stop-color="#545454"/>
</linearGradient>
<linearGradient id="paint16_linear_857_15115" x1="708.593" y1="728.2" x2="-77.5151" y2="317.093" gradientUnits="userSpaceOnUse">
<stop stop-color="#CAA21F"/>
<stop offset="1" stop-color="#545454"/>
</linearGradient>
<linearGradient id="paint17_linear_857_15115" x1="708.593" y1="728.2" x2="-77.5151" y2="317.093" gradientUnits="userSpaceOnUse">
<stop stop-color="#CAA21F"/>
<stop offset="1" stop-color="#545454"/>
</linearGradient>
<linearGradient id="paint18_linear_857_15115" x1="708.593" y1="728.2" x2="-77.5151" y2="317.093" gradientUnits="userSpaceOnUse">
<stop stop-color="#CAA21F"/>
<stop offset="1" stop-color="#545454"/>
</linearGradient>
<linearGradient id="paint19_linear_857_15115" x1="708.593" y1="728.2" x2="-77.5151" y2="317.093" gradientUnits="userSpaceOnUse">
<stop stop-color="#CAA21F"/>
<stop offset="1" stop-color="#545454"/>
</linearGradient>
<linearGradient id="paint20_linear_857_15115" x1="708.593" y1="728.2" x2="-77.5151" y2="317.093" gradientUnits="userSpaceOnUse">
<stop stop-color="#CAA21F"/>
<stop offset="1" stop-color="#545454"/>
</linearGradient>
</defs>
</svg>
