<svg width="40" height="58" viewBox="0 0 40 58" fill="none" xmlns="http://www.w3.org/2000/svg">
<path fill-rule="evenodd" clip-rule="evenodd" d="M20.0004 0C15.2652 0.000809363 10.6832 1.62555 7.07044 4.58511C3.4577 7.54497 1.04827 11.6477 0.271054 16.1634C-0.505729 20.6789 0.399541 25.3148 2.82619 29.2455L20.0001 58L37.1869 29.2258C39.6068 25.2941 40.5066 20.6605 39.726 16.1478C38.9459 11.636 36.5356 7.5372 32.9242 4.58096C29.3127 1.62431 24.7334 0.00124312 20.0004 0ZM15.2686 23.9077C16.5233 25.121 18.2255 25.8027 20.0004 25.8027C21.7759 25.8032 23.4784 25.1219 24.7335 23.9081C25.9891 22.6948 26.6939 21.0489 26.6939 19.3332C26.6935 17.6174 25.9887 15.9715 24.7335 14.7586C23.4784 13.5453 21.7762 12.8636 20.0013 12.8636C18.2263 12.8636 16.5242 13.5453 15.269 14.7586C14.0138 15.9715 13.3086 17.6174 13.3086 19.3332C13.3086 21.0486 14.0134 22.6944 15.2686 23.9077Z" fill="#CAA21F"/>
</svg>
