<svg width="16" height="10" viewBox="0 0 16 10" fill="none" xmlns="http://www.w3.org/2000/svg">
<mask id="path-1-inside-1_494_10025" fill="white">
<path fill-rule="evenodd" clip-rule="evenodd" d="M4.06507 0.967099L0.369871 4.59675C0.143115 4.81949 0.143115 5.18061 0.369871 5.40334L4.06507 9.033C4.29183 9.25573 4.65948 9.25573 4.88623 9.033C5.11299 8.81026 5.11299 8.44914 4.88623 8.22641L2.18225 5.57039H15.7998V4.4297H2.18225L4.88623 1.77369C5.11299 1.55096 5.11299 1.18983 4.88623 0.967099C4.65948 0.744365 4.29183 0.744365 4.06507 0.967099Z"/>
</mask>
<path d="M0.369871 4.59675L-1.03163 3.16994V3.16994L0.369871 4.59675ZM4.06507 0.967099L5.46658 2.39391L5.46658 2.39391L4.06507 0.967099ZM0.369871 5.40334L-1.03163 6.83016V6.83015L0.369871 5.40334ZM4.06507 9.033L5.46658 7.60619L5.46658 7.60619L4.06507 9.033ZM4.88623 8.22641L6.28773 6.7996L6.28773 6.7996L4.88623 8.22641ZM2.18225 5.57039L0.780748 6.99721L-2.70795 3.57039H2.18225V5.57039ZM15.7998 5.57039H17.7998V7.57039H15.7998V5.57039ZM15.7998 4.4297V2.4297H17.7998V4.4297H15.7998ZM2.18225 4.4297V6.4297H-2.70795L0.780748 3.00289L2.18225 4.4297ZM4.88623 1.77369L6.28773 3.2005L6.28773 3.2005L4.88623 1.77369ZM-1.03163 3.16994L2.66357 -0.459713L5.46658 2.39391L1.77137 6.02357L-1.03163 3.16994ZM-1.03163 6.83015C-2.05638 5.82358 -2.05638 4.17652 -1.03163 3.16994L1.77137 6.02356C2.34261 5.46246 2.34261 4.53764 1.77137 3.97653L-1.03163 6.83015ZM2.66357 10.4598L-1.03163 6.83016L1.77137 3.97653L5.46658 7.60619L2.66357 10.4598ZM6.28773 10.4598C5.28292 11.4468 3.66838 11.4468 2.66357 10.4598L5.46658 7.60619C4.91528 7.06467 4.03603 7.06467 3.48473 7.60619L6.28773 10.4598ZM6.28773 6.7996C7.31249 7.80617 7.31249 9.45323 6.28773 10.4598L3.48473 7.60619C2.91349 8.16729 2.91349 9.09211 3.48473 9.65322L6.28773 6.7996ZM3.58375 4.14358L6.28773 6.7996L3.48473 9.65322L0.780748 6.99721L3.58375 4.14358ZM15.7998 7.57039H2.18225V3.57039H15.7998V7.57039ZM17.7998 4.4297V5.57039H13.7998V4.4297H17.7998ZM2.18225 2.4297H15.7998V6.4297H2.18225V2.4297ZM6.28773 3.2005L3.58375 5.85652L0.780748 3.00289L3.48473 0.346877L6.28773 3.2005ZM6.28773 -0.459712C7.31249 0.546863 7.31249 2.19392 6.28773 3.2005L3.48473 0.346878C2.91349 0.907986 2.91349 1.8328 3.48473 2.39391L6.28773 -0.459712ZM2.66357 -0.459712C3.66838 -1.4467 5.28292 -1.4467 6.28773 -0.459712L3.48473 2.39391C4.03603 2.93543 4.91528 2.93543 5.46658 2.39391L2.66357 -0.459712Z" fill="#CAA21F" mask="url(#path-1-inside-1_494_10025)"/>
</svg>
