<svg width="16" height="10" viewBox="0 0 16 10" fill="none" xmlns="http://www.w3.org/2000/svg">
<mask id="path-1-inside-1_494_10031" fill="white">
<path fill-rule="evenodd" clip-rule="evenodd" d="M11.9349 0.967099L15.6301 4.59675C15.8569 4.81949 15.8569 5.18061 15.6301 5.40334L11.9349 9.033C11.7082 9.25573 11.3405 9.25573 11.1138 9.033C10.887 8.81026 10.887 8.44914 11.1138 8.22641L13.8177 5.57039H0.200195V4.4297H13.8177L11.1138 1.77369C10.887 1.55096 10.887 1.18983 11.1138 0.967099C11.3405 0.744365 11.7082 0.744365 11.9349 0.967099Z"/>
</mask>
<path d="M15.6301 4.59675L17.0316 3.16994V3.16994L15.6301 4.59675ZM11.9349 0.967099L10.5334 2.39391L10.5334 2.39391L11.9349 0.967099ZM15.6301 5.40334L17.0316 6.83016V6.83015L15.6301 5.40334ZM11.9349 9.033L10.5334 7.60619L10.5334 7.60619L11.9349 9.033ZM11.1138 8.22641L9.71227 6.7996L9.71227 6.7996L11.1138 8.22641ZM13.8177 5.57039L15.2193 6.99721L18.708 3.57039H13.8177V5.57039ZM0.200195 5.57039H-1.7998V7.57039H0.200195V5.57039ZM0.200195 4.4297V2.4297H-1.7998V4.4297H0.200195ZM13.8177 4.4297V6.4297H18.7079L15.2193 3.00289L13.8177 4.4297ZM11.1138 1.77369L9.71227 3.2005L9.71227 3.2005L11.1138 1.77369ZM17.0316 3.16994L13.3364 -0.459713L10.5334 2.39391L14.2286 6.02357L17.0316 3.16994ZM17.0316 6.83015C18.0564 5.82358 18.0564 4.17652 17.0316 3.16994L14.2286 6.02356C13.6574 5.46246 13.6574 4.53764 14.2286 3.97653L17.0316 6.83015ZM13.3364 10.4598L17.0316 6.83016L14.2286 3.97653L10.5334 7.60619L13.3364 10.4598ZM9.71227 10.4598C10.7171 11.4468 12.3316 11.4468 13.3364 10.4598L10.5334 7.60619C11.0847 7.06467 11.964 7.06467 12.5153 7.60619L9.71227 10.4598ZM9.71227 6.7996C8.68751 7.80617 8.68751 9.45323 9.71227 10.4598L12.5153 7.60619C13.0865 8.16729 13.0865 9.09211 12.5153 9.65322L9.71227 6.7996ZM12.4162 4.14358L9.71227 6.7996L12.5153 9.65322L15.2193 6.99721L12.4162 4.14358ZM0.200195 7.57039H13.8177V3.57039H0.200195V7.57039ZM-1.7998 4.4297V5.57039H2.2002V4.4297H-1.7998ZM13.8177 2.4297H0.200195V6.4297H13.8177V2.4297ZM9.71227 3.2005L12.4162 5.85652L15.2193 3.00289L12.5153 0.346877L9.71227 3.2005ZM9.71227 -0.459712C8.68751 0.546863 8.68751 2.19392 9.71227 3.2005L12.5153 0.346878C13.0865 0.907986 13.0865 1.8328 12.5153 2.39391L9.71227 -0.459712ZM13.3364 -0.459712C12.3316 -1.4467 10.7171 -1.4467 9.71227 -0.459712L12.5153 2.39391C11.964 2.93543 11.0847 2.93543 10.5334 2.39391L13.3364 -0.459712Z" fill="#CAA21F" mask="url(#path-1-inside-1_494_10031)"/>
</svg>
