<svg width="46" height="29" viewBox="0 0 46 29" fill="none" xmlns="http://www.w3.org/2000/svg">
<path d="M29.021 3.60156H16.9453V25.4026H29.021V3.60156Z" fill="#FF5F00"/>
<path d="M17.7145 14.5016C17.7126 12.402 18.1862 10.3294 19.0994 8.4409C20.0126 6.55236 21.3416 4.89731 22.9856 3.60103C20.9497 1.99334 18.5046 0.993538 15.9299 0.715905C13.3551 0.438272 10.7545 0.893997 8.42541 2.03101C6.09627 3.16803 4.13254 4.94046 2.75867 7.14569C1.38481 9.35093 0.65625 11.9 0.65625 14.5016C0.65625 17.1031 1.38481 19.6522 2.75867 21.8574C4.13254 24.0627 6.09627 25.8351 8.42541 26.9721C10.7545 28.1091 13.3551 28.5648 15.9299 28.2872C18.5046 28.0096 20.9497 27.0098 22.9856 25.4021C21.3416 24.1058 20.0127 22.4507 19.0994 20.5622C18.1862 18.6737 17.7126 16.6012 17.7145 14.5016Z" fill="#EB001B"/>
<path d="M45.3131 14.5016C45.3132 17.1031 44.5847 19.6521 43.2109 21.8574C41.8371 24.0626 39.8734 25.835 37.5443 26.9721C35.2152 28.1091 32.6147 28.5648 30.04 28.2872C27.4653 28.0096 25.0202 27.0098 22.9844 25.4021C24.627 24.1045 25.9549 22.4492 26.8679 20.5609C27.781 18.6727 28.2555 16.6008 28.2555 14.5016C28.2555 12.4023 27.781 10.3304 26.8679 8.44218C25.9549 6.55394 24.627 4.89861 22.9844 3.60102C25.0202 1.99333 27.4653 0.993531 30.04 0.715901C32.6147 0.438272 35.2152 0.894017 37.5443 2.03104C39.8734 3.16807 41.8371 4.9405 43.2109 7.14574C44.5847 9.35097 45.3132 11.9 45.3131 14.5016Z" fill="#F79E1B"/>
<path d="M43.9958 23.0928V22.6465H44.175V22.5556H43.7188V22.6465H43.898V23.0928H43.9958ZM44.8816 23.0928V22.5547H44.7417L44.5809 22.9248L44.42 22.5547H44.2801V23.0928H44.3788V22.6869L44.5297 23.0369H44.6321L44.7829 22.686V23.0928H44.8816Z" fill="#F79E1B"/>
</svg>
