<svg width="40" height="40" viewBox="0 0 40 40" fill="none" xmlns="http://www.w3.org/2000/svg">
<mask id="path-1-inside-1_778_8682" fill="white">
<path fill-rule="evenodd" clip-rule="evenodd" d="M20 40C31.0457 40 40 31.0457 40 20C40 8.9543 31.0457 0 20 0C8.9543 0 0 8.9543 0 20C0 31.0457 8.9543 40 20 40ZM12.252 8.33351C11.0388 8.33351 8.34325 11.2986 8.34325 11.2986C7.93851 21.676 18.4523 32.0555 28.6959 31.651C28.6959 31.651 31.7959 29.09 31.661 27.7423C31.5261 26.3944 28.6959 24.6425 26.9436 24.238C25.5924 23.7876 24.6175 24.466 23.9402 24.9374C23.8068 25.0302 23.6849 25.115 23.574 25.1816C23.0349 25.5858 22.6304 25.9902 22.6304 25.9902C19.53 24.9119 15.2171 20.5987 14.1389 17.364C14.1389 17.364 14.4084 16.9596 14.8129 16.4205C14.8449 16.3779 14.881 16.3311 14.9203 16.2802C15.3782 15.6872 16.2637 14.5405 15.8912 13.0509C15.3521 11.4336 13.5998 8.46844 12.252 8.33351Z"/>
</mask>
<path d="M8.34325 11.2986L7.60331 10.6259L7.35821 10.8956L7.34401 11.2596L8.34325 11.2986ZM12.252 8.33351L12.3516 7.33848L12.3019 7.33351H12.252V8.33351ZM28.6959 31.651L28.7353 32.6502L29.0726 32.6369L29.3328 32.422L28.6959 31.651ZM31.661 27.7423L30.6659 27.8418L30.666 27.8419L31.661 27.7423ZM26.9436 24.238L26.6274 25.1867L26.6724 25.2017L26.7187 25.2124L26.9436 24.238ZM23.9402 24.9374L23.369 24.1165L23.369 24.1166L23.9402 24.9374ZM23.574 25.1816L23.0595 24.3241L23.0153 24.3506L22.9741 24.3815L23.574 25.1816ZM22.6304 25.9902L22.3019 26.9348L22.8942 27.1407L23.3375 26.6974L22.6304 25.9902ZM14.1389 17.364L13.3068 16.8095L13.0356 17.2164L13.1902 17.6803L14.1389 17.364ZM14.8129 16.4205L15.6128 17.0206L15.6131 17.0203L14.8129 16.4205ZM14.9203 16.2802L15.7118 16.8914L15.7118 16.8914L14.9203 16.2802ZM15.8912 13.0509L16.8613 12.8082L16.852 12.771L16.8398 12.7347L15.8912 13.0509ZM39 20C39 30.4934 30.4934 39 20 39V41C31.598 41 41 31.598 41 20H39ZM20 1C30.4934 1 39 9.50659 39 20H41C41 8.40202 31.598 -1 20 -1V1ZM1 20C1 9.50659 9.50659 1 20 1V-1C8.40202 -1 -1 8.40202 -1 20H1ZM20 39C9.50659 39 1 30.4934 1 20H-1C-1 31.598 8.40202 41 20 41V39ZM8.34325 11.2986C9.08319 11.9713 9.08312 11.9714 9.08307 11.9714C9.08307 11.9714 9.08302 11.9715 9.08302 11.9715C9.083 11.9715 9.08302 11.9715 9.08309 11.9714C9.08321 11.9713 9.0835 11.9709 9.08395 11.9705C9.08485 11.9695 9.08638 11.9678 9.08853 11.9654C9.09283 11.9607 9.09962 11.9534 9.10875 11.9435C9.12702 11.9237 9.15466 11.8939 9.19068 11.8555C9.26277 11.7786 9.36809 11.6678 9.49857 11.5343C9.76055 11.2662 10.1192 10.9118 10.5108 10.5601C10.9067 10.2047 11.3151 9.87127 11.6784 9.63269C11.8598 9.51356 12.0108 9.43082 12.1285 9.38054C12.2559 9.32616 12.2893 9.33351 12.252 9.33351V7.33351C11.9114 7.33351 11.5952 7.43352 11.3429 7.5413C11.081 7.65317 10.8224 7.80207 10.5806 7.96092C10.0972 8.27831 9.60423 8.6862 9.17457 9.072C8.74067 9.46162 8.34956 9.84849 8.06821 10.1364C7.92703 10.2808 7.81228 10.4016 7.73221 10.487C7.69215 10.5296 7.6607 10.5635 7.63889 10.5872C7.62798 10.599 7.61948 10.6083 7.61351 10.6148C7.61052 10.618 7.60817 10.6206 7.60647 10.6225C7.60561 10.6234 7.60492 10.6242 7.6044 10.6248C7.60413 10.625 7.60391 10.6253 7.60373 10.6255C7.60364 10.6256 7.60354 10.6257 7.60349 10.6257C7.6034 10.6259 7.60331 10.6259 8.34325 11.2986ZM28.6564 30.6518C23.8776 30.8405 18.9446 28.5058 15.232 24.8094C11.5201 21.1136 9.15356 16.1816 9.34249 11.3376L7.34401 11.2596C7.1282 16.793 9.81621 22.2395 13.8209 26.2267C17.8249 30.2132 23.2706 32.866 28.7353 32.6502L28.6564 30.6518ZM30.666 27.8419C30.6641 27.823 30.6621 27.9875 30.4094 28.3871C30.1859 28.7406 29.8589 29.1348 29.4995 29.5181C29.1449 29.8964 28.7827 30.2389 28.5071 30.4884C28.3699 30.6125 28.2558 30.7122 28.1768 30.7801C28.1374 30.814 28.1068 30.8399 28.0866 30.8569C28.0766 30.8654 28.0691 30.8716 28.0644 30.8755C28.0621 30.8775 28.0604 30.8789 28.0595 30.8796C28.0591 30.88 28.0588 30.8802 28.0587 30.8803C28.0586 30.8803 28.0586 30.8803 28.0587 30.8803C28.0587 30.8803 28.0588 30.8802 28.0588 30.8802C28.0589 30.8801 28.059 30.8801 28.6959 31.651C29.3328 32.422 29.3329 32.4219 29.333 32.4218C29.3331 32.4217 29.3332 32.4216 29.3333 32.4215C29.3336 32.4213 29.3338 32.4211 29.3342 32.4208C29.3348 32.4202 29.3357 32.4195 29.3367 32.4187C29.3388 32.417 29.3416 32.4146 29.3451 32.4117C29.3522 32.4058 29.3621 32.3975 29.3747 32.3869C29.3998 32.3657 29.4357 32.3353 29.4808 32.2966C29.5708 32.2192 29.6978 32.1082 29.8492 31.9712C30.1506 31.6984 30.555 31.3164 30.9586 30.886C31.3573 30.4606 31.78 29.9618 32.0998 29.456C32.3904 28.9965 32.7254 28.3353 32.656 27.6426L30.666 27.8419ZM26.7187 25.2124C27.4421 25.3794 28.4716 25.8541 29.3373 26.457C29.765 26.7548 30.1164 27.0591 30.3573 27.3374C30.615 27.6352 30.6624 27.8059 30.6659 27.8418L32.656 27.6427C32.5922 27.0047 32.2351 26.451 31.8695 26.0285C31.487 25.5866 30.996 25.1749 30.4803 24.8158C29.4592 24.1046 28.1974 23.5011 27.1685 23.2636L26.7187 25.2124ZM24.5114 25.7582C25.2053 25.2753 25.7923 24.9083 26.6274 25.1867L27.2599 23.2893C25.3925 22.6668 24.0297 23.6567 23.369 24.1165L24.5114 25.7582ZM24.0886 26.039C24.2344 25.9515 24.3861 25.8454 24.5114 25.7582L23.369 24.1166C23.2275 24.215 23.1355 24.2785 23.0595 24.3241L24.0886 26.039ZM22.6304 25.9902C23.3375 26.6974 23.3375 26.6974 23.3374 26.6975C23.3374 26.6975 23.3374 26.6975 23.3373 26.6976C23.3373 26.6976 23.3372 26.6977 23.3372 26.6977C23.3371 26.6978 23.337 26.6979 23.3369 26.698C23.3368 26.6981 23.3368 26.6981 23.3369 26.698C23.337 26.6979 23.3375 26.6974 23.3384 26.6965C23.3402 26.6947 23.3435 26.6915 23.3482 26.6869C23.3575 26.6778 23.3725 26.6632 23.3925 26.6441C23.4327 26.6058 23.4929 26.5493 23.569 26.4808C23.7224 26.3428 23.9347 26.161 24.1739 25.9816L22.9741 24.3815C22.6742 24.6063 22.4148 24.8289 22.2311 24.9942C22.1387 25.0773 22.0641 25.1472 22.0116 25.1974C21.9853 25.2225 21.9645 25.2427 21.9496 25.2572C21.9421 25.2645 21.9362 25.2704 21.9318 25.2747C21.9296 25.2769 21.9278 25.2787 21.9264 25.2801C21.9257 25.2808 21.9251 25.2814 21.9246 25.2819C21.9243 25.2822 21.9241 25.2824 21.9239 25.2826C21.9238 25.2827 21.9237 25.2828 21.9236 25.2829C21.9235 25.2829 21.9235 25.283 21.9235 25.283C21.9234 25.2831 21.9233 25.2831 22.6304 25.9902ZM13.1902 17.6803C13.7982 19.5041 15.2638 21.52 16.9155 23.1892C18.5665 24.8575 20.5468 26.3243 22.3019 26.9348L22.9589 25.0457C21.6137 24.5779 19.8873 23.3489 18.3372 21.7824C16.7878 20.2167 15.5578 18.4586 15.0876 17.0478L13.1902 17.6803ZM14.0131 15.8203C13.803 16.1003 13.6279 16.3453 13.505 16.521C13.4435 16.6089 13.3948 16.6797 13.3611 16.7292C13.3442 16.7539 13.3311 16.7733 13.3219 16.7868C13.3174 16.7936 13.3138 16.7989 13.3113 16.8027C13.31 16.8046 13.309 16.8061 13.3082 16.8073C13.3079 16.8078 13.3075 16.8083 13.3073 16.8087C13.3072 16.8088 13.3071 16.809 13.307 16.8091C13.3069 16.8092 13.3069 16.8093 13.3069 16.8093C13.3068 16.8093 13.3068 16.8094 13.3068 16.8094C13.3068 16.8094 13.3068 16.8095 14.1389 17.364C14.971 17.9186 14.971 17.9187 14.971 17.9187C14.971 17.9187 14.971 17.9187 14.9709 17.9187C14.9709 17.9188 14.9709 17.9188 14.9709 17.9188C14.9709 17.9188 14.9709 17.9189 14.9709 17.9188C14.9709 17.9188 14.971 17.9187 14.9711 17.9185C14.9714 17.918 14.972 17.9172 14.9728 17.916C14.9744 17.9136 14.977 17.9097 14.9806 17.9044C14.9878 17.8937 14.9989 17.8773 15.0136 17.8557C15.0431 17.8125 15.0871 17.7485 15.1435 17.6679C15.2564 17.5065 15.4184 17.2797 15.6128 17.0206L14.0131 15.8203ZM14.1288 15.6691C14.0907 15.7184 14.0499 15.7712 14.0128 15.8207L15.6131 17.0203C15.6399 16.9846 15.6713 16.9438 15.7118 16.8914L14.1288 15.6691ZM14.921 13.2935C15.1637 14.2639 14.6105 15.0452 14.1288 15.6691L15.7118 16.8914C16.146 16.3291 17.3637 14.8171 16.8613 12.8082L14.921 13.2935ZM12.1524 9.32854C12.1517 9.32847 12.163 9.32954 12.1877 9.33791C12.2126 9.34635 12.248 9.36118 12.294 9.38633C12.3884 9.43783 12.5077 9.52176 12.6488 9.64725C12.9333 9.90034 13.2453 10.2676 13.5563 10.7108C14.1812 11.6013 14.707 12.6608 14.9425 13.3671L16.8398 12.7347C16.5362 11.8237 15.9163 10.592 15.1934 9.56187C14.8305 9.04473 14.418 8.5443 13.978 8.15293C13.5606 7.7816 13.0026 7.40365 12.3516 7.33848L12.1524 9.32854Z" fill="url(#paint0_linear_778_8682)" mask="url(#path-1-inside-1_778_8682)"/>
<defs>
<linearGradient id="paint0_linear_778_8682" x1="15.0769" y1="-14.7368" x2="63.2283" y2="55.0315" gradientUnits="userSpaceOnUse">
<stop stop-color="#DDB531"/>
<stop offset="0.324052" stop-color="#F7E07A"/>
<stop offset="0.72203" stop-color="#DDB531"/>
<stop offset="1" stop-color="#F7E07A"/>
</linearGradient>
</defs>
</svg>
