<svg width="20" height="21" viewBox="0 0 20 21" fill="none" xmlns="http://www.w3.org/2000/svg">
<path fill-rule="evenodd" clip-rule="evenodd" d="M10 20.5C15.5228 20.5 20 16.0228 20 10.5C20 4.97715 15.5228 0.5 10 0.5C4.47715 0.5 0 4.97715 0 10.5C0 16.0228 4.47715 20.5 10 20.5ZM6.12671 4.66667C5.52012 4.66667 4.17233 6.14922 4.17233 6.14922C3.96996 11.3379 9.22686 16.5277 14.3486 16.3254C14.3486 16.3254 15.8987 15.0449 15.8312 14.371C15.7638 13.6971 14.3486 12.8212 13.4725 12.6189C12.7969 12.3937 12.3095 12.7329 11.9708 12.9686C11.9041 13.015 11.8432 13.0574 11.7877 13.0907C11.5182 13.2928 11.3159 13.495 11.3159 13.495C9.76573 12.9559 7.60926 10.7993 7.07015 9.18194C7.07015 9.18194 7.20493 8.97971 7.40717 8.71015C7.42313 8.68886 7.4412 8.66546 7.46084 8.64003C7.68982 8.3435 8.13255 7.77015 7.94628 7.02535C7.67675 6.21671 6.80058 4.73413 6.12671 4.66667Z" fill="#F7E07A"/>
</svg>
