<svg width="20" height="20" viewBox="0 0 20 20" fill="none" xmlns="http://www.w3.org/2000/svg">
<path d="M9.03279 8.94354C9.27487 9.1823 9.60328 9.31644 9.94573 9.31644C10.2883 9.31652 10.6167 9.18246 10.8589 8.94362C11.1012 8.70486 11.2371 8.381 11.2371 8.04338C11.2371 7.70575 11.1011 7.38189 10.8589 7.14321C10.6167 6.90446 10.2883 6.77031 9.94589 6.77031C9.60345 6.77031 9.27504 6.90446 9.03287 7.14321C8.7907 7.38189 8.65464 7.70575 8.65464 8.04338C8.65464 8.38094 8.79062 8.70478 9.03279 8.94354Z" fill="#F7E07A"/>
<path fill-rule="evenodd" clip-rule="evenodd" d="M10 20C15.5228 20 20 15.5228 20 10C20 4.47715 15.5228 0 10 0C4.47715 0 0 4.47715 0 10C0 15.5228 4.47715 20 10 20ZM7.45108 5.1413C8.14811 4.55893 9.03215 4.23922 9.94573 4.23906C10.8589 4.23931 11.7424 4.55869 12.4392 5.14049C13.1359 5.72221 13.601 6.52876 13.7515 7.41658C13.9021 8.30457 13.7285 9.21635 13.2616 9.99001L9.94567 15.6521L6.63222 9.99389C6.16404 9.22043 5.98938 8.30818 6.13925 7.41963C6.2892 6.53107 6.75406 5.72374 7.45108 5.1413Z" fill="#F7E07A"/>
</svg>
