<svg width="60" height="60" viewBox="0 0 60 60" fill="none" xmlns="http://www.w3.org/2000/svg">
<path d="M13.8011 15.6C19.3746 14.1155 21.4852 14.2268 24.0011 15.6C25.1003 16.2 24.8613 19.8502 24.0011 27.6C18.1037 27.9466 12.8953 27.4197 12.0011 25.8C9.17681 20.6842 9.23135 18.3923 9.60114 14.4C11.4889 15.8782 12.9429 15.8286 13.8011 15.6Z" fill="#D0A610"/>
<path d="M32.3992 10.8C38.573 11.829 41.5979 12.1876 43.7992 9.60001C43.7674 21.5312 41.5809 24.6973 36.0004 27.6C32.2514 28.4057 30.1525 28.2174 26.4004 27.6C26.423 31.2485 26.2065 33.3416 25.2004 37.2C24.0004 42.6 20.6687 42.4132 12.6004 41.4C8.58396 40.8957 7.02636 41.3141 4.7998 42.6C6.04729 28.8962 8.40039 23.8893 19.7998 25.8C21.9972 26.1683 23.9998 27 23.3992 25.8C22.5425 23.8024 23.2357 17.4 23.9998 15.6C25.7325 11.5182 28.7992 10.2 32.3992 10.8Z" fill="url(#paint0_linear_422_5916)"/>
<path d="M25.2006 25.8C23.6771 25.6617 23.1678 27.1475 22.8007 30.0001C22.3365 33.6001 22.8006 37.8001 28.8007 39.0001C30.0006 39.24 31.7236 38.9196 33.6006 38.4001C34.9148 38.0363 36.8634 37.6257 39.6006 39.0001C39.1504 37.7738 38.9757 37.106 39.0006 36.0001C39.0787 32.5254 39.0006 30.0001 36.0006 27.6001C34.1191 26.0948 27.38 25.9979 25.2006 25.8Z" fill="#CAA21F"/>
<path fill-rule="evenodd" clip-rule="evenodd" d="M24.6937 21.6C26.4545 21.5042 27.0726 22.1106 27.0937 25.2V32.4L27.0936 32.4666C27.0872 33.8271 26.4936 36 24.6937 36C24.0936 36 24.0935 37.2 24.6937 37.2H30.6934C31.2933 37.2 31.2933 36 30.6934 36C29.4935 36 28.2935 34.8 28.2935 32.4L28.2936 27.2428C28.2936 26.644 29.0744 26.4147 29.3983 26.9184L33.3745 33.1036C33.5516 33.3791 33.4713 33.7424 33.2256 33.9589C31.8169 35.1997 31.5647 37.0904 33.6936 37.8C35.1706 38.2923 37.2936 36.6 36.6846 33.8799C36.5935 33.4731 36.5103 33.2198 36.42 32.9445C36.3401 32.7011 36.2545 32.4406 36.1529 32.0416C36.1137 31.8875 36.1404 31.724 36.2237 31.5886L39.7826 25.8054C40.0997 25.2901 40.8936 25.5148 40.8936 26.1198V34.2C40.8936 35.4 39.6936 36 38.4936 36C37.2936 36 36.6936 37.2 38.4936 37.2C38.9701 37.2 39.2518 37.7731 39.0183 38.1884C36.7461 42.2287 37.3337 49.9477 44.4936 51.6C47.2943 52.2463 54.6936 51.6 53.4936 46.2C53.0936 44.4 51.6936 43.8 49.8936 44.4C48.9219 44.7239 48.737 46.4901 49.6574 47.4691C49.9677 47.7992 50.323 47.3852 50.6103 47.0349C50.7215 46.8993 50.8876 46.8303 51.0936 46.8C51.8679 46.6861 52.2936 48 51.0936 49.2C49.3953 50.8983 42.6936 52.2 41.4936 46.2C40.7977 42.7207 40.8865 39.8019 42.5181 37.4434C42.6256 37.2881 42.8047 37.2 42.9936 37.2H46.2936C47.4936 37.2 47.4936 36 46.2936 36C45.8892 36 45.6211 36 45.4204 35.977C44.9443 35.9226 45.1259 35.2816 45.6043 35.2536C48.1146 35.1068 50.258 36.319 52.2936 39.6C52.8092 40.431 53.4936 40.2 53.4936 39C53.4936 37.8 51.6936 34.2 51.6936 34.2C51.2081 33.229 50.3298 33.0437 50.0122 33.9619C49.9983 34.0022 49.9866 34.0675 49.9727 34.1451C49.9119 34.4843 49.8092 35.0578 49.2936 34.8C48.1969 34.2516 46.945 33.8353 44.5894 34.105C44.2233 34.147 43.8936 33.8669 43.8936 33.4984V23.4C43.8936 22.2 44.4936 21.6 46.2936 21.6C46.6856 21.6 46.8215 21.3439 46.8686 20.9991C46.9134 20.6707 46.625 20.4 46.2936 20.4H42.0936C41.1602 20.4 39.3502 23.6706 37.2973 27.3801C36.8697 28.1527 36.4316 28.9444 35.9886 29.7295C35.7659 30.1243 35.2031 30.1352 34.9628 29.7508L29.5298 21.0579C29.5057 21.0194 29.4772 20.9836 29.4451 20.9515C28.8931 20.4 28.877 20.4 28.2935 20.4H24.6937C24.0925 20.4 23.4924 21.6 24.6937 21.6ZM33.6 34.8C32.9857 35.8045 33.0925 36.6 33.6925 36.6C34.2925 36.6 34.525 35.9114 33.6 34.8Z" fill="#F1F1F1"/>
<path d="M27.0937 32.4V25.2C27.0726 22.1106 26.4545 21.5042 24.6937 21.6C23.4924 21.6 24.0925 20.4 24.6937 20.4H28.2935C28.877 20.4 28.8931 20.4 29.4451 20.9515C29.4772 20.9836 29.5057 21.0194 29.5298 21.0579L34.9628 29.7508C35.2031 30.1352 35.7659 30.1243 35.9886 29.7295C36.4316 28.9444 36.8697 28.1527 37.2973 27.3801C39.3502 23.6706 41.1602 20.4 42.0936 20.4H46.2936C46.6249 20.4 46.9134 20.6707 46.8686 20.9991C46.8215 21.3439 46.6856 21.6 46.2936 21.6C44.4936 21.6 43.8936 22.2 43.8936 23.4V33.4984C43.8936 33.8669 44.2233 34.147 44.5894 34.105C46.945 33.8353 48.1969 34.2516 49.2936 34.8C49.8092 35.0578 49.9119 34.4843 49.9727 34.1451C49.9866 34.0675 49.9983 34.0022 50.0122 33.9619C50.3298 33.0437 51.2081 33.229 51.6936 34.2C51.6936 34.2 51.6936 34.2 51.6936 34.2C51.6936 34.2 53.4936 37.8 53.4936 39C53.4936 40.2 52.8092 40.431 52.2936 39.6C50.258 36.319 48.1146 35.1068 45.6043 35.2536C45.1259 35.2816 44.9443 35.9226 45.4204 35.977C45.6211 36 45.8892 36 46.2936 36C47.4936 36 47.4936 37.2 46.2936 37.2H42.9936C42.8047 37.2 42.6256 37.2881 42.5181 37.4434C40.8865 39.8019 40.7977 42.7207 41.4936 46.2C42.6936 52.2 49.3953 50.8983 51.0936 49.2C52.2936 48 51.8679 46.6861 51.0936 46.8C50.8876 46.8303 50.7215 46.8993 50.6103 47.0349C50.323 47.3852 49.9677 47.7992 49.6574 47.4691C48.737 46.4901 48.9219 44.7239 49.8936 44.4C51.6936 43.8 53.0936 44.4 53.4936 46.2C54.6936 51.6 47.2943 52.2463 44.4936 51.6C37.3337 49.9477 36.7461 42.2287 39.0183 38.1884C39.2518 37.7731 38.9701 37.2 38.4936 37.2C36.6936 37.2 37.2936 36 38.4936 36C39.6936 36 40.8936 35.4 40.8936 34.2V26.1198C40.8936 25.5148 40.0997 25.2901 39.7826 25.8054L36.2237 31.5886C36.1404 31.724 36.1137 31.8875 36.1529 32.0416C36.2545 32.4406 36.3401 32.7011 36.42 32.9445C36.5103 33.2198 36.5935 33.4731 36.6846 33.8799C37.2936 36.6 35.1706 38.2923 33.6936 37.8C31.5647 37.0904 31.8169 35.1997 33.2256 33.9589C33.4713 33.7424 33.5516 33.3791 33.3745 33.1036L29.3983 26.9184C29.0744 26.4147 28.2936 26.644 28.2936 27.2428L28.2935 32.4C28.2935 34.8 29.4935 36 30.6934 36C31.2933 36 31.2933 37.2 30.6934 37.2H24.6937C24.0935 37.2 24.0936 36 24.6937 36C26.4936 36 27.0872 33.8271 27.0936 32.4666M27.0937 32.4C27.0937 32.4223 27.0937 32.4445 27.0936 32.4666M27.0937 32.4L27.0936 32.4666M33.6 34.8C32.9857 35.8045 33.0925 36.6 33.6925 36.6C34.2925 36.6 34.525 35.9114 33.6 34.8Z" stroke="#0E1011" stroke-width="0.5" stroke-linejoin="round"/>
<defs>
<linearGradient id="paint0_linear_422_5916" x1="18.0004" y1="9.60001" x2="51.7273" y2="62.2713" gradientUnits="userSpaceOnUse">
<stop offset="0.120069" stop-color="#DDB531"/>
<stop offset="0.281766" stop-color="#F7E07A"/>
<stop offset="0.445585" stop-color="#DDB531"/>
<stop offset="1" stop-color="#F7E07A"/>
</linearGradient>
</defs>
</svg>
