<svg width="60" height="60" viewBox="0 0 60 60" fill="none" xmlns="http://www.w3.org/2000/svg">
<path d="M34.6938 12.0431C37.0113 12.3029 38.2974 13.9128 39.2559 17.7537C39.3728 18.222 39.4684 18.6298 39.4684 18.66C39.4684 18.6969 39.0071 18.7149 38.0683 18.7149H36.6682L36.5369 18.3819C36.1496 17.399 34.7555 15.7724 33.9633 15.379C33.4601 15.1291 32.4862 15.1143 31.6935 15.3445C31.1482 15.5027 30.635 15.7379 29.6063 16.3007C28.2302 17.0536 26.8548 17.725 26.1884 17.969C25.486 18.2262 24.4997 18.4742 23.7433 18.5839C23.1151 18.6749 21.6282 18.7518 21.6848 18.6903C21.7046 18.6688 22.2447 18.3985 22.8849 18.0899C24.8709 17.1322 25.8205 16.5719 27.3886 15.432C29.012 14.2519 30.7548 13.1467 31.9193 12.559C32.7436 12.1429 32.8895 12.0918 33.3893 12.0444C34.0096 11.9855 34.1781 11.9853 34.6938 12.0431Z" fill="#CAA21F"/>
<path d="M13.0492 12.6767C13.8961 12.7484 14.9028 12.9326 15.9349 13.2046C17.193 13.5362 17.8016 13.7102 18.4201 13.8032C19.1987 13.9202 19.9931 13.9087 22.1183 13.9211C24.2948 13.9337 25.4961 13.9208 25.7893 13.8816C26.029 13.8495 26.6465 13.7165 27.1614 13.5859C27.6765 13.4554 28.1229 13.357 28.1535 13.3673C28.1841 13.3775 28.0245 13.5296 27.7989 13.7052C25.89 15.1903 23.586 16.0507 20.3703 16.4794C19.2908 16.6233 17.9762 16.716 16.2496 16.7698L16.1364 16.7733C13.9006 16.843 13.3672 16.8597 12.8815 17.0365C12.7294 17.0919 12.5819 17.163 12.3882 17.2565L12.357 17.2715C11.6649 17.6051 11.2353 18.0282 10.8378 18.7676C10.4428 19.5026 9.90663 21.2207 9.77211 22.1827C9.6834 22.8173 9.68241 24.8405 9.77044 25.6504C10.0435 28.1633 10.7454 30.8387 11.7651 33.2531C11.8774 33.5189 11.9692 33.7639 11.9692 33.7974C11.9692 33.8422 11.715 33.8533 11.0139 33.8394L10.0586 33.8203L9.64416 33.6156C9.06783 33.3308 8.38238 32.637 7.80459 31.7536C6.80319 30.2223 5.75906 27.6609 5.18737 25.3327C4.84616 23.9432 4.80582 23.5683 4.80019 21.7361C4.79466 19.9293 4.84606 19.3917 5.13842 18.1978C5.84223 15.3235 7.52521 13.5007 10.0983 12.8262C10.8325 12.6336 11.9012 12.5795 13.0492 12.6767Z" fill="#CAA21F"/>
<path d="M7.19439 32.9882C7.99588 34.6272 10.5305 34.8938 15.5436 33.8665C16.175 33.7371 17.123 33.5261 17.6504 33.3975C18.1778 33.269 18.6357 33.1645 18.668 33.1652C18.7835 33.1678 18.1404 33.5495 17.4743 33.8736C14.8337 35.1584 10.883 36.1077 8.71154 35.9793C7.36309 35.8995 6.57261 35.5634 6.1908 34.9073C6.07694 34.7117 6.04809 34.5874 6.03097 34.2183C6.00008 33.5531 6.20724 32.8618 6.69007 32.0193L6.87922 31.6892L6.94481 32.1507C6.99104 32.4757 7.06488 32.7234 7.19439 32.9882Z" fill="#CAA21F"/>
<path d="M10.123 37.2883C10.4921 38.7616 12.2241 39.2174 15.5958 38.7288C16.4884 38.5994 18.0633 38.2843 19.2447 37.9985C19.7288 37.8815 20.1346 37.7954 20.1463 37.8072C20.2081 37.8693 19.1637 38.4203 18.3456 38.7572C15.1118 40.089 11.5873 40.5913 10.106 39.9314C9.80456 39.7972 9.48684 39.5067 9.34517 39.2359C9.25495 39.0636 9.23408 38.9358 9.23721 38.5756C9.24159 38.0664 9.37496 37.6324 9.74383 36.927L9.96027 36.5131L10.0021 36.7431C10.0252 36.8696 10.0796 37.115 10.123 37.2883Z" fill="#CAA21F"/>
<path d="M14.363 37.0886C14.6518 37.5422 14.8803 37.9212 14.8709 37.9306C14.8615 37.9401 14.3875 38.0543 13.8176 38.1844L12.7814 38.421L11.9573 37.5912L11.1332 36.7614L12.4252 36.5186C13.1359 36.385 13.7444 36.2731 13.7776 36.2698C13.8108 36.2665 14.0742 36.6349 14.363 37.0886Z" fill="#CAA21F"/>
<path d="M13.065 40.9339C13.065 41.47 13.4211 42.0351 13.9196 42.2902C14.3552 42.5131 14.6652 42.5752 15.4914 42.6051C16.6667 42.6477 17.9626 42.4685 20.1468 41.9611C20.6983 41.8329 21.1675 41.7281 21.1895 41.7281C21.2843 41.7281 20.7849 42.0235 20.2985 42.2551C19.003 42.872 17.2577 43.39 15.7653 43.6003C14.9969 43.7086 13.7347 43.6764 13.352 43.5386C12.5574 43.2526 12.2816 42.7766 12.4571 41.994C12.5395 41.627 12.9421 40.7298 13.0245 40.7298C13.0468 40.7298 13.065 40.8216 13.065 40.9339Z" fill="#CAA21F"/>
<path d="M16.8978 40.9085C17.1431 41.267 17.3438 41.5828 17.3438 41.6104C17.3438 41.6381 17.1107 41.7075 16.8258 41.7648L16.3079 41.8687L15.6935 41.2485C15.3556 40.9074 15.0897 40.6187 15.1026 40.6069C15.1156 40.5952 15.4197 40.5131 15.7784 40.4245C16.1371 40.336 16.4354 40.2621 16.4412 40.2602C16.447 40.2584 16.6525 40.5502 16.8978 40.9085Z" fill="#CAA21F"/>
<path d="M16.1172 45.0906C17.661 45.6128 18.5723 45.8038 19.285 45.7543C19.6499 45.729 21.1615 45.3872 21.8966 45.1639C21.9816 45.1381 21.9879 45.2142 21.9879 46.2598C21.9879 47.5644 21.9439 47.7972 21.6393 48.1038C21.2341 48.5119 20.6403 48.5434 19.4716 48.2189C16.9124 47.5082 15.5114 46.5458 15.3773 45.4063C15.3463 45.1423 15.3853 44.8806 15.4557 44.8806C15.4781 44.8806 15.7757 44.9751 16.1172 45.0906Z" fill="#CAA21F"/>
<path fill-rule="evenodd" clip-rule="evenodd" d="M39.7275 29.364V28.7446H47.9932C50.3604 28.7446 52.1746 29.3487 53.4358 30.557C54.6969 31.7652 55.3275 33.4705 55.3275 35.6729V37.3934C55.3275 39.6111 54.6969 41.324 53.4358 42.5323C52.1746 43.7405 49.2947 44.3446 46.9275 44.3446H39.7275V43.7482L41.3283 43.6105C41.6387 43.5799 41.8231 43.5187 41.8813 43.427C41.9395 43.3352 41.9686 43.0217 41.9686 42.4864V30.6029C41.9686 30.0676 41.9395 29.754 41.8813 29.6623C41.8231 29.5705 41.6387 29.5093 41.3283 29.4787L39.7275 29.364ZM43.9275 43.6105V30.5446C47.5275 29.3446 50.879 30.6476 51.7275 32.3446C52.3275 33.5446 52.3275 34.7446 52.3275 36.5446C52.3275 38.3446 52.3275 38.9446 51.7275 40.7446C50.9579 43.0536 48.1275 44.3446 43.9275 43.6105Z" fill="#CAA21F"/>
<path d="M40.9273 36.5481V37.1446H34.4838V36.5481L35.9543 36.4105C36.2395 36.3799 36.4089 36.3187 36.4623 36.227C36.5158 36.1199 36.5425 35.8064 36.5425 35.2864V22.8523L30.1273 37.1446H29.5273L23.5753 22.8523L23.5753 35.2864C23.5753 35.8064 23.602 36.1199 23.6555 36.227C23.709 36.3187 23.8783 36.3799 24.1635 36.4105L25.634 36.5481V37.1446H20.5273V36.5481L21.9979 36.4105C22.283 36.3799 22.4524 36.3187 22.5059 36.227C22.5593 36.1199 22.5861 35.8064 22.5861 35.2864L22.5861 23.4028C22.5861 22.8828 22.5593 22.577 22.5059 22.4852C22.4524 22.3781 22.283 22.3093 21.9979 22.2787L20.5273 22.164V21.5446H25.4201L30.7273 33.5446L36.1682 21.5446H40.9273V22.164L39.4568 22.2787C39.1716 22.3093 39.0023 22.3781 38.9488 22.4852C38.8954 22.577 38.8686 22.8828 38.8686 23.4028V35.2864C38.8686 35.8064 38.8954 36.1199 38.9488 36.227C39.0023 36.3187 39.1716 36.3799 39.4568 36.4105L40.9273 36.5481Z" fill="#CAA21F"/>
</svg>
