<svg width="158" height="58" viewBox="0 0 158 58" fill="none" xmlns="http://www.w3.org/2000/svg">
<g clip-path="url(#clip0_801_3832)">
<path d="M38.6556 11.0897C41.0028 11.3541 42.3054 12.9922 43.2761 16.9005C43.3945 17.377 43.4914 17.792 43.4914 17.8227C43.4914 17.8602 43.0242 17.8786 42.0733 17.8786H40.6552L40.5223 17.5397C40.1301 16.5396 38.7181 14.8844 37.9157 14.4841C37.4061 14.2298 36.4197 14.2148 35.6168 14.449C35.0645 14.61 34.5447 14.8493 33.5028 15.422C32.1092 16.1881 30.7161 16.8713 30.0411 17.1195C29.3297 17.3812 28.3308 17.6336 27.5647 17.7452C26.9284 17.8379 25.4225 17.9161 25.4798 17.8535C25.4998 17.8316 26.0468 17.5567 26.6953 17.2426C28.7068 16.2681 29.6685 15.698 31.2567 14.5381C32.9009 13.3372 34.6661 12.2127 35.8455 11.6146C36.6804 11.1913 36.8281 11.1393 37.3344 11.091C37.9626 11.0311 38.1333 11.0309 38.6556 11.0897Z" fill="url(#paint0_linear_801_3832)"/>
<path d="M16.7334 11.7345C17.5912 11.8074 18.6108 11.9948 19.6562 12.2716C19.8456 12.3217 20.0204 12.3684 20.1829 12.4117L20.1874 12.4128C21.1148 12.6601 21.6409 12.8003 22.1733 12.8807C22.8678 12.9855 23.5747 12.989 25.2038 12.9969C25.4245 12.998 25.6621 12.9991 25.9189 13.0006C28.1233 13.0135 29.34 13.0003 29.6369 12.9604C29.8797 12.9278 30.5051 12.7924 31.0266 12.6596C31.5483 12.5268 32.0004 12.4266 32.0314 12.4371C32.0624 12.4475 31.9008 12.6023 31.6722 12.7809C29.7389 14.2921 27.4054 15.1676 24.1484 15.6039C23.0551 15.7503 21.7236 15.8445 19.975 15.8993L19.8603 15.9029C17.5959 15.9739 17.0556 15.9908 16.5637 16.1707C16.4095 16.2271 16.2602 16.2995 16.064 16.3945L16.0324 16.4098C15.3314 16.7493 14.8963 17.1798 14.4937 17.9322C14.0936 18.6801 13.5506 20.4283 13.4144 21.4072C13.3245 22.053 13.3235 24.1116 13.4127 24.9358C13.6892 27.4927 14.4002 30.2151 15.4329 32.6718C15.5466 32.9423 15.6397 33.1915 15.6397 33.2257C15.6397 33.2712 15.3822 33.2826 14.6721 33.2684L13.7046 33.249L13.2848 33.0407C12.7011 32.7509 12.0068 32.0449 11.4216 31.146C10.4074 29.5878 9.34987 26.9815 8.77085 24.6125C8.42527 23.1986 8.38442 22.8171 8.37871 20.9527C8.37311 19.1143 8.42516 18.5673 8.72128 17.3524C9.43411 14.4277 11.1387 12.5729 13.7447 11.8865C14.4883 11.6906 15.5707 11.6355 16.7334 11.7345Z" fill="url(#paint1_linear_801_3832)"/>
<path d="M19.2598 33.296C14.1825 34.3413 11.6154 34.07 10.8036 32.4023C10.6724 32.1329 10.5977 31.8807 10.5508 31.5501L10.4844 31.0805L10.2928 31.4164C9.8038 32.2736 9.59399 32.9771 9.62527 33.654C9.64261 34.0295 9.67183 34.156 9.78715 34.3551C10.1739 35.0226 10.9745 35.3646 12.3402 35.4458C14.5395 35.5765 18.5408 34.6105 21.2153 33.3032C21.89 32.9734 22.5413 32.5851 22.4243 32.5824C22.3916 32.5816 21.9278 32.688 21.3937 32.8188C20.8595 32.9496 19.8993 33.1643 19.2598 33.296Z" fill="url(#paint2_linear_801_3832)"/>
<path d="M13.7698 36.7779C14.1436 38.277 15.8978 38.7408 19.3127 38.2435C20.2167 38.1119 21.8118 37.7912 23.0084 37.5005C23.4987 37.3814 23.9097 37.2938 23.9216 37.3058C23.9841 37.3691 22.9264 37.9297 22.0978 38.2725C18.8226 39.6276 15.2528 40.1387 13.7526 39.4673C13.4472 39.3307 13.1254 39.0352 12.982 38.7596C12.8906 38.5842 12.8694 38.4542 12.8726 38.0877C12.8771 37.5695 13.0121 37.128 13.3857 36.4102L13.6049 35.989L13.6473 36.2231C13.6707 36.3517 13.7258 36.6014 13.7698 36.7779Z" fill="url(#paint3_linear_801_3832)"/>
<path d="M18.5786 37.4314C18.5881 37.4218 18.3566 37.0362 18.0641 36.5746C17.7716 36.113 17.5048 35.738 17.4712 35.7414C17.4376 35.7448 16.8213 35.8587 16.1015 35.9946L14.793 36.2417L16.4623 37.9304L17.5117 37.6897C18.089 37.5573 18.569 37.4411 18.5786 37.4314Z" fill="url(#paint4_linear_801_3832)"/>
<path d="M16.7495 40.4874C16.7495 41.0329 17.1102 41.6079 17.615 41.8674C18.0562 42.0942 18.3702 42.1574 19.207 42.1879C20.3974 42.2313 21.7098 42.0488 23.9221 41.5326C24.4806 41.4022 24.9559 41.2955 24.9781 41.2955C25.0742 41.2955 24.5684 41.5961 24.0757 41.8318C22.7636 42.4595 20.9959 42.9865 19.4844 43.2005C18.7061 43.3108 17.4278 43.278 17.0402 43.1378C16.2354 42.8467 15.9561 42.3624 16.1338 41.566C16.2172 41.1926 16.625 40.2797 16.7084 40.2797C16.731 40.2797 16.7495 40.3731 16.7495 40.4874Z" fill="url(#paint5_linear_801_3832)"/>
<path d="M21.0832 41.1758C21.0832 41.1477 20.8799 40.8263 20.6314 40.4616C20.383 40.0969 20.1749 39.8 20.169 39.8019C20.1631 39.8038 19.861 39.879 19.4977 39.9691C19.1343 40.0592 18.8263 40.1427 18.8132 40.1546C18.8002 40.1666 19.0694 40.4604 19.4117 40.8075L20.0339 41.4386L20.5585 41.3328C20.8471 41.2746 21.0832 41.2039 21.0832 41.1758Z" fill="url(#paint6_linear_801_3832)"/>
<path d="M19.8408 44.717C21.4044 45.2484 22.3273 45.4427 23.0492 45.3923C23.4188 45.3666 24.9498 45.0188 25.6943 44.7916C25.7804 44.7654 25.7868 44.8427 25.7868 45.9067C25.7868 47.2342 25.7422 47.471 25.4337 47.7831C25.0233 48.1983 24.4219 48.2303 23.2382 47.9001C20.6462 47.177 19.2272 46.1977 19.0915 45.0382C19.06 44.7696 19.0996 44.5033 19.1708 44.5033C19.1935 44.5033 19.4949 44.5995 19.8408 44.717Z" fill="url(#paint7_linear_801_3832)"/>
<path d="M114.495 8.62535C116.667 7.31593 118.603 5.59794 119.776 3.93807C119.885 3.78372 119.955 3.66001 119.93 3.66316C119.906 3.66632 118.773 4.23773 117.414 4.93291C116.054 5.62809 114.568 6.37524 114.111 6.59316C107.384 9.7994 103.392 10.7868 96.1561 11.0343L94.6235 11.0867L86.8017 10.4398L85.4277 10.1254C78.3102 8.49704 72.3426 7.67296 66.9832 7.57849C61.1375 7.47541 56.8405 8.31147 53.7708 10.1492C53.3173 10.4207 52.4098 11.0931 52.4466 11.1303C52.4589 11.1428 52.8213 11.0673 53.252 10.9628C55.2564 10.4762 57.5845 10.1615 60.2713 10.0139C61.5234 9.94514 65.7159 9.98011 66.9567 10.0697C72.1436 10.4442 76.5172 11.0986 81.8075 12.2915C85.2361 13.0647 88.0767 13.4602 92.0339 13.7156C93.544 13.813 96.7824 13.7997 98.0161 13.6909C103.266 13.228 108.286 11.8651 112.412 9.78187C113.369 9.29877 113.481 9.23617 114.495 8.62535Z" fill="url(#paint8_linear_801_3832)"/>
<path d="M85.6919 14.5114C77.1028 12.7017 69.8386 11.6499 64.6371 11.4629C63.8637 11.4351 63.2071 11.4155 63.178 11.4193C63.1489 11.4232 62.6971 11.4445 62.1739 11.4667C60.9386 11.5189 59.8463 11.683 59.1351 11.9232C58.6017 12.1032 58.1639 12.3357 58.016 12.5174C57.9541 12.5934 57.9614 12.5997 58.078 12.5714C58.886 12.375 61.7987 12.3336 63.3101 12.4969C66.0389 12.7918 68.0476 13.1806 73.2987 14.4305C79.143 15.8216 80.7705 16.1549 83.4766 16.515C84.0555 16.592 85.5994 16.821 86.9074 17.0239C91.7581 17.7764 92.5028 17.8441 95.9711 17.8486C97.6954 17.8507 98.8754 17.8279 99.4328 17.7817C104.331 17.375 107.803 16.2124 111.509 13.7385C112.394 13.1475 113.859 12.0586 113.821 12.02C113.808 12.007 113.657 12.0595 113.486 12.1367C113.314 12.2139 112.627 12.501 111.958 12.7747C108.321 14.2641 106.021 14.9651 103.647 15.3073C102.078 15.5335 101.594 15.553 97.5566 15.5522L93.6722 15.5515L90.5541 15.2152C87.5008 14.8859 87.3996 14.8712 85.6919 14.5114Z" fill="url(#paint9_linear_801_3832)"/>
<path d="M147.366 44.1293L136.346 44.1021L136.315 43.4873H147.366V44.1293Z" fill="url(#paint10_linear_801_3832)"/>
<path d="M39.9584 43.6578V43.0163H28.9657V43.6578H39.9584Z" fill="url(#paint11_linear_801_3832)"/>
<path d="M64.7744 31.7142C64.3668 32.0393 63.83 32.2018 63.1639 32.2018C62.7663 32.2018 62.3885 32.1328 62.0306 31.9949C61.6727 31.8472 61.3745 31.596 61.1359 31.2415C60.8973 30.8869 60.7532 30.3846 60.7035 29.7345L59.8088 30.03C59.9181 30.7096 60.1368 31.2415 60.4649 31.6256C60.8029 32.0097 61.2055 32.2806 61.6727 32.4382C62.1499 32.5957 62.647 32.6745 63.1639 32.6745C63.9095 32.6745 64.5259 32.5514 65.013 32.3052C65.5101 32.059 65.8779 31.729 66.1165 31.3153C66.365 30.8918 66.4893 30.4191 66.4893 29.897C66.4893 28.4295 65.6592 27.4692 63.999 27.0161L62.9701 26.7207C62.2643 26.5237 61.7722 26.2577 61.4938 25.9229C61.2155 25.5781 61.0763 25.1645 61.0763 24.6819C61.0763 24.0712 61.2502 23.6083 61.5982 23.2931C61.9461 22.9681 62.4233 22.8056 63.0297 22.8056C63.7952 22.8056 64.332 23.0518 64.6402 23.5443C64.9583 24.0367 65.0528 24.741 64.9235 25.6569L66.1761 25.391C66.2755 24.8591 66.2308 24.3618 66.0419 23.8988C65.853 23.4359 65.515 23.0617 65.0279 22.776C64.5408 22.4806 63.8996 22.3328 63.1043 22.3328C62.3885 22.3328 61.797 22.4609 61.3298 22.7169C60.8725 22.973 60.5295 23.3079 60.3009 23.7216C60.0822 24.1352 59.9728 24.5784 59.9728 25.0512C59.9728 25.7604 60.1716 26.3612 60.5693 26.8536C60.9669 27.3461 61.5435 27.6957 62.299 27.9026L63.328 28.198C64.0934 28.4049 64.6303 28.6807 64.9384 29.0254C65.2466 29.3603 65.4007 29.7789 65.4007 30.2812C65.4007 30.9115 65.1919 31.3892 64.7744 31.7142Z" fill="url(#paint12_linear_801_3832)"/>
<path d="M47.6962 32.1427V32.5268H44.1025V32.1427L44.9226 32.054C45.0817 32.0343 45.1761 31.9949 45.2059 31.9358C45.2358 31.8669 45.2507 31.665 45.2507 31.3301V23.3227L42.149 31.3449H41.135L38.0185 23.3227V31.3301C38.0185 31.665 38.0334 31.8669 38.0632 31.9358C38.093 31.9949 38.1875 32.0343 38.3465 32.054L39.1667 32.1427V32.5268H36.3185V32.1427L37.1387 32.054C37.2977 32.0343 37.3922 31.9949 37.422 31.9358C37.4518 31.8669 37.4667 31.665 37.4667 31.3301V23.6772C37.4667 23.3424 37.4518 23.1454 37.422 23.0863C37.3922 23.0173 37.2977 22.973 37.1387 22.9533L36.3185 22.8794V22.4806H39.0474L42.0446 30.2368L45.0419 22.4806H47.6962V22.8794L46.8761 22.9533C46.717 22.973 46.6226 23.0173 46.5927 23.0863C46.5629 23.1454 46.548 23.3424 46.548 23.6772V31.3301C46.548 31.665 46.5629 31.8669 46.5927 31.9358C46.6226 31.9949 46.717 32.0343 46.8761 32.054L47.6962 32.1427Z" fill="url(#paint13_linear_801_3832)"/>
<path fill-rule="evenodd" clip-rule="evenodd" d="M51.9066 32.1427V32.5268H49.0733V32.1427L49.8786 32.054C49.9879 32.0442 50.0675 32.0294 50.1172 32.0097C50.1669 31.9802 50.2116 31.9211 50.2514 31.8324C50.3011 31.7339 50.3607 31.5665 50.4303 31.3301L53.3083 22.4806H54.2477L57.1555 31.3301C57.2251 31.5665 57.2798 31.7339 57.3196 31.8324C57.3693 31.9211 57.419 31.9802 57.4687 32.0097C57.5184 32.0294 57.5929 32.0442 57.6924 32.054L58.5125 32.1427V32.5268H54.8889V32.1427L55.7091 32.054C55.8681 32.0343 55.9526 31.9949 55.9626 31.9358C55.9825 31.8669 55.9377 31.665 55.8284 31.3301L55.217 29.4391H51.5785L50.9671 31.3301C50.8578 31.665 50.8081 31.8669 50.818 31.9358C50.8379 31.9949 50.9274 32.0343 51.0864 32.054L51.9066 32.1427ZM55.0679 28.9663L53.3978 23.825L51.7276 28.9663H55.0679Z" fill="url(#paint14_linear_801_3832)"/>
<path d="M74.1375 32.1427V32.5268H70.5438V32.1427L71.3639 32.054C71.523 32.0343 71.6174 31.9949 71.6472 31.9358C71.677 31.8767 71.692 31.6748 71.692 31.3301V28.2424L69.2912 23.5886C69.1917 23.3916 69.1122 23.2537 69.0526 23.1749C69.0029 23.0863 68.9482 23.0321 68.8885 23.0124C68.8388 22.9829 68.7593 22.9632 68.65 22.9533L67.8895 22.8794V22.4806H71.4981V22.8794L70.7376 22.9533C70.5885 22.973 70.509 23.0124 70.499 23.0715C70.499 23.1306 70.5686 23.303 70.7078 23.5886L72.7358 27.6219L74.8085 23.5886C74.9576 23.303 75.0272 23.1306 75.0173 23.0715C75.0073 23.0124 74.9278 22.973 74.7787 22.9533L74.0182 22.8794V22.4806H76.7769V22.8794L76.0015 22.9533C75.9021 22.9632 75.8225 22.9829 75.7629 23.0124C75.7132 23.0321 75.6585 23.0863 75.5988 23.1749C75.5491 23.2537 75.4746 23.3916 75.3752 23.5886L72.9893 28.2128V31.3301C72.9893 31.6748 73.0042 31.8767 73.034 31.9358C73.0639 31.9949 73.1583 32.0343 73.3173 32.054L74.1375 32.1427Z" fill="url(#paint15_linear_801_3832)"/>
<path d="M78.95 31.4188C79.6161 32.2559 80.5804 32.6745 81.8429 32.6745C82.5488 32.6745 83.175 32.5169 83.7218 32.2018C84.2785 31.8767 84.6662 31.3203 84.8849 30.5323L83.9604 30.2959C83.9107 30.7884 83.7815 31.1725 83.5727 31.4483C83.3639 31.7241 83.1104 31.9211 82.8122 32.0393C82.514 32.1476 82.2008 32.2018 81.8727 32.2018C81.0476 32.2018 80.4263 31.9358 80.0088 31.404C79.5912 30.8721 79.3825 30.0005 79.3825 28.789V26.2036C79.3825 25.002 79.5763 24.1352 79.964 23.6034C80.3617 23.0715 80.9383 22.8056 81.6938 22.8056C82.3698 22.8056 82.8718 23.0617 83.1999 23.5738C83.528 24.0761 83.6373 24.8001 83.528 25.7456L84.8104 25.4353C84.8899 24.8838 84.8203 24.3765 84.6016 23.9136C84.3829 23.4409 84.03 23.0617 83.5429 22.776C83.0557 22.4806 82.4394 22.3328 81.6938 22.3328C80.8886 22.3328 80.2076 22.5249 79.6509 22.909C79.0942 23.2931 78.6717 23.8299 78.3834 24.5193C78.105 25.2088 77.9659 26.0164 77.9659 26.9423V28.0503C77.9659 29.4587 78.2939 30.5816 78.95 31.4188Z" fill="url(#paint16_linear_801_3832)"/>
<path d="M96.381 32.1427V32.5268H92.7872V32.1427L93.6074 32.054C93.7664 32.0343 93.8609 31.9949 93.8907 31.9358C93.9205 31.8767 93.9355 31.6748 93.9355 31.3301V27.6957H89.4321V31.3301C89.4321 31.6748 89.447 31.8767 89.4768 31.9358C89.5067 31.9949 89.6011 32.0343 89.7601 32.054L90.5803 32.1427V32.5268H86.9866V32.1427L87.8067 32.054C87.9658 32.0343 88.0602 31.9949 88.09 31.9358C88.1199 31.8767 88.1348 31.6748 88.1348 31.3301V23.6772C88.1348 23.3325 88.1199 23.1306 88.09 23.0715C88.0602 23.0124 87.9658 22.973 87.8067 22.9533L86.9866 22.8794V22.4806H90.5803V22.8794L89.7601 22.9533C89.6011 22.973 89.5067 23.0124 89.4768 23.0715C89.447 23.1306 89.4321 23.3325 89.4321 23.6772V27.223H93.9355V23.6772C93.9355 23.3325 93.9205 23.1306 93.8907 23.0715C93.8609 23.0124 93.7664 22.973 93.6074 22.9533L92.7872 22.8794V22.4806H96.381V22.8794L95.5608 22.9533C95.4018 22.973 95.3073 23.0124 95.2775 23.0715C95.2477 23.1306 95.2328 23.3325 95.2328 23.6772V31.3301C95.2328 31.6748 95.2477 31.8767 95.2775 31.9358C95.3073 31.9949 95.4018 32.0343 95.5608 32.054L96.381 32.1427Z" fill="url(#paint17_linear_801_3832)"/>
<path fill-rule="evenodd" clip-rule="evenodd" d="M102.527 22.4806V22.8794L103.347 22.9533C103.506 22.973 103.601 23.0124 103.63 23.0715C103.66 23.1306 103.675 23.3325 103.675 23.6772V31.3301C103.675 31.6748 103.66 31.8767 103.63 31.9358C103.601 31.9949 103.506 32.0343 103.347 32.054L102.527 32.1427V32.5268H106.762C107.975 32.5268 108.904 32.1377 109.55 31.3597C110.196 30.5816 110.52 29.4784 110.52 28.0503V26.9423C110.52 25.524 110.196 24.4258 109.55 23.6477C108.904 22.8696 107.975 22.4806 106.762 22.4806H102.527ZM104.972 22.9533H106.732C107.269 22.9533 107.711 23.0567 108.059 23.2636C108.407 23.4606 108.666 23.7954 108.835 24.2682C109.013 24.741 109.103 25.3861 109.103 26.2036V28.789C109.103 29.6163 109.013 30.2713 108.835 30.7539C108.666 31.2267 108.407 31.5616 108.059 31.7586C107.711 31.9555 107.269 32.054 106.732 32.054H104.972V22.9533Z" fill="url(#paint18_linear_801_3832)"/>
<path d="M120.156 30.1187V32.5268H113.013V32.1427L113.833 32.054C113.992 32.0343 114.087 31.9949 114.116 31.9358C114.146 31.8767 114.161 31.6748 114.161 31.3301V23.6772C114.161 23.3325 114.146 23.1306 114.116 23.0715C114.087 23.0124 113.992 22.973 113.833 22.9533L113.013 22.8794V22.4806H119.962V24.8887H119.589L119.157 23.3374C119.127 23.2192 119.092 23.1355 119.052 23.0863C119.022 23.0272 118.958 22.9927 118.858 22.9829C118.759 22.9632 118.59 22.9533 118.351 22.9533H115.458V27.223H117.457C117.695 27.223 117.864 27.218 117.964 27.2082C118.063 27.1885 118.128 27.154 118.157 27.1048C118.197 27.0457 118.232 26.957 118.262 26.8388L118.545 25.7308H118.933V29.1879H118.545L118.262 28.0799C118.232 27.9617 118.197 27.8779 118.157 27.8287C118.128 27.7696 118.063 27.7351 117.964 27.7253C117.864 27.7056 117.695 27.6957 117.457 27.6957H115.458V32.054H118.53C118.769 32.054 118.938 32.0491 119.037 32.0393C119.137 32.0196 119.201 31.9851 119.231 31.9358C119.271 31.8767 119.306 31.7881 119.335 31.6699L119.768 30.1187H120.156Z" fill="url(#paint19_linear_801_3832)"/>
<path d="M128.492 22.4806V22.8794L129.313 22.9533C129.472 22.973 129.566 23.0173 129.596 23.0863C129.626 23.1454 129.641 23.3424 129.641 23.6772V30.3994L124.914 22.4806H122.334V22.8794L123.154 22.9533C123.313 22.973 123.408 23.0173 123.437 23.0863C123.467 23.1454 123.482 23.3424 123.482 23.6772V31.3301C123.482 31.665 123.467 31.8669 123.437 31.9358C123.408 31.9949 123.313 32.0343 123.154 32.054L122.334 32.1427V32.5268H125.182V32.1427L124.362 32.054C124.203 32.0343 124.108 31.9949 124.079 31.9358C124.049 31.8669 124.034 31.665 124.034 31.3301V23.4556L129.462 32.5268H130.192V23.6772C130.192 23.3424 130.207 23.1454 130.237 23.0863C130.267 23.0173 130.361 22.973 130.52 22.9533L131.341 22.8794V22.4806H128.492Z" fill="url(#paint20_linear_801_3832)"/>
<path d="M132.793 22.4806H140.726V24.8887H140.339L139.906 23.3374C139.876 23.2192 139.841 23.1355 139.802 23.0863C139.772 23.0272 139.707 22.9927 139.608 22.9829C139.508 22.9632 139.339 22.9533 139.101 22.9533H137.416V31.3301C137.416 31.6748 137.431 31.8767 137.461 31.9358C137.49 31.9949 137.585 32.0343 137.744 32.054L138.564 32.1427V32.5268H134.97V32.1427L135.79 32.054C135.949 32.0343 136.044 31.9949 136.074 31.9358C136.104 31.8767 136.118 31.6748 136.118 31.3301V22.9533H134.419C134.19 22.9533 134.021 22.9632 133.912 22.9829C133.812 22.9927 133.743 23.0272 133.703 23.0863C133.673 23.1355 133.643 23.2192 133.613 23.3374L133.181 24.8887H132.793V22.4806Z" fill="url(#paint21_linear_801_3832)"/>
<path d="M45.6969 47.2221C45.0534 46.9782 44.6103 46.648 44.3677 46.2313C44.1251 45.8147 44.0249 45.3523 44.0671 44.8442C44.1198 44.3259 44.2886 43.7771 44.5734 43.1979C44.8688 42.6085 45.2275 42.0191 45.6494 41.4297C46.0819 40.8402 46.5566 40.2661 47.0735 39.7072C47.5904 39.1482 48.1021 38.635 48.6084 38.1676C49.1148 37.7001 49.5895 37.2936 50.0326 36.9481C50.4756 36.6026 50.8343 36.3485 51.1086 36.1859C51.4883 35.9624 51.8048 35.8557 52.058 35.8658C52.3111 35.8658 52.5116 35.9421 52.6593 36.0945C52.8175 36.2368 52.923 36.44 52.9757 36.7042C53.039 36.9583 53.0654 37.2327 53.0549 37.5274C53.0549 37.8119 53.0232 38.1015 52.9599 38.3962C52.9072 38.6808 52.8333 38.9297 52.7384 39.1432C52.654 39.3566 52.559 39.5141 52.4536 39.6157C52.3586 39.7173 52.2637 39.7224 52.1687 39.6309C52.1582 39.5496 52.1687 39.4277 52.2004 39.2651C52.232 39.0923 52.2689 38.8993 52.3111 38.6859C52.3639 38.4724 52.4114 38.254 52.4536 38.0304C52.4958 37.8068 52.5221 37.6036 52.5327 37.4207C52.5538 37.2276 52.5485 37.065 52.5168 36.9329C52.4958 36.8008 52.4377 36.7245 52.3428 36.7042C51.9736 36.6128 51.5305 36.6991 51.0136 36.9634C50.5073 37.2174 49.9745 37.5883 49.4154 38.0761C48.8669 38.5537 48.3183 39.1127 47.7698 39.7529C47.2318 40.3829 46.7413 41.0333 46.2982 41.704C45.8551 42.3747 45.4912 43.0302 45.2064 43.6704C44.9215 44.3005 44.758 44.8594 44.7158 45.3472C44.6842 45.8248 44.795 46.1957 45.0481 46.46C45.3119 46.714 45.7707 46.7953 46.4248 46.7038C47.0261 46.6225 47.5799 46.4193 48.0863 46.0941C48.6032 45.7588 49.099 45.3929 49.5737 44.9966C50.0589 44.5901 50.5389 44.1938 51.0136 43.8076C51.4883 43.4113 51.9841 43.1115 52.501 42.9083C52.6909 42.8371 52.8386 42.8625 52.9441 42.9845C53.0601 43.1064 53.0918 43.2538 53.039 43.4265C52.9757 43.5993 52.7859 43.8279 52.4694 44.1125C52.1635 44.397 51.7784 44.6968 51.3143 45.0118C50.8606 45.3167 50.3596 45.6267 49.811 45.9417C49.2625 46.2465 48.7245 46.5108 48.197 46.7343C47.6801 46.9579 47.1949 47.1205 46.7413 47.2221C46.2982 47.3237 45.9501 47.3237 45.6969 47.2221Z" fill="url(#paint22_linear_801_3832)"/>
<path fill-rule="evenodd" clip-rule="evenodd" d="M54.8746 47.3949C54.4316 47.2221 54.152 46.963 54.036 46.6175C53.9305 46.272 53.9358 45.8909 54.0518 45.4742C54.1679 45.0474 54.3683 44.6104 54.6531 44.1633C54.9379 43.706 55.2544 43.2893 55.6025 42.9133C55.9506 42.5373 56.2988 42.2223 56.6469 41.9683C57.0055 41.704 57.3115 41.5567 57.5646 41.5262C58.2187 41.4449 58.7303 41.4906 59.0995 41.6634C59.4793 41.826 59.7377 42.0648 59.8749 42.3798C60.012 42.6949 60.0489 43.0658 59.9856 43.4926C59.9223 43.9092 59.7799 44.331 59.5584 44.7578C59.3474 45.1846 59.0679 45.5962 58.7198 45.9925C58.3822 46.3888 58.0024 46.7242 57.5805 46.9986C57.169 47.2628 56.7313 47.4406 56.2671 47.5321C55.8029 47.6134 55.3388 47.5676 54.8746 47.3949ZM54.7006 46.526C54.785 46.8512 54.9643 47.0341 55.2386 47.0748C55.5129 47.1053 55.8293 47.0392 56.188 46.8766C56.5572 46.7038 56.9422 46.46 57.3431 46.1449C57.744 45.8197 58.1079 45.4691 58.4349 45.0931C58.7725 44.7171 59.0468 44.3411 59.2578 43.9651C59.4793 43.579 59.5848 43.2436 59.5742 42.9591C59.5742 42.6745 59.4318 42.4611 59.147 42.3188C58.8727 42.1664 58.4086 42.1359 57.7545 42.2274C57.6068 42.3595 57.417 42.5221 57.1849 42.7152C56.9528 42.8981 56.7102 43.1013 56.457 43.3249C56.2144 43.5485 55.9717 43.7924 55.7291 44.0566C55.4865 44.3106 55.2755 44.5749 55.0962 44.8492C54.9168 45.1236 54.785 45.4031 54.7006 45.6876C54.6267 45.9722 54.6267 46.2516 54.7006 46.526Z" fill="url(#paint23_linear_801_3832)"/>
<path d="M61.7041 46.902C61.588 47.0341 61.5933 47.1408 61.7199 47.2221C61.7937 47.2729 61.9994 47.2577 62.337 47.1764C62.6746 47.0951 63.0649 46.9731 63.5079 46.8106C63.9616 46.648 64.431 46.4498 64.9162 46.2161C65.4015 45.9823 65.8287 45.7334 66.198 45.4691C66.5777 45.2049 66.8625 44.9356 67.0524 44.6612C67.2423 44.3869 67.2581 44.1277 67.0999 43.8838C66.9522 43.6399 66.5935 43.4164 66.0239 43.2131C65.4648 43.0099 64.6261 42.8524 63.5079 42.7406C63.4447 42.7101 63.3866 42.6644 63.3339 42.6034C63.2917 42.5424 63.2864 42.4713 63.3181 42.39C63.8772 42.0241 64.431 41.699 64.9795 41.4144C65.5386 41.1299 66.1188 40.825 66.7201 40.4998C66.8573 40.4287 66.9258 40.3474 66.9258 40.2559C66.9364 40.1645 66.9047 40.0832 66.8309 40.012C66.757 39.9307 66.6568 39.8698 66.5303 39.8291C66.4142 39.7885 66.2982 39.7783 66.1821 39.7986C65.9606 39.8494 65.6863 39.9561 65.3593 40.1187C65.0323 40.2813 64.7 40.4642 64.3624 40.6675C64.0354 40.8707 63.7295 41.0689 63.4447 41.262C63.1598 41.4551 62.9436 41.6024 62.7959 41.704C62.395 41.9683 62.1629 42.1867 62.0997 42.3595C62.0469 42.5221 62.1049 42.6542 62.2737 42.7558C62.4425 42.8574 62.6904 42.9387 63.0174 42.9997C63.355 43.0607 63.7031 43.1217 64.0618 43.1826C64.431 43.2334 64.7844 43.2944 65.1219 43.3656C65.4701 43.4265 65.7391 43.518 65.9289 43.6399C66.1188 43.7517 66.2032 43.9042 66.1821 44.0972C66.1716 44.2802 65.9922 44.5139 65.6441 44.7984C65.5703 44.8594 65.4068 44.9509 65.1536 45.0728C64.9004 45.1846 64.605 45.3167 64.2675 45.4691C63.9405 45.6216 63.5976 45.7842 63.2389 45.9569C62.8803 46.1297 62.5638 46.2974 62.2895 46.46C62.0258 46.6124 61.8307 46.7597 61.7041 46.902Z" fill="url(#paint24_linear_801_3832)"/>
<path d="M77.8156 47.0392C77.6995 46.9071 77.631 46.7597 77.6099 46.5971C77.5993 46.4244 77.6099 46.2567 77.6415 46.0941C77.6837 45.9214 77.7365 45.7588 77.7998 45.6063C77.8736 45.4437 77.9422 45.2964 78.0055 45.1643C78.0477 45.0626 78.1321 44.8797 78.2586 44.6155C78.3958 44.3411 78.5382 44.0566 78.6859 43.7619C78.8441 43.4672 78.9918 43.1928 79.1289 42.9387L79.4138 42.39V42.0546C79.3083 42.0038 79.092 42.075 78.765 42.268C78.438 42.451 78.0582 42.7101 77.6257 43.0454C77.1932 43.3706 76.7343 43.7365 76.2491 44.143C75.7638 44.5495 75.3049 44.9407 74.8724 45.3167C74.4504 45.6825 74.0812 46.0128 73.7648 46.3075C73.4483 46.5921 73.2479 46.7801 73.1635 46.8715C72.9314 46.9427 72.7784 46.8969 72.7046 46.7343C72.6413 46.5616 72.6255 46.3278 72.6571 46.0331C72.6888 45.7283 72.752 45.3929 72.847 45.0271C72.9419 44.6511 73.0369 44.3005 73.1318 43.9753C73.2373 43.6399 73.327 43.3554 73.4008 43.1217C73.4852 42.8879 73.5221 42.7609 73.5116 42.7406C73.3006 42.6694 73.0791 42.6949 72.847 42.8168C72.6149 42.9387 72.3776 43.1217 72.1349 43.3656C71.8923 43.5993 71.6497 43.8788 71.4071 44.2039C71.1644 44.519 70.9218 44.8391 70.6792 45.1643C70.4365 45.4793 70.2045 45.7842 69.9829 46.0789C69.7614 46.3634 69.5504 46.5971 69.35 46.7801C69.1496 46.963 68.9597 47.0697 68.7803 47.1002C68.6115 47.1307 68.4639 47.0544 68.3373 46.8715C68.3267 46.8614 68.3215 46.836 68.3215 46.7953C68.3215 46.7547 68.3267 46.7242 68.3373 46.7038C68.39 46.6022 68.4691 46.4447 68.5746 46.2313C68.6907 46.0077 68.8173 45.7588 68.9544 45.4844C69.0915 45.21 69.2392 44.9255 69.3975 44.6308L69.8405 43.7771C69.9882 43.5028 70.1148 43.2589 70.2203 43.0454C70.3363 42.832 70.426 42.6745 70.4893 42.5729C70.542 42.4713 70.6159 42.3443 70.7108 42.1918C70.8057 42.0292 70.9007 41.8768 70.9956 41.7345C71.0906 41.5821 71.175 41.4551 71.2488 41.3534L71.3596 41.1858H71.7393C71.8132 41.4195 71.8026 41.638 71.7077 41.8412C71.6127 42.0445 71.4967 42.2426 71.3596 42.4357C71.233 42.6288 71.1222 42.8219 71.0273 43.015C70.9429 43.1979 70.9429 43.396 71.0273 43.6094C71.9345 42.8371 72.6307 42.268 73.116 41.9022C73.6118 41.5364 73.9599 41.328 74.1603 41.2772C74.3608 41.2264 74.4557 41.3026 74.4452 41.5059C74.4346 41.7091 74.3871 41.9835 74.3028 42.329C74.2289 42.6745 74.1498 43.0709 74.0654 43.518C73.9916 43.955 73.9863 44.3818 74.0496 44.7984H74.2395C74.3028 44.7578 74.4082 44.6816 74.5559 44.5698C74.7036 44.458 74.8619 44.3361 75.0306 44.2039C75.21 44.0718 75.3735 43.9499 75.5212 43.8381C75.6794 43.7263 75.7902 43.6501 75.8535 43.6094C75.9695 43.518 76.1383 43.391 76.3598 43.2284L77.0244 42.7406C77.2565 42.5678 77.4622 42.4205 77.6415 42.2985C77.8314 42.1664 77.9527 42.0851 78.0055 42.0546C78.0477 42.0241 78.1373 41.9632 78.2745 41.8717C78.4222 41.7701 78.5804 41.6634 78.7492 41.5516C78.9285 41.4398 79.0973 41.3382 79.2555 41.2467C79.4138 41.1451 79.5298 41.0689 79.6036 41.0181C79.7619 40.9165 79.9096 40.8707 80.0467 40.8809C80.1838 40.8911 80.2946 40.9419 80.379 41.0333C80.4739 41.1146 80.532 41.2315 80.5531 41.3839C80.5742 41.5262 80.5531 41.6888 80.4898 41.8717C80.2366 42.329 79.9834 42.7761 79.7302 43.2131C79.4876 43.6501 79.2608 44.0922 79.0498 44.5393C78.8494 44.9763 78.6806 45.4285 78.5435 45.896C78.4169 46.3634 78.3483 46.8614 78.3378 47.3898C78.285 47.4203 78.227 47.4203 78.1637 47.3898C78.111 47.3593 78.0582 47.3187 78.0055 47.2678C77.9527 47.217 77.9053 47.1662 77.8631 47.1154L77.8156 47.0392Z" fill="url(#paint25_linear_801_3832)"/>
<path fill-rule="evenodd" clip-rule="evenodd" d="M82.6396 46.7648C82.8084 46.9681 83.051 47.1205 83.3675 47.2221C83.7051 47.3339 84.1639 47.3695 84.7441 47.3288C85.3243 47.278 85.9204 47.1764 86.5322 47.024C87.144 46.8614 87.7137 46.6581 88.2411 46.4142C88.7686 46.1703 89.1484 45.901 89.3804 45.6063L89.1906 45.4387C88.8741 45.52 88.468 45.6317 87.9722 45.774C87.4763 45.9061 86.9594 46.0382 86.4214 46.1703C85.894 46.2923 85.3718 46.3939 84.8549 46.4752C84.3486 46.5463 83.916 46.5616 83.5574 46.5209C83.2093 46.3278 83.0616 46.1144 83.1143 45.8807C83.1671 45.647 83.3359 45.4132 83.6207 45.1795C83.9055 44.9356 84.2694 44.6917 84.7125 44.4478C85.1556 44.2039 85.5986 43.9702 86.0417 43.7466C86.4847 43.5129 86.8856 43.2995 87.2443 43.1064C87.6135 42.9133 87.8614 42.7457 87.988 42.6034C88.0407 42.5424 88.0935 42.4306 88.1462 42.268C88.199 42.1054 88.2411 41.9225 88.2728 41.7193C88.3044 41.516 88.3203 41.3077 88.3203 41.0943C88.3308 40.8809 88.315 40.6929 88.2728 40.5303C88.2306 40.3677 88.1568 40.2508 88.0513 40.1797C87.9563 40.0984 87.8245 40.0933 87.6557 40.1645C87.1599 40.3474 86.6693 40.6167 86.1841 40.9724C85.7094 41.3179 85.2505 41.6939 84.8074 42.1004C84.3644 42.5069 83.9424 42.9235 83.5416 43.3503C83.1512 43.767 82.7978 44.1379 82.4814 44.4631C82.397 44.7171 82.3337 44.9864 82.2915 45.271C82.2598 45.5454 82.2704 45.8096 82.3231 46.0636C82.3759 46.3177 82.4814 46.5514 82.6396 46.7648ZM86.912 41.5364C87.0597 41.4347 87.1388 41.389 87.1493 41.3992C87.3814 41.4601 87.4922 41.5567 87.4816 41.6888C87.4816 41.8209 87.4025 41.9733 87.2443 42.1461C87.0966 42.3188 86.8909 42.4967 86.6272 42.6796C86.3634 42.8524 86.0839 43.0099 85.7885 43.1521C85.5037 43.2944 85.2241 43.4062 84.9499 43.4875C84.6861 43.5586 84.4699 43.579 84.3011 43.5485C84.28 43.5485 84.338 43.4926 84.4751 43.3808C84.6123 43.2589 84.7811 43.1166 84.9815 42.954C85.1925 42.7914 85.4193 42.6186 85.6619 42.4357C85.9151 42.2426 86.1472 42.0699 86.3581 41.9174C86.5797 41.7548 86.7643 41.6278 86.912 41.5364Z" fill="url(#paint26_linear_801_3832)"/>
<path d="M92.3806 47.2221C92.37 47.2018 92.3647 47.1459 92.3647 47.0544C92.3647 46.963 92.37 46.902 92.3806 46.8715C92.4122 46.7597 92.4702 46.5667 92.5546 46.2923C92.639 46.0077 92.7287 45.713 92.8236 45.4082C92.9186 45.0931 93.0082 44.7984 93.0926 44.5241C93.177 44.2497 93.235 44.0566 93.2667 43.9448C93.3089 43.8025 93.3563 43.6399 93.4091 43.457C93.4618 43.2639 93.4724 43.081 93.4408 42.9083C93.2825 42.8879 93.0874 42.9083 92.8553 42.9692C92.6232 43.02 92.3911 43.0658 92.159 43.1064C91.9375 43.1369 91.7265 43.1369 91.5261 43.1064C91.3362 43.0658 91.1991 42.9438 91.1147 42.7406C91.2413 42.4865 91.4312 42.3239 91.6843 42.2528C91.9375 42.1715 92.2118 42.1156 92.5072 42.0851C92.8025 42.0546 93.0821 42.0089 93.3458 41.9479C93.6201 41.887 93.8363 41.7498 93.9946 41.5364C94.0895 41.2721 94.2003 40.952 94.3269 40.576C94.464 40.1899 94.6064 39.7885 94.7541 39.3718C94.9018 38.9552 95.06 38.5436 95.2288 38.1371C95.4081 37.7306 95.5928 37.3698 95.7826 37.0548C95.8987 36.9837 95.9936 36.9786 96.0675 37.0396C96.1413 37.1005 96.194 37.192 96.2257 37.314C96.2679 37.4257 96.2943 37.5426 96.3048 37.6645C96.3154 37.7865 96.3154 37.8678 96.3048 37.9084C96.2415 38.1727 96.1308 38.4572 95.9725 38.7621C95.8248 39.0568 95.6824 39.3566 95.5453 39.6614C95.4187 39.9663 95.3132 40.2712 95.2288 40.576C95.155 40.8809 95.155 41.1705 95.2288 41.4449H98.6309C98.6414 41.4449 98.6678 41.4805 98.71 41.5516C98.7522 41.6126 98.7891 41.6634 98.8208 41.704C98.8735 41.8463 98.8155 41.9428 98.6467 41.9937C98.4779 42.0445 98.2511 42.08 97.9663 42.1004C97.6815 42.1105 97.3544 42.1207 96.9852 42.1308C96.6266 42.1308 96.2784 42.1563 95.9409 42.2071C95.6139 42.2477 95.3185 42.3239 95.0547 42.4357C94.791 42.5373 94.6117 42.6949 94.5167 42.9083C94.2425 43.5891 93.9893 44.2751 93.7572 44.9661C93.5251 45.647 93.3036 46.338 93.0926 47.0392C93.0715 47.0697 93.0293 47.1205 92.966 47.1916C92.9027 47.2526 92.8342 47.3085 92.7603 47.3593C92.6865 47.4 92.6126 47.4152 92.5388 47.405C92.4755 47.3949 92.4228 47.3339 92.3806 47.2221Z" fill="url(#paint27_linear_801_3832)"/>
<path fill-rule="evenodd" clip-rule="evenodd" d="M98.4673 46.4447C98.5834 46.7902 98.8629 47.0494 99.306 47.2221C99.7701 47.3949 100.234 47.4406 100.698 47.3593C101.163 47.2678 101.6 47.09 102.012 46.8258C102.434 46.5514 102.814 46.2161 103.151 45.8197C103.499 45.4234 103.779 45.0118 103.99 44.585C104.211 44.1582 104.354 43.7365 104.417 43.3198C104.48 42.893 104.443 42.5221 104.306 42.2071C104.169 41.892 103.911 41.6532 103.531 41.4906C103.162 41.3179 102.65 41.2721 101.996 41.3534C101.743 41.3839 101.437 41.5313 101.078 41.7955C100.73 42.0495 100.382 42.3646 100.034 42.7406C99.6857 43.1166 99.3693 43.5332 99.0845 43.9905C98.7996 44.4377 98.5992 44.8746 98.4832 45.3015C98.3671 45.7181 98.3618 46.0992 98.4673 46.4447ZM100.619 46.7038C100.261 46.8664 99.9442 46.9325 99.6699 46.902C99.3956 46.8614 99.2163 46.6784 99.1319 46.3532C99.0581 46.0789 99.0581 45.7994 99.1319 45.5149C99.2163 45.2303 99.3482 44.9509 99.5275 44.6765C99.7068 44.4021 99.9178 44.1379 100.16 43.8838C100.403 43.6196 100.646 43.3757 100.888 43.1521C101.142 42.9286 101.384 42.7253 101.616 42.5424C101.848 42.3493 102.038 42.1867 102.186 42.0546C102.84 41.9632 103.304 41.9937 103.578 42.1461C103.863 42.2884 104.006 42.5018 104.006 42.7863C104.016 43.0709 103.911 43.4062 103.689 43.7924C103.478 44.1684 103.204 44.5444 102.866 44.9204C102.539 45.2964 102.175 45.647 101.774 45.9722C101.374 46.2872 100.989 46.5311 100.619 46.7038Z" fill="url(#paint28_linear_801_3832)"/>
<path d="M107.188 47.2221C106.882 47.0087 106.682 46.7394 106.587 46.4142C106.503 46.089 106.492 45.7384 106.555 45.3624C106.619 44.9763 106.729 44.5799 106.888 44.1735C107.056 43.767 107.236 43.3757 107.426 42.9997C107.626 42.6237 107.816 42.2782 107.995 41.9632C108.185 41.6481 108.333 41.389 108.438 41.1858C108.47 41.1248 108.544 40.9774 108.66 40.7437C108.786 40.51 108.918 40.2559 109.055 39.9815C109.193 39.7072 109.319 39.4531 109.435 39.2194L109.673 38.7621C109.704 38.7113 109.746 38.6147 109.799 38.4724C109.862 38.32 109.931 38.1574 110.005 37.9847C110.079 37.8119 110.158 37.6493 110.242 37.4969C110.337 37.3343 110.432 37.2174 110.527 37.1463C110.632 37.0751 110.733 37.065 110.828 37.1158C110.933 37.1666 111.033 37.319 111.128 37.5731C111.086 37.6747 110.981 37.878 110.812 38.1828L110.242 39.2803C110.021 39.7072 109.773 40.1797 109.498 40.698C109.235 41.2162 108.976 41.7396 108.723 42.268C108.47 42.7965 108.233 43.3147 108.011 43.8229C107.789 44.3208 107.605 44.7781 107.457 45.1948C107.32 45.6012 107.236 45.9417 107.204 46.2161C107.183 46.4803 107.236 46.6429 107.362 46.7038C107.51 46.775 107.7 46.8055 107.932 46.7953C108.175 46.775 108.422 46.7445 108.676 46.7038C108.929 46.6632 109.177 46.6225 109.419 46.5819C109.662 46.5311 109.873 46.5108 110.052 46.5209C110.094 46.6124 110.063 46.7038 109.957 46.7953C109.852 46.8766 109.704 46.9528 109.514 47.024C109.324 47.0849 109.103 47.1408 108.85 47.1916C108.607 47.2323 108.37 47.2628 108.138 47.2831C107.916 47.3034 107.716 47.3085 107.536 47.2983C107.368 47.2882 107.251 47.2628 107.188 47.2221Z" fill="url(#paint29_linear_801_3832)"/>
<path fill-rule="evenodd" clip-rule="evenodd" d="M112.37 46.4447C112.486 46.7902 112.765 47.0494 113.208 47.2221C113.673 47.3949 114.137 47.4406 114.601 47.3593C115.065 47.2678 115.503 47.09 115.914 46.8258C116.336 46.5514 116.716 46.2161 117.054 45.8197C117.402 45.4234 117.697 45.0118 117.908 44.585C118.13 44.1582 118.272 43.7365 118.335 43.3198C118.399 42.893 118.346 42.5221 118.209 42.2071C118.072 41.892 117.813 41.6532 117.433 41.4906C117.064 41.3179 116.553 41.2721 115.898 41.3534C115.645 41.3839 115.339 41.5313 114.981 41.7955C114.633 42.0495 114.284 42.3646 113.936 42.7406C113.588 43.1166 113.272 43.5332 112.987 43.9905C112.702 44.4377 112.502 44.8746 112.386 45.3015C112.27 45.7181 112.264 46.0992 112.37 46.4447ZM114.522 46.7038C114.163 46.8664 113.847 46.9325 113.572 46.902C113.298 46.8614 113.119 46.6784 113.034 46.3532C112.961 46.0789 112.961 45.7994 113.034 45.5149C113.119 45.2303 113.251 44.9509 113.43 44.6765C113.609 44.4021 113.82 44.1379 114.063 43.8838C114.306 43.6196 114.548 43.3757 114.791 43.1521C115.044 42.9286 115.287 42.7253 115.519 42.5424C115.751 42.3493 115.941 42.1867 116.088 42.0546C116.742 41.9632 117.207 41.9937 117.481 42.1461C117.766 42.2884 117.908 42.5018 117.908 42.7863C117.919 43.0709 117.813 43.4062 117.592 43.7924C117.381 44.1684 117.106 44.5444 116.769 44.9204C116.442 45.2964 116.078 45.647 115.677 45.9722C115.276 46.2872 114.891 46.5311 114.522 46.7038Z" fill="url(#paint30_linear_801_3832)"/>
<path fill-rule="evenodd" clip-rule="evenodd" d="M118.576 51.6884C118.249 51.5766 117.986 51.409 117.785 51.1854C117.574 50.9618 117.416 50.7179 117.311 50.4537C117.194 50.1997 117.126 49.9405 117.105 49.6763C117.073 49.4121 117.078 49.1783 117.121 48.9751C117.152 48.7719 117.216 48.6143 117.311 48.5026C117.395 48.4009 117.495 48.3755 117.611 48.4263C117.601 49.3105 117.711 49.9761 117.943 50.4232C118.165 50.8805 118.46 51.1651 118.83 51.2768C119.188 51.3988 119.6 51.3734 120.064 51.2006C120.517 51.0279 120.976 50.7586 121.44 50.3927C121.915 50.0371 122.364 49.6052 122.785 49.097C123.218 48.5991 123.582 48.0757 123.877 47.527C124.173 46.9884 124.384 46.4549 124.51 45.9264C124.637 45.3878 124.632 44.9001 124.494 44.4631C123.545 45.1236 122.807 45.5403 122.279 45.713C121.752 45.8858 121.382 45.896 121.171 45.7435C120.971 45.5809 120.908 45.2964 120.982 44.8899C121.055 44.4834 121.214 44.0363 121.456 43.5485C121.699 43.0607 122.005 42.5729 122.374 42.0851C122.743 41.5872 123.123 41.1705 123.513 40.8352C123.904 40.4998 124.278 40.2864 124.637 40.1949C125.006 40.1035 125.312 40.2102 125.555 40.5151C125.797 40.8301 125.95 41.2569 126.013 41.7955C126.077 42.3239 126.061 42.9133 125.966 43.5637C125.871 44.2141 125.702 44.895 125.46 45.6063C125.228 46.3177 124.937 47.0087 124.589 47.6794C124.241 48.3603 123.84 48.9903 123.387 49.5696C122.944 50.1488 122.464 50.6315 121.947 51.0177C121.43 51.4039 120.887 51.663 120.317 51.7951C119.747 51.9374 119.167 51.9018 118.576 51.6884ZM121.804 44.1277C121.794 44.1582 121.783 44.2141 121.773 44.2954V44.8137C121.783 44.895 121.794 44.9509 121.804 44.9814C122.142 45.0626 122.49 44.9864 122.849 44.7527C123.207 44.519 123.534 44.2192 123.83 43.8533C124.136 43.4875 124.389 43.1013 124.589 42.6949C124.8 42.2884 124.927 41.9479 124.969 41.6735C125.022 41.3992 124.969 41.2467 124.811 41.2162C124.653 41.1756 124.363 41.3382 123.941 41.704C123.814 41.8158 123.645 41.9683 123.434 42.1613C123.223 42.3544 123.007 42.5627 122.785 42.7863C122.575 43.0099 122.374 43.2436 122.184 43.4875C122.005 43.7212 121.878 43.9346 121.804 44.1277Z" fill="url(#paint31_linear_801_3832)"/>
<path d="M124.82 52.5725C124.714 52.8774 124.709 53.101 124.804 53.2432C124.814 53.2636 124.841 53.289 124.883 53.3195C124.915 53.3601 124.952 53.3957 124.994 53.4262C125.025 53.4668 125.062 53.5024 125.105 53.5329C125.136 53.5634 125.163 53.5837 125.184 53.5938C125.268 53.5329 125.337 53.4566 125.389 53.3652L125.516 53.0908C125.611 52.8876 125.817 52.5624 126.133 52.1152C126.439 51.6783 126.814 51.1651 127.257 50.5757C127.689 49.9964 128.164 49.3664 128.681 48.6855C129.208 48.0046 129.73 47.3237 130.247 46.6429C130.775 45.9518 131.271 45.2913 131.735 44.6612C132.209 44.021 132.616 43.4519 132.953 42.954C133.291 42.456 133.539 42.0495 133.697 41.7345C133.855 41.4195 133.876 41.2416 133.76 41.201C133.612 41.1502 133.502 41.1451 133.428 41.1858C133.364 41.2162 133.296 41.2772 133.222 41.3687C133.032 41.6024 132.826 41.8768 132.605 42.1918C132.394 42.4967 132.167 42.8117 131.925 43.1369C131.682 43.4621 131.429 43.7771 131.165 44.082C130.901 44.3767 130.632 44.6206 130.358 44.8137C130.221 44.9153 130.073 44.8797 129.915 44.707C129.767 44.5342 129.614 44.3005 129.456 44.0058C129.298 43.7009 129.134 43.3656 128.966 42.9997C128.797 42.6237 128.633 42.2833 128.475 41.9784C128.327 41.6634 128.185 41.4195 128.048 41.2467C127.911 41.0638 127.784 41.013 127.668 41.0943C127.584 41.3687 127.584 41.6634 127.668 41.9784C127.763 42.2934 127.895 42.6136 128.064 42.9387C128.243 43.2538 128.438 43.5688 128.649 43.8838C128.871 44.1887 129.066 44.4732 129.235 44.7375C129.414 44.9915 129.546 45.2151 129.63 45.4082C129.715 45.6012 129.715 45.7435 129.63 45.835C129.546 45.9468 129.414 46.1144 129.235 46.338C129.055 46.5616 128.855 46.8156 128.633 47.1002C128.412 47.3746 128.174 47.6693 127.921 47.9843C127.679 48.2993 127.446 48.5991 127.225 48.8836C127.003 49.1682 126.808 49.4222 126.639 49.6458C126.46 49.8694 126.328 50.0371 126.244 50.1488C126.149 50.2708 126.007 50.4689 125.817 50.7433C125.616 51.0279 125.426 51.3277 125.247 51.6427C125.057 51.9679 124.915 52.2778 124.82 52.5725Z" fill="url(#paint32_linear_801_3832)"/>
<path fill-rule="evenodd" clip-rule="evenodd" d="M14.1071 0C6.31598 0 0 6.30279 0 14.0777V43.9223C0 51.6972 6.31599 58 14.1071 58H143.893C151.684 58 158 51.6972 158 43.9223V14.0777C158 6.30279 151.684 0 143.893 0H14.1071ZM143.893 1.22105H14.1071C6.97948 1.22105 1.21538 6.98491 1.21538 14.0777V43.9223C1.21538 51.0151 6.97948 56.7789 14.1071 56.7789H143.893C151.021 56.7789 156.785 51.0151 156.785 43.9223V14.0777C156.785 6.98491 151.021 1.22105 143.893 1.22105Z" fill="url(#paint33_linear_801_3832)"/>
</g>
<defs>
<linearGradient id="paint0_linear_801_3832" x1="59.5538" y1="-21.3684" x2="95.1097" y2="118.974" gradientUnits="userSpaceOnUse">
<stop stop-color="#DDB531"/>
<stop offset="0.324052" stop-color="#F7E07A"/>
<stop offset="0.72203" stop-color="#DDB531"/>
<stop offset="1" stop-color="#F7E07A"/>
</linearGradient>
<linearGradient id="paint1_linear_801_3832" x1="59.5538" y1="-21.3684" x2="95.1097" y2="118.974" gradientUnits="userSpaceOnUse">
<stop stop-color="#DDB531"/>
<stop offset="0.324052" stop-color="#F7E07A"/>
<stop offset="0.72203" stop-color="#DDB531"/>
<stop offset="1" stop-color="#F7E07A"/>
</linearGradient>
<linearGradient id="paint2_linear_801_3832" x1="59.5538" y1="-21.3684" x2="95.1097" y2="118.974" gradientUnits="userSpaceOnUse">
<stop stop-color="#DDB531"/>
<stop offset="0.324052" stop-color="#F7E07A"/>
<stop offset="0.72203" stop-color="#DDB531"/>
<stop offset="1" stop-color="#F7E07A"/>
</linearGradient>
<linearGradient id="paint3_linear_801_3832" x1="59.5538" y1="-21.3684" x2="95.1097" y2="118.974" gradientUnits="userSpaceOnUse">
<stop stop-color="#DDB531"/>
<stop offset="0.324052" stop-color="#F7E07A"/>
<stop offset="0.72203" stop-color="#DDB531"/>
<stop offset="1" stop-color="#F7E07A"/>
</linearGradient>
<linearGradient id="paint4_linear_801_3832" x1="59.5538" y1="-21.3684" x2="95.1097" y2="118.974" gradientUnits="userSpaceOnUse">
<stop stop-color="#DDB531"/>
<stop offset="0.324052" stop-color="#F7E07A"/>
<stop offset="0.72203" stop-color="#DDB531"/>
<stop offset="1" stop-color="#F7E07A"/>
</linearGradient>
<linearGradient id="paint5_linear_801_3832" x1="59.5538" y1="-21.3684" x2="95.1097" y2="118.974" gradientUnits="userSpaceOnUse">
<stop stop-color="#DDB531"/>
<stop offset="0.324052" stop-color="#F7E07A"/>
<stop offset="0.72203" stop-color="#DDB531"/>
<stop offset="1" stop-color="#F7E07A"/>
</linearGradient>
<linearGradient id="paint6_linear_801_3832" x1="59.5538" y1="-21.3684" x2="95.1097" y2="118.974" gradientUnits="userSpaceOnUse">
<stop stop-color="#DDB531"/>
<stop offset="0.324052" stop-color="#F7E07A"/>
<stop offset="0.72203" stop-color="#DDB531"/>
<stop offset="1" stop-color="#F7E07A"/>
</linearGradient>
<linearGradient id="paint7_linear_801_3832" x1="59.5538" y1="-21.3684" x2="95.1097" y2="118.974" gradientUnits="userSpaceOnUse">
<stop stop-color="#DDB531"/>
<stop offset="0.324052" stop-color="#F7E07A"/>
<stop offset="0.72203" stop-color="#DDB531"/>
<stop offset="1" stop-color="#F7E07A"/>
</linearGradient>
<linearGradient id="paint8_linear_801_3832" x1="59.5538" y1="-21.3684" x2="95.1097" y2="118.974" gradientUnits="userSpaceOnUse">
<stop stop-color="#DDB531"/>
<stop offset="0.324052" stop-color="#F7E07A"/>
<stop offset="0.72203" stop-color="#DDB531"/>
<stop offset="1" stop-color="#F7E07A"/>
</linearGradient>
<linearGradient id="paint9_linear_801_3832" x1="59.5538" y1="-21.3684" x2="95.1097" y2="118.974" gradientUnits="userSpaceOnUse">
<stop stop-color="#DDB531"/>
<stop offset="0.324052" stop-color="#F7E07A"/>
<stop offset="0.72203" stop-color="#DDB531"/>
<stop offset="1" stop-color="#F7E07A"/>
</linearGradient>
<linearGradient id="paint10_linear_801_3832" x1="59.5538" y1="-21.3684" x2="95.1097" y2="118.974" gradientUnits="userSpaceOnUse">
<stop stop-color="#DDB531"/>
<stop offset="0.324052" stop-color="#F7E07A"/>
<stop offset="0.72203" stop-color="#DDB531"/>
<stop offset="1" stop-color="#F7E07A"/>
</linearGradient>
<linearGradient id="paint11_linear_801_3832" x1="59.5538" y1="-21.3684" x2="95.1097" y2="118.974" gradientUnits="userSpaceOnUse">
<stop stop-color="#DDB531"/>
<stop offset="0.324052" stop-color="#F7E07A"/>
<stop offset="0.72203" stop-color="#DDB531"/>
<stop offset="1" stop-color="#F7E07A"/>
</linearGradient>
<linearGradient id="paint12_linear_801_3832" x1="59.5538" y1="-21.3684" x2="95.1097" y2="118.974" gradientUnits="userSpaceOnUse">
<stop stop-color="#DDB531"/>
<stop offset="0.324052" stop-color="#F7E07A"/>
<stop offset="0.72203" stop-color="#DDB531"/>
<stop offset="1" stop-color="#F7E07A"/>
</linearGradient>
<linearGradient id="paint13_linear_801_3832" x1="59.5538" y1="-21.3684" x2="95.1097" y2="118.974" gradientUnits="userSpaceOnUse">
<stop stop-color="#DDB531"/>
<stop offset="0.324052" stop-color="#F7E07A"/>
<stop offset="0.72203" stop-color="#DDB531"/>
<stop offset="1" stop-color="#F7E07A"/>
</linearGradient>
<linearGradient id="paint14_linear_801_3832" x1="59.5538" y1="-21.3684" x2="95.1097" y2="118.974" gradientUnits="userSpaceOnUse">
<stop stop-color="#DDB531"/>
<stop offset="0.324052" stop-color="#F7E07A"/>
<stop offset="0.72203" stop-color="#DDB531"/>
<stop offset="1" stop-color="#F7E07A"/>
</linearGradient>
<linearGradient id="paint15_linear_801_3832" x1="59.5538" y1="-21.3684" x2="95.1097" y2="118.974" gradientUnits="userSpaceOnUse">
<stop stop-color="#DDB531"/>
<stop offset="0.324052" stop-color="#F7E07A"/>
<stop offset="0.72203" stop-color="#DDB531"/>
<stop offset="1" stop-color="#F7E07A"/>
</linearGradient>
<linearGradient id="paint16_linear_801_3832" x1="59.5538" y1="-21.3684" x2="95.1097" y2="118.974" gradientUnits="userSpaceOnUse">
<stop stop-color="#DDB531"/>
<stop offset="0.324052" stop-color="#F7E07A"/>
<stop offset="0.72203" stop-color="#DDB531"/>
<stop offset="1" stop-color="#F7E07A"/>
</linearGradient>
<linearGradient id="paint17_linear_801_3832" x1="59.5538" y1="-21.3684" x2="95.1097" y2="118.974" gradientUnits="userSpaceOnUse">
<stop stop-color="#DDB531"/>
<stop offset="0.324052" stop-color="#F7E07A"/>
<stop offset="0.72203" stop-color="#DDB531"/>
<stop offset="1" stop-color="#F7E07A"/>
</linearGradient>
<linearGradient id="paint18_linear_801_3832" x1="59.5538" y1="-21.3684" x2="95.1097" y2="118.974" gradientUnits="userSpaceOnUse">
<stop stop-color="#DDB531"/>
<stop offset="0.324052" stop-color="#F7E07A"/>
<stop offset="0.72203" stop-color="#DDB531"/>
<stop offset="1" stop-color="#F7E07A"/>
</linearGradient>
<linearGradient id="paint19_linear_801_3832" x1="59.5538" y1="-21.3684" x2="95.1097" y2="118.974" gradientUnits="userSpaceOnUse">
<stop stop-color="#DDB531"/>
<stop offset="0.324052" stop-color="#F7E07A"/>
<stop offset="0.72203" stop-color="#DDB531"/>
<stop offset="1" stop-color="#F7E07A"/>
</linearGradient>
<linearGradient id="paint20_linear_801_3832" x1="59.5538" y1="-21.3684" x2="95.1097" y2="118.974" gradientUnits="userSpaceOnUse">
<stop stop-color="#DDB531"/>
<stop offset="0.324052" stop-color="#F7E07A"/>
<stop offset="0.72203" stop-color="#DDB531"/>
<stop offset="1" stop-color="#F7E07A"/>
</linearGradient>
<linearGradient id="paint21_linear_801_3832" x1="59.5538" y1="-21.3684" x2="95.1097" y2="118.974" gradientUnits="userSpaceOnUse">
<stop stop-color="#DDB531"/>
<stop offset="0.324052" stop-color="#F7E07A"/>
<stop offset="0.72203" stop-color="#DDB531"/>
<stop offset="1" stop-color="#F7E07A"/>
</linearGradient>
<linearGradient id="paint22_linear_801_3832" x1="59.5538" y1="-21.3684" x2="95.1097" y2="118.974" gradientUnits="userSpaceOnUse">
<stop stop-color="#DDB531"/>
<stop offset="0.324052" stop-color="#F7E07A"/>
<stop offset="0.72203" stop-color="#DDB531"/>
<stop offset="1" stop-color="#F7E07A"/>
</linearGradient>
<linearGradient id="paint23_linear_801_3832" x1="59.5538" y1="-21.3684" x2="95.1097" y2="118.974" gradientUnits="userSpaceOnUse">
<stop stop-color="#DDB531"/>
<stop offset="0.324052" stop-color="#F7E07A"/>
<stop offset="0.72203" stop-color="#DDB531"/>
<stop offset="1" stop-color="#F7E07A"/>
</linearGradient>
<linearGradient id="paint24_linear_801_3832" x1="59.5538" y1="-21.3684" x2="95.1097" y2="118.974" gradientUnits="userSpaceOnUse">
<stop stop-color="#DDB531"/>
<stop offset="0.324052" stop-color="#F7E07A"/>
<stop offset="0.72203" stop-color="#DDB531"/>
<stop offset="1" stop-color="#F7E07A"/>
</linearGradient>
<linearGradient id="paint25_linear_801_3832" x1="59.5538" y1="-21.3684" x2="95.1097" y2="118.974" gradientUnits="userSpaceOnUse">
<stop stop-color="#DDB531"/>
<stop offset="0.324052" stop-color="#F7E07A"/>
<stop offset="0.72203" stop-color="#DDB531"/>
<stop offset="1" stop-color="#F7E07A"/>
</linearGradient>
<linearGradient id="paint26_linear_801_3832" x1="59.5538" y1="-21.3684" x2="95.1097" y2="118.974" gradientUnits="userSpaceOnUse">
<stop stop-color="#DDB531"/>
<stop offset="0.324052" stop-color="#F7E07A"/>
<stop offset="0.72203" stop-color="#DDB531"/>
<stop offset="1" stop-color="#F7E07A"/>
</linearGradient>
<linearGradient id="paint27_linear_801_3832" x1="59.5538" y1="-21.3684" x2="95.1097" y2="118.974" gradientUnits="userSpaceOnUse">
<stop stop-color="#DDB531"/>
<stop offset="0.324052" stop-color="#F7E07A"/>
<stop offset="0.72203" stop-color="#DDB531"/>
<stop offset="1" stop-color="#F7E07A"/>
</linearGradient>
<linearGradient id="paint28_linear_801_3832" x1="59.5538" y1="-21.3684" x2="95.1097" y2="118.974" gradientUnits="userSpaceOnUse">
<stop stop-color="#DDB531"/>
<stop offset="0.324052" stop-color="#F7E07A"/>
<stop offset="0.72203" stop-color="#DDB531"/>
<stop offset="1" stop-color="#F7E07A"/>
</linearGradient>
<linearGradient id="paint29_linear_801_3832" x1="59.5538" y1="-21.3684" x2="95.1097" y2="118.974" gradientUnits="userSpaceOnUse">
<stop stop-color="#DDB531"/>
<stop offset="0.324052" stop-color="#F7E07A"/>
<stop offset="0.72203" stop-color="#DDB531"/>
<stop offset="1" stop-color="#F7E07A"/>
</linearGradient>
<linearGradient id="paint30_linear_801_3832" x1="59.5538" y1="-21.3684" x2="95.1097" y2="118.974" gradientUnits="userSpaceOnUse">
<stop stop-color="#DDB531"/>
<stop offset="0.324052" stop-color="#F7E07A"/>
<stop offset="0.72203" stop-color="#DDB531"/>
<stop offset="1" stop-color="#F7E07A"/>
</linearGradient>
<linearGradient id="paint31_linear_801_3832" x1="59.5538" y1="-21.3684" x2="95.1097" y2="118.974" gradientUnits="userSpaceOnUse">
<stop stop-color="#DDB531"/>
<stop offset="0.324052" stop-color="#F7E07A"/>
<stop offset="0.72203" stop-color="#DDB531"/>
<stop offset="1" stop-color="#F7E07A"/>
</linearGradient>
<linearGradient id="paint32_linear_801_3832" x1="59.5538" y1="-21.3684" x2="95.1097" y2="118.974" gradientUnits="userSpaceOnUse">
<stop stop-color="#DDB531"/>
<stop offset="0.324052" stop-color="#F7E07A"/>
<stop offset="0.72203" stop-color="#DDB531"/>
<stop offset="1" stop-color="#F7E07A"/>
</linearGradient>
<linearGradient id="paint33_linear_801_3832" x1="59.5538" y1="-21.3684" x2="95.1097" y2="118.974" gradientUnits="userSpaceOnUse">
<stop stop-color="#DDB531"/>
<stop offset="0.324052" stop-color="#F7E07A"/>
<stop offset="0.72203" stop-color="#DDB531"/>
<stop offset="1" stop-color="#F7E07A"/>
</linearGradient>
<clipPath id="clip0_801_3832">
<rect width="158" height="58" fill="white"/>
</clipPath>
</defs>
</svg>
