<svg width="16" height="10" viewBox="0 0 16 10" fill="none" xmlns="http://www.w3.org/2000/svg">
<mask id="path-1-inside-1_801_4119" fill="white">
<path fill-rule="evenodd" clip-rule="evenodd" d="M4.06507 0.966855L0.369871 4.59651C0.143115 4.81924 0.143115 5.18037 0.369871 5.4031L4.06507 9.03275C4.29183 9.25549 4.65948 9.25549 4.88623 9.03275C5.11299 8.81002 5.11299 8.4489 4.88623 8.22616L2.18225 5.57015H15.7998V4.42946H2.18225L4.88623 1.77344C5.11299 1.55071 5.11299 1.18959 4.88623 0.966855C4.65948 0.744121 4.29183 0.744121 4.06507 0.966855Z"/>
</mask>
<path d="M0.369871 4.59651L-1.03163 3.1697V3.1697L0.369871 4.59651ZM4.06507 0.966855L5.46658 2.39367L5.46658 2.39367L4.06507 0.966855ZM0.369871 5.4031L-1.03163 6.82991V6.82991L0.369871 5.4031ZM4.06507 9.03275L5.46658 7.60594L5.46658 7.60594L4.06507 9.03275ZM4.88623 8.22616L6.28773 6.79935L6.28773 6.79935L4.88623 8.22616ZM2.18225 5.57015L0.780748 6.99696L-2.70795 3.57015H2.18225V5.57015ZM15.7998 5.57015H17.7998V7.57015H15.7998V5.57015ZM15.7998 4.42946V2.42946H17.7998V4.42946H15.7998ZM2.18225 4.42946V6.42946H-2.70795L0.780748 3.00265L2.18225 4.42946ZM4.88623 1.77344L6.28773 3.20026L6.28773 3.20026L4.88623 1.77344ZM-1.03163 3.1697L2.66357 -0.459957L5.46658 2.39367L1.77137 6.02332L-1.03163 3.1697ZM-1.03163 6.82991C-2.05638 5.82334 -2.05638 4.17627 -1.03163 3.1697L1.77137 6.02332C2.34261 5.46221 2.34261 4.5374 1.77137 3.97629L-1.03163 6.82991ZM2.66357 10.4596L-1.03163 6.82991L1.77137 3.97629L5.46658 7.60594L2.66357 10.4596ZM6.28773 10.4596C5.28292 11.4466 3.66838 11.4466 2.66357 10.4596L5.46658 7.60594C4.91528 7.06442 4.03603 7.06442 3.48473 7.60594L6.28773 10.4596ZM6.28773 6.79935C7.31249 7.80593 7.31249 9.45299 6.28773 10.4596L3.48473 7.60594C2.91349 8.16705 2.91349 9.09187 3.48473 9.65298L6.28773 6.79935ZM3.58375 4.14334L6.28773 6.79935L3.48473 9.65298L0.780748 6.99696L3.58375 4.14334ZM15.7998 7.57015H2.18225V3.57015H15.7998V7.57015ZM17.7998 4.42946V5.57015H13.7998V4.42946H17.7998ZM2.18225 2.42946H15.7998V6.42946H2.18225V2.42946ZM6.28773 3.20026L3.58375 5.85627L0.780748 3.00265L3.48473 0.346633L6.28773 3.20026ZM6.28773 -0.459956C7.31249 0.546619 7.31249 2.19368 6.28773 3.20026L3.48473 0.346634C2.91349 0.907742 2.91349 1.83256 3.48473 2.39367L6.28773 -0.459956ZM2.66357 -0.459956C3.66838 -1.44694 5.28292 -1.44694 6.28773 -0.459956L3.48473 2.39367C4.03603 2.93518 4.91528 2.93518 5.46658 2.39367L2.66357 -0.459956Z" fill="#CAA21F" mask="url(#path-1-inside-1_801_4119)"/>
</svg>
