<svg width="137" height="19" viewBox="0 0 137 19" fill="none" xmlns="http://www.w3.org/2000/svg">
<path d="M8.86138 0.690982C9.16074 -0.230329 10.4641 -0.230327 10.7635 0.690984L12.3944 5.71024C12.5282 6.12226 12.9122 6.40122 13.3454 6.40122H18.623C19.5917 6.40122 19.9945 7.64084 19.2107 8.21024L14.9411 11.3123C14.5906 11.567 14.444 12.0183 14.5778 12.4303L16.2087 17.4496C16.5081 18.3709 15.4536 19.137 14.6699 18.5676L10.4002 15.4656C10.0497 15.2109 9.57514 15.2109 9.22466 15.4656L4.95502 18.5676C4.17131 19.137 3.11683 18.3709 3.41618 17.4496L5.04704 12.4303C5.18091 12.0183 5.03425 11.567 4.68376 11.3123L0.414131 8.21024C-0.369583 7.64083 0.0331947 6.40122 1.00192 6.40122H6.27947C6.7127 6.40122 7.09666 6.12226 7.23053 5.71024L8.86138 0.690982Z" fill="#CAA21F"/>
<path d="M38.2501 0.690982C38.5494 -0.230329 39.8528 -0.230327 40.1522 0.690984L41.783 5.71024C41.9169 6.12226 42.3009 6.40122 42.7341 6.40122H48.0116C48.9804 6.40122 49.3831 7.64084 48.5994 8.21024L44.3298 11.3123C43.9793 11.567 43.8326 12.0183 43.9665 12.4303L45.5974 17.4496C45.8967 18.3709 44.8422 19.137 44.0585 18.5676L39.7889 15.4656C39.4384 15.2109 38.9638 15.2109 38.6133 15.4656L34.3437 18.5676C33.56 19.137 32.5055 18.3709 32.8049 17.4496L34.4357 12.4303C34.5696 12.0183 34.4229 11.567 34.0724 11.3123L29.8028 8.21024C29.0191 7.64083 29.4219 6.40122 30.3906 6.40122H35.6681C36.1014 6.40122 36.4853 6.12226 36.6192 5.71024L38.2501 0.690982Z" fill="#CAA21F"/>
<path d="M67.2501 0.690982C67.5494 -0.230329 68.8528 -0.230327 69.1522 0.690984L70.783 5.71024C70.9169 6.12226 71.3009 6.40122 71.7341 6.40122H77.0116C77.9804 6.40122 78.3831 7.64084 77.5994 8.21024L73.3298 11.3123C72.9793 11.567 72.8326 12.0183 72.9665 12.4303L74.5974 17.4496C74.8967 18.3709 73.8422 19.137 73.0585 18.5676L68.7889 15.4656C68.4384 15.2109 67.9638 15.2109 67.6133 15.4656L63.3437 18.5676C62.56 19.137 61.5055 18.3709 61.8049 17.4496L63.4357 12.4303C63.5696 12.0183 63.4229 11.567 63.0724 11.3123L58.8028 8.21024C58.0191 7.64083 58.4219 6.40122 59.3906 6.40122H64.6681C65.1014 6.40122 65.4853 6.12226 65.6192 5.71024L67.2501 0.690982Z" fill="#CAA21F"/>
<path d="M96.2501 0.690982C96.5494 -0.230329 97.8528 -0.230327 98.1522 0.690984L99.783 5.71024C99.9169 6.12226 100.301 6.40122 100.734 6.40122H106.012C106.98 6.40122 107.383 7.64084 106.599 8.21024L102.33 11.3123C101.979 11.567 101.833 12.0183 101.967 12.4303L103.597 17.4496C103.897 18.3709 102.842 19.137 102.059 18.5676L97.7889 15.4656C97.4384 15.2109 96.9638 15.2109 96.6133 15.4656L92.3437 18.5676C91.56 19.137 90.5055 18.3709 90.8049 17.4496L92.4357 12.4303C92.5696 12.0183 92.4229 11.567 92.0724 11.3123L87.8028 8.21024C87.0191 7.64083 87.4219 6.40122 88.3906 6.40122H93.6681C94.1014 6.40122 94.4853 6.12226 94.6192 5.71024L96.2501 0.690982Z" fill="#CAA21F"/>
<path d="M128.783 5.71024L127.152 0.690984C127 0.223209 126.589 -0.00706413 126.183 0.000165048C125.788 0.00717417 125.397 0.237446 125.25 0.690982L123.619 5.71024C123.485 6.12226 123.101 6.40122 122.668 6.40122H117.391C116.422 6.40122 116.019 7.64084 116.803 8.21024L121.072 11.3123C121.423 11.567 121.57 12.0183 121.436 12.4303L119.805 17.4496C119.506 18.3709 120.56 19.137 121.344 18.5676L125.613 15.4656C125.783 15.3421 125.982 15.2785 126.183 15.2747C126.395 15.2708 126.608 15.3344 126.789 15.4656L131.059 18.5676C131.842 19.137 132.897 18.3709 132.597 17.4496L130.967 12.4303C130.833 12.0183 130.979 11.567 131.33 11.3123L135.599 8.21024C136.383 7.64084 135.98 6.40122 135.012 6.40122H129.734C129.301 6.40122 128.917 6.12226 128.783 5.71024Z" fill="#FFFFF0"/>
<path fill-rule="evenodd" clip-rule="evenodd" d="M126.183 0.000165048C125.788 0.00717417 125.397 0.237446 125.25 0.690982L123.619 5.71024C123.485 6.12226 123.101 6.40122 122.668 6.40122H117.391C116.422 6.40122 116.019 7.64084 116.803 8.21024L121.072 11.3123C121.423 11.567 121.57 12.0183 121.436 12.4303L119.805 17.4496C119.506 18.3709 120.56 19.137 121.344 18.5676L125.613 15.4656C125.783 15.3421 125.982 15.2785 126.183 15.2747V0.000165048Z" fill="#CAA21F"/>
</svg>
