<svg width="137" height="19" viewBox="0 0 137 19" fill="none" xmlns="http://www.w3.org/2000/svg">
<path d="M8.86138 0.80939C9.16074 -0.11192 10.4641 -0.111919 10.7635 0.809392L12.3944 5.82865C12.5282 6.24067 12.9122 6.51963 13.3454 6.51963H18.623C19.5917 6.51963 19.9945 7.75924 19.2107 8.32865L14.9411 11.4307C14.5906 11.6854 14.444 12.1367 14.5778 12.5487L16.2087 17.568C16.5081 18.4893 15.4536 19.2554 14.6699 18.686L10.4002 15.584C10.0497 15.3293 9.57514 15.3293 9.22466 15.584L4.95502 18.686C4.17131 19.2554 3.11683 18.4893 3.41618 17.568L5.04704 12.5487C5.18091 12.1367 5.03425 11.6854 4.68376 11.4307L0.414131 8.32864C-0.369583 7.75924 0.0331947 6.51963 1.00192 6.51963H6.27947C6.7127 6.51963 7.09666 6.24067 7.23053 5.82865L8.86138 0.80939Z" fill="#F7E07A"/>
<path d="M38.2481 0.80939C38.5475 -0.11192 39.8509 -0.111919 40.1502 0.809392L41.7811 5.82865C41.9149 6.24067 42.2989 6.51963 42.7321 6.51963H48.0097C48.9784 6.51963 49.3812 7.75924 48.5975 8.32865L44.3278 11.4307C43.9773 11.6854 43.8307 12.1367 43.9646 12.5487L45.5954 17.568C45.8948 18.4893 44.8403 19.2554 44.0566 18.686L39.7869 15.584C39.4365 15.3293 38.9619 15.3293 38.6114 15.584L34.3417 18.686C33.558 19.2554 32.5035 18.4893 32.8029 17.568L34.4338 12.5487C34.5676 12.1367 34.421 11.6854 34.0705 11.4307L29.8008 8.32864C29.0171 7.75924 29.4199 6.51963 30.3886 6.51963H35.6662C36.0994 6.51963 36.4834 6.24067 36.6172 5.82865L38.2481 0.80939Z" fill="#F7E07A"/>
<path d="M67.2481 0.80939C67.5475 -0.11192 68.8509 -0.111919 69.1502 0.809392L70.7811 5.82865C70.9149 6.24067 71.2989 6.51963 71.7321 6.51963H77.0097C77.9784 6.51963 78.3812 7.75924 77.5975 8.32865L73.3278 11.4307C72.9773 11.6854 72.8307 12.1367 72.9646 12.5487L74.5954 17.568C74.8948 18.4893 73.8403 19.2554 73.0566 18.686L68.7869 15.584C68.4365 15.3293 67.9619 15.3293 67.6114 15.584L63.3417 18.686C62.558 19.2554 61.5035 18.4893 61.8029 17.568L63.4338 12.5487C63.5676 12.1367 63.421 11.6854 63.0705 11.4307L58.8008 8.32864C58.0171 7.75924 58.4199 6.51963 59.3886 6.51963H64.6662C65.0994 6.51963 65.4834 6.24067 65.6172 5.82865L67.2481 0.80939Z" fill="#F7E07A"/>
<path d="M96.2481 0.80939C96.5475 -0.11192 97.8509 -0.111919 98.1502 0.809392L99.7811 5.82865C99.9149 6.24067 100.299 6.51963 100.732 6.51963H106.01C106.978 6.51963 107.381 7.75924 106.597 8.32865L102.328 11.4307C101.977 11.6854 101.831 12.1367 101.965 12.5487L103.595 17.568C103.895 18.4893 102.84 19.2554 102.057 18.686L97.7869 15.584C97.4365 15.3293 96.9619 15.3293 96.6114 15.584L92.3417 18.686C91.558 19.2554 90.5035 18.4893 90.8029 17.568L92.4338 12.5487C92.5676 12.1367 92.421 11.6854 92.0705 11.4307L87.8008 8.32864C87.0171 7.75924 87.4199 6.51963 88.3886 6.51963H93.6662C94.0994 6.51963 94.4834 6.24067 94.6172 5.82865L96.2481 0.80939Z" fill="#F7E07A"/>
<path d="M128.781 5.82865L127.15 0.809392C126.998 0.341617 126.587 0.111344 126.181 0.118573C125.786 0.125582 125.395 0.355855 125.248 0.80939L123.617 5.82865C123.483 6.24067 123.099 6.51963 122.666 6.51963H117.389C116.42 6.51963 116.017 7.75924 116.801 8.32864L121.07 11.4307C121.421 11.6854 121.568 12.1367 121.434 12.5487L119.803 17.568C119.504 18.4893 120.558 19.2554 121.342 18.686L125.611 15.584C125.781 15.4605 125.981 15.3969 126.181 15.3932C126.393 15.3892 126.606 15.4528 126.787 15.584L131.057 18.686C131.84 19.2554 132.895 18.4893 132.595 17.568L130.965 12.5487C130.831 12.1367 130.977 11.6854 131.328 11.4307L135.597 8.32865C136.381 7.75924 135.978 6.51963 135.01 6.51963H129.732C129.299 6.51963 128.915 6.24067 128.781 5.82865Z" fill="#A5A9AE"/>
<path fill-rule="evenodd" clip-rule="evenodd" d="M126.181 0.118573C125.786 0.125582 125.395 0.355855 125.248 0.80939L123.617 5.82865C123.483 6.24067 123.099 6.51963 122.666 6.51963H117.389C116.42 6.51963 116.017 7.75924 116.801 8.32864L121.07 11.4307C121.421 11.6854 121.568 12.1367 121.434 12.5487L119.803 17.568C119.504 18.4893 120.558 19.2554 121.342 18.686L125.611 15.584C125.781 15.4605 125.981 15.3969 126.181 15.3932V0.118573Z" fill="#F7E07A"/>
</svg>
