<svg width="23" height="12" viewBox="0 0 23 12" fill="none" xmlns="http://www.w3.org/2000/svg">
<path d="M17.3012 0.238643L22.7493 5.42386C23.0836 5.74205 23.0836 6.25794 22.7493 6.57614L17.3012 11.7614C16.9669 12.0795 16.4248 12.0795 16.0905 11.7614C15.7562 11.4432 15.7562 10.9273 16.0905 10.6091L20.0772 6.81478H2.92284L6.90947 10.6091C7.24379 10.9273 7.24379 11.4432 6.90947 11.7614C6.57516 12.0795 6.03312 12.0795 5.6988 11.7614L0.25074 6.57614C-0.0835793 6.25794 -0.0835793 5.74205 0.25074 5.42386L5.6988 0.238643C6.03312 -0.0795478 6.57516 -0.0795478 6.90947 0.238643C7.24379 0.556834 7.24379 1.07272 6.90947 1.39091L2.92284 5.18522H20.0772L16.0905 1.39091C15.7562 1.07272 15.7562 0.556834 16.0905 0.238643C16.4248 -0.0795478 16.9669 -0.0795478 17.3012 0.238643Z" fill="#F1F1F1"/>
</svg>
