<svg width="20" height="20" viewBox="0 0 20 20" fill="none" xmlns="http://www.w3.org/2000/svg">
<path d="M10 0C7.34786 0 4.80445 1.05356 2.92892 2.92892C1.0536 4.80441 0 7.34814 0 10C0 12.6519 1.05356 15.1956 2.92892 17.0711C4.80441 18.9464 7.34814 20 10 20C12.6519 20 15.1956 18.9464 17.0711 17.0711C18.9464 15.1956 20 12.6519 20 10C19.9971 7.34867 18.9428 4.8069 17.0679 2.93219C15.1932 1.05731 12.651 0.00285717 10 0Z" fill="#F7E07A"/>
<path fill-rule="evenodd" clip-rule="evenodd" d="M15.0196 9.58842C14.7983 9.58842 14.6086 9.77837 14.6086 10C14.6086 10.2216 14.7984 10.4116 15.0355 10.4116H15.9999C15.9051 11.8365 15.3043 13.1188 14.3873 14.1003L13.7075 13.4196C13.6126 13.3404 13.4861 13.3404 13.407 13.4196C13.328 13.4987 13.328 13.6253 13.407 13.7045L14.0868 14.3852C13.1066 15.3034 11.8259 15.905 10.403 16V15.0343C10.403 14.7969 10.2133 14.6227 9.99199 14.6227C9.77064 14.6227 9.58095 14.7969 9.58095 15.0343V16C8.15796 15.8891 6.87736 15.3034 5.89714 14.3852L6.57693 13.7045C6.65601 13.6254 6.65601 13.4988 6.57693 13.4196C6.49797 13.3404 6.37148 13.3404 6.2924 13.4196L5.61262 14.1003C4.69562 13.1188 4.09478 11.8363 3.99993 10.4116H4.96436C5.20148 10.4116 5.3754 10.2216 5.3754 10C5.3754 9.77836 5.20147 9.58842 4.96436 9.58842H3.99993C4.11066 8.16354 4.69562 6.88124 5.61262 5.89973L6.2924 6.58041C6.32394 6.6279 6.38725 6.64369 6.43467 6.64369C6.48209 6.64369 6.54529 6.6279 6.57694 6.58041C6.65601 6.50135 6.65601 6.37469 6.57694 6.29551L5.89715 5.61482C6.87733 4.69661 8.15808 4.09497 9.58095 4V4.96571C9.58095 5.20314 9.77064 5.37729 9.99199 5.37729C10.2133 5.37729 10.403 5.20313 10.403 4.96571V4C11.8101 4.11088 13.1066 4.69661 14.0868 5.61482L13.4071 6.29551C13.328 6.37457 13.328 6.50124 13.4071 6.58041C13.4386 6.6279 13.5019 6.64369 13.5493 6.64369C13.5967 6.64369 13.6442 6.6279 13.6916 6.58041L14.3714 5.89973C15.2884 6.88121 15.8892 8.16366 15.9841 9.58842H15.0196ZM10.5611 10.4116H13.2331C13.4545 10.4116 13.6283 10.2058 13.6282 9.98408C13.6282 9.76244 13.4543 9.5725 13.2172 9.5725H10.5611C10.514 9.5725 10.4669 9.58818 10.4198 9.60386L10.4188 9.60419C10.3556 9.5408 10.2766 9.47752 10.1817 9.44583V6.72285C10.1817 6.61198 10.0869 6.51701 9.97616 6.51701C9.86544 6.51701 9.7706 6.61198 9.7706 6.72285L9.77071 9.46175C9.54938 9.55685 9.39123 9.76257 9.39123 10.0159C9.39123 10.3483 9.66 10.6016 9.97618 10.6016C10.1807 10.6027 10.3781 10.461 10.3999 10.4C10.4023 10.4005 10.4047 10.4009 10.407 10.4013C10.4516 10.4098 10.4793 10.415 10.5611 10.4116Z" fill="#3B3F4A"/>
</svg>
