<svg width="21" height="20" viewBox="0 0 21 20" fill="none" xmlns="http://www.w3.org/2000/svg">
<path fill-rule="evenodd" clip-rule="evenodd" d="M3.25705 2.92892C5.13257 1.05356 7.67598 0 10.3281 0C12.9792 0.00285717 15.5213 1.05731 17.396 2.93219C19.2709 4.8069 20.3253 7.34867 20.3281 10C20.3281 12.6519 19.2745 15.1956 17.3992 17.0711C15.5237 18.9464 12.98 20 10.3281 20C7.67627 20 5.13253 18.9464 3.25705 17.0711C1.38168 15.1956 0.328125 12.6519 0.328125 10C0.328125 7.34814 1.38173 4.80441 3.25705 2.92892ZM15.3477 9.58842C15.1264 9.58842 14.9367 9.77837 14.9367 10C14.9367 10.2216 15.1265 10.4116 15.3636 10.4116H16.3281C16.2332 11.8365 15.6324 13.1188 14.7154 14.1003L14.0356 13.4196C13.9407 13.3404 13.8142 13.3404 13.7352 13.4196C13.6561 13.4987 13.6561 13.6253 13.7352 13.7045L14.415 14.3852C13.4348 15.3034 12.154 15.905 10.7312 16V15.0343C10.7312 14.7969 10.5415 14.6227 10.3201 14.6227C10.0988 14.6227 9.90907 14.7969 9.90907 15.0343V16C8.48609 15.8891 7.20548 15.3034 6.22527 14.3852L6.90506 13.7045C6.98413 13.6254 6.98413 13.4988 6.90506 13.4196C6.82609 13.3404 6.6996 13.3404 6.62053 13.4196L5.94074 14.1003C5.02374 13.1188 4.4229 11.8363 4.32806 10.4116H5.29249C5.52961 10.4116 5.70353 10.2216 5.70353 10C5.70353 9.77836 5.5296 9.58842 5.29249 9.58842H4.32806C4.43879 8.16354 5.02374 6.88124 5.94074 5.89973L6.62053 6.58041C6.65207 6.6279 6.71537 6.64369 6.76279 6.64369C6.81022 6.64369 6.87341 6.6279 6.90506 6.58041C6.98414 6.50135 6.98414 6.37469 6.90506 6.29551L6.22528 5.61482C7.20546 4.69661 8.48621 4.09497 9.90908 4V4.96571C9.90908 5.20314 10.0988 5.37729 10.3201 5.37729C10.5415 5.37729 10.7312 5.20313 10.7312 4.96571V4C12.1382 4.11088 13.4348 4.69661 14.415 5.61482L13.7352 6.29551C13.6561 6.37457 13.6561 6.50124 13.7352 6.58041C13.7667 6.6279 13.83 6.64369 13.8774 6.64369C13.9249 6.64369 13.9723 6.6279 14.0197 6.58041L14.6995 5.89973C15.6165 6.88121 16.2173 8.16366 16.3122 9.58842H15.3477ZM13.5612 10.4116H10.8893C10.8074 10.415 10.7797 10.4098 10.7351 10.4013L10.7281 10.4C10.7063 10.461 10.5088 10.6027 10.3043 10.6016C9.98813 10.6016 9.71935 10.3483 9.71935 10.0159C9.71935 9.76257 9.8775 9.55685 10.0988 9.46175L10.0987 6.72285C10.0987 6.61198 10.1936 6.51701 10.3043 6.51701C10.415 6.51701 10.5099 6.61198 10.5099 6.72285V9.44583C10.6047 9.47752 10.6838 9.5408 10.747 9.60419L10.748 9.60386C10.7951 9.58818 10.8421 9.5725 10.8892 9.5725H13.5453C13.7824 9.5725 13.9563 9.76244 13.9563 9.98408C13.9565 10.2058 13.7826 10.4116 13.5612 10.4116Z" fill="#CAA21F"/>
</svg>
