<svg width="30" height="30" viewBox="0 0 30 30" fill="none" xmlns="http://www.w3.org/2000/svg">
<path d="M17.3387 19.0194C17.7471 18.8514 18.0946 18.5924 18.3265 18.2179C18.6442 17.7055 18.6484 17.3499 18.1279 16.9712C17.9934 16.874 17.86 16.7756 17.7266 16.6772C17.5196 16.5246 17.3127 16.372 17.1018 16.2243C16.5743 15.8539 16.0034 15.7895 15.6092 16.4385C15.5936 16.4637 15.5714 16.486 15.5496 16.508C15.5436 16.514 15.5376 16.5199 15.5319 16.526C15.3305 16.7367 15.0823 16.7899 14.8192 16.6828C13.8201 16.2768 13.0478 15.6222 12.5827 14.6471C12.3096 14.0738 12.3848 13.7861 12.8975 13.4053C12.9478 13.3682 12.9968 13.329 13.0429 13.287C13.2677 13.0847 13.3272 12.8439 13.1953 12.5716C12.894 11.9514 12.4933 11.3984 11.987 10.921C11.804 10.748 11.5856 10.6619 11.3389 10.7158C10.6936 10.8559 10.0547 11.3186 10.0362 12.1411C10.0425 12.1783 10.0463 12.2165 10.0501 12.2546C10.058 12.3333 10.0659 12.412 10.0951 12.4827C10.1486 12.612 10.2003 12.7422 10.2521 12.8726C10.4042 13.2552 10.5564 13.6382 10.7531 13.9975C12.0338 16.3349 13.9704 17.9617 16.4409 18.9935C16.7352 19.1167 17.0401 19.1426 17.3387 19.0194Z" fill="#F1F1F1"/>
<path d="M14.966 11.5321C15.0965 11.5104 15.2298 11.4999 15.3624 11.4999C16.6707 11.4999 17.7351 12.5506 17.7351 13.8428C17.7351 13.9744 17.7244 14.106 17.7025 14.2334C17.6656 14.4511 17.8145 14.6569 18.035 14.694C18.0577 14.6982 18.0804 14.6996 18.1024 14.6996C18.2967 14.6996 18.4683 14.561 18.5016 14.3657C18.5307 14.1942 18.5456 14.0178 18.5456 13.8421C18.5456 12.1096 17.1174 10.6997 15.3624 10.6997C15.1851 10.6997 15.0064 10.7144 14.8327 10.7424C14.6114 10.7788 14.4625 10.9854 14.4994 11.2031C14.5363 11.4215 14.7447 11.5692 14.966 11.5321Z" fill="#F1F1F1"/>
<path d="M16.7225 14.4994C16.9458 14.4994 17.1274 14.3202 17.1274 14.0997C17.1274 12.9972 16.2183 12.0998 15.1021 12.1005C14.8788 12.1005 14.6972 12.2797 14.6972 12.5002C14.6972 12.7207 14.8788 12.8999 15.1021 12.8999C15.7723 12.8999 16.3176 13.4382 16.3176 14.0997C16.3176 14.3202 16.4991 14.4994 16.7225 14.4994Z" fill="#F1F1F1"/>
<path d="M19.4596 14.8991C19.6454 14.8991 19.8121 14.7738 19.8546 14.5876C19.927 14.2747 19.9638 13.9513 19.9638 13.6265C19.9638 11.2409 17.9975 9.29972 15.5808 9.29972C15.2518 9.29972 14.9241 9.33542 14.6065 9.40752C14.3881 9.45582 14.2512 9.67003 14.3008 9.88563C14.3498 10.1012 14.5682 10.237 14.7852 10.1873C15.044 10.1292 15.3106 10.0998 15.5794 10.0998C17.55 10.0998 19.1526 11.6826 19.1526 13.6272C19.1526 13.8918 19.1228 14.1557 19.064 14.4112C19.0143 14.6261 19.1512 14.8403 19.3696 14.8893C19.3994 14.8956 19.4299 14.8991 19.4596 14.8991Z" fill="#F1F1F1"/>
<path fill-rule="evenodd" clip-rule="evenodd" d="M15 30C23.2843 30 30 23.2843 30 15C30 6.71573 23.2843 0 15 0C6.71573 0 0 6.71573 0 15C0 23.2843 6.71573 30 15 30ZM20.6424 8.52201C21.4842 9.09392 22.0578 9.90243 22.3479 10.9238C22.774 12.4281 22.8974 14.0913 22.7244 16.0079C22.6258 17.0979 22.3621 18.0597 21.9189 18.9473C21.4941 19.7978 20.7864 20.432 19.817 20.8317C18.7576 21.2678 17.633 21.3603 16.6622 21.4128C15.8609 21.4555 15.0546 21.4856 14.2654 21.501C14.2221 21.5018 14.1969 21.5023 14.1748 21.511C14.1442 21.5229 14.1197 21.5505 14.0612 21.6165L11.7516 23.8341C11.6409 23.9405 11.4927 24 11.3382 24C11.0105 24 10.7453 23.7382 10.7453 23.4148V20.9437C10.6227 20.8905 10.4823 20.8401 10.3362 20.789C10.044 20.6868 9.74336 20.5811 9.50722 20.4348C8.58254 19.8608 7.95993 18.9865 7.60396 17.7636C7.23806 16.5092 7.12247 15.1553 7.25011 13.6258C7.30542 12.9643 7.40044 12.2706 7.54227 11.5034C7.83371 9.92273 8.78818 8.75511 10.3787 8.0341C11.1907 7.66589 12.0799 7.43769 13.2613 7.29488C14.5207 7.14298 15.8432 7.17308 17.3032 7.38798C18.3584 7.54339 19.5802 7.79959 20.6424 8.52201Z" fill="#F1F1F1"/>
</svg>
