<svg width="30" height="30" viewBox="0 0 30 30" fill="none" xmlns="http://www.w3.org/2000/svg">
<path d="M12.3699 11.3615C12.3566 11.3615 12.3434 11.3615 12.3302 11.3615C12.2002 11.3615 11.9916 11.409 11.8135 11.6027C11.8013 11.6163 11.7875 11.6311 11.7724 11.6473C11.5714 11.8639 11.1394 12.3292 11.1394 13.215C11.1394 14.164 11.8296 15.084 11.9265 15.2107C11.9337 15.2204 11.9472 15.2405 11.9668 15.2697C12.2116 15.6332 13.409 17.4115 15.2285 18.1281C16.7032 18.7087 17.1161 18.6597 17.4457 18.6205C17.4803 18.6164 17.514 18.6124 17.548 18.6093C17.9016 18.5787 18.6899 18.1431 18.8505 17.6927C19.011 17.2416 19.011 16.8548 18.9609 16.7735C18.9217 16.7103 18.8319 16.6669 18.6975 16.602C18.6648 16.5861 18.6294 16.5691 18.5915 16.5501C18.3978 16.4532 17.448 15.9854 17.2699 15.9217C17.0944 15.858 16.965 15.8245 16.8383 16.0182C16.7083 16.2119 16.3401 16.6468 16.2251 16.7735C16.1133 16.9035 16.0011 16.9186 15.8074 16.8218C15.7757 16.8059 15.7324 16.7872 15.679 16.7641C15.4065 16.6462 14.8703 16.4143 14.2535 15.8633C13.6796 15.3524 13.2913 14.7195 13.1795 14.5265C13.0677 14.3334 13.1677 14.2272 13.2646 14.1304C13.3233 14.0738 13.3903 13.9928 13.4573 13.9119C13.4903 13.872 13.5233 13.8321 13.5553 13.7952C13.6379 13.6936 13.6734 13.6204 13.7244 13.5152C13.7312 13.5013 13.7382 13.4867 13.7457 13.4715C13.8127 13.3447 13.7786 13.2306 13.7305 13.1338C13.7106 13.0938 13.6348 12.907 13.5406 12.6747C13.4069 12.3451 13.2361 11.9239 13.1351 11.7005C12.9901 11.38 12.8387 11.3699 12.6996 11.3666C12.5989 11.3614 12.4839 11.3614 12.3699 11.3615Z" fill="#F1F1F1"/>
<path fill-rule="evenodd" clip-rule="evenodd" d="M15 30C23.2843 30 30 23.2843 30 15C30 6.71573 23.2843 0 15 0C6.71573 0 0 6.71573 0 15C0 23.2843 6.71573 30 15 30ZM7.2 15C7.2 10.6924 10.6924 7.2 15 7.2C19.3076 7.2 22.8 10.6924 22.8 15C22.8 19.3076 19.3076 22.8 15 22.8C13.6002 22.8 12.2891 22.4263 11.1533 21.7806L7.26982 22.8L8.31211 18.9978C7.61102 17.8275 7.2 16.4633 7.2 15Z" fill="#F1F1F1"/>
</svg>
